<?xml version="1.0" encoding="UTF-8" standalone="no"?>
<svg xmlns:xlink="http://www.w3.org/1999/xlink" height="8.05px" width="72.5px" xmlns="http://www.w3.org/2000/svg">
  <g transform="matrix(1.0, 0.0, 0.0, 1.0, 36.75, -3.7)">
    <path d="M34.15 11.75 L25.75 11.75 22.7 11.4 16.35 11.1 Q15.4 10.75 15.5 9.8 L15.8 8.45 Q15.9 7.25 15.5 6.7 15.15 6.15 15.15 5.85 15.15 4.8 19.3 4.75 19.3 4.65 26.05 4.65 L35.05 4.75 Q35.5 5.1 35.5 5.6 L35.5 7.25 35.75 10.5 35.6 11.25 Q35.3 11.6 34.15 11.75 M-16.95 6.45 L-16.9 9.35 -16.95 10.15 Q-17.15 10.7 -17.75 10.75 L-34.75 10.75 Q-36.75 10.8 -36.75 9.65 L-36.5 5.75 -36.6 4.75 Q-36.6 4.0 -36.0 3.75 L-29.35 3.75 -18.0 3.9 Q-17.15 4.6 -16.95 6.45" fill="#185649" fill-rule="evenodd" stroke="none"/>
  </g>
</svg>
