<?xml version="1.0" encoding="UTF-8" standalone="no"?>
<svg xmlns:xlink="http://www.w3.org/1999/xlink" height="27.3px" width="76.8px" xmlns="http://www.w3.org/2000/svg">
  <g transform="matrix(1.0, 0.0, 0.0, 1.0, 38.15, 10.65)">
    <path d="M15.25 -3.05 Q16.05 -4.65 17.4 -6.0 19.9 -8.6 23.5 -9.4 L28.35 -9.65 Q31.25 -9.25 33.0 -7.75 L35.0 -5.9 36.35 -4.15 Q38.65 -1.65 38.65 2.75 38.65 8.25 34.45 12.25 30.7 15.9 26.6 15.9 17.9 15.9 14.75 10.35 13.25 7.7 13.25 4.05 13.25 0.55 15.25 -2.95 L15.25 -3.05 M22.25 -6.65 Q18.95 -4.9 17.25 -1.6 16.15 0.5 15.95 2.65 L15.95 2.7 Q15.95 5.05 16.8 7.1 L17.9 8.85 Q21.05 13.15 27.2 13.15 L29.05 13.0 Q30.1 12.65 31.2 11.8 L31.6 11.4 32.0 11.1 32.05 11.05 Q33.8 9.35 34.35 7.85 35.9 3.75 35.9 2.4 35.9 1.05 35.35 -0.1 L35.35 -0.15 34.9 -1.65 Q34.4 -2.7 33.6 -3.15 L33.4 -3.35 Q31.85 -5.45 28.65 -6.25 L24.65 -7.0 Q24.4 -6.8 24.0 -6.75 L22.25 -6.65 M-31.8 -4.6 L-34.35 -1.65 Q-35.75 0.5 -35.75 4.2 -35.75 7.4 -34.8 9.15 -32.55 13.4 -25.5 13.4 -23.75 13.4 -22.0 12.6 L-21.6 12.45 -20.45 11.4 -18.75 9.7 -17.2 6.95 -16.65 4.75 -16.65 2.65 Q-16.65 1.25 -16.9 0.05 L-17.4 -0.9 -18.1 -2.05 -19.4 -5.15 -19.15 -4.0 Q-21.6 -6.25 -26.15 -6.5 L-26.35 -6.4 -26.75 -6.65 -27.5 -6.65 -29.75 -5.25 -31.5 -4.75 -31.8 -4.6 M-34.6 -4.9 Q-31.9 -8.25 -28.0 -8.75 -24.65 -10.15 -20.6 -7.95 -16.85 -5.95 -16.05 -3.4 L-16.0 -3.3 -15.85 -2.95 Q-15.1 -2.6 -14.75 -1.5 -14.25 -0.3 -14.25 2.0 -14.25 3.35 -14.6 4.8 -15.1 9.8 -18.55 13.15 -22.2 16.65 -26.85 16.65 -31.3 16.65 -33.85 14.0 -35.65 12.8 -36.75 10.85 -38.15 8.35 -38.15 5.3 -38.15 1.4 -36.55 -1.85 -35.85 -3.6 -34.6 -4.9" fill="#185649" fill-rule="evenodd" stroke="none"/>
    <path d="M-31.8 -4.6 L-31.5 -4.75 -29.75 -5.25 -27.5 -6.65 -26.75 -6.65 -26.35 -6.4 -26.15 -6.5 Q-21.6 -6.25 -19.15 -4.0 L-19.4 -5.15 -18.1 -2.05 -17.4 -0.9 -16.9 0.05 Q-16.65 1.25 -16.65 2.65 L-16.65 4.75 -17.2 6.95 -18.75 9.7 -20.45 11.4 -21.6 12.45 -22.0 12.6 Q-23.75 13.4 -25.5 13.4 -32.55 13.4 -34.8 9.15 -35.75 7.4 -35.75 4.2 -35.75 0.5 -34.35 -1.65 L-31.8 -4.6 M22.25 -6.65 L24.0 -6.75 Q24.4 -6.8 24.65 -7.0 L28.65 -6.25 Q31.85 -5.45 33.4 -3.35 L33.6 -3.15 Q34.4 -2.7 34.9 -1.65 L35.35 -0.15 35.35 -0.1 Q35.9 1.05 35.9 2.4 35.9 3.75 34.35 7.85 33.8 9.35 32.05 11.05 L32.0 11.1 31.6 11.4 31.2 11.8 Q30.1 12.65 29.05 13.0 L27.2 13.15 Q21.05 13.15 17.9 8.85 L16.8 7.1 Q15.95 5.05 15.95 2.7 L15.95 2.65 Q16.15 0.5 17.25 -1.6 18.95 -4.9 22.25 -6.65" fill="#ffffff" fill-rule="evenodd" stroke="none"/>
    <path d="M17.65 -9.55 Q17.95 -9.0 19.15 -8.25 20.15 -7.65 20.15 -7.15 L19.85 -6.5 Q19.55 -6.25 19.25 -6.25 18.85 -6.25 17.8 -6.8 L16.4 -7.75 Q15.75 -8.35 15.75 -9.4 15.75 -10.45 16.35 -10.6 17.0 -10.8 17.65 -9.55 M-33.5 -9.55 L-33.1 -8.65 Q-32.7 -7.95 -31.5 -7.5 L-31.15 -7.25 Q-31.0 -7.05 -31.0 -6.65 -31.0 -6.15 -31.5 -5.9 L-32.1 -5.75 Q-33.45 -5.75 -34.45 -7.25 L-35.15 -8.7 Q-35.15 -10.35 -33.5 -9.55" fill="#185649" fill-rule="evenodd" stroke="none"/>
  </g>
</svg>
