<?xml version="1.0" encoding="UTF-8" standalone="no"?>
<svg xmlns:xlink="http://www.w3.org/1999/xlink" height="9.15px" width="77.65px" xmlns="http://www.w3.org/2000/svg">
  <g transform="matrix(1.0, 0.0, 0.0, 1.0, 39.35, -3.15)">
    <path d="M38.3 7.35 Q38.3 8.25 37.7 8.8 37.15 9.3 36.4 9.3 L33.95 8.2 Q31.5 7.05 28.4 7.05 22.95 7.05 19.4 9.7 16.8 12.3 15.9 12.3 14.55 12.3 14.15 11.3 L14.05 10.25 Q14.05 7.5 17.85 5.55 21.2 3.8 26.2 3.3 31.05 2.8 34.5 3.8 38.3 4.9 38.3 7.35 M-15.75 10.8 Q-16.3 11.3 -17.0 11.3 L-20.95 9.7 Q-24.75 8.05 -27.75 8.05 -32.35 8.05 -34.45 8.95 L-37.0 9.8 Q-38.8 9.8 -39.25 9.05 L-39.35 8.1 Q-39.35 6.65 -37.75 6.0 -36.35 5.45 -30.5 4.3 -28.3 2.9 -21.75 4.8 -15.1 6.8 -15.1 9.35 -15.1 10.25 -15.75 10.8" fill="#185649" fill-rule="evenodd" stroke="none"/>
    <path d="M13.7 5.2 L13.9 5.0 Q15.15 5.0 16.6 6.05 L18.15 7.65 18.05 8.5 17.85 9.0 16.9 9.25 Q15.9 9.25 14.7 7.65 13.65 6.3 13.65 5.9 L13.7 5.2 M-35.0 7.75 Q-36.5 7.75 -37.35 6.25 -38.2 4.8 -37.75 3.55 -36.45 3.55 -35.15 4.4 -33.75 5.2 -33.75 6.1 -33.75 7.35 -33.85 7.25 L-34.0 7.5 -35.0 7.75" fill="#185649" fill-rule="evenodd" stroke="none"/>
  </g>
</svg>
