<?xml version="1.0" encoding="UTF-8" standalone="no"?>
<svg xmlns:xlink="http://www.w3.org/1999/xlink" height="53.9px" width="87.55px" xmlns="http://www.w3.org/2000/svg">
  <g transform="matrix(1.0, 0.0, 0.0, 1.0, 43.8, 28.15)">
    <path d="M26.5 -25.25 L29.8 -10.1 30.45 -8.45 30.65 -8.05 31.9 -6.65 Q35.85 -3.15 43.75 -1.25 L43.35 -1.2 43.75 -1.15 Q35.85 0.75 31.9 4.25 L30.65 5.6 30.4 6.2 30.25 6.6 26.25 25.75 22.1 6.15 21.85 5.6 20.65 4.3 Q16.7 0.75 8.7 -1.15 L9.15 -1.2 8.7 -1.25 Q16.65 -3.1 20.55 -6.55 L21.85 -8.05 22.1 -8.45 22.55 -9.7 22.8 -10.3 Q24.95 -16.65 25.9 -23.85 L26.0 -24.7 26.25 -28.15 26.4 -26.65 26.5 -25.25" fill="#ff88f3" fill-rule="evenodd" stroke="none"/>
    <path d="M13.4 -1.2 L13.05 -1.25 Q19.0 -2.65 21.95 -5.3 L22.9 -6.4 23.1 -6.75 23.45 -7.7 23.6 -8.15 Q25.25 -13.0 25.9 -18.5 L26.0 -19.15 26.2 -21.75 26.3 -20.65 26.4 -19.55 28.85 -8.0 29.35 -6.75 29.5 -6.4 30.45 -5.35 Q33.4 -2.7 39.35 -1.25 L39.05 -1.2 39.35 -1.15 Q33.4 0.3 30.45 2.95 L29.5 4.0 29.3 4.45 29.2 4.75 26.2 19.35 23.1 4.4 22.9 4.0 22.0 3.0 Q19.05 0.3 13.05 -1.15 L13.4 -1.2" fill="#ffffff" fill-rule="evenodd" stroke="none"/>
    <path d="M-43.35 -1.2 L-43.8 -1.25 Q-35.85 -3.1 -31.95 -6.55 L-30.65 -8.05 -30.4 -8.45 -29.95 -9.7 -29.7 -10.3 Q-27.55 -16.65 -26.6 -23.85 L-26.5 -24.7 -26.25 -28.15 -26.1 -26.65 -26.0 -25.25 -22.7 -10.1 -22.05 -8.45 -21.85 -8.05 -20.6 -6.65 Q-16.65 -3.15 -8.75 -1.25 L-9.15 -1.2 -8.75 -1.15 Q-16.65 0.75 -20.6 4.25 L-21.85 5.6 -22.1 6.2 -22.25 6.6 -26.25 25.75 -30.4 6.15 -30.65 5.6 -31.85 4.3 Q-35.8 0.75 -43.8 -1.15 L-43.35 -1.2" fill="#ff88f3" fill-rule="evenodd" stroke="none"/>
    <path d="M-26.5 -19.15 L-26.3 -21.75 -26.2 -20.65 -26.1 -19.55 -23.65 -8.0 -23.15 -6.75 -23.0 -6.4 -22.05 -5.35 Q-19.1 -2.7 -13.15 -1.25 L-13.45 -1.2 -13.15 -1.15 Q-19.1 0.3 -22.05 2.95 L-23.0 4.0 -23.2 4.45 -23.3 4.75 -26.3 19.35 -29.4 4.4 -29.6 4.0 -30.5 3.0 Q-33.45 0.3 -39.45 -1.15 L-39.1 -1.2 -39.45 -1.25 Q-33.5 -2.65 -30.55 -5.3 L-29.6 -6.4 -29.4 -6.75 -29.05 -7.7 -28.9 -8.15 Q-27.25 -13.0 -26.6 -18.5 L-26.5 -19.15" fill="#ffffff" fill-rule="evenodd" stroke="none"/>
  </g>
</svg>
