<?xml version="1.0" encoding="UTF-8" standalone="no"?>
<svg xmlns:xlink="http://www.w3.org/1999/xlink" height="25.4px" width="77.9px" xmlns="http://www.w3.org/2000/svg">
  <g transform="matrix(1.0, 0.0, 0.0, 1.0, 38.9, 13.85)">
    <path d="M15.25 -12.2 L15.0 -12.55 Q21.0 -8.25 25.15 -7.4 L26.7 -7.25 27.05 -7.3 27.9 -7.55 28.35 -7.7 Q32.75 -9.3 36.8 -12.05 L37.25 -12.4 39.0 -13.85 38.4 -13.05 37.8 -12.35 32.8 -3.05 32.5 -1.85 32.4 -1.55 32.55 -0.1 Q33.45 4.1 37.7 10.15 L37.4 9.95 37.65 10.2 Q31.6 5.95 27.4 5.05 L25.95 4.9 25.55 5.0 25.25 5.1 Q19.45 8.35 13.6 11.55 L20.15 -0.4 20.25 -0.8 20.1 -2.15 Q19.2 -6.45 14.95 -12.5 L15.25 -12.2" fill="#ff88f3" fill-rule="evenodd" stroke="none"/>
    <path d="M18.0 -9.45 L17.8 -9.75 Q22.3 -6.55 25.45 -5.9 L26.6 -5.75 26.9 -5.85 27.6 -6.05 27.9 -6.15 Q31.25 -7.4 34.25 -9.5 L34.65 -9.8 35.95 -10.9 35.55 -10.3 35.05 -9.7 31.2 -2.65 30.95 -1.8 30.85 -1.5 31.0 -0.35 Q31.65 2.8 34.85 7.3 L34.6 7.15 34.8 7.35 Q30.25 4.2 27.1 3.55 L25.95 3.4 25.65 3.5 25.4 3.55 16.6 8.45 21.65 -0.6 21.7 -0.85 21.6 -1.95 Q20.95 -5.1 17.75 -9.7 L18.0 -9.45" fill="#ffffff" fill-rule="evenodd" stroke="none"/>
    <path d="M-32.4 -2.15 Q-33.3 -6.45 -37.55 -12.5 L-37.25 -12.2 -37.5 -12.55 Q-31.5 -8.25 -27.35 -7.4 L-25.8 -7.25 -25.45 -7.3 -24.6 -7.55 -24.15 -7.7 Q-19.75 -9.3 -15.7 -12.05 L-15.25 -12.4 -13.5 -13.85 -14.1 -13.05 -14.7 -12.35 -19.7 -3.05 -20.0 -1.85 -20.1 -1.55 -19.95 -0.1 Q-19.05 4.1 -14.8 10.15 L-15.1 9.95 -14.85 10.2 Q-20.9 5.95 -25.1 5.05 L-26.55 4.9 -26.95 5.0 -27.25 5.1 -38.9 11.55 -32.35 -0.4 -32.25 -0.8 -32.4 -2.15" fill="#ff88f3" fill-rule="evenodd" stroke="none"/>
    <path d="M-30.8 -0.85 L-30.9 -1.95 Q-31.55 -5.1 -34.75 -9.7 L-34.5 -9.45 -34.7 -9.75 Q-30.2 -6.55 -27.05 -5.9 L-25.9 -5.75 -25.6 -5.85 -24.9 -6.05 -24.6 -6.15 Q-21.25 -7.4 -18.25 -9.5 L-17.85 -9.8 -16.55 -10.9 -16.95 -10.3 -17.45 -9.7 -21.3 -2.65 -21.55 -1.8 -21.65 -1.5 -21.5 -0.35 Q-20.85 2.8 -17.65 7.3 L-17.9 7.15 -17.7 7.35 Q-22.25 4.2 -25.4 3.55 L-26.55 3.4 -26.85 3.5 -27.1 3.55 -35.9 8.45 -30.85 -0.6 -30.8 -0.85" fill="#ffffff" fill-rule="evenodd" stroke="none"/>
  </g>
</svg>
