<?xml version="1.0" encoding="UTF-8" standalone="no"?>
<svg xmlns:xlink="http://www.w3.org/1999/xlink" height="29.8px" width="80.75px" xmlns="http://www.w3.org/2000/svg">
  <g transform="matrix(1.0, 0.0, 0.0, 1.0, 40.4, 17.0)">
    <path d="M19.35 -14.5 Q27.55 -19.45 33.5 -14.6 36.7 -12.55 38.65 -7.9 40.35 -3.95 40.35 -0.55 40.35 2.95 38.5 6.0 35.3 11.3 27.75 11.3 22.45 11.3 20.0 9.1 17.6 6.9 17.6 2.35 17.6 -0.25 18.95 -2.3 20.9 -5.35 25.5 -6.85 L30.5 -6.85 Q32.75 -5.5 33.2 -4.35 L33.35 -1.8 33.1 0.65 Q32.3 2.2 29.0 3.3 L27.25 2.75 Q27.1 2.5 27.1 1.25 27.1 0.75 27.4 0.3 L29.6 -1.75 29.5 -2.85 26.0 -2.85 Q21.35 -0.4 21.35 2.5 21.35 4.0 22.5 5.3 24.2 7.3 27.75 7.3 33.1 7.3 35.35 3.5 36.5 1.55 36.6 -0.6 36.6 -3.75 34.85 -7.35 32.2 -12.85 27.0 -12.85 23.0 -12.85 18.35 -8.95 14.4 -5.1 14.0 -5.1 12.65 -5.1 12.25 -6.1 12.05 -6.65 12.1 -7.25 12.1 -8.15 14.15 -10.35 16.45 -12.8 19.35 -14.5 M-40.3 -4.5 Q-40.3 -9.95 -35.65 -13.05 -31.4 -15.95 -25.4 -15.6 -19.3 -15.25 -15.2 -11.7 -10.55 -7.6 -10.55 -0.85 -10.55 3.55 -12.2 6.8 -15.25 12.8 -23.15 12.8 -29.6 12.8 -32.3 8.75 -33.8 6.55 -33.8 4.25 -33.8 1.0 -32.9 -1.75 -31.25 -6.85 -27.15 -6.85 -22.45 -6.85 -20.3 -3.45 L-19.05 0.05 Q-19.05 1.6 -19.2 2.05 -19.65 3.5 -21.4 3.8 L-23.15 3.25 -23.05 1.65 -22.8 0.0 Q-22.8 -1.1 -24.15 -2.0 -25.5 -2.85 -27.15 -2.85 -28.7 -2.85 -29.55 0.5 L-30.05 4.0 Q-30.05 5.6 -28.95 6.8 -27.15 8.8 -22.9 8.8 -16.75 8.8 -14.9 4.05 -14.0 1.7 -14.3 -0.75 -14.3 -3.5 -16.4 -6.75 -19.8 -11.85 -26.65 -11.85 -32.7 -11.85 -35.45 -6.7 L-37.0 -3.2 Q-37.7 -1.6 -38.4 -1.6 -39.95 -1.6 -40.3 -2.95 L-40.3 -4.5" fill="#185649" fill-rule="evenodd" stroke="none"/>
  </g>
</svg>
