<?xml version="1.0" encoding="UTF-8" standalone="no"?>
<svg xmlns:xlink="http://www.w3.org/1999/xlink" height="22.55px" width="72.15px" xmlns="http://www.w3.org/2000/svg">
  <g transform="matrix(1.0, 0.0, 0.0, 1.0, 36.3, 7.75)">
    <path d="M30.8 -0.6 L22.0 4.5 Q23.0 5.1 30.8 8.15 35.85 10.15 35.85 12.0 L35.5 13.05 Q35.0 13.8 34.0 13.8 32.7 13.8 28.55 11.95 24.85 10.3 23.75 9.5 L18.6 6.9 Q16.1 5.7 16.1 4.4 16.1 2.95 19.65 0.95 L26.75 -2.6 Q28.15 -3.3 32.35 -6.35 35.85 -8.4 35.85 -5.25 35.85 -3.55 30.8 -0.6 M-19.7 -0.15 Q-16.55 1.45 -16.55 3.35 -16.55 4.15 -24.3 9.5 -31.95 14.8 -32.65 14.8 -34.2 14.8 -34.65 14.05 L-34.8 13.1 Q-34.8 11.7 -29.0 7.7 L-22.9 3.75 -28.45 0.05 Q-31.7 -2.35 -35.3 -3.85 L-36.0 -4.5 -36.3 -5.75 Q-36.3 -9.0 -32.6 -7.0 -28.25 -4.05 -27.05 -3.5 L-19.7 -0.15" fill="#185649" fill-rule="evenodd" stroke="none"/>
  </g>
</svg>
