<?xml version="1.0" encoding="UTF-8" standalone="no"?>
<svg xmlns:xlink="http://www.w3.org/1999/xlink" height="30.75px" width="79.25px" xmlns="http://www.w3.org/2000/svg">
  <g transform="matrix(1.0, 0.0, 0.0, 1.0, 40.9, 17.45)">
    <path d="M14.5 -10.2 Q18.8 -13.85 24.25 -14.55 30.2 -15.35 33.95 -11.85 38.35 -7.75 38.35 1.35 38.35 5.8 37.2 8.3 34.95 13.3 28.5 13.3 24.5 13.3 23.25 9.3 22.6 7.35 22.6 2.75 22.6 -0.55 23.2 -3.95 24.0 -8.35 25.5 -10.1 L25.85 -10.5 Q18.4 -9.3 15.7 -5.45 13.85 -1.15 12.0 0.3 L10.25 -0.25 Q10.1 -0.85 10.1 -2.1 10.1 -6.4 14.5 -10.2 M-40.8 -2.35 Q-40.8 -12.05 -30.15 -16.15 -26.1 -17.75 -22.85 -17.35 -20.15 -17.0 -19.65 -15.35 -17.75 -14.15 -16.5 -12.6 -15.1 -10.75 -14.55 -8.1 L-13.7 -4.2 Q-13.05 -0.9 -13.05 0.1 -13.05 3.55 -14.65 6.8 -17.35 12.3 -23.4 12.3 -27.55 12.3 -29.3 6.5 -30.3 3.1 -30.3 -1.15 -30.3 -4.4 -29.35 -7.4 -28.1 -11.5 -25.55 -13.0 L-25.1 -13.2 -25.9 -13.35 Q-32.3 -13.35 -35.05 -7.25 -36.45 -4.15 -36.55 -1.05 -36.55 0.8 -38.65 0.8 -40.45 0.8 -40.8 -0.7 L-40.8 -2.35" fill="#185649" fill-rule="evenodd" stroke="none"/>
    <path d="M10.0 -11.7 L11.15 -11.55 12.55 -10.6 Q13.75 -9.85 15.0 -9.9 15.9 -9.5 15.9 -8.9 L15.55 -8.3 15.0 -8.0 13.75 -8.0 Q11.45 -8.5 10.35 -9.5 9.5 -10.2 9.5 -11.0 9.5 -11.45 10.0 -11.7 M-40.0 -10.05 Q-40.9 -11.0 -40.9 -11.6 -40.9 -12.3 -40.35 -12.6 -39.7 -12.95 -39.0 -11.75 -38.25 -11.2 -36.55 -10.7 -35.5 -10.4 -35.5 -9.65 -35.5 -9.15 -36.0 -8.9 L-36.6 -8.75 Q-38.75 -8.75 -40.0 -10.05" fill="#185649" fill-rule="evenodd" stroke="none"/>
  </g>
</svg>
