<?xml version="1.0" encoding="UTF-8" standalone="no"?>
<svg xmlns:xlink="http://www.w3.org/1999/xlink" height="11.85px" width="79.45px" xmlns="http://www.w3.org/2000/svg">
  <g transform="matrix(1.0, 0.0, 0.0, 1.0, 42.15, -3.95)">
    <path d="M32.3 9.8 L33.95 8.25 Q34.7 7.55 35.4 7.55 36.55 7.55 37.05 8.55 L37.3 9.65 Q37.3 11.9 33.7 13.8 29.9 15.8 25.0 15.8 17.7 15.8 14.25 13.3 12.05 11.7 12.05 10.0 12.05 5.8 15.3 8.25 20.25 12.0 21.55 12.0 29.2 12.0 32.3 9.8 M-13.6 5.65 Q-13.6 7.9 -17.5 10.25 -21.7 12.8 -26.75 12.8 -34.05 12.8 -37.4 10.25 -39.35 8.75 -39.35 7.25 L-39.25 5.75 -38.7 5.4 Q-38.25 5.05 -37.5 5.05 -37.3 5.05 -34.65 6.95 -32.0 8.8 -26.75 8.8 -21.65 8.8 -19.8 7.35 -18.5 5.65 -17.6 5.0 -15.7 3.7 -14.55 4.0 -13.6 4.3 -13.6 5.65" fill="#185649" fill-rule="evenodd" stroke="none"/>
    <path d="M8.75 11.65 Q8.75 11.0 9.25 10.9 L10.8 10.9 14.0 10.25 Q15.15 9.95 15.15 11.25 15.15 11.8 13.75 12.35 12.35 12.9 10.75 12.9 8.55 12.9 8.75 11.65 M-37.45 8.0 Q-36.5 7.7 -36.5 9.05 L-36.6 9.65 -37.0 10.0 -41.0 10.65 Q-41.85 10.1 -42.15 9.4 -42.15 8.75 -41.65 8.65 L-40.35 8.65 -37.45 8.0" fill="#185649" fill-rule="evenodd" stroke="none"/>
  </g>
</svg>
