<?xml version="1.0" encoding="UTF-8" standalone="no"?>
<svg xmlns:xlink="http://www.w3.org/1999/xlink" height="19.65px" width="81.9px" xmlns="http://www.w3.org/2000/svg">
  <g transform="matrix(1.0, 0.0, 0.0, 1.0, 40.75, 5.4)">
    <path d="M33.8 -3.0 L34.7 -2.45 36.8 -1.1 35.55 1.55 Q32.4 7.25 26.25 7.25 20.6 7.25 18.7 4.7 L17.25 1.25 17.25 -0.85 16.85 -2.0 17.25 -2.3 17.65 -2.6 18.85 -3.3 20.1 -4.0 20.1 -3.95 21.5 -4.6 23.2 -5.1 Q27.6 -6.1 32.8 -3.55 L32.9 -3.5 33.8 -3.0 M-32.65 -2.15 L-29.55 -2.95 -29.3 -3.0 -25.75 -3.3 -20.95 -2.75 -20.75 -2.7 -17.1 -1.4 -16.0 -0.75 Q-15.8 0.3 -15.75 1.35 -15.75 3.6 -17.65 5.8 -20.15 8.75 -24.5 8.75 -30.4 8.75 -32.15 5.05 -32.75 3.75 -32.75 0.9 L-32.65 -2.15" fill="#185649" fill-rule="evenodd" stroke="none"/>
    <path d="M16.85 -2.0 L17.25 -0.85 17.25 1.25 18.7 4.7 Q20.6 7.25 26.25 7.25 32.4 7.25 35.55 1.55 L36.8 -1.1 34.7 -2.45 33.8 -3.0 37.8 -0.35 Q40.5 1.95 41.0 3.3 L41.15 6.6 Q41.15 9.4 40.95 9.8 L37.9 13.25 34.5 13.25 31.7 10.85 Q29.65 9.0 26.35 9.0 23.9 9.0 21.0 11.15 18.05 13.25 16.0 13.25 11.7 13.25 10.05 10.8 L9.25 8.25 Q9.25 5.35 13.05 1.3 14.85 -0.6 16.85 -2.0 M-16.0 -0.75 L-15.45 -0.4 Q-10.75 2.85 -10.75 8.15 -10.75 10.7 -11.4 12.0 -12.45 14.25 -15.5 14.25 -17.25 14.25 -20.15 12.15 -23.05 10.0 -26.55 10.0 -29.7 10.0 -31.7 11.65 -33.7 13.25 -36.0 13.25 -39.95 13.25 -40.75 11.0 L-40.75 8.75 Q-40.75 3.0 -36.05 -0.35 -34.5 -1.45 -32.65 -2.15 L-32.75 0.9 Q-32.75 3.75 -32.15 5.05 -30.4 8.75 -24.5 8.75 -20.15 8.75 -17.65 5.8 -15.75 3.6 -15.75 1.35 -15.8 0.3 -16.0 -0.75" fill="#ffffff" fill-rule="evenodd" stroke="none"/>
  </g>
</svg>
