<?xml version="1.0" encoding="UTF-8" standalone="no"?>
<svg xmlns:xlink="http://www.w3.org/1999/xlink" height="11.65px" width="81.7px" xmlns="http://www.w3.org/2000/svg">
  <g transform="matrix(1.0, 0.0, 0.0, 1.0, 41.4, -0.15)">
    <path d="M40.3 9.0 Q40.3 10.75 38.15 10.8 L34.2 7.7 Q30.35 4.55 25.9 4.55 18.8 4.55 15.55 6.95 13.55 9.3 12.4 9.3 10.85 9.3 10.3 8.15 L10.15 7.75 10.15 6.4 Q10.7 5.1 14.25 3.2 18.8 0.75 22.9 0.8 26.35 -1.05 33.35 2.3 40.3 5.6 40.3 9.0 M-10.6 9.85 L-10.85 11.25 -11.3 11.55 -12.5 11.8 -18.7 8.7 Q-24.8 5.55 -28.0 5.55 -33.25 5.55 -35.85 7.95 L-37.5 9.55 Q-38.3 10.3 -39.25 10.3 -40.8 10.3 -41.25 9.3 L-41.35 8.6 Q-41.35 6.45 -36.65 3.65 -30.8 0.15 -23.6 1.8 L-15.25 5.75 Q-11.55 7.75 -10.6 9.85" fill="#185649" fill-rule="evenodd" stroke="none"/>
  </g>
</svg>
