<?xml version="1.0" encoding="UTF-8" standalone="no"?>
<svg xmlns:xlink="http://www.w3.org/1999/xlink" height="38.25px" width="73.4px" xmlns="http://www.w3.org/2000/svg">
  <g transform="matrix(1.0, 0.0, 0.0, 1.0, 36.75, 22.5)">
    <path d="M25.3 -15.9 L29.0 -16.25 Q31.45 -13.85 32.05 -8.7 32.25 -7.0 32.25 -0.85 32.25 5.75 31.9 7.4 30.9 12.35 26.5 15.75 L23.5 15.75 Q20.3 14.0 19.5 9.15 19.25 7.55 19.25 1.8 19.25 -5.6 19.6 -7.85 20.65 -15.2 24.75 -15.0 24.95 -15.8 25.3 -15.9 M-27.35 -15.75 L-27.25 -14.95 -26.15 -15.55 Q-25.0 -16.0 -23.85 -14.35 L-22.65 -12.6 Q-21.75 -11.4 -21.75 -10.5 L-21.75 -2.1 -21.85 7.5 Q-22.8 15.75 -27.0 15.75 -28.25 15.75 -29.25 14.7 L-29.35 14.6 -29.4 14.55 -29.5 14.45 -29.55 14.35 -31.5 10.05 -31.75 9.05 Q-32.75 4.85 -32.75 1.55 -32.75 -3.45 -31.75 -7.0 -31.75 -9.55 -31.15 -11.25 L-31.5 -9.95 -31.6 -10.0 -31.75 -12.05 Q-31.75 -13.65 -31.05 -14.55 -30.05 -15.85 -27.5 -16.0 L-27.35 -15.75" fill="#185649" fill-rule="evenodd" stroke="none"/>
    <path d="M13.5 -7.25 L12.6 -7.55 Q12.25 -7.8 12.25 -8.6 12.25 -9.15 17.05 -12.4 21.6 -15.55 22.75 -16.0 24.45 -16.8 30.35 -19.95 35.6 -22.65 36.4 -22.5 L36.55 -22.25 36.65 -21.35 Q36.65 -20.6 32.85 -18.3 29.3 -16.15 25.3 -14.35 22.55 -13.1 18.75 -10.55 L13.5 -7.25 M-30.9 -19.8 Q-24.8 -15.25 -24.25 -15.0 L-18.95 -11.9 Q-16.1 -10.3 -14.25 -8.5 L-14.5 -7.75 -14.75 -7.4 -15.75 -7.25 Q-16.9 -7.25 -25.9 -13.2 -34.65 -19.0 -36.6 -18.5 L-36.65 -18.7 -36.75 -19.8 Q-36.75 -23.4 -30.9 -19.8" fill="#185649" fill-rule="evenodd" stroke="none"/>
    <path d="M17.35 -6.35 L16.75 -7.5 16.8 -8.2 17.0 -8.5 18.85 -8.1 Q20.5 -7.5 21.25 -6.5 L21.0 -5.7 Q20.8 -5.25 20.0 -5.25 18.3 -5.25 17.35 -6.35 M-33.65 -9.2 Q-35.05 -10.1 -35.25 -10.75 -34.85 -12.7 -33.0 -11.85 -31.5 -11.15 -30.25 -9.5 L-30.45 -8.7 Q-30.7 -8.25 -31.5 -8.25 -32.3 -8.25 -33.65 -9.2" fill="#185649" fill-rule="evenodd" stroke="none"/>
  </g>
</svg>
