<?xml version="1.0" encoding="UTF-8" standalone="no"?>
<svg xmlns:xlink="http://www.w3.org/1999/xlink" height="15.25px" width="71.0px" xmlns="http://www.w3.org/2000/svg">
  <g transform="matrix(1.0, 0.0, 0.0, 1.0, 36.25, 2.0)">
    <path d="M34.5 -1.6 Q34.75 -2.3 34.75 -1.05 L33.75 -0.05 33.75 0.1 Q33.75 1.2 29.45 4.35 L23.0 8.75 22.55 9.05 23.5 9.0 25.0 8.75 30.0 8.75 30.85 8.95 31.2 9.3 32.5 9.25 33.3 9.85 34.25 11.0 33.9 11.9 33.75 12.05 Q33.7 12.7 33.3 12.95 L32.5 13.25 26.5 13.25 21.45 12.7 Q18.25 12.55 15.5 12.75 L14.6 12.45 Q14.25 12.15 14.25 11.35 14.25 10.85 17.0 8.6 18.0 6.15 23.8 2.85 26.0 1.6 27.8 0.8 L29.75 -0.6 Q32.8 -2.75 34.5 -1.6 M-17.2 11.95 L-18.0 12.25 -29.95 12.85 -34.0 13.25 -35.15 13.05 -35.6 12.55 Q-35.75 13.1 -35.75 11.85 L-35.65 11.45 -36.25 10.75 Q-35.5 10.3 -35.75 9.75 L-35.75 8.55 -30.0 8.4 -23.85 8.5 -24.1 8.3 -28.25 5.5 -31.3 3.65 Q-33.5 2.3 -34.25 1.1 L-34.1 0.35 -34.25 -0.3 Q-34.25 -3.7 -25.25 2.35 -16.25 8.35 -16.25 10.1 L-16.3 11.0 -16.5 11.5 -16.9 11.6 -17.2 11.95" fill="#185649" fill-rule="evenodd" stroke="none"/>
  </g>
</svg>
