<?xml version="1.0" encoding="UTF-8" standalone="no"?>
<svg xmlns:xlink="http://www.w3.org/1999/xlink" height="20.1px" width="19.3px" xmlns="http://www.w3.org/2000/svg">
  <g transform="matrix(1.0, 0.0, 0.0, 1.0, 9.75, 10.15)">
    <path d="M4.5 -6.5 Q4.5 -5.75 1.65 -5.7 L1.65 -1.9 4.1 -1.9 4.1 -3.15 Q4.1 -3.9 4.95 -4.15 L7.65 -2.45 9.55 -0.75 5.5 3.3 4.95 3.3 Q4.25 2.95 4.25 1.75 L4.25 1.7 2.4 1.8 1.9 1.8 1.9 3.45 1.65 5.0 Q1.65 5.25 1.9 5.1 3.3 4.6 3.8 4.6 L4.2 4.9 4.25 5.15 Q4.25 5.7 2.4 7.7 L1.45 9.15 0.8 9.95 0.5 9.9 -0.65 8.85 -1.55 7.85 -2.9 6.8 -3.75 6.3 -4.0 5.85 -3.85 5.5 -1.75 5.3 -1.75 2.1 -2.2 2.1 -2.45 2.2 -5.0 2.3 -4.85 3.7 -4.85 4.35 Q-4.9 4.7 -5.2 4.7 -5.75 4.7 -6.05 4.3 L-6.45 3.6 Q-6.55 3.25 -7.55 2.5 L-8.7 1.35 -9.5 0.75 -9.75 0.3 Q-9.75 -0.05 -8.95 -0.85 L-7.7 -1.9 -6.6 -3.05 -5.6 -3.95 Q-5.0 -3.95 -5.0 -3.0 L-5.1 -1.65 -1.5 -1.7 -1.45 -5.2 -3.2 -4.95 -4.0 -5.15 -4.0 -5.4 -3.45 -6.6 -2.45 -7.9 -1.55 -9.1 -0.45 -10.15 -0.05 -9.85 0.3 -10.15 Q4.5 -7.4 4.5 -6.5 M0.4 -8.9 L-0.2 -9.2 -0.6 -8.65 -1.15 -7.95 -2.7 -6.15 -2.75 -6.05 -1.45 -6.2 Q-1.1 -6.4 -0.45 -6.2 L-0.5 -5.8 -0.6 -3.15 -0.55 -1.85 Q-0.55 -1.1 -1.05 -0.7 L-5.05 -0.65 -5.35 -0.55 Q-6.1 -0.55 -6.1 -1.2 L-6.05 -2.1 -7.5 -0.9 -8.6 0.3 -7.15 1.45 -5.95 2.65 -6.2 1.65 Q-6.2 1.35 -5.7 1.1 L-4.95 1.25 -1.55 1.05 Q-0.9 1.05 -0.8 1.4 L-0.85 2.3 -0.85 3.6 Q-0.85 5.7 -1.1 6.15 L-1.55 6.3 -2.0 6.35 0.4 8.6 1.45 7.35 2.5 6.0 2.45 5.95 1.05 6.2 0.8 6.15 0.55 5.6 0.8 4.0 1.0 2.4 1.0 1.7 Q1.0 1.15 1.4 0.9 L2.4 0.85 3.7 0.8 4.95 0.6 4.95 0.9 5.0 1.1 5.25 1.45 Q5.25 1.9 5.4 2.05 6.45 1.35 8.15 -0.65 L5.6 -2.7 5.25 -2.8 5.25 -1.65 Q5.15 -0.8 4.6 -0.8 L4.0 -0.9 1.05 -0.95 0.8 -1.0 0.55 -1.4 0.75 -1.7 0.75 -5.45 0.6 -5.8 0.55 -5.95 0.55 -6.0 0.8 -6.4 2.75 -6.65 3.0 -6.75 2.25 -7.45 1.3 -8.25 0.95 -8.55 0.65 -8.75 0.4 -8.9" fill="#268471" fill-rule="evenodd" stroke="none"/>
    <path d="M0.4 -8.9 L0.65 -8.75 0.95 -8.55 1.3 -8.25 2.25 -7.45 3.0 -6.75 2.75 -6.65 0.8 -6.4 0.55 -6.0 0.55 -5.95 0.6 -5.8 0.75 -5.45 0.75 -1.7 0.55 -1.4 0.8 -1.0 1.05 -0.95 4.0 -0.9 4.6 -0.8 Q5.15 -0.8 5.25 -1.65 L5.25 -2.8 5.6 -2.7 8.15 -0.65 Q6.45 1.35 5.4 2.05 5.25 1.9 5.25 1.45 L5.0 1.1 4.95 0.9 4.95 0.6 3.7 0.8 2.4 0.85 1.4 0.9 Q1.0 1.15 1.0 1.7 L1.0 2.4 0.8 4.0 0.55 5.6 0.8 6.15 1.05 6.2 2.45 5.95 2.5 6.0 1.45 7.35 0.4 8.6 -2.0 6.35 -1.55 6.3 -1.1 6.15 Q-0.85 5.7 -0.85 3.6 L-0.85 2.3 -0.8 1.4 Q-0.9 1.05 -1.55 1.05 L-4.95 1.25 -5.7 1.1 Q-6.2 1.35 -6.2 1.65 L-5.95 2.65 -7.15 1.45 -8.6 0.3 -7.5 -0.9 -6.05 -2.1 -6.1 -1.2 Q-6.1 -0.55 -5.35 -0.55 L-5.05 -0.65 -1.05 -0.7 Q-0.55 -1.1 -0.55 -1.85 L-0.6 -3.15 -0.5 -5.8 -0.45 -6.2 Q-1.1 -6.4 -1.45 -6.2 L-2.75 -6.05 -2.7 -6.15 -1.15 -7.95 -0.6 -8.65 -0.2 -9.2 0.4 -8.9" fill="#ffffff" fill-rule="evenodd" stroke="none"/>
  </g>
</svg>
