<?xml version="1.0" encoding="UTF-8" standalone="no"?>
<svg xmlns:xlink="http://www.w3.org/1999/xlink" height="16.25px" width="12.35px" xmlns="http://www.w3.org/2000/svg">
  <g transform="matrix(1.0, 0.0, 0.0, 1.0, 5.25, 5.3)">
    <path d="M3.95 7.3 L4.5 7.0 5.95 9.65 5.75 9.75 5.4 9.85 Q5.0 9.85 4.15 7.8 L3.95 7.3" fill="#ffffff" fill-rule="evenodd" stroke="none"/>
    <path d="M5.0 -4.15 Q5.8 -3.9 6.05 -3.35 6.85 -1.45 6.85 -0.4 L6.5 1.55 5.65 3.3 5.0 4.1 4.35 4.9 4.9 5.8 5.7 7.2 Q7.1 9.05 7.1 9.8 7.1 10.2 6.4 10.6 L5.35 10.95 4.75 10.8 3.3 8.35 2.35 6.35 2.05 6.45 0.35 6.6 Q-2.65 6.6 -4.3 3.8 -5.25 2.05 -5.25 0.8 -5.25 -1.05 -4.5 -2.55 -3.35 -5.0 -0.5 -5.3 L0.45 -5.3 2.6 -4.9 3.75 -4.55 5.0 -4.15 M0.6 -0.3 L1.75 -0.3 2.1 -0.15 2.2 0.15 1.9 0.6 0.65 0.6 0.7 1.3 0.7 1.75 0.25 2.2 0.0 2.15 Q-0.25 1.8 -0.3 0.6 L-1.25 0.6 -1.5 0.55 -1.75 0.15 -1.0 -0.5 -0.3 -0.35 -0.3 -0.75 Q-0.35 -1.35 0.25 -1.5 0.65 -1.45 0.65 -1.05 L0.6 -0.55 0.6 -0.3 M0.25 -3.85 L-0.75 -3.55 -1.4 -3.75 Q-2.25 -3.75 -3.0 -2.8 L-3.75 -1.6 Q-4.15 -0.95 -4.15 0.6 -4.15 2.3 -3.15 3.75 -2.1 5.25 -0.9 5.25 1.75 5.25 3.6 3.45 5.25 1.8 5.25 -0.05 5.25 -2.1 3.4 -3.3 1.7 -4.35 0.25 -3.85 M3.25 5.85 L3.55 6.45 3.95 6.2 3.6 5.6 3.25 5.85 M3.95 7.3 L4.15 7.8 Q5.0 9.85 5.4 9.85 L5.75 9.75 5.95 9.65 4.5 7.0 3.95 7.3" fill="#268471" fill-rule="evenodd" stroke="none"/>
    <path d="M-1.25 -1.0 Q-1.65 -0.55 -2.3 -0.55 L-3.25 -0.7 Q-3.55 -0.9 -3.55 -1.75 -3.55 -2.4 -3.0 -2.75 L-2.55 -2.8 Q-1.7 -2.8 -1.25 -2.3 L-0.9 -1.65 Q-0.9 -1.35 -1.25 -1.0 M3.2 1.8 Q3.2 3.1 2.7 3.1 L1.75 2.9 1.5 2.35 1.7 1.7 Q1.95 1.3 2.25 1.25 L2.75 1.25 3.15 1.55 3.2 1.8" fill="#ffffff" fill-rule="evenodd" stroke="none"/>
  </g>
</svg>
