<?xml version="1.0" encoding="UTF-8" standalone="no"?>
<svg xmlns:xlink="http://www.w3.org/1999/xlink" height="20.3px" width="12.35px" xmlns="http://www.w3.org/2000/svg">
  <g transform="matrix(1.0, 0.0, 0.0, 1.0, 0.8, 0.8)">
    <path d="M0.45 -0.8 L0.95 -0.35 1.55 0.7 4.0 3.35 6.5 5.9 10.2 9.75 11.55 11.3 9.9 12.9 8.0 14.1 9.4 17.25 Q7.6 19.5 6.25 19.5 5.45 19.5 5.3 18.7 5.05 17.25 4.3 16.2 L1.25 17.85 -0.3 18.1 -0.65 11.4 -0.8 6.4 Q-0.8 1.9 -0.25 0.2 -0.05 -0.4 0.45 -0.8 M0.45 1.75 L0.55 11.25 0.75 16.95 3.55 15.45 Q4.35 15.0 4.5 15.0 5.85 15.0 6.4 18.1 L8.1 16.95 6.95 14.8 6.6 13.95 8.0 12.95 10.15 11.25 0.45 1.75" fill="#42b5a8" fill-rule="evenodd" stroke="none"/>
    <path d="M0.45 1.75 L10.15 11.25 8.0 12.95 6.6 13.95 6.95 14.8 8.1 16.95 6.4 18.1 Q5.85 15.0 4.5 15.0 4.35 15.0 3.55 15.45 L0.75 16.95 0.55 11.25 0.45 1.75" fill="#ffffff" fill-rule="evenodd" stroke="none"/>
  </g>
</svg>
