<?xml version="1.0" encoding="UTF-8" standalone="no"?>
<svg xmlns:xlink="http://www.w3.org/1999/xlink" height="42.0px" width="42.0px" xmlns="http://www.w3.org/2000/svg">
  <g transform="matrix(1.0, 0.0, 0.0, 1.0, 21.0, 21.0)">
    <path d="M19.0 -10.0 L19.0 10.0 Q19.0 19.0 10.0 19.0 L-10.0 19.0 Q-19.0 19.0 -19.0 10.0 L-19.0 -10.0 Q-19.0 -19.0 -10.0 -19.0 L10.0 -19.0 Q19.0 -19.0 19.0 -10.0" fill="#61d1ba" fill-rule="evenodd" stroke="none"/>
    <path d="M19.0 -6.5 Q18.75 -15.0 10.0 -15.0 L-10.0 -15.0 Q-18.75 -15.0 -19.0 -6.5 L-19.0 -8.0 Q-19.0 -17.0 -10.0 -17.0 L10.0 -17.0 Q19.0 -17.0 19.0 -8.0 L19.0 -6.5" fill="#e1e1e1" fill-rule="evenodd" stroke="none"/>
    <path d="M-19.0 -6.5 Q-18.75 -15.0 -10.0 -15.0 L10.0 -15.0 Q18.75 -15.0 19.0 -6.5 L19.0 12.0 Q19.0 21.0 10.0 21.0 L-10.0 21.0 Q-19.0 21.0 -19.0 12.0 L-19.0 -6.5" fill="#ffffff" fill-rule="evenodd" stroke="none"/>
    <path d="M10.0 -21.0 Q21.0 -21.0 21.0 -10.0 L21.0 10.0 Q21.0 21.0 10.0 21.0 L-10.0 21.0 Q-21.0 21.0 -21.0 10.0 L-21.0 -10.0 Q-21.0 -21.0 -10.0 -21.0 L10.0 -21.0 M19.0 -10.0 Q19.0 -19.0 10.0 -19.0 L-10.0 -19.0 Q-19.0 -19.0 -19.0 -10.0 L-19.0 10.0 Q-19.0 19.0 -10.0 19.0 L10.0 19.0 Q19.0 19.0 19.0 10.0 L19.0 -10.0" fill="#77fff1" fill-rule="evenodd" stroke="none"/>
  </g>
</svg>
