<?xml version="1.0" encoding="UTF-8" standalone="no"?>
<svg xmlns:xlink="http://www.w3.org/1999/xlink" height="302.0px" width="302.0px" xmlns="http://www.w3.org/2000/svg">
  <g transform="matrix(1.0, 0.0, 0.0, 1.0, 151.0, 151.0)">
    <path d="M150.0 140.0 Q150.0 150.0 140.0 150.0 L-140.0 150.0 Q-150.0 150.0 -150.0 140.0 L-150.0 -140.0 Q-150.0 -150.0 -140.0 -150.0 L140.0 -150.0 Q150.0 -150.0 150.0 -140.0 L150.0 140.0" fill="#3f4152" fill-rule="evenodd" stroke="none"/>
    <path d="M150.0 140.0 L150.0 -140.0 Q150.0 -150.0 140.0 -150.0 L-140.0 -150.0 Q-150.0 -150.0 -150.0 -140.0 L-150.0 140.0 Q-150.0 150.0 -140.0 150.0 L140.0 150.0 Q150.0 150.0 150.0 140.0 Z" fill="none" stroke="#ffffff" stroke-linecap="round" stroke-linejoin="round" stroke-width="2.0"/>
  </g>
</svg>
