<?xml version="1.0" encoding="UTF-8" standalone="no"?>
<svg xmlns:xlink="http://www.w3.org/1999/xlink" height="480.0px" width="860.0px" xmlns="http://www.w3.org/2000/svg">
  <g transform="matrix(1.0, 0.0, 0.0, 1.0, 110.0, 0.0)">
    <path d="M750.0 480.0 L-110.0 480.0 -110.0 0.0 750.0 0.0 750.0 480.0" fill="url(#gradient0)" fill-rule="evenodd" stroke="none"/>
    <path d="M191.15 33.6 Q194.65 33.35 197.05 34.75 199.75 36.35 199.75 39.25 199.75 41.5 198.05 43.8 195.8 46.75 192.0 46.75 182.5 46.75 182.5 40.5 182.5 37.5 185.2 35.55 187.6 33.8 191.15 33.6 M153.25 48.7 Q155.75 50.25 155.75 53.6 155.75 56.75 153.3 59.25 150.85 61.75 148.0 61.75 143.75 61.75 141.55 59.75 139.75 58.15 139.75 56.0 139.75 52.8 142.25 50.5 144.5 48.4 147.75 47.85 151.0 47.3 153.25 48.7 M97.55 65.95 Q100.1 63.05 103.75 62.0 107.4 60.95 109.95 62.4 112.75 64.0 112.75 68.1 112.75 72.4 111.05 74.25 108.15 77.5 99.0 78.25 94.75 75.35 94.75 73.25 94.75 69.2 97.55 65.95" fill="#ffffff" fill-rule="evenodd" stroke="none"/>
    <path d="M459.0 40.5 Q459.0 46.75 449.5 46.75 445.7 46.75 443.45 43.8 441.75 41.5 441.75 39.25 441.75 36.35 444.45 34.75 446.85 33.35 450.35 33.6 453.9 33.8 456.3 35.55 459.0 37.5 459.0 40.5 M543.95 65.95 Q546.75 69.2 546.75 73.25 546.75 75.35 542.5 78.25 533.35 77.5 530.45 74.25 528.75 72.4 528.75 68.1 528.75 64.0 531.55 62.4 534.1 60.95 537.75 62.0 541.4 63.05 543.95 65.95 M488.25 48.7 Q490.5 47.3 493.75 47.85 497.0 48.4 499.25 50.5 501.75 52.8 501.75 56.0 501.75 58.15 499.95 59.75 497.75 61.75 493.5 61.75 490.65 61.75 488.2 59.25 485.75 56.75 485.75 53.6 485.75 50.25 488.25 48.7" fill="#ffffff" fill-rule="evenodd" stroke="none"/>
  </g>
  <defs>
    <radialGradient cx="0" cy="0" gradientTransform="matrix(0.4091, 0.0, 0.0, 0.4091, 320.0, 331.0)" gradientUnits="userSpaceOnUse" id="gradient0" r="819.2" spreadMethod="pad">
      <stop offset="0.47843137254901963" stop-color="#000000"/>
      <stop offset="1.0" stop-color="#3e3a45"/>
    </radialGradient>
  </defs>
</svg>
