<?xml version="1.0" encoding="UTF-8" standalone="no"?>
<svg xmlns:xlink="http://www.w3.org/1999/xlink" height="371.65px" width="278.5px" xmlns="http://www.w3.org/2000/svg">
  <g transform="matrix(1.0, 0.0, 0.0, 1.0, 86.95, 325.85)">
    <path d="M53.6 -312.55 Q64.9 -281.85 64.25 -245.95 L64.05 -239.55 65.95 -235.85 Q24.25 -196.15 -15.3 -153.95 -27.05 -141.35 -42.15 -147.05 -16.6 -195.7 31.35 -230.3 3.0 -243.85 5.25 -250.4 6.65 -251.65 7.4 -253.45 8.95 -257.2 7.45 -261.1 28.8 -260.55 51.4 -246.35 L46.65 -311.7 53.6 -312.55 M4.45 -19.95 Q-24.3 13.55 -59.7 40.25 -63.4 43.05 -66.65 39.35 -50.35 -2.8 -6.6 -25.35 -28.45 -76.2 -49.25 -128.6 -52.4 -136.65 -50.85 -145.2 -42.25 -147.15 -38.65 -136.2 L-36.7 -134.2 Q-34.95 -133.25 -33.35 -132.1 L-33.4 -131.05 Q-33.4 -127.6 -29.6 -121.85 L-24.4 -113.8 Q-19.05 -102.15 -17.15 -96.55 -12.1 -81.75 -3.65 -62.2 L1.0 -51.85 Q4.9 -38.3 3.55 -24.7 L4.45 -19.95" fill="#31313e" fill-rule="evenodd" stroke="none"/>
    <path d="M171.55 -312.1 Q163.8 -292.9 135.85 -287.5 124.1 -285.15 112.8 -280.75 L159.05 -278.45 Q162.75 -275.25 163.25 -270.45 L163.3 -269.65 163.2 -268.9 163.05 -268.2 Q133.7 -260.55 101.1 -265.95 L98.55 -265.75 Q112.05 -242.15 130.3 -218.6 130.35 -216.3 128.45 -214.8 127.85 -214.35 126.9 -214.1 L126.35 -213.9 126.0 -213.75 Q141.3 -191.45 114.85 -175.3 78.35 -152.85 43.25 -128.2 56.45 -129.8 68.7 -126.55 69.65 -126.4 70.35 -125.55 L71.1 -124.65 Q92.95 -128.2 108.75 -119.5 110.25 -118.7 108.3 -117.1 95.5 -107.05 76.55 -109.55 56.9 -112.35 37.1 -113.7 80.5 -74.2 104.85 -24.0 105.4 -22.9 104.0 -21.7 L100.6 -21.8 Q98.4 -10.35 92.0 -1.75 87.7 1.8 81.15 6.6 L68.6 15.95 Q47.7 26.7 28.35 39.9 L20.55 36.4 Q32.75 5.2 67.7 -8.6 75.45 -11.6 82.65 -16.1 L8.35 -17.7 5.95 37.0 Q-0.75 40.05 -8.0 38.7 L-8.85 38.45 Q-10.5 37.85 -11.8 36.55 -10.9 -83.9 32.55 -197.3 57.75 -263.1 104.75 -311.2 L107.45 -310.3 108.1 -308.85 Q102.75 -293.35 91.0 -280.55 L93.55 -280.65 Q126.9 -306.0 167.6 -313.1 169.75 -313.5 171.55 -312.1 M48.45 -199.05 Q41.65 -186.55 38.6 -172.75 35.35 -158.0 30.45 -143.2 L31.5 -141.7 32.15 -140.75 32.65 -139.85 33.0 -138.8 33.15 -137.75 33.25 -134.75 Q70.15 -165.6 112.05 -191.3 80.65 -192.25 50.3 -198.4 L48.45 -199.05 M86.5 -266.55 L81.85 -265.15 51.25 -206.15 Q70.75 -213.2 93.15 -209.7 104.2 -208.2 115.45 -207.65 99.2 -230.05 86.5 -254.5 L82.85 -261.55 86.5 -266.55 M32.75 -114.1 L30.55 -114.1 31.65 -112.45 32.75 -114.1 M26.7 -90.7 L29.2 -95.95 24.35 -102.35 Q14.55 -65.5 9.4 -27.85 47.3 -29.65 85.6 -28.9 56.35 -56.55 29.85 -86.7 L26.7 -90.7" fill="#31313e" fill-rule="evenodd" stroke="none"/>
    <path d="M-28.55 -141.05 Q-33.9 -141.25 -39.15 -139.95 -44.95 -122.55 -50.0 -104.95 -58.5 -75.5 -64.1 -45.55 L-46.05 -70.0 Q-18.8 -106.55 10.3 -141.7 -9.15 -142.1 -28.55 -141.05 M6.2 -36.35 L7.25 -36.35 13.95 -111.75 Q-23.6 -78.6 -50.25 -36.35 L-52.35 -32.95 -43.75 -41.2 -46.3 -37.05 Q-41.6 -37.5 -36.95 -38.45 -14.75 -42.35 6.2 -36.35 M0.5 -157.4 L13.55 -155.0 Q3.0 -221.4 -0.4 -246.45 -5.7 -238.05 -19.75 -203.8 -34.65 -167.45 -35.65 -157.65 L-30.75 -159.2 Q-29.25 -159.4 -21.6 -159.4 -12.75 -159.4 0.5 -157.4 M62.2 -250.4 Q55.25 -253.25 42.4 -255.1 L27.65 -256.55 16.55 -255.9 10.65 -255.1 17.8 -215.95 26.35 -163.95 Q34.6 -189.1 40.8 -204.1 47.15 -219.35 62.2 -250.4 M69.4 -264.3 L80.35 -282.2 93.65 -304.2 Q85.55 -300.3 52.1 -285.3 21.95 -271.8 15.6 -269.05 L69.4 -264.3 M101.4 -318.0 Q102.7 -320.6 103.3 -320.6 L112.5 -319.8 Q115.7 -318.3 115.75 -311.95 L95.45 -278.25 80.55 -253.6 Q69.05 -233.95 66.35 -223.3 L45.5 -143.2 Q36.35 -107.3 36.4 -100.7 L31.75 -77.65 Q26.8 -54.2 25.95 -43.55 L24.2 -27.25 22.95 -16.75 22.9 -16.35 22.35 -11.2 22.6 35.9 Q22.8 40.75 21.45 43.15 20.0 45.8 16.6 45.8 L15.5 45.7 Q11.7 39.0 10.0 31.7 4.25 7.4 7.6 -17.4 -23.5 -23.45 -54.3 -16.35 -40.55 -0.6 -22.05 33.15 -30.9 27.7 -29.55 38.0 L-31.7 38.85 Q-53.2 16.65 -68.8 -9.95 L-68.15 -0.95 Q-66.7 21.35 -75.95 41.3 L-77.6 37.95 Q-94.15 1.8 -81.45 -36.35 L-80.05 -44.0 Q-70.1 -97.55 -53.1 -149.3 -50.55 -158.4 -44.25 -174.7 -36.35 -194.9 -26.35 -216.05 -0.45 -270.85 21.85 -295.65 L36.85 -314.5 Q46.35 -325.85 51.6 -325.85 53.45 -325.85 53.45 -323.5 53.45 -321.5 48.45 -314.75 38.4 -301.25 31.1 -290.2 41.95 -293.7 69.6 -305.65 91.35 -315.05 96.5 -315.05 98.1 -315.05 99.55 -314.4 L101.4 -318.0" fill="#56576d" fill-rule="evenodd" stroke="none"/>
    <path d="M191.55 -299.75 Q118.05 -200.0 111.0 -73.95 L104.75 37.85 Q104.5 42.6 102.9 38.0 97.8 23.55 99.05 7.5 100.0 -5.0 100.2 -17.5 74.75 -13.05 48.35 -13.75 L52.7 -8.3 66.7 10.3 Q91.7 39.45 91.7 41.45 91.7 43.55 90.25 44.8 89.0 45.8 87.45 45.8 86.2 45.8 85.4 44.8 84.55 43.8 83.3 43.8 82.05 43.8 81.4 44.8 80.7 45.8 79.45 45.8 78.45 45.8 68.7 33.9 57.0 19.6 49.35 13.05 46.55 10.65 41.65 4.65 L34.85 -3.45 Q33.0 -5.45 31.5 -8.15 32.1 19.3 28.5 44.1 28.3 45.4 27.4 43.2 L25.05 36.95 24.35 41.3 23.75 41.7 22.6 42.3 Q20.5 38.1 19.35 25.15 L18.6 12.95 Q18.6 11.45 19.0 10.4 17.3 -4.4 20.2 -40.8 23.05 -77.25 30.9 -129.95 38.75 -182.65 52.5 -211.2 66.2 -239.75 71.75 -253.3 71.2 -253.95 71.2 -254.55 71.2 -255.85 73.2 -256.75 L75.0 -261.0 Q81.9 -276.75 92.65 -288.65 L97.95 -296.55 Q100.5 -302.25 105.85 -306.6 111.9 -311.45 119.95 -313.05 L120.35 -312.4 Q120.7 -311.85 120.7 -310.4 120.7 -309.7 119.15 -307.7 117.45 -305.55 117.2 -304.05 116.95 -302.5 117.05 -301.75 L115.2 -299.8 110.7 -294.75 105.95 -289.3 Q102.6 -285.8 97.65 -278.05 94.6 -273.3 91.65 -270.3 L85.1 -258.9 99.2 -261.3 106.8 -262.8 Q112.5 -263.85 121.2 -266.3 122.6 -266.65 130.3 -269.15 138.7 -271.7 144.9 -273.0 153.65 -274.85 158.5 -274.25 146.8 -285.05 140.7 -300.05 L141.4 -304.0 143.65 -304.95 151.55 -300.55 153.95 -300.95 Q162.55 -293.25 167.0 -282.2 L186.35 -301.35 190.55 -302.2 191.55 -299.75 M72.2 -230.7 Q57.65 -188.2 47.95 -144.4 70.95 -136.1 94.5 -129.4 L94.55 -129.4 Q94.05 -132.45 93.75 -136.4 L93.2 -142.55 Q89.35 -156.25 85.95 -174.05 82.2 -188.25 78.6 -202.55 73.75 -221.9 72.2 -230.7 M149.65 -259.4 L128.45 -255.55 106.0 -250.3 87.95 -246.35 Q106.45 -227.7 126.45 -210.45 128.45 -208.7 129.95 -206.25 140.1 -234.85 155.45 -261.05 152.9 -260.15 149.65 -259.4 M108.8 -206.05 L102.85 -210.85 Q96.05 -215.9 89.95 -221.7 L90.45 -219.3 94.1 -202.4 Q96.05 -192.6 96.7 -185.55 97.15 -180.25 99.05 -168.65 100.8 -157.75 101.2 -151.8 101.25 -150.85 106.05 -136.25 L109.75 -123.8 125.75 -197.05 Q122.9 -196.45 120.35 -197.55 117.2 -198.95 114.6 -201.25 L108.8 -206.05 M98.2 -110.05 Q103.9 -114.0 106.7 -112.05 L106.95 -111.85 107.15 -113.1 106.45 -113.05 Q102.25 -113.05 99.4 -116.3 L45.2 -130.05 Q39.8 -103.3 36.2 -76.2 33.45 -55.45 32.55 -34.5 L37.65 -40.25 Q46.2 -49.5 49.1 -53.95 58.55 -68.3 66.45 -76.3 L77.55 -87.25 Q85.1 -94.65 88.95 -98.8 L92.95 -104.5 Q95.4 -108.15 98.2 -110.05 M66.2 -53.0 L55.2 -39.9 Q47.75 -31.75 42.1 -28.75 56.85 -30.15 71.65 -28.7 L100.2 -25.75 Q99.55 -39.0 100.55 -52.1 102.4 -76.25 105.45 -100.2 101.55 -94.5 93.1 -84.45 85.25 -75.1 76.7 -65.7 L66.2 -53.0 M33.6 -27.45 L32.3 -28.05 32.2 -24.95 33.25 -27.2 33.6 -27.45" fill="#404051" fill-rule="evenodd" stroke="none"/>
  </g>
</svg>
