<?xml version="1.0" encoding="UTF-8" standalone="no"?>
<svg xmlns:xlink="http://www.w3.org/1999/xlink" height="537.95px" width="932.85px" xmlns="http://www.w3.org/2000/svg">
  <g transform="matrix(1.0, 0.0, 0.0, 1.0, 150.5, 57.0)">
    <path d="M750.0 401.0 L750.0 480.95 -110.0 480.95 -110.0 401.0 Q304.2 438.5 750.0 401.0" fill="#3f3850" fill-rule="evenodd" stroke="none"/>
    <path d="M-110.0 401.0 L-110.0 331.0 Q318.0 348.85 750.0 331.0 L750.0 401.0 Q304.2 438.5 -110.0 401.0" fill="url(#gradient0)" fill-rule="evenodd" stroke="none"/>
    <path d="M381.75 383.3 Q351.6 388.0 308.95 388.0 266.3 388.0 236.1 383.3 205.95 378.65 205.95 372.0 205.95 365.35 236.1 360.65 266.3 356.0 308.95 356.0 351.6 356.0 381.75 360.65 411.95 365.35 411.95 372.0 411.95 378.65 381.75 383.3" fill="url(#gradient1)" fill-rule="evenodd" stroke="none"/>
    <path d="M316.95 -57.0 Q387.85 -57.0 437.9 -5.6 488.0 45.8 488.0 118.5 488.0 191.25 437.9 242.65 387.85 294.05 316.95 294.05 246.15 294.05 196.0 242.65 145.95 191.25 145.95 118.5 145.95 45.8 196.0 -5.6 246.15 -57.0 316.95 -57.0" fill="url(#gradient2)" fill-rule="evenodd" stroke="none"/>
    <path d="M139.3 378.95 Q139.35 379.95 139.55 380.85 L86.45 414.95 -47.1 414.95 -37.95 408.5 -18.45 394.95 Q-1.75 385.65 6.7 378.95 L139.3 378.95" fill="#3f3850" fill-rule="evenodd" stroke="none"/>
    <path d="M-18.0 366.95 L-18.25 363.5 Q-18.25 359.7 -15.7 350.95 L-12.25 340.6 Q-6.55 326.15 0.5 319.1 L16.55 319.65 17.5 319.85 99.95 319.85 100.1 320.4 100.0 322.35 Q99.3 328.75 97.05 334.8 L95.45 339.5 92.15 348.6 91.75 349.6 88.0 363.15 86.65 367.25 85.5 366.1 77.5 366.1 75.75 366.6 36.5 366.85 Q10.5 364.5 -3.35 364.75 -11.85 364.9 -15.8 366.05 L-18.0 366.95" fill="#4f4859" fill-rule="evenodd" stroke="none"/>
    <path d="M113.9 397.55 Q111.9 398.35 111.55 398.75 L105.35 399.05 104.4 398.85 81.9 398.95 48.0 398.85 17.9 397.15 2.95 395.35 -11.5 376.6 -18.0 366.95 -15.8 366.05 Q-11.85 364.9 -3.35 364.75 10.5 364.5 36.5 366.85 L75.75 366.6 77.5 366.1 85.5 366.1 86.65 367.25 Q91.0 371.6 101.15 383.45 L109.8 393.6 110.65 394.6 112.1 396.5 112.2 396.6 112.25 396.75 112.25 397.1 115.15 397.05 Q112.75 397.6 113.5 397.6 L113.9 397.55" fill="#383641" fill-rule="evenodd" stroke="none"/>
    <path d="M100.1 320.4 L105.05 320.2 115.15 334.8 117.1 337.65 122.95 345.9 Q130.0 355.3 135.4 365.65 138.7 371.95 140.3 379.0 139.85 380.5 138.6 381.55 131.2 387.7 122.95 392.55 115.9 397.1 113.9 397.55 L113.5 397.6 Q112.75 397.6 115.15 397.05 L112.25 397.1 112.25 396.75 112.2 396.6 112.1 396.5 110.65 394.6 109.8 393.6 101.15 383.45 Q91.0 371.6 86.65 367.25 L88.0 363.15 91.75 349.6 92.15 348.6 95.45 339.5 97.05 334.8 Q99.3 328.75 100.0 322.35 L100.1 320.4" fill="#4d4158" fill-rule="evenodd" stroke="none"/>
    <path d="M686.3 414.95 L552.75 414.95 499.65 380.85 499.9 378.95 632.5 378.95 Q640.95 385.65 657.65 394.95 L677.15 408.5 686.3 414.95" fill="#3f3850" fill-rule="evenodd" stroke="none"/>
    <path d="M552.55 367.25 L553.7 366.1 561.7 366.1 563.45 366.6 602.7 366.85 642.55 364.75 Q651.05 364.9 655.0 366.05 L657.2 366.95 Q654.75 370.25 650.7 376.6 L636.25 395.35 621.3 397.15 591.2 398.85 557.3 398.95 534.8 398.85 533.85 399.05 527.65 398.75 Q527.3 398.35 525.3 397.55 L525.7 397.6 Q526.45 397.6 524.05 397.05 L526.95 397.1 526.95 396.75 527.0 396.6 527.1 396.5 528.55 394.6 529.4 393.6 538.05 383.45 Q548.2 371.6 552.55 367.25" fill="#383641" fill-rule="evenodd" stroke="none"/>
    <path d="M539.1 320.4 L539.25 319.85 621.7 319.85 622.65 319.65 638.7 319.1 Q645.75 326.15 651.45 340.6 L654.9 350.95 Q657.45 359.7 657.45 363.5 L657.2 366.95 655.0 366.05 Q651.05 364.9 642.55 364.75 L602.7 366.85 563.45 366.6 561.7 366.1 553.7 366.1 552.55 367.25 551.2 363.15 547.45 349.6 547.05 348.6 543.75 339.5 542.15 334.8 Q539.9 328.75 539.2 322.35 L539.1 320.4" fill="#4f4859" fill-rule="evenodd" stroke="none"/>
    <path d="M539.1 320.4 L539.2 322.35 Q539.9 328.75 542.15 334.8 L543.75 339.5 547.05 348.6 547.45 349.6 551.2 363.15 552.55 367.25 Q548.2 371.6 538.05 383.45 L529.4 393.6 528.55 394.6 527.1 396.5 527.0 396.6 526.95 396.75 526.95 397.1 524.05 397.05 Q526.45 397.6 525.7 397.6 L525.3 397.55 Q523.3 397.1 516.25 392.55 508.0 387.7 500.6 381.55 499.35 380.5 498.9 379.0 500.5 371.95 503.8 365.65 509.2 355.3 516.25 345.9 L522.1 337.65 524.05 334.8 534.15 320.2 539.1 320.4" fill="#4d4158" fill-rule="evenodd" stroke="none"/>
    <path d="M-105.25 395.85 L-94.55 393.15 Q-69.25 386.35 -46.75 373.6 -38.7 369.1 -36.15 360.55 -35.3 357.7 -37.55 355.6 -44.0 349.4 -52.25 348.0 L-52.3 349.35 Q-53.1 357.15 -58.55 362.95 -71.9 376.95 -90.1 384.1 -112.8 393.1 -136.5 398.5 -144.05 400.2 -150.5 396.35 -130.1 388.95 -108.95 383.15 -86.15 376.75 -67.0 363.0 -58.25 356.65 -57.75 346.2 L-61.2 345.45 Q-90.55 339.65 -120.5 338.2 L-122.5 334.85 Q-118.35 333.2 -113.85 333.2 -85.85 333.15 -58.9 340.25 L-60.05 337.8 Q-64.4 328.45 -74.0 324.6 L-74.0 322.5 Q-72.2 322.15 -70.35 322.45 -66.8 322.55 -64.0 324.75 -55.45 331.5 -53.0 342.05 -43.45 344.95 -35.55 350.8 -33.7 352.2 -32.6 354.2 -27.8 363.05 -35.75 370.5 -55.15 388.75 -80.75 396.85 L-88.75 399.35 Q-98.45 402.4 -105.25 395.85 M711.0 334.55 Q713.1 335.25 714.8 336.65 721.05 342.05 729.15 342.55 738.4 335.2 750.1 332.45 756.45 331.1 761.2 333.4 L753.55 335.25 Q743.8 337.4 735.7 343.1 L752.4 343.6 Q760.5 344.35 767.55 341.15 771.2 339.6 774.2 339.7 774.6 340.7 774.05 341.65 771.4 346.15 766.05 347.55 747.65 352.25 728.9 349.25 725.95 354.15 728.25 359.8 729.45 362.65 731.9 364.75 745.6 376.5 764.15 376.95 L771.2 376.75 Q777.55 376.2 782.35 379.6 L781.05 381.1 780.55 381.4 Q765.35 384.05 749.8 381.0 737.75 378.7 728.75 370.4 718.4 360.95 724.45 348.25 L722.1 347.65 Q705.0 342.25 689.35 333.7 L681.85 330.0 681.6 328.85 Q685.75 324.95 691.2 327.25 700.9 331.35 711.0 334.55" fill="#494150" fill-rule="evenodd" stroke="none"/>
  </g>
  <defs>
    <radialGradient cx="0" cy="0" gradientTransform="matrix(0.3162, 0.0, 0.0, 0.0758, 306.75, 373.3)" gradientUnits="userSpaceOnUse" id="gradient0" r="819.2" spreadMethod="pad">
      <stop offset="0.47843137254901963" stop-color="#ffffff"/>
      <stop offset="1.0" stop-color="#806699"/>
    </radialGradient>
    <radialGradient cx="0" cy="0" gradientTransform="matrix(0.1318, 0.0, 0.0, 0.022, 308.95, 372.0)" gradientUnits="userSpaceOnUse" id="gradient1" r="819.2" spreadMethod="pad">
      <stop offset="0.47843137254901963" stop-color="#000000" stop-opacity="0.4"/>
      <stop offset="1.0" stop-color="#000000" stop-opacity="0.0"/>
    </radialGradient>
    <radialGradient cx="0" cy="0" fx="-803.2" fy="0" gradientTransform="matrix(0.0, 0.2027, -0.1974, 0.0, 316.95, 118.5)" gradientUnits="userSpaceOnUse" id="gradient2" r="819.2" spreadMethod="pad">
      <stop offset="0.0" stop-color="#ffffff"/>
      <stop offset="0.5215686274509804" stop-color="#ffffff" stop-opacity="0.2509804"/>
      <stop offset="1.0" stop-color="#ffffff" stop-opacity="0.0"/>
    </radialGradient>
  </defs>
</svg>
