<?xml version="1.0" encoding="UTF-8" standalone="no"?>
<svg xmlns:xlink="http://www.w3.org/1999/xlink" height="531.75px" width="911.2px" xmlns="http://www.w3.org/2000/svg">
  <g transform="matrix(1.0, 0.0, 0.0, 1.0, 140.05, 20.8)">
    <path d="M758.95 -3.0 L758.95 355.95 -114.0 355.95 -114.0 -3.0 758.95 -3.0" fill="#5f4359" fill-rule="evenodd" stroke="none"/>
    <path d="M161.1 125.2 Q160.35 131.05 159.05 136.9 156.35 148.9 156.0 161.15 155.85 167.3 156.2 173.45 L159.0 224.55 Q162.85 295.75 164.15 366.8 L163.2 367.55 159.6 367.6 Q157.85 367.5 156.35 366.85 154.95 366.3 153.9 365.1 L152.65 363.45 Q151.25 361.45 151.0 359.1 147.05 321.25 142.6 283.6 139.7 296.9 137.65 310.2 136.25 319.1 135.1 328.0 133.35 341.85 132.3 355.65 132.1 358.15 129.75 359.6 L105.0 357.6 Q101.9 344.8 99.65 331.65 96.65 314.15 95.6 296.5 94.55 279.45 95.7 262.25 96.25 253.8 97.05 245.4 98.25 232.65 100.5 220.05 107.6 180.6 126.35 145.05 123.0 180.2 123.9 215.45 L127.65 191.85 132.3 160.25 Q133.75 149.65 135.45 139.15 136.55 132.25 139.6 126.2 145.3 114.9 154.85 106.55 157.2 108.65 158.7 111.3 160.6 114.7 161.05 118.45 161.5 121.9 161.1 125.2 M257.85 7.25 L262.05 11.3 263.95 55.0 266.95 60.0 271.45 23.2 273.15 26.05 Q275.55 30.3 277.5 34.85 280.1 41.0 281.35 47.5 282.65 54.25 282.95 61.25 283.25 68.6 282.6 76.05 278.8 120.2 284.5 164.1 L285.55 164.7 Q287.9 182.4 287.75 200.4 L287.2 218.45 Q286.45 232.7 284.95 246.9 283.3 262.25 283.0 277.85 282.65 298.75 284.15 319.45 284.65 326.05 284.4 332.7 284.15 339.05 283.15 345.4 281.25 357.9 276.05 369.45 L274.9 369.7 273.55 369.65 272.2 369.2 269.45 368.35 Q265.2 366.65 260.8 367.05 L259.25 367.25 257.05 367.9 Q247.45 287.7 241.95 206.95 L242.05 223.95 242.65 286.95 Q242.75 299.7 241.35 312.45 240.0 324.5 237.1 336.4 231.55 359.4 219.6 379.8 L209.2 375.25 201.95 284.95 200.35 367.9 Q198.05 365.35 196.1 362.5 192.7 357.55 190.9 351.75 184.45 331.1 181.3 309.85 L180.1 310.1 178.95 295.4 Q177.3 273.4 176.3 251.15 175.35 229.1 175.05 207.0 174.75 183.3 175.75 159.4 176.65 137.6 178.75 115.65 180.4 98.25 184.0 81.4 188.35 61.1 198.3 43.3 L199.5 44.2 Q200.6 45.1 200.75 46.4 203.95 78.25 208.1 110.0 208.5 89.05 211.45 68.3 215.35 40.9 227.95 16.8 L227.95 46.0 237.05 12.15 239.85 14.0 257.85 7.25 M494.25 132.0 Q495.25 115.7 500.7 100.45 501.95 108.6 502.85 116.85 503.85 125.7 504.05 134.65 504.3 143.7 504.0 152.8 L503.35 175.85 Q503.05 187.3 503.0 198.8 502.95 221.7 504.6 244.65 505.75 260.25 505.55 275.95 505.3 297.65 502.7 319.25 501.6 328.45 500.65 337.75 499.75 346.7 495.45 354.4 493.55 357.8 490.2 359.85 485.8 362.7 480.8 361.8 479.5 360.5 479.45 358.55 477.35 298.85 474.85 239.1 L473.85 252.55 Q472.75 265.85 470.75 279.15 468.3 295.55 464.5 311.8 460.45 328.9 454.75 345.4 453.95 347.8 451.95 349.3 444.45 354.85 434.95 354.6 436.45 302.7 431.95 250.95 L427.05 354.35 Q422.35 353.95 417.95 352.25 414.85 351.15 411.9 349.75 408.75 348.3 405.85 346.5 L401.6 343.5 Q400.35 342.4 399.45 341.0 398.05 338.9 397.85 336.35 396.85 323.7 397.15 310.95 397.65 289.5 396.55 267.85 L393.45 211.3 Q389.45 144.85 391.75 78.35 392.7 51.3 398.3 24.75 399.55 19.0 404.65 18.75 L405.95 85.0 417.25 24.85 420.5 25.9 Q425.1 27.6 429.45 30.15 433.65 32.65 437.15 36.0 440.8 39.3 443.7 43.5 449.15 51.55 451.95 60.95 454.05 67.9 454.25 75.15 456.45 148.35 459.75 221.5 459.5 208.8 459.95 196.1 460.75 172.0 464.05 148.3 469.3 110.25 480.6 73.65 L486.95 78.0 Q494.1 106.85 494.0 136.6 L494.25 132.0 M516.85 131.85 L523.0 133.3 Q532.75 142.45 540.95 153.25 549.55 164.7 552.9 178.55 555.15 187.75 557.05 196.8 559.95 210.75 561.15 224.75 562.35 239.2 562.25 253.8 562.15 268.4 561.15 283.1 559.4 308.8 554.5 334.0 L548.1 271.85 537.35 359.55 532.05 358.75 Q523.55 356.7 521.1 348.3 518.95 340.8 518.35 332.6 L515.9 294.25 Q514.8 275.05 514.3 255.85 513.8 236.6 514.1 217.35 514.4 198.2 515.5 178.85 516.6 159.45 518.3 140.15 518.6 137.05 516.35 134.9 L516.85 131.85 M343.2 -2.0 L351.15 -0.75 361.05 0.55 Q382.9 4.45 388.6 25.75 L388.6 142.75 Q389.7 180.6 389.15 218.35 388.35 275.15 384.05 331.65 383.4 339.85 383.7 348.05 384.25 362.8 380.7 377.15 377.7 389.25 366.05 389.35 L359.35 342.45 Q356.05 318.85 354.8 295.15 350.3 210.0 343.85 125.25 338.45 156.45 334.35 187.9 326.1 250.75 323.75 314.15 323.25 327.75 323.85 341.45 324.85 365.2 314.85 386.6 L310.3 342.3 Q308.15 320.0 306.9 297.65 301.35 198.55 293.15 99.5 291.65 81.5 289.45 63.6 285.85 33.8 291.25 4.6 298.1 1.3 305.45 -0.65 324.2 -5.65 343.2 -2.0 M78.9 336.6 Q64.9 305.2 84.6 272.35 88.95 306.5 80.4 336.3 80.25 336.85 78.9 336.6" fill="#a73f69" fill-rule="evenodd" stroke="none"/>
    <path d="M339.4 120.3 L337.35 137.0 335.85 137.2 336.2 124.5 339.4 120.3 M410.75 179.1 Q419.85 192.05 419.75 211.45 419.75 214.7 420.45 218.55 426.15 249.4 411.05 271.95 410.7 272.45 409.5 272.3 400.8 226.7 409.1 178.75 L410.75 179.1 M482.8 205.65 L486.35 207.5 Q482.2 243.3 487.4 277.85 487.55 278.7 487.2 279.7 L484.55 280.25 Q474.9 254.9 479.8 225.9 480.6 221.05 480.15 216.2 479.65 211.15 482.1 206.8 L482.8 205.65 M428.65 215.1 L426.85 242.6 425.1 242.85 Q424.65 236.8 423.85 230.85 422.6 221.5 427.2 214.1 L427.5 213.85 428.65 215.1 M443.8 235.45 L444.85 234.4 442.6 265.35 441.35 265.6 440.0 244.75 Q440.2 239.25 443.8 235.45 M550.8 260.1 Q551.45 256.0 555.1 254.05 L550.85 260.85 550.8 260.1 M223.05 157.0 Q223.5 156.0 224.15 156.55 228.8 206.3 219.25 255.55 L212.1 247.6 Q208.65 211.7 214.1 175.75 L216.1 175.0 Q219.3 165.9 223.05 157.0 M318.65 167.45 L314.65 166.95 Q305.15 125.9 315.15 84.3 324.7 120.45 319.4 162.45 L318.65 167.45 M151.35 222.1 Q161.7 259.85 152.05 293.25 L151.5 293.4 Q142.55 258.85 148.5 222.0 L151.35 222.1 M119.5 268.35 Q110.95 241.1 119.5 219.0 121.5 243.45 119.95 267.25 L119.5 268.35 M244.4 218.55 L239.85 236.6 237.85 237.25 Q236.5 226.05 243.8 218.9 244.0 218.65 244.4 218.55 M185.85 224.25 L185.85 202.0 187.35 202.0 185.85 224.25" fill="#d36788" fill-rule="evenodd" stroke="none"/>
    <path d="M35.0 -7.5 L36.5 -7.75 38.2 -3.7 43.15 -6.4 Q46.8 -8.3 50.65 -9.45 54.45 -10.75 58.35 -11.45 L66.4 -12.15 Q73.35 -12.2 80.1 -10.75 81.95 -1.5 82.65 7.8 83.3 16.85 82.5 26.15 81.55 37.15 78.5 48.0 L76.7 42.05 Q74.0 33.15 72.25 23.95 69.95 11.85 68.85 -0.6 L60.75 35.55 Q43.65 113.95 37.85 193.85 39.45 156.15 39.4 118.4 39.35 55.35 35.0 -7.5 M526.0 -10.7 Q526.95 32.65 520.85 75.65 519.45 55.5 518.85 34.75 518.3 14.55 511.55 -4.45 L513.5 -6.1 526.0 -10.7 M627.9 139.4 Q625.0 193.85 624.95 248.4 L624.95 263.9 624.85 262.85 624.85 125.75 Q625.8 60.75 608.6 -2.0 597.8 37.85 594.8 78.9 L593.1 -11.55 Q645.75 -24.6 638.15 31.05 630.8 85.0 627.9 139.4 M-6.75 -1.5 L-3.85 -16.4 0.3 -20.8 Q-8.55 45.6 -13.75 112.35 -20.65 200.7 -29.5 284.5 -30.55 283.75 -30.6 283.05 -35.2 172.5 -45.25 59.75 L-48.35 85.25 Q-66.5 223.1 -54.5 360.1 L-35.0 331.5 Q-32.8 334.2 -31.95 337.55 -24.55 366.65 -32.0 391.35 -49.45 385.45 -66.1 377.85 -74.95 373.7 -84.85 372.6 -98.15 370.95 -110.6 365.9 -119.0 362.4 -120.55 355.6 -136.7 285.25 -139.55 211.8 -143.75 104.3 -112.0 6.5 -107.15 7.75 -102.55 6.5 -54.9 -7.05 -6.75 -1.5 M704.4 379.5 L705.25 372.15 699.1 374.6 701.6 380.35 704.4 379.5 M677.35 19.25 L672.6 18.25 672.35 16.75 Q677.7 12.0 678.85 4.75 L680.35 8.5 681.65 6.7 Q718.6 -37.7 756.85 -4.3 765.4 48.75 768.35 102.25 L768.35 216.25 Q773.9 283.95 768.45 351.75 L711.4 371.35 710.9 375.15 Q709.95 380.9 705.85 385.1 L700.85 385.1 693.85 376.6 678.85 386.35 Q673.2 321.55 671.65 256.45 682.35 313.1 697.0 369.2 L705.35 366.35 Q701.25 309.9 706.75 253.7 718.15 137.45 702.6 23.75 681.7 123.7 675.3 225.6 L677.35 19.25 M36.85 245.8 L38.25 245.5 Q41.75 315.35 47.85 385.0 L45.55 385.0 42.85 382.55 39.7 391.05 36.45 390.95 Q36.1 383.85 36.45 376.75 39.55 310.95 36.85 245.8 M143.25 7.75 L144.5 13.5 Q149.35 36.2 144.25 58.75 L143.0 59.25 Q139.5 33.45 143.25 7.75 M620.85 355.1 L619.85 350.55 Q613.6 328.15 622.1 306.75 L622.1 354.6 620.85 355.1" fill="#543d50" fill-rule="evenodd" stroke="none"/>
    <path d="M758.95 455.95 L758.95 471.95 756.95 471.95 756.95 475.95 758.95 475.95 758.95 510.95 -115.0 510.95 -115.0 455.95 225.25 455.95 398.25 455.95 758.95 455.95" fill="#6a515e" fill-rule="evenodd" stroke="none"/>
    <path d="M102.1 355.95 L535.6 355.95 Q525.4 372.75 510.0 385.25 494.7 397.6 476.25 404.35 L471.45 405.95 155.2 405.95 Q137.65 398.45 123.9 385.1 116.25 377.65 109.15 369.85 103.75 363.95 102.1 355.95" fill="#dcb781" fill-rule="evenodd" stroke="none"/>
    <path d="M-115.0 405.95 L-115.0 355.95 102.1 355.95 Q103.75 363.95 109.15 369.85 116.25 377.65 123.9 385.1 137.65 398.45 155.2 405.95 L154.55 405.95 -115.0 405.95 M535.6 355.95 L758.95 355.95 758.95 405.95 471.7 405.95 471.45 405.95 476.25 404.35 Q494.7 397.6 510.0 385.25 525.4 372.75 535.6 355.95" fill="#8e6060" fill-rule="evenodd" stroke="none"/>
    <path d="M-115.0 455.95 L-115.0 405.95 154.55 405.95 Q164.3 422.8 179.3 435.1 194.85 447.85 214.35 453.4 219.75 455.0 225.25 455.95 L-115.0 455.95 M758.95 405.95 L758.95 455.95 398.25 455.95 Q416.5 451.05 432.75 441.45 448.7 432.05 461.4 418.5 467.0 412.5 471.7 405.95 L758.95 405.95" fill="#754f4f" fill-rule="evenodd" stroke="none"/>
    <path d="M398.25 455.95 L225.25 455.95 Q219.75 455.0 214.35 453.4 194.85 447.85 179.3 435.1 164.3 422.8 154.55 405.95 L155.2 405.95 471.45 405.95 471.7 405.95 Q467.0 412.5 461.4 418.5 448.7 432.05 432.75 441.45 416.5 451.05 398.25 455.95" fill="#be8763" fill-rule="evenodd" stroke="none"/>
    <path d="M161.7 405.9 Q161.35 405.55 161.25 405.0 169.75 384.8 184.25 368.6 L162.25 406.1 Q161.85 406.1 161.7 405.9 M292.25 372.6 L292.5 374.1 291.0 394.1 Q290.3 387.7 290.15 381.5 290.0 375.8 292.25 372.6 M236.45 364.8 Q232.75 375.15 228.3 385.05 224.05 394.5 218.5 402.1 L236.5 362.0 Q237.0 363.3 236.45 364.8 M113.05 390.2 Q108.75 394.15 103.55 393.85 L103.35 393.25 108.15 389.1 Q128.6 372.35 150.25 357.6 L148.05 359.95 Q134.35 373.65 118.95 385.35 115.85 387.65 113.05 390.2 M507.5 356.85 Q510.2 356.35 512.05 358.2 520.4 366.45 529.35 374.25 533.05 377.45 535.25 381.1 531.9 379.9 529.2 377.8 517.0 368.75 507.5 356.85 M446.0 357.85 L446.1 357.45 Q451.65 360.45 454.25 366.1 L446.0 357.85 M469.5 386.6 L478.25 395.2 489.5 407.6 Q476.3 400.35 469.5 386.6 M401.55 362.15 L401.75 361.75 Q405.8 365.4 408.2 370.45 414.05 382.95 419.35 395.55 L418.5 396.1 417.4 393.25 Q411.45 376.5 401.55 362.15 M363.5 387.35 L363.3 387.65 Q361.6 386.3 360.85 382.4 358.95 372.4 356.65 363.45 L357.0 363.5 Q362.4 374.75 363.5 387.35" fill="#8e6060" fill-rule="evenodd" stroke="none"/>
    <path d="M359.3 358.15 L362.85 361.85 361.0 363.65 361.1 365.25 360.85 368.55 Q360.35 369.9 358.35 370.75 354.55 372.35 336.85 374.1 L301.85 374.1 275.05 372.65 272.05 371.8 269.85 370.85 Q267.05 370.05 265.7 368.4 264.85 367.35 264.85 366.35 264.85 362.5 274.0 358.95 279.0 357.0 287.85 354.6 L324.85 354.6 333.9 356.4 Q334.0 355.4 334.4 354.85 334.75 354.3 335.85 353.85 L344.15 354.6 Q349.4 354.9 355.85 354.6 L359.3 358.15" fill="#8e6060" fill-rule="evenodd" stroke="none"/>
    <path d="M111.1 285.25 Q111.7 281.9 113.85 279.85 123.0 279.1 128.75 274.85 131.2 273.0 133.4 272.4 L142.85 271.85 Q146.1 273.95 147.2 275.85 147.85 277.0 147.85 278.75 147.85 281.7 145.45 283.7 142.7 286.0 135.85 287.85 L130.85 287.85 128.45 286.15 126.85 284.85 116.85 286.35 116.85 297.6 Q117.35 301.0 117.85 307.75 118.35 314.5 118.85 317.85 L118.85 370.35 119.65 378.6 Q119.9 382.25 120.25 384.75 121.5 385.45 123.0 386.55 L129.85 391.6 129.7 393.0 Q129.4 393.85 127.85 393.85 125.05 393.85 120.15 389.6 L119.6 389.15 Q117.25 389.35 113.5 390.45 L108.35 391.6 106.55 391.35 106.6 391.1 106.35 391.5 Q106.1 391.55 106.1 390.0 106.1 388.65 107.35 387.65 L110.1 386.0 Q114.1 383.6 114.1 379.35 114.1 374.1 112.85 370.35 L112.85 319.35 Q112.15 312.7 111.5 302.2 L110.85 290.5 Q110.85 286.65 111.1 285.25" fill="#414350" fill-rule="evenodd" stroke="none"/>
    <path d="M138.25 276.6 L136.0 278.1 133.25 277.85 133.0 278.05 Q132.75 277.9 132.75 276.35 132.75 275.05 133.9 274.2 135.25 273.25 137.5 273.75 L138.3 273.95 Q138.5 274.0 138.5 275.5 138.5 278.0 138.25 276.6" fill="#ffffff" fill-rule="evenodd" stroke="none"/>
    <path d="M296.0 417.15 L360.1 417.1 361.0 415.6 361.85 414.45 Q363.1 412.9 365.15 413.3 L365.25 414.6 365.1 415.8 Q364.75 417.4 363.55 418.55 L362.5 419.5 361.05 419.8 Q328.35 422.35 295.85 418.35 L296.0 417.15 M288.85 419.1 Q258.0 418.05 227.65 420.0 L226.85 417.85 Q257.65 414.85 288.4 413.9 289.2 413.55 288.8 411.9 L291.35 410.85 288.85 419.1 M219.3 420.0 L158.7 417.1 Q186.7 413.35 215.5 416.1 L218.3 409.7 Q216.45 415.15 219.2 419.8 L219.3 420.0 M477.35 418.1 L427.45 418.1 427.3 417.65 427.2 417.45 Q448.75 417.2 470.3 417.25 L477.35 418.1 M421.15 411.9 Q419.7 422.7 405.65 422.55 385.4 422.3 366.6 418.1 L366.6 416.85 Q391.9 418.85 417.1 416.1 L421.15 411.9" fill="#754f4f" fill-opacity="0.4" fill-rule="evenodd" stroke="none"/>
    <path d="M377.2 404.0 L366.1 404.6 364.25 402.1 375.4 403.4 377.2 404.0 M436.4 404.65 Q428.65 406.1 421.35 403.85 L422.1 403.1 436.85 401.6 443.25 403.0 436.4 404.65 M179.2 406.3 L172.15 407.2 Q168.3 408.1 165.85 405.85 L166.15 405.65 Q174.85 401.5 184.9 404.2 L186.35 405.1 179.2 406.3 M219.1 404.85 L219.0 402.45 244.35 404.1 219.1 404.85 M311.05 406.2 Q301.55 406.3 292.6 404.1 L292.6 402.85 312.4 404.2 314.35 405.1 Q313.0 406.15 311.05 406.2" fill="#efdd98" fill-rule="evenodd" stroke="none"/>
  </g>
</svg>
