<?xml version="1.0" encoding="UTF-8" standalone="no"?>
<svg xmlns:xlink="http://www.w3.org/1999/xlink" height="536.25px" width="929.35px" xmlns="http://www.w3.org/2000/svg">
  <g transform="matrix(1.0, 0.0, 0.0, 1.0, 144.0, 41.4)">
    <path d="M750.0 480.0 L-110.0 480.0 -110.0 0.0 750.0 0.0 750.0 480.0" fill="url(#gradient0)" fill-rule="evenodd" stroke="none"/>
    <path d="M714.3 -35.1 Q736.4 -32.7 744.6 -30.0 750.3 -28.1 758.35 -23.15 765.0 -19.05 772.85 -17.5 781.45 -15.75 783.55 -12.05 784.35 -10.6 784.35 -5.1 784.35 12.45 780.35 58.5 776.35 104.5 776.35 124.25 L776.35 139.25 Q776.35 144.6 778.35 148.5 780.35 152.4 780.35 154.25 780.35 158.0 741.85 182.5 L736.85 182.5 Q735.4 182.0 735.05 181.7 734.35 181.05 734.35 179.35 734.35 176.6 738.0 171.9 L744.35 164.0 733.35 164.0 725.4 170.9 Q720.55 175.15 715.6 178.75 712.8 180.8 703.65 184.9 693.35 189.5 689.85 189.5 675.7 189.5 670.45 186.8 668.7 185.9 667.7 184.55 L666.35 182.75 661.35 182.75 Q655.75 184.9 653.45 185.45 L642.35 186.25 Q641.1 186.25 637.85 185.25 634.6 184.25 633.35 184.25 629.65 184.25 623.0 186.95 L613.35 191.25 Q611.55 192.05 603.4 193.25 L591.6 195.0 Q584.15 196.5 569.85 201.8 559.1 205.75 550.35 205.75 542.8 205.75 538.95 203.55 535.7 201.7 526.85 202.5 522.0 202.85 518.3 201.8 514.85 200.8 513.85 199.0 L513.85 198.6 Q513.85 194.8 531.3 190.25 540.05 188.0 548.85 186.5 556.35 186.0 560.45 183.9 563.25 182.45 565.45 179.45 568.15 175.75 569.35 174.8 572.25 172.4 577.6 171.5 L578.85 170.0 577.4 168.15 Q576.85 167.15 576.85 165.5 L577.9 163.65 Q579.15 161.7 579.85 159.5 L579.85 153.5 579.6 152.75 Q576.75 156.2 569.55 155.8 560.0 155.25 557.35 156.0 L548.85 159.5 542.55 161.25 536.85 162.5 527.8 161.75 516.1 160.25 Q514.6 158.75 514.6 156.5 516.2 154.9 522.0 153.4 L529.85 151.75 Q535.25 150.55 538.0 149.1 542.85 146.6 546.35 145.25 565.1 138.3 565.1 133.0 565.1 132.1 562.75 130.3 560.35 128.45 560.35 126.25 560.35 125.65 560.85 123.65 L561.35 120.25 Q561.35 119.15 559.35 116.9 557.35 114.65 557.35 113.5 557.35 110.9 563.4 107.05 570.6 102.5 579.35 102.5 584.45 102.5 587.65 104.45 590.55 106.2 593.1 106.0 L588.35 100.0 Q585.65 96.7 585.35 94.75 585.05 92.95 585.15 89.5 L585.35 84.6 585.25 79.35 Q585.3 74.7 586.45 71.3 589.85 60.8 602.35 62.0 602.65 61.8 602.9 61.55 603.55 60.95 604.35 60.5 589.0 52.55 583.85 42.5 580.6 36.1 580.6 24.85 580.6 22.8 581.4 16.6 582.2 10.0 583.1 5.75 583.8 2.4 588.25 -2.8 594.15 -9.85 595.6 -12.25 596.8 -14.15 597.2 -16.9 L597.7 -21.6 Q598.55 -27.35 603.85 -30.25 612.95 -35.25 621.5 -37.1 L632.85 -39.5 660.85 -39.5 714.3 -35.1 M32.7 -14.85 Q32.5 -15.35 32.5 -17.0 32.5 -19.25 34.75 -20.75 37.7 -22.75 44.0 -22.75 48.45 -22.75 62.4 -13.8 L76.75 -4.0 Q86.25 2.45 86.25 16.6 86.25 24.0 83.15 29.35 79.5 35.55 70.0 42.5 L72.7 46.55 Q73.3 47.55 73.65 47.55 L75.8 47.0 82.0 46.5 Q95.45 46.5 103.5 56.0 110.5 64.3 110.5 75.1 110.5 85.75 106.2 94.1 99.2 107.65 82.5 109.75 84.9 112.35 85.3 113.9 85.5 114.6 85.5 118.0 85.5 119.5 84.8 121.0 L82.75 126.25 83.85 127.65 84.75 128.25 91.9 127.8 97.0 127.5 Q103.6 131.05 105.5 134.8 106.5 136.8 106.5 141.1 106.5 145.6 104.05 150.2 100.75 156.5 94.5 158.0 L106.45 158.35 Q107.55 161.55 111.75 165.0 L113.9 166.6 107.6 167.15 117.15 168.4 119.05 169.15 115.75 167.25 Q117.6 164.2 122.45 165.0 L131.25 167.5 142.85 170.65 154.25 173.75 154.5 174.25 146.0 175.0 Q134.4 175.0 124.25 171.3 L122.85 170.8 Q124.7 172.5 127.0 174.25 L128.2 175.35 127.0 175.75 Q117.8 175.15 109.35 173.65 L86.75 170.25 86.6 169.2 85.5 169.25 Q73.25 169.25 67.35 167.4 63.2 166.05 57.0 161.5 L48.25 161.75 47.9 162.95 Q47.5 164.05 47.5 165.5 L51.0 168.75 Q54.5 172.0 54.5 175.25 54.5 176.7 56.0 180.3 57.0 182.9 57.75 184.25 L61.0 184.5 Q63.25 186.05 64.45 187.6 65.5 188.95 65.5 189.85 65.5 192.5 63.5 197.0 70.8 198.3 77.15 199.85 86.35 202.1 88.0 203.75 L92.0 206.7 Q95.25 209.05 95.25 209.75 95.25 211.4 94.6 212.15 L93.0 213.0 Q67.45 213.3 64.65 215.8 63.95 216.45 63.7 217.5 62.9 218.25 58.5 218.25 L53.0 217.45 40.0 216.25 Q38.55 215.3 36.85 213.1 35.15 210.8 33.5 209.75 L22.55 210.15 18.5 210.5 Q17.45 210.5 12.8 207.5 7.65 204.2 5.0 203.5 3.35 203.05 1.25 201.5 -1.2 199.7 -2.7 199.05 -8.95 196.2 -23.0 197.5 L-40.0 197.5 -43.8 192.7 Q-46.65 188.8 -48.25 187.25 -50.25 185.2 -56.7 181.4 -62.95 177.75 -64.0 177.75 -66.3 177.75 -67.75 179.6 L-70.15 183.65 Q-73.85 189.5 -83.5 189.5 -88.85 189.5 -98.6 186.3 -105.95 183.9 -108.6 182.5 L-116.7 178.8 Q-121.05 176.75 -123.35 174.0 -125.7 171.15 -125.55 164.75 L-125.35 155.25 Q-125.45 150.05 -126.95 136.9 -128.35 124.4 -128.35 117.75 -128.45 109.75 -132.4 77.5 -136.35 45.4 -136.35 43.5 -136.35 34.95 -132.7 20.5 -128.3 4.7 -126.85 -2.25 -126.3 -6.2 -125.55 -8.65 -124.2 -13.25 -121.85 -13.5 L-113.35 -14.25 Q-108.55 -14.75 -106.5 -15.5 L-101.3 -17.1 Q-97.65 -18.3 -96.0 -19.25 -74.6 -31.05 -51.0 -33.25 L-51.0 -33.5 -24.0 -33.5 Q-19.55 -32.35 -13.1 -32.6 L-2.35 -33.15 Q10.3 -33.3 17.25 -25.0 18.6 -23.3 24.8 -18.85 L31.75 -13.75 33.25 -14.0 32.7 -14.85 M516.25 -6.25 Q514.3 -4.85 500.25 -0.35 486.3 4.1 483.0 4.5 L479.7 3.8 Q478.45 3.35 478.25 2.75 L513.0 -7.5 514.35 -7.15 Q515.8 -6.7 516.25 -6.25 M574.0 48.25 Q573.25 47.25 572.0 47.25 L567.7 48.7 561.0 51.0 550.05 53.0 Q543.9 53.95 545.0 55.25 544.0 54.75 543.5 54.0 543.5 52.75 544.0 52.5 557.75 49.7 562.3 47.45 565.75 45.7 565.75 42.85 565.75 39.95 570.9 38.85 576.0 37.75 576.0 41.85 576.0 42.95 577.65 44.2 L578.7 45.05 Q579.5 44.6 580.25 44.75 L580.5 45.25 579.25 45.8 579.25 45.85 Q579.25 48.35 579.0 48.5 L578.25 48.9 576.0 49.25 Q574.75 49.25 574.0 48.25 M500.9 37.65 L495.5 41.25 Q496.35 38.65 500.75 36.05 504.55 33.75 506.25 33.75 L500.9 37.65 M512.0 166.0 L513.15 166.35 Q514.35 166.8 514.5 167.25 511.55 170.2 505.65 170.9 498.4 171.8 496.0 173.0 L493.75 172.25 493.5 172.6 Q493.25 172.65 493.25 171.1 493.25 167.05 499.75 166.0 L506.5 165.75 512.0 166.0 M493.25 169.75 Q492.6 171.4 484.0 172.25 481.25 171.75 480.5 171.0 L481.25 170.25 489.15 169.45 493.25 169.75 M441.0 61.25 L440.65 63.15 441.95 61.55 Q447.55 54.95 449.25 53.25 452.75 52.35 455.95 53.7 459.75 55.3 460.25 59.25 L460.3 59.7 460.5 60.5 Q462.4 59.65 467.55 58.15 L470.75 56.8 Q469.95 56.6 469.75 56.25 472.2 54.45 475.6 53.55 L485.25 51.75 Q484.3 52.9 480.1 55.2 L476.0 57.25 473.9 57.2 Q472.5 58.65 468.95 61.1 463.7 64.7 462.0 65.25 L452.4 69.3 Q446.2 71.75 439.0 72.0 L436.75 70.1 Q435.35 71.95 434.25 72.5 431.1 74.05 424.0 76.5 418.1 78.5 415.7 78.1 413.95 77.25 412.5 77.25 411.25 77.25 410.25 78.25 409.25 79.25 408.0 79.25 L366.5 76.5 Q400.4 75.8 404.25 75.4 406.65 75.1 407.85 74.4 L411.25 72.5 415.1 72.1 Q417.85 71.85 420.75 69.25 421.6 68.5 422.45 65.65 423.4 62.3 424.2 60.85 427.55 55.05 438.0 57.0 440.25 57.65 440.8 59.0 441.0 59.45 441.0 61.25 M337.3 24.85 Q336.4 24.2 336.25 23.75 339.25 22.9 340.0 24.0 L341.15 24.35 Q342.35 24.8 342.5 25.25 L342.0 25.75 338.5 25.75 337.3 24.85 M338.55 182.05 L338.25 186.25 338.0 186.5 345.0 186.75 349.0 190.0 357.25 189.3 364.0 189.0 Q366.1 189.85 366.5 191.0 362.2 195.3 358.55 195.15 352.45 194.0 345.5 194.0 340.6 196.5 334.25 197.5 L333.95 197.55 331.55 199.55 Q326.5 202.5 313.0 202.5 307.7 202.5 303.7 201.15 300.65 199.75 300.0 199.75 L295.5 200.15 283.5 201.25 Q282.9 201.25 281.65 202.0 280.4 202.75 279.0 202.75 276.35 202.75 271.55 200.55 266.2 198.05 264.5 197.75 L242.25 194.0 Q230.7 192.0 222.8 189.2 214.65 186.35 212.75 183.5 L204.5 183.55 199.25 183.25 196.75 180.25 196.75 179.5 Q204.55 180.75 211.45 176.8 215.4 174.6 223.0 167.5 L228.0 167.5 Q229.05 168.15 230.35 169.75 230.95 170.5 233.25 170.5 234.0 170.5 238.25 167.65 242.45 164.75 245.0 164.75 247.45 164.75 253.35 167.65 258.75 170.25 259.2 171.55 L260.25 170.5 261.45 168.3 Q262.15 166.65 262.75 166.0 265.35 163.15 269.3 160.8 271.45 159.5 275.0 157.75 276.9 157.75 278.95 158.45 L282.0 159.75 Q282.55 157.75 285.55 153.65 288.5 149.5 290.0 148.75 L301.65 149.3 Q308.5 150.5 311.25 154.75 312.0 155.85 312.5 158.0 L313.25 161.5 Q314.4 165.1 314.9 168.65 L315.5 175.0 Q333.25 172.6 337.25 177.55 338.6 179.2 338.55 182.05 M379.15 190.3 L373.5 189.75 373.0 189.0 Q373.5 188.25 388.0 187.5 L389.4 187.85 Q390.9 188.3 391.5 188.75 391.3 189.3 389.35 189.9 L385.5 190.5 379.15 190.3 M408.5 182.0 Q410.3 180.55 414.45 179.9 L419.0 179.5 419.0 179.25 Q423.25 179.75 423.5 180.25 L417.0 182.4 Q412.85 183.6 411.5 185.0 L409.85 183.45 408.5 182.0 M491.25 206.75 Q491.65 206.5 492.4 206.3 L493.0 206.0 495.8 206.2 Q498.7 206.55 499.0 207.0 L498.5 207.75 493.0 208.0 Q491.5 207.5 491.25 206.75 M261.5 63.1 L240.0 62.25 238.3 61.15 237.0 61.5 218.45 58.85 Q206.5 56.65 202.75 54.1 L191.25 52.25 187.7 49.45 187.0 49.5 181.55 48.9 175.0 47.5 173.2 46.9 Q172.5 46.4 172.5 44.75 172.5 43.15 173.7 40.4 171.75 38.65 171.75 36.75 171.75 34.85 176.65 32.4 L182.0 29.75 191.35 30.5 199.0 31.0 Q201.85 33.15 202.5 34.9 L202.75 38.25 Q202.75 39.65 201.8 42.95 L200.5 48.0 Q202.1 48.75 214.5 50.55 226.0 52.2 228.25 54.25 L229.5 55.0 Q228.1 55.85 226.15 56.1 L230.15 57.0 238.95 59.25 241.7 59.5 266.5 61.5 267.55 61.95 269.0 63.0 269.35 63.4 Q269.4 63.75 267.85 63.75 L261.5 63.1 M168.1 30.3 Q164.8 29.45 159.0 31.25 157.5 30.75 157.0 30.0 159.25 29.15 159.75 27.95 L168.5 28.25 171.75 30.5 Q171.75 31.25 171.0 31.75 169.8 30.8 168.1 30.3 M186.25 41.5 Q186.1 41.5 185.05 42.25 184.05 42.95 182.75 43.0 L182.75 43.5 185.25 44.25 185.5 42.25 186.25 41.5 M172.25 118.75 L172.75 120.25 Q170.9 122.9 166.3 126.0 162.15 128.75 159.5 129.5 L159.0 128.0 160.75 126.75 Q162.5 125.4 163.25 124.25 L163.75 123.5 158.0 122.6 Q156.25 122.4 154.5 119.75 155.2 119.05 155.0 117.95 154.9 117.0 155.25 116.8 L169.0 117.5 172.25 118.75 M179.25 177.0 L179.0 177.35 Q178.75 177.4 178.75 175.85 178.75 174.3 179.6 173.95 L181.0 173.75 182.35 173.95 Q183.8 174.3 184.25 174.75 L184.25 175.5 182.2 176.35 179.25 177.0 M133.0 60.0 Q134.85 60.5 136.65 63.5 138.65 66.75 141.0 67.75 142.75 68.5 144.75 70.1 L150.25 74.25 146.65 74.55 143.0 75.0 138.75 72.7 Q134.35 70.25 132.5 69.75 126.55 68.05 124.95 67.2 123.0 66.2 123.0 64.6 123.0 61.85 126.6 60.55 129.7 59.45 133.0 60.0 M738.3 214.75 Q738.95 216.2 739.85 217.0 739.5 217.55 738.45 217.65 L735.35 217.5 734.6 219.0 737.6 222.3 Q738.6 223.7 738.6 224.25 738.6 227.1 736.65 228.4 734.7 229.7 726.6 232.25 727.95 233.55 727.75 235.25 727.5 237.1 725.45 238.65 720.35 242.6 707.35 242.6 699.75 242.6 698.2 241.45 697.7 241.05 697.35 240.2 697.0 239.25 696.5 238.75 L687.0 238.75 682.1 239.55 Q679.05 240.15 677.0 241.1 677.65 243.0 679.5 244.85 674.0 244.0 672.3 242.8 670.5 241.5 670.5 238.0 670.5 236.4 671.0 235.85 L672.25 235.0 Q675.2 234.3 679.0 232.65 683.9 231.3 695.75 231.0 696.25 230.5 699.75 228.9 703.6 227.1 705.5 226.75 705.85 225.75 707.65 224.3 709.8 222.55 711.35 220.0 711.8 219.3 711.5 217.45 L711.1 214.0 Q711.1 210.65 716.05 208.55 721.35 206.3 729.85 206.75 735.25 208.9 737.1 212.2 L738.3 214.75 M725.85 216.5 L726.15 216.7 727.35 216.75 728.35 216.0 725.35 215.5 725.85 216.5 M-69.6 220.1 Q-70.95 222.25 -74.75 227.25 -76.3 225.5 -76.5 222.6 -76.7 219.6 -75.25 218.25 L-81.25 218.75 Q-80.5 222.9 -82.2 226.3 -84.85 231.75 -93.0 231.75 -97.6 231.75 -98.1 229.75 -97.75 227.2 -97.75 226.0 -107.8 226.0 -113.0 221.35 -117.1 217.65 -117.1 212.5 -117.1 206.6 -115.55 203.9 -113.45 200.35 -108.0 200.5 L-94.75 203.25 Q-90.4 204.3 -89.0 205.25 L-84.55 209.25 Q-81.75 211.75 -80.5 211.75 L-75.5 210.65 Q-71.75 209.5 -70.5 209.5 -67.95 209.5 -67.0 211.1 -66.5 211.95 -66.5 213.0 -66.5 215.35 -69.6 220.1 M-88.0 221.0 L-91.75 224.75 -88.75 224.75 -87.1 222.55 Q-86.8 221.9 -87.0 221.0 L-87.2 220.9 -88.0 221.0" fill="#ffffff" fill-rule="evenodd" stroke="none"/>
    <path d="M707.05 -41.4 Q717.65 -41.4 730.85 -39.25 741.75 -36.5 744.9 -31.25 745.8 -29.75 746.6 -26.85 747.4 -23.95 748.1 -22.75 L758.05 -7.0 759.05 -5.25 758.85 -3.25 Q758.85 0.4 759.9 3.8 L756.85 5.25 Q750.3 8.5 742.0 21.75 L739.85 25.35 738.2 19.15 Q735.55 8.75 726.85 8.75 714.9 8.75 708.6 12.35 L704.85 13.75 Q692.6 18.85 684.25 28.05 674.85 38.35 674.85 49.6 674.85 51.05 676.1 55.05 677.9 60.9 681.15 65.75 686.45 73.85 694.35 77.65 L689.25 78.55 678.7 80.2 Q672.75 81.6 669.5 84.5 665.55 88.0 662.2 92.0 660.3 94.25 659.2 96.0 648.9 95.2 641.15 102.0 632.0 110.0 632.0 123.85 L632.05 124.6 624.5 123.95 Q612.75 123.7 604.9 127.75 596.0 132.4 596.0 141.1 L596.05 142.7 588.05 143.45 581.75 143.9 581.85 141.45 Q585.0 140.3 587.65 138.55 594.7 133.95 594.85 128.4 598.05 126.25 602.5 125.0 L602.35 117.45 Q602.45 115.1 604.0 112.5 L617.5 112.0 Q612.6 108.85 611.4 106.8 610.5 105.3 610.5 101.5 610.5 98.4 613.05 93.9 L617.5 85.75 618.55 82.0 Q619.45 79.05 620.75 77.5 L621.8 75.65 Q622.25 74.85 623.3 74.4 625.75 73.4 638.75 72.25 635.35 67.3 634.8 65.45 634.5 64.5 634.5 60.6 634.5 56.0 634.8 55.2 635.25 54.1 639.75 47.5 629.5 40.15 626.05 32.1 623.75 26.8 623.75 17.85 623.75 12.05 625.5 4.75 628.1 -5.85 633.5 -14.0 649.4 -37.7 684.5 -33.25 686.8 -41.4 707.05 -41.4 M578.5 197.9 L564.0 199.5 562.1 199.1 Q561.5 198.7 561.5 197.0 561.5 194.25 568.05 190.65 575.1 186.8 583.75 185.75 587.75 185.25 594.8 181.9 602.95 178.0 608.75 176.5 609.35 165.95 614.75 163.65 618.25 162.15 630.75 163.25 630.25 157.3 632.55 152.15 635.1 146.4 641.5 140.75 646.45 136.4 652.25 134.0 L661.0 134.0 669.0 138.0 674.0 147.0 Q681.8 140.8 686.2 131.4 688.5 130.75 691.0 130.75 701.6 130.75 704.45 135.4 705.9 137.75 705.25 140.5 L705.5 141.0 Q722.5 137.0 726.6 134.8 733.35 131.2 733.35 123.0 733.35 121.75 728.25 116.3 722.75 110.45 722.35 109.5 719.95 104.0 719.65 102.75 719.35 101.55 719.35 97.1 719.35 89.35 723.95 83.9 727.35 79.85 741.35 69.0 755.25 58.3 769.4 67.15 774.45 70.35 778.1 75.2 781.35 79.55 781.35 82.0 781.35 83.2 780.35 86.3 779.35 89.45 779.35 91.0 L781.85 91.5 Q784.55 92.5 785.2 96.15 L785.35 100.6 Q785.35 106.15 783.6 108.65 780.2 113.45 778.1 119.0 776.85 122.45 777.5 129.15 L778.35 137.0 Q778.35 143.5 777.8 145.25 776.5 149.6 771.35 150.0 756.05 151.4 747.1 156.45 L740.65 160.05 Q737.75 161.4 734.2 162.15 732.35 163.8 730.7 166.4 L727.1 172.5 Q723.15 178.35 714.7 183.4 707.7 187.5 694.0 193.0 L681.0 193.0 Q678.7 191.9 678.75 189.8 678.8 188.0 680.0 187.25 676.85 186.65 674.55 185.85 L671.15 184.75 649.75 183.75 Q646.55 188.4 640.75 189.2 634.8 189.3 633.0 190.0 624.3 193.0 618.5 194.6 603.5 198.75 594.5 198.75 593.05 198.75 590.4 197.85 L587.0 196.75 578.5 197.9 M441.25 66.75 L441.75 67.0 Q442.25 67.25 442.25 68.75 442.25 70.05 439.1 73.1 436.1 76.05 435.0 76.25 L429.0 76.25 Q428.5 75.6 427.45 72.35 426.5 69.35 426.5 69.0 426.5 66.6 430.0 66.45 L441.25 66.75 M449.5 69.0 L449.25 68.7 Q449.0 68.55 449.0 67.1 449.0 61.8 455.25 63.75 L455.75 65.25 454.8 68.0 Q454.35 69.25 452.5 69.25 L450.05 69.15 449.5 69.0 M330.0 201.25 Q303.7 200.7 296.75 203.4 L293.35 205.35 Q291.75 206.25 288.5 206.25 287.85 206.25 280.7 202.85 272.55 198.95 267.5 197.5 245.75 191.05 245.75 188.5 245.75 187.25 249.0 185.5 251.5 185.2 257.15 186.7 L264.25 188.5 Q264.85 187.8 265.6 185.9 266.35 183.95 267.15 183.0 269.95 179.55 278.5 179.0 278.95 172.5 283.5 167.9 287.75 163.7 293.35 162.95 299.1 162.15 302.95 165.55 307.25 169.4 307.25 177.25 L310.0 177.75 Q313.15 178.8 313.35 182.3 313.5 185.15 312.0 187.25 315.1 189.75 321.1 193.2 327.3 196.75 332.25 198.75 331.6 200.7 330.0 201.25 M177.55 38.85 Q180.85 38.25 187.0 40.25 189.05 40.9 189.6 42.35 L189.75 44.1 Q189.75 46.1 187.55 48.25 185.45 50.25 184.0 50.25 180.75 50.25 177.25 46.75 174.25 43.8 174.25 42.6 174.25 39.45 177.55 38.85 M85.25 85.25 Q85.25 92.9 80.2 99.05 71.65 109.5 51.75 107.5 51.5 107.25 51.25 107.3 50.75 107.45 50.75 109.0 50.75 109.45 53.05 113.7 50.45 113.05 47.5 112.85 L45.25 109.75 45.25 110.0 47.35 112.85 Q44.25 112.6 41.5 112.85 L41.25 112.5 40.5 111.4 42.6 105.9 Q44.0 101.6 44.0 99.35 44.0 91.9 41.35 86.8 L40.3 84.75 40.5 82.35 Q40.5 79.5 36.95 77.1 L34.75 70.5 34.1 69.35 Q39.1 68.7 45.25 66.25 L48.4 63.9 Q51.6 61.6 52.5 61.25 59.0 58.6 62.6 58.0 68.7 57.0 73.25 59.75 79.8 64.85 82.85 72.55 85.25 78.55 85.25 85.25 M25.4 42.95 Q27.0 42.15 27.0 40.75 31.7 40.35 33.9 42.1 35.25 43.2 35.25 44.5 35.25 46.4 32.3 49.05 29.5 51.5 28.0 51.5 L25.45 51.25 24.75 51.0 24.15 47.9 Q23.75 46.05 23.75 44.6 23.75 43.75 25.4 42.95 M26.6 178.55 Q27.4 180.05 27.25 183.5 40.9 186.85 42.8 192.8 43.35 194.6 43.1 197.95 42.85 201.5 43.25 203.0 55.6 203.95 60.9 209.6 62.5 211.25 64.1 214.15 65.7 217.05 66.5 217.85 L66.0 219.35 65.5 220.05 63.5 220.35 Q61.15 220.35 59.15 219.15 L55.15 216.75 Q48.4 213.8 31.0 216.35 28.1 215.9 27.1 213.2 25.8 209.5 25.5 209.25 L25.05 208.85 24.25 209.0 23.3 207.95 22.6 207.75 21.5 207.75 19.5 207.55 19.05 207.55 9.0 208.5 Q4.2 208.5 -2.1 203.65 -8.35 198.75 -9.0 198.75 L-18.75 202.25 Q-28.65 205.75 -30.5 205.75 -42.85 205.75 -47.9 202.15 -51.3 199.75 -57.75 189.0 L-62.1 187.2 Q-65.75 185.75 -67.0 185.75 -68.15 185.75 -69.45 187.65 L-72.45 191.75 Q-77.75 197.75 -88.5 197.75 -95.5 197.75 -119.75 184.25 L-127.45 176.0 Q-128.75 174.45 -128.75 169.6 L-127.75 160.25 -126.75 150.85 Q-126.75 147.5 -130.1 137.1 -133.5 126.7 -133.5 126.0 L-133.95 114.3 Q-134.3 107.1 -134.75 102.0 -135.3 95.5 -139.75 74.7 -144.0 54.8 -144.0 53.6 -144.0 52.25 -142.85 50.45 -141.75 48.65 -141.75 48.0 L-142.0 46.3 -142.25 43.85 Q-142.25 39.55 -138.1 34.65 -133.75 29.45 -126.4 25.75 -108.1 16.4 -84.25 21.5 -69.65 25.15 -58.85 38.2 -49.5 49.5 -49.5 57.85 -49.5 71.35 -68.35 85.6 L-81.35 94.65 Q-87.25 98.7 -87.25 100.25 -87.25 101.7 -82.7 107.15 -78.25 112.5 -76.5 113.25 -77.1 101.35 -73.95 98.05 -71.2 95.25 -61.0 95.25 -53.45 95.25 -47.4 98.35 -43.3 100.45 -41.5 102.75 -39.75 104.85 -36.05 106.15 -29.95 108.25 -28.5 109.0 -22.5 111.9 -21.05 117.2 -20.5 119.1 -20.5 126.25 -20.5 135.05 -22.8 138.5 -24.4 140.85 -37.25 153.0 -35.9 153.65 -32.45 157.85 -27.65 162.3 -19.25 164.75 L-16.0 165.25 Q-16.25 158.45 -14.95 153.35 -12.5 143.5 -4.0 143.5 0.3 143.5 7.2 147.15 13.7 150.6 16.25 153.75 18.75 157.0 19.3 160.15 19.5 161.2 19.5 165.35 L18.95 169.35 Q18.3 172.7 17.5 174.0 24.6 175.05 26.6 178.55 M688.5 135.75 L690.1 135.7 692.25 135.5 688.5 135.75 M756.35 167.75 Q756.35 166.15 756.8 165.8 757.1 165.55 757.85 165.5 L761.35 165.75 761.75 166.2 762.35 167.25 Q762.15 168.4 761.75 168.95 L760.35 169.75 757.1 169.25 756.75 169.45 Q756.35 169.3 756.35 167.75 M738.85 230.5 L732.7 232.0 730.3 232.5 Q728.4 237.65 714.85 240.6 L709.75 239.85 709.4 238.7 709.0 237.25 Q709.7 236.15 712.15 235.6 L718.1 233.75 719.05 231.75 Q719.85 230.15 720.85 229.5 722.55 228.3 724.0 227.65 L724.1 226.75 722.75 224.15 Q721.35 221.9 721.35 221.5 721.35 218.45 723.0 216.4 726.1 212.6 733.85 214.75 735.65 216.35 739.9 218.7 743.8 220.85 745.35 222.5 L742.5 226.2 738.85 230.5 M-95.95 215.85 Q-93.75 215.05 -90.35 215.85 -87.15 216.6 -84.8 218.25 -82.25 220.05 -82.25 221.85 -82.25 224.8 -85.5 227.25 -88.8 229.75 -93.0 229.75 -96.3 229.75 -97.7 224.75 L-98.5 219.5 Q-98.5 216.75 -95.95 215.85" fill="#d7e7f4" fill-rule="evenodd" stroke="none"/>
    <path d="M-115.65 389.3 L-117.5 371.1 Q-122.15 371.2 -122.15 368.7 -122.15 367.55 -120.45 367.15 L-117.6 366.45 Q-116.4 365.85 -115.55 364.45 -114.9 363.35 -114.0 363.35 L-109.55 364.35 -106.1 365.35 Q-101.65 365.35 -95.6 363.95 L-87.5 362.1 -64.4 359.75 -32.9 356.65 -9.2 354.9 -2.25 355.1 Q3.0 355.45 3.7 356.1 9.25 356.6 44.1 356.6 L53.0 355.5 63.9 354.2 82.25 352.4 Q91.95 351.6 123.85 351.6 L147.85 350.0 179.25 348.5 219.1 346.6 Q278.6 344.6 301.1 344.6 L304.1 344.25 304.85 343.85 380.85 343.85 Q393.55 345.95 397.7 346.0 400.15 346.05 401.25 345.0 403.7 342.6 426.15 345.05 L431.8 345.5 446.9 346.6 533.85 346.6 538.35 345.8 552.1 345.25 565.35 344.85 Q586.9 344.85 600.75 345.8 L612.7 346.95 Q617.05 347.35 635.2 347.3 657.3 347.7 682.1 350.0 L702.75 351.45 Q708.2 351.75 722.05 354.2 L727.8 354.75 734.3 355.0 743.85 354.45 754.35 353.85 Q757.55 353.85 758.7 355.65 759.5 356.9 759.5 359.55 L758.7 366.05 Q757.85 372.65 757.85 373.85 757.85 374.95 758.8 384.85 744.65 381.5 729.0 379.85 L656.75 379.6 633.95 377.9 626.0 376.85 592.0 376.85 571.65 379.3 551.0 381.35 532.15 382.9 Q528.55 383.25 519.0 385.6 L470.0 385.6 463.0 384.75 456.0 383.85 346.0 383.85 329.25 384.45 Q316.0 384.5 314.0 384.1 L276.0 384.1 249.9 387.0 223.25 389.85 169.0 390.1 149.0 391.15 129.0 391.85 111.3 391.4 Q93.45 390.7 84.0 389.1 L46.0 388.85 36.45 387.8 26.5 387.1 14.55 387.8 3.0 388.85 -50.85 388.85 -58.9 386.5 Q-67.8 384.35 -75.85 384.35 -84.1 384.35 -101.95 387.2 L-115.65 389.3" fill="#83bf8b" fill-rule="evenodd" stroke="none"/>
    <path d="M-115.65 389.3 L-101.95 387.2 Q-84.1 384.35 -75.85 384.35 -67.8 384.35 -58.9 386.5 L-50.85 388.85 3.0 388.85 14.55 387.8 26.5 387.1 36.45 387.8 46.0 388.85 84.0 389.1 Q93.45 390.7 111.3 391.4 L129.0 391.85 149.0 391.15 169.0 390.1 223.25 389.85 249.9 387.0 276.0 384.1 314.0 384.1 Q316.0 384.5 329.25 384.45 L346.0 383.85 456.0 383.85 463.0 384.75 470.0 385.6 519.0 385.6 Q528.55 383.25 532.15 382.9 L551.0 381.35 571.65 379.3 592.0 376.85 626.0 376.85 633.95 377.9 656.75 379.6 729.0 379.85 Q744.65 381.5 758.8 384.85 L758.85 385.45 759.1 388.15 759.35 390.8 Q760.85 406.35 760.85 413.55 760.85 420.4 760.5 425.3 L759.85 430.1 759.95 468.85 759.7 477.15 Q758.1 482.5 754.1 484.75 750.35 486.85 743.35 486.85 732.9 486.85 714.05 484.45 695.65 482.1 678.25 482.25 656.05 482.4 626.05 481.9 L599.85 481.35 Q555.15 481.35 495.6 484.3 L431.45 488.05 425.4 488.55 379.15 489.2 368.05 490.05 357.7 490.85 329.75 493.15 280.85 494.85 235.5 493.0 185.6 489.6 155.0 487.5 124.45 485.5 101.0 484.25 75.1 483.35 16.85 483.1 Q-51.25 488.85 -63.0 488.85 L-112.0 488.6 Q-113.65 485.25 -114.05 472.9 -114.5 458.75 -114.75 457.35 L-114.75 398.85 -115.3 393.0 -115.65 389.3" fill="#816a65" fill-rule="evenodd" stroke="none"/>
    <path d="M753.0 231.35 Q757.55 232.05 759.8 233.1 763.0 234.55 763.0 237.1 763.0 244.75 761.0 254.95 759.0 265.15 759.0 276.5 759.0 285.9 761.5 297.25 L764.0 308.35 Q764.0 313.5 761.15 317.0 762.25 319.5 762.25 320.85 762.25 323.8 758.25 328.4 754.15 333.1 751.0 333.1 748.4 333.1 745.8 331.05 744.0 329.65 743.0 328.1 L738.35 333.25 Q733.4 338.1 730.5 338.1 725.95 338.1 724.95 335.65 724.75 335.15 724.75 331.85 L723.25 332.0 722.05 333.15 Q716.55 338.1 711.5 338.1 701.25 338.1 698.0 335.55 L694.15 332.7 693.2 332.15 685.8 333.35 Q679.95 334.6 674.35 334.8 L674.2 335.3 Q672.3 339.1 667.0 339.1 665.8 339.1 663.1 336.2 661.0 334.0 660.15 332.45 L659.95 332.35 657.4 330.5 656.5 330.45 653.3 330.05 649.6 330.25 632.75 330.85 627.8 335.4 Q623.75 338.85 620.0 338.85 613.6 338.85 609.9 337.45 608.7 337.05 604.95 334.75 599.6 331.5 586.0 333.85 584.2 333.15 583.75 330.35 L575.8 333.85 Q568.45 336.85 563.0 336.85 555.3 336.85 548.05 331.2 L547.3 330.6 542.0 330.6 538.75 328.05 Q537.15 326.8 536.55 325.65 L536.45 325.65 529.0 326.6 527.25 326.3 Q524.4 326.25 522.4 325.3 520.95 324.65 520.0 323.55 L519.6 322.95 Q514.25 325.45 507.4 328.0 493.6 333.1 485.0 333.1 478.7 333.1 475.6 331.75 474.05 331.1 471.75 328.85 470.15 327.3 467.5 326.4 464.3 326.15 456.0 328.65 L455.8 331.2 Q455.4 332.7 453.0 335.85 L425.5 337.85 Q415.4 337.85 412.15 336.5 409.3 338.25 406.0 340.6 L397.0 340.6 394.0 337.6 Q390.0 339.35 389.0 339.6 L381.0 339.6 Q379.85 338.75 379.45 337.55 L379.25 335.35 377.35 335.75 374.35 336.1 371.1 335.75 369.75 335.35 Q369.5 334.3 367.7 330.9 366.25 328.1 366.25 325.6 L366.1 321.3 Q366.1 320.1 366.55 319.55 367.35 318.65 374.5 312.6 375.75 311.4 375.9 309.4 L375.85 305.55 Q375.9 300.45 381.0 297.6 383.95 295.95 393.1 297.9 402.5 299.85 404.75 303.1 408.4 310.45 411.0 314.7 L412.75 317.5 Q412.75 318.3 411.25 320.55 L409.5 323.1 Q414.15 323.2 415.35 326.1 L415.55 326.75 Q420.75 321.1 420.75 320.1 L418.9 317.95 Q417.0 315.9 417.0 315.25 417.0 312.3 419.65 308.8 422.35 305.2 426.35 303.05 436.65 297.6 445.0 306.1 446.35 309.7 448.5 313.1 L449.0 311.9 Q450.1 309.65 451.65 308.65 452.25 308.25 452.85 308.15 455.45 305.7 462.35 301.65 460.9 300.85 460.25 299.6 459.75 298.55 459.8 297.3 L460.0 296.25 Q460.0 288.05 469.85 292.25 472.15 293.2 474.85 294.7 488.15 287.65 493.0 286.6 L492.95 284.7 Q492.85 283.05 493.4 281.95 495.1 278.3 504.0 277.35 L504.6 275.55 Q505.25 273.7 506.2 272.3 509.3 267.85 516.0 267.85 519.0 267.85 521.35 270.9 L525.9 277.6 Q533.25 287.35 549.25 287.35 550.5 287.35 552.15 286.25 553.75 285.1 555.0 285.1 557.55 285.1 559.3 286.05 560.3 286.6 562.05 287.9 565.75 290.05 575.0 288.1 576.3 288.5 579.1 291.65 581.85 294.7 582.75 294.85 583.9 293.7 586.8 292.1 589.75 290.45 591.75 290.15 593.05 288.9 594.85 288.2 L593.6 286.75 Q593.25 286.1 593.25 283.35 593.25 279.35 596.55 276.45 601.4 272.2 612.0 272.85 612.85 269.3 622.7 261.95 632.0 255.1 634.0 255.1 636.45 255.1 640.65 257.85 644.95 260.65 648.7 264.75 658.2 275.2 655.25 283.1 L657.65 284.4 659.5 285.05 Q659.85 283.55 661.05 281.4 L661.25 280.85 Q661.65 279.75 662.4 279.15 L663.45 277.65 Q663.95 273.7 665.1 271.95 666.95 269.15 670.45 268.75 668.3 265.65 667.25 263.6 L665.75 263.6 665.5 263.2 Q665.25 262.75 665.25 261.25 665.25 260.6 665.8 259.9 L666.3 259.35 Q666.5 257.5 667.2 255.8 L667.0 255.6 667.55 254.2 Q668.25 252.75 669.4 251.75 L671.05 250.7 Q674.05 248.0 681.0 243.1 L689.0 243.1 695.35 246.45 Q700.5 249.35 700.75 249.35 L707.7 247.0 Q714.6 244.6 715.5 244.6 L719.15 250.25 Q719.8 248.8 723.75 247.9 725.3 246.5 727.15 245.7 L731.85 245.55 Q732.8 246.15 733.35 247.35 L733.75 247.35 733.9 248.4 734.0 249.35 740.25 245.25 Q746.85 241.1 749.45 238.6 753.4 234.85 753.0 231.35 M725.3 258.85 L724.95 258.75 725.25 259.1 725.3 258.85 M675.65 330.35 L676.25 330.35 676.95 329.75 675.85 329.7 675.65 330.35 M355.5 319.1 L358.4 322.95 Q360.2 325.4 360.75 327.1 360.15 328.05 358.0 329.1 359.2 330.3 361.0 333.15 362.75 335.9 362.75 336.5 362.75 339.2 358.55 342.1 353.45 345.65 353.0 346.35 L343.85 346.3 Q336.45 346.3 334.5 347.1 326.05 350.85 325.0 350.85 319.85 350.85 316.55 342.5 L316.55 342.45 315.0 342.85 Q311.4 342.85 309.75 339.35 308.75 337.25 308.75 335.25 308.75 332.85 313.1 330.35 312.0 328.3 312.0 327.1 312.0 323.9 318.25 318.85 324.95 313.45 332.0 312.1 334.75 311.55 343.3 316.05 351.6 320.45 353.0 322.85 L353.75 319.35 355.5 319.1 M91.3 269.15 Q96.85 272.5 98.7 274.9 99.85 276.35 100.0 280.1 L100.05 281.1 Q102.5 282.65 103.25 283.75 104.0 284.85 104.0 287.6 104.0 288.85 105.15 289.2 106.25 289.5 106.25 290.75 106.25 291.85 104.5 296.7 103.85 299.55 102.25 303.6 L106.25 303.6 106.75 303.85 Q107.25 304.1 107.25 305.6 107.25 306.1 102.65 310.15 99.2 313.2 96.75 314.9 100.15 316.8 100.7 318.8 101.25 319.35 101.25 320.85 101.25 322.3 98.9 323.35 L98.9 323.4 98.75 325.1 Q98.75 325.5 102.4 325.95 106.45 326.9 108.25 329.6 L107.9 331.15 Q107.15 332.55 104.5 333.35 104.9 334.0 107.35 335.0 109.85 336.05 110.5 337.1 L109.0 337.95 Q107.55 338.6 106.0 338.6 98.55 338.6 87.55 331.65 L82.75 328.5 Q70.95 334.0 70.75 340.85 L70.4 341.25 Q70.0 341.6 68.5 341.6 67.25 341.6 66.45 340.9 L65.05 339.35 Q62.8 337.1 56.5 337.1 45.8 337.1 43.85 339.35 L43.1 340.9 Q42.8 341.6 41.5 341.6 L39.45 341.35 39.25 341.1 39.25 339.85 26.0 339.6 Q24.8 339.15 24.4 338.4 L23.95 337.3 Q23.1 336.1 16.1 336.1 -3.85 339.35 -29.0 345.6 L-37.85 345.6 Q-40.3 340.25 -41.4 338.95 -42.65 337.35 -44.7 337.5 L-50.95 338.65 -63.35 339.6 Q-64.85 339.6 -72.25 337.35 -82.7 335.1 -99.35 335.1 -108.3 335.1 -110.45 332.5 -111.15 331.7 -111.35 330.35 L-111.85 328.6 Q-114.35 325.1 -115.6 319.2 -116.6 314.3 -116.6 308.6 -116.6 304.8 -113.65 293.15 -112.5 288.55 -111.35 285.1 -111.25 282.8 -110.6 280.3 L-111.75 279.2 Q-113.85 277.5 -113.85 275.35 -113.85 265.8 -110.7 258.85 -108.0 252.95 -103.7 250.2 -99.85 247.75 -96.75 249.0 -95.75 249.4 -95.1 250.1 -93.0 248.0 -90.1 248.25 -86.85 248.55 -84.35 251.65 -81.55 255.15 -80.85 261.1 L-75.65 260.5 -69.35 259.85 Q-59.8 259.85 -56.4 264.9 -54.65 267.4 -54.85 270.1 -54.85 274.25 -57.85 276.6 L-57.85 276.85 -54.85 277.85 Q-47.35 274.85 -45.35 274.85 -42.45 274.85 -41.35 276.65 -40.85 277.55 -40.85 278.75 -40.85 280.3 -42.7 281.95 -45.05 284.05 -46.1 287.35 L-41.75 286.15 Q-38.0 285.1 -36.5 285.1 -35.45 285.1 -31.55 287.65 -27.4 290.25 -24.5 290.6 L-26.1 288.75 Q-27.0 287.65 -27.0 286.1 -27.0 283.9 -25.0 281.65 -22.8 279.1 -20.0 279.1 -17.65 279.1 -13.65 284.85 L-12.65 286.3 -10.25 283.75 Q-6.35 279.95 -2.5 277.55 7.45 271.25 8.6 279.65 13.75 276.75 13.75 283.25 13.75 285.35 10.4 288.25 L9.25 289.15 Q15.25 289.75 17.45 291.1 18.75 291.95 18.75 294.0 18.75 295.7 16.25 297.75 L12.25 301.1 11.85 301.55 11.25 302.6 12.7 302.85 14.5 303.05 14.5 302.85 Q14.5 301.85 18.45 298.35 23.15 294.2 27.25 294.6 L22.65 299.2 25.25 298.85 27.9 297.5 29.4 296.65 Q32.7 286.65 37.35 279.05 44.85 266.6 50.85 271.2 L52.4 270.5 Q56.25 268.95 65.0 266.1 L66.35 266.75 66.65 267.35 67.8 264.35 Q69.1 261.3 72.35 261.35 74.7 261.4 78.55 262.85 80.15 261.95 82.0 261.4 86.15 260.15 88.9 261.4 92.0 262.9 92.0 267.35 92.0 268.1 91.3 269.15 M147.0 310.1 Q147.0 308.05 148.6 305.35 150.7 301.8 154.55 299.6 165.75 293.25 187.0 300.85 185.55 303.15 184.0 304.6 L192.05 308.0 Q195.75 310.05 195.75 313.1 195.75 314.6 195.05 316.15 L193.75 318.85 194.95 319.35 197.5 319.85 201.55 316.85 Q205.5 313.85 206.0 313.85 208.4 313.85 210.65 318.1 211.9 320.5 212.75 323.35 L215.25 323.1 223.0 322.85 Q224.05 324.3 224.2 325.85 224.3 326.9 224.0 327.6 232.1 326.85 236.45 330.9 L239.05 333.1 Q240.45 333.75 242.5 332.6 L243.3 333.05 Q243.5 333.3 243.5 334.85 243.5 336.75 236.3 339.85 228.15 343.35 220.0 343.35 202.0 343.35 196.85 342.7 193.8 342.3 189.0 342.6 L178.0 342.6 Q163.55 337.35 156.5 337.35 154.15 337.35 150.75 340.1 147.3 342.85 145.0 342.85 143.25 342.85 142.0 342.25 140.6 341.35 139.5 340.85 135.0 338.85 123.0 338.85 L119.55 338.6 118.0 338.35 Q118.0 334.6 119.0 333.1 L117.45 333.15 117.15 333.5 116.0 333.35 113.25 333.1 112.9 333.3 Q112.5 333.15 112.5 331.6 112.5 330.45 114.0 329.3 L114.0 328.6 Q114.0 326.75 119.05 318.35 124.75 308.85 128.5 308.85 134.8 308.85 137.9 313.5 L139.85 317.2 Q140.9 319.2 141.75 319.85 148.35 315.0 148.35 314.55 147.0 313.45 147.0 310.1 M295.25 329.0 Q295.25 327.65 295.4 327.3 L295.5 326.35 Q302.45 326.35 306.55 327.35 312.25 328.75 304.75 331.35 L306.05 331.65 308.25 332.35 309.0 333.85 304.85 336.85 Q300.55 336.85 297.5 333.15 295.25 330.4 295.25 329.0 M257.1 330.5 L256.95 330.65 Q257.7 330.2 257.1 330.5 M256.95 332.65 L257.7 333.05 258.0 332.8 256.95 332.65 M262.85 330.4 L263.65 330.15 Q268.8 328.75 274.0 330.1 275.05 330.95 275.25 332.4 275.45 333.7 275.0 334.35 L276.9 335.65 Q278.75 337.0 279.5 337.85 L279.45 338.3 279.0 339.1 278.75 337.65 Q278.5 336.6 277.0 336.6 275.75 336.6 274.0 337.6 272.25 338.6 271.0 338.6 269.4 338.6 269.2 337.5 L269.25 335.85 267.0 336.85 260.0 336.85 258.1 336.0 Q257.2 338.85 252.5 338.85 249.2 338.85 248.3 337.25 248.0 336.75 248.0 335.35 248.0 333.55 250.45 330.9 252.8 328.4 255.9 326.65 259.15 324.8 261.3 325.0 263.75 325.25 263.75 328.35 263.75 329.15 263.05 330.1 L262.85 330.4" fill="#78bb9f" fill-rule="evenodd" stroke="none"/>
    <path d="M533.8 321.1 L556.5 324.3 Q574.5 326.95 582.0 328.6 593.55 331.15 618.55 332.6 644.3 334.1 650.75 335.35 711.25 335.1 713.0 334.6 L756.85 334.6 Q761.3 337.95 762.8 340.75 764.1 343.1 764.1 346.75 764.1 349.25 763.45 352.3 767.25 350.85 768.35 349.1 769.5 349.95 770.9 351.7 L772.1 353.6 Q772.1 363.85 641.0 367.1 L554.55 367.4 Q467.95 367.8 467.0 368.1 L452.15 368.4 436.0 369.1 246.0 369.1 Q236.0 366.3 218.95 366.5 201.95 366.7 197.25 365.35 L179.15 365.1 184.6 360.6 Q208.25 341.15 208.25 337.1 208.25 336.4 207.05 335.3 L205.0 333.6 201.1 332.9 200.0 332.6 163.0 332.35 155.7 331.65 149.15 330.65 Q139.15 329.4 116.0 329.85 L104.8 331.3 72.85 332.6 Q67.05 332.6 46.1 344.15 35.6 349.95 25.5 356.1 18.2 359.75 5.5 366.85 L-73.0 366.85 -91.45 365.4 -91.6 365.4 -88.5 364.1 Q-81.15 361.35 -61.9 354.6 L-41.25 347.35 Q-37.15 345.85 -21.4 338.8 -9.1 333.35 1.75 330.35 7.9 328.65 34.15 324.05 56.4 320.1 64.0 316.85 L63.25 315.35 60.65 314.9 59.0 314.85 59.0 315.35 11.5 320.65 -36.25 324.1 Q-46.1 324.55 -64.05 329.15 -73.35 331.55 -83.75 334.6 L-113.6 341.45 -120.65 343.25 -120.6 338.75 Q-120.6 335.3 -99.75 331.1 -85.15 328.15 -77.0 327.35 L-53.1 323.75 -32.75 320.6 -32.5 321.1 -36.4 322.3 Q-21.35 319.65 -0.05 316.9 L54.0 309.85 107.25 309.35 Q139.8 311.7 187.0 321.1 201.1 323.1 233.5 329.0 L263.35 334.35 268.3 334.0 Q267.95 338.15 267.0 340.6 265.75 343.95 259.85 348.75 254.75 352.95 254.75 356.75 254.75 358.35 255.3 358.7 L257.0 359.1 Q275.2 356.1 300.25 349.95 319.7 345.2 346.0 342.1 L387.3 338.75 Q403.0 337.2 415.35 334.9 L416.15 335.0 415.6 334.95 400.0 337.85 Q399.15 338.2 398.55 339.15 398.0 339.95 398.0 340.6 L398.75 341.35 399.7 341.6 402.5 341.85 Q405.75 341.85 417.0 339.6 416.65 340.75 417.0 341.85 411.75 342.9 411.3 344.05 411.55 345.7 410.5 347.1 430.45 343.6 471.85 333.4 503.2 325.6 533.8 321.1" fill="#83bf8b" fill-rule="evenodd" stroke="none"/>
    <path d="M179.15 365.1 L178.2 365.1 171.5 365.0 163.0 364.85 138.0 364.1 135.0 364.85 102.75 365.35 95.4 366.1 88.0 366.85 5.5 366.85 Q18.2 359.75 25.5 356.1 35.6 349.95 46.1 344.15 67.05 332.6 72.85 332.6 L104.8 331.3 116.0 329.85 Q139.15 329.4 149.15 330.65 L155.7 331.65 163.0 332.35 200.0 332.6 201.1 332.9 205.0 333.6 207.05 335.3 Q208.25 336.4 208.25 337.1 208.25 341.15 184.6 360.6 L179.15 365.1 M-91.6 365.4 L-105.55 363.9 -117.85 362.85 Q-120.8 359.15 -120.95 351.4 L-120.8 348.1 -120.65 343.25 -113.6 341.45 -83.75 334.6 Q-73.35 331.55 -64.05 329.15 -46.1 324.55 -36.25 324.1 L11.5 320.65 59.0 315.35 59.0 314.85 60.65 314.9 63.25 315.35 64.0 316.85 Q56.4 320.1 34.15 324.05 7.9 328.65 1.75 330.35 -9.1 333.35 -21.4 338.8 -37.15 345.85 -41.25 347.35 L-61.9 354.6 Q-81.15 361.35 -88.5 364.1 L-91.6 365.4 M268.3 334.0 L273.65 332.75 273.7 332.75 Q278.5 331.2 288.25 331.35 L321.0 328.85 Q353.5 328.35 355.0 327.85 L390.0 327.85 Q392.45 328.3 401.3 331.1 L405.15 332.3 405.55 332.45 Q411.05 334.2 415.35 334.9 403.0 337.2 387.3 338.75 L346.0 342.1 Q319.7 345.2 300.25 349.95 275.2 356.1 257.0 359.1 L255.3 358.7 Q254.75 358.35 254.75 356.75 254.75 352.95 259.85 348.75 265.75 343.95 267.0 340.6 267.95 338.15 268.3 334.0 M416.15 335.0 L419.6 335.35 420.05 335.35 420.3 335.35 420.5 335.35 Q421.65 335.35 432.4 332.05 L433.4 331.75 439.65 329.9 449.5 327.35 459.45 325.85 472.4 324.15 502.0 320.85 532.0 320.85 533.8 321.1 Q503.2 325.6 471.85 333.4 430.45 343.6 410.5 347.1 411.55 345.7 411.3 344.05 411.75 342.9 417.0 341.85 416.65 340.75 417.0 339.6 405.75 341.85 402.5 341.85 L399.7 341.6 398.75 341.35 398.0 340.6 Q398.0 339.95 398.55 339.15 399.15 338.2 400.0 337.85 L415.6 334.95 416.15 335.0" fill="#a6d294" fill-rule="evenodd" stroke="none"/>
    <path d="M686.35 352.25 L683.85 352.95 679.85 353.5 668.85 352.8 658.6 351.75 633.35 352.0 631.35 352.25 Q633.8 350.9 649.2 351.45 670.4 352.2 682.85 351.5 L684.5 351.7 Q686.2 351.95 686.35 352.25 M716.85 351.5 L713.35 351.25 713.4 350.95 Q713.55 350.65 713.85 350.5 719.55 350.15 721.8 349.4 L724.45 348.25 Q727.85 347.15 750.35 348.25 727.2 348.15 723.15 349.65 L721.3 350.8 Q720.25 351.4 716.85 351.5 M355.65 350.75 L366.35 350.25 Q359.4 352.2 332.85 355.25 L320.6 356.15 288.35 357.75 269.6 359.35 240.35 360.75 Q231.9 360.75 226.55 358.9 221.6 357.15 206.85 357.5 L203.1 357.0 202.85 357.35 Q202.6 357.4 202.6 355.85 202.6 354.35 202.95 354.45 L203.85 354.75 211.85 354.5 Q223.55 354.5 227.85 355.9 230.05 356.55 230.75 357.25 L267.35 355.95 289.85 354.5 322.3 353.55 334.85 353.0 355.65 350.75 M470.35 343.5 L498.1 343.25 498.35 344.25 Q497.95 344.65 484.15 344.35 L470.35 343.5 M527.85 343.35 L527.85 344.3 528.85 343.5 613.85 352.0 615.0 352.35 615.55 352.6 613.1 352.75 602.05 353.45 601.4 353.45 572.9 350.4 Q544.1 346.75 535.6 346.75 L528.85 347.0 Q525.25 350.8 522.75 352.7 518.25 356.15 513.35 356.25 517.1 352.5 527.55 344.5 522.65 344.75 516.6 346.05 511.05 347.2 509.85 348.0 507.35 347.75 506.85 347.0 508.6 344.35 515.6 343.15 L527.35 342.25 527.6 341.85 Q527.85 341.8 527.85 343.35 M511.85 358.0 Q511.25 359.4 508.65 361.05 505.8 362.8 502.85 363.25 L502.35 362.75 506.65 359.9 Q509.85 357.75 511.35 357.25 L511.85 358.0 M74.6 329.5 Q74.6 328.75 75.1 328.0 75.55 328.0 77.15 328.65 78.7 329.25 80.1 329.25 L87.05 329.05 92.85 328.5 123.85 327.5 170.85 327.5 179.75 327.95 Q185.8 328.55 186.85 329.25 L188.0 329.55 Q189.2 329.95 189.35 330.25 L188.85 330.5 185.35 329.55 Q183.15 328.8 181.85 328.75 L177.75 329.45 170.85 330.5 147.25 330.8 Q123.5 331.2 122.85 331.5 L92.85 332.0 86.35 332.5 80.2 331.65 Q75.9 330.8 75.35 330.25 L74.6 329.5 M67.35 333.25 L33.1 351.35 Q12.65 362.15 10.0 363.0 19.3 351.65 66.35 331.75 L66.75 332.2 67.35 333.25 M16.35 345.95 Q18.8 346.3 19.25 346.75 18.85 347.95 18.0 348.25 12.25 348.9 -2.8 348.4 L-20.1 347.75 Q-28.35 347.75 -32.95 349.35 -40.05 351.8 -42.5 352.25 -36.8 348.6 -34.95 347.7 -31.6 346.15 -27.0 345.65 -21.3 345.0 14.0 345.75 L16.35 345.95 M89.35 319.25 L86.65 320.2 Q84.2 321.05 83.6 321.5 81.6 322.25 80.35 322.25 82.25 321.95 83.4 320.55 L84.85 318.5 87.0 318.7 Q89.2 318.95 89.35 319.25 M204.35 340.0 Q202.3 339.85 197.3 343.55 191.7 347.65 189.35 348.25 190.75 346.85 196.9 342.7 203.2 338.5 204.1 338.5 L204.35 340.0" fill="#7dad87" fill-rule="evenodd" stroke="none"/>
    <path d="M427.85 358.1 L424.35 357.1 Q424.35 356.8 424.6 356.65 L424.85 356.35 Q426.8 356.85 451.35 357.1 L453.05 358.0 Q454.2 358.65 454.35 359.1 L454.55 359.5 452.85 359.85 439.6 359.05 427.85 358.1 M-97.1 356.2 L-82.9 357.55 -70.7 358.75 -71.25 359.1 -72.0 359.35 -64.3 359.95 -55.5 361.1 -72.0 362.35 -109.0 362.35 Q-110.75 361.85 -111.25 361.1 -107.4 358.1 -97.9 356.35 L-97.1 356.2 M181.7 358.6 Q192.5 354.75 195.6 354.35 L205.65 353.1 233.85 353.1 259.9 353.15 Q285.7 353.3 293.85 353.6 L295.65 353.95 Q297.55 354.4 297.85 354.85 L297.35 355.6 281.35 356.95 246.85 358.6 181.7 358.6" fill="#816a65" fill-rule="evenodd" stroke="none"/>
    <path d="M464.45 343.95 Q459.25 341.05 459.25 340.5 459.25 339.35 459.7 338.5 L459.45 339.15 458.0 338.85 Q456.75 338.35 456.0 337.6 457.35 335.5 461.0 332.85 L468.2 332.4 468.55 332.3 468.7 330.1 Q468.85 328.55 469.65 327.6 472.0 324.85 482.0 325.85 483.35 326.1 484.5 326.8 486.0 327.7 486.0 328.85 L486.0 329.1 Q488.6 328.1 491.8 326.0 494.95 324.0 497.25 323.15 505.2 320.1 527.5 319.85 528.25 320.35 530.5 321.1 L530.75 320.75 Q531.0 320.7 531.0 322.25 531.0 324.75 530.75 324.1 L529.9 324.5 529.25 324.85 529.25 326.35 Q535.7 331.2 540.75 346.6 L540.7 350.0 Q540.25 351.95 538.1 353.1 534.8 354.9 526.35 355.3 520.15 355.55 511.25 355.1 L510.95 355.85 509.1 358.4 Q506.05 361.6 501.0 361.6 498.4 361.6 496.9 359.9 L495.25 357.35 Q495.1 357.2 494.0 357.0 492.75 356.8 491.75 356.1 490.4 355.15 490.2 352.55 L490.25 347.85 490.3 347.5 Q490.05 347.1 488.5 347.1 487.25 347.1 484.25 348.35 L480.45 349.6 Q479.8 349.1 479.0 348.7 474.3 346.3 462.7 344.9 463.5 344.35 464.45 343.95 M25.75 318.0 Q30.7 316.25 40.0 315.85 48.5 315.55 63.2 315.35 75.7 315.0 85.25 313.6 140.5 305.65 188.15 315.05 204.85 318.35 223.25 324.3 L250.25 333.6 250.75 335.1 Q245.9 339.5 240.9 345.25 L233.75 353.7 Q226.7 361.6 220.0 361.6 217.95 361.6 215.05 360.65 212.15 359.7 211.5 358.85 L205.1 359.6 196.0 362.6 190.0 362.6 187.3 360.1 185.75 360.05 Q181.3 361.6 175.5 361.6 L151.0 359.6 Q149.9 358.8 149.45 357.2 L149.0 354.6 Q147.6 355.55 141.75 356.1 141.6 358.4 141.15 359.45 140.3 361.4 138.0 362.6 L106.0 362.6 96.55 361.6 87.0 360.6 85.7 360.05 Q85.25 359.55 85.25 357.85 85.25 356.25 85.65 355.6 L86.75 354.1 87.5 352.85 Q83.1 355.3 79.95 353.75 77.45 351.6 76.85 351.6 76.1 351.6 72.35 352.75 68.9 353.85 66.0 353.6 65.55 353.6 65.2 352.75 64.9 351.85 63.5 351.85 L58.05 352.25 47.0 352.6 Q45.5 353.2 42.65 357.25 40.05 361.0 37.0 361.6 L34.0 361.6 Q32.15 360.45 31.15 360.05 29.5 359.45 26.35 359.1 L0.0 365.6 -14.0 365.6 Q-16.95 364.75 -17.6 363.45 -17.7 362.35 -17.85 362.35 L-20.4 362.55 -27.25 363.1 Q-28.35 364.9 -32.85 367.3 -39.1 370.6 -46.0 370.6 -54.65 370.6 -57.55 367.7 L-59.25 365.45 Q-60.2 364.25 -61.5 363.85 -73.15 363.5 -82.85 360.5 -92.6 357.55 -92.6 354.35 -92.6 352.75 -91.75 352.05 -90.1 350.7 -85.0 350.6 -85.55 348.9 -87.6 347.15 -89.5 345.55 -89.5 345.0 -89.5 340.95 -78.8 337.7 -70.8 335.25 -53.25 332.35 -45.05 331.0 -37.45 331.3 -31.5 331.5 -24.75 329.6 L-14.6 327.3 -2.75 325.35 Q6.5 324.2 11.25 322.95 16.3 321.3 21.0 320.1 L25.75 318.0" fill="#608579" fill-opacity="0.5019608" fill-rule="evenodd" stroke="none"/>
    <path d="M104.25 286.6 L108.5 286.6 Q110.35 285.7 113.75 284.9 117.1 284.1 119.0 284.1 122.85 284.1 123.65 284.75 L124.65 285.95 Q127.2 287.45 150.0 286.1 L157.0 286.1 165.15 292.8 172.75 299.6 Q188.0 300.85 191.9 305.9 L194.9 309.85 Q197.2 312.0 202.0 313.1 219.55 317.15 218.75 327.85 L222.0 328.1 Q223.45 329.5 224.2 331.2 224.75 332.4 224.75 333.1 224.75 340.1 220.3 345.55 214.4 352.7 203.0 352.6 200.45 351.95 199.55 349.05 199.2 348.05 199.0 345.35 198.15 346.2 193.5 347.85 193.0 348.8 192.8 350.2 L192.5 353.1 189.0 353.6 183.35 353.1 Q181.8 352.6 165.0 352.6 162.9 351.95 162.4 350.65 162.25 350.2 162.25 348.35 162.25 347.35 164.65 342.05 167.0 336.7 167.0 334.85 167.0 334.1 165.8 333.05 L163.5 330.6 155.5 330.85 154.4 336.1 Q153.1 339.55 149.5 338.6 150.35 340.3 148.65 343.5 146.9 346.85 144.0 348.35 L137.9 347.65 131.25 347.1 130.6 346.65 130.5 344.85 Q130.5 343.25 131.2 341.9 L132.5 339.85 132.5 339.6 Q129.85 339.3 127.9 338.35 L125.75 337.1 Q124.7 340.35 123.9 341.7 122.6 343.8 119.5 346.1 L114.25 346.1 Q113.5 345.35 113.5 344.6 113.05 344.3 112.35 344.6 L111.0 345.35 106.25 345.1 Q105.25 344.1 104.8 342.55 104.5 341.5 104.5 340.6 L101.25 340.1 Q100.1 338.95 99.8 338.25 99.5 337.45 99.5 335.6 99.5 333.0 101.1 331.8 103.85 329.8 104.5 328.85 104.5 327.5 103.75 327.1 L100.0 327.85 99.35 329.0 98.5 330.1 Q93.8 330.55 91.2 331.4 L89.0 332.35 86.25 332.1 85.55 329.85 85.25 327.6 Q83.35 328.8 78.75 333.7 74.7 338.0 71.0 339.6 L65.0 339.6 Q64.25 338.5 63.5 335.85 62.95 334.05 60.75 332.35 L55.65 328.1 Q54.25 326.6 54.25 324.85 54.25 322.45 57.1 320.65 61.9 318.1 65.75 315.6 63.15 314.6 62.5 313.35 62.25 312.85 62.25 311.1 62.25 309.4 62.9 308.1 L64.5 305.85 Q60.1 305.05 58.9 302.1 58.5 301.2 58.5 298.75 58.5 294.05 60.15 291.2 61.75 288.45 65.6 286.25 68.7 284.5 75.65 281.85 L91.0 276.1 Q96.7 276.2 100.1 280.55 101.95 282.85 104.25 286.6 M46.55 324.75 L46.5 326.0 Q46.5 330.65 42.3 336.9 38.6 342.35 33.0 347.35 27.75 347.2 20.8 348.55 15.4 349.65 14.0 350.35 L10.25 350.1 Q8.35 348.75 7.7 345.2 7.2 342.55 7.5 340.6 L0.5 340.85 0.5 342.5 Q0.55 343.55 0.15 344.2 -1.05 346.15 -7.0 347.35 L-9.75 347.1 Q-10.65 346.85 -11.6 345.15 -12.5 343.55 -12.5 342.6 L-18.5 342.85 -20.1 345.6 Q-21.65 347.7 -23.5 348.1 L-29.8 347.65 -32.5 346.6 Q-33.5 347.2 -35.25 351.2 -36.9 354.9 -39.5 356.1 L-41.35 356.55 -44.0 357.35 Q-52.2 355.5 -52.0 350.75 L-51.05 346.7 Q-50.2 344.1 -50.25 342.85 -54.3 340.85 -55.55 340.1 L-57.0 340.35 -62.75 340.1 -63.1 340.3 Q-63.5 340.15 -63.5 338.6 -63.5 338.1 -58.2 329.55 L-51.75 319.1 Q-50.85 317.45 -46.9 314.9 -43.1 312.4 -42.25 310.35 L-41.05 305.8 Q-40.2 302.1 -39.5 300.6 -38.8 299.1 -36.05 296.45 -32.4 292.9 -28.2 290.65 -15.65 283.95 -3.5 291.35 L1.55 295.5 Q4.65 298.25 6.0 301.85 6.55 303.4 6.15 306.7 5.65 310.75 5.75 312.1 15.35 311.65 19.0 315.35 19.8 316.15 21.0 318.2 21.9 319.75 22.75 320.1 39.65 320.4 44.6 322.85 46.25 323.7 46.55 324.75" fill="#587269" fill-rule="evenodd" stroke="none"/>
    <path d="M470.55 294.35 L464.5 294.35 Q463.7 293.15 458.55 287.65 455.4 285.0 453.4 282.9 449.7 279.0 449.7 275.6 449.7 275.0 450.35 274.25 L451.0 273.65 453.5 274.7 452.0 272.25 Q458.25 267.25 458.65 266.45 L459.25 265.75 462.5 267.7 466.8 267.6 Q468.45 268.0 468.5 269.7 L472.5 266.7 Q473.15 264.1 474.0 263.05 474.4 262.55 475.2 262.15 L475.95 261.9 Q476.25 261.75 476.25 261.1 L476.15 260.3 476.0 260.2 474.4 259.4 479.25 256.35 476.95 253.25 480.4 252.1 Q483.5 250.75 483.5 249.2 483.5 248.0 482.05 246.4 480.55 244.8 480.45 242.85 480.45 242.5 482.1 238.7 483.9 234.6 484.5 231.7 490.6 232.0 490.6 230.25 490.25 229.4 490.25 228.65 490.3 227.25 492.1 224.45 L495.5 224.35 495.05 223.7 494.6 223.5 Q493.35 223.5 492.1 224.45 L491.0 223.2 Q490.5 222.3 490.5 220.75 490.5 220.25 490.8 219.75 L491.15 218.8 Q491.3 216.95 490.1 215.45 L488.9 214.1 Q488.9 211.4 491.65 206.95 494.9 201.75 498.5 201.75 L506.7 202.35 506.8 204.85 506.5 206.75 515.5 207.75 Q516.25 204.05 517.75 202.8 L519.8 201.25 Q525.45 201.3 527.9 203.35 529.6 204.75 529.6 206.75 529.6 207.75 529.0 210.75 L530.85 210.1 535.45 208.8 540.0 207.75 Q543.95 207.75 545.8 213.0 546.8 215.8 547.35 216.6 548.4 218.25 550.25 218.25 551.25 218.25 551.75 217.0 L549.8 216.5 Q548.85 216.2 548.2 215.7 L547.75 215.25 Q548.1 213.85 548.2 213.75 548.95 213.0 552.0 213.0 L555.15 213.1 Q557.95 213.6 557.95 215.5 L557.5 216.35 Q557.35 217.05 558.4 218.85 557.55 219.4 557.2 220.0 L557.0 220.5 560.1 221.25 Q559.45 221.1 559.45 219.8 559.45 219.1 560.2 218.7 560.65 218.45 562.55 217.7 563.75 219.7 563.9 220.8 567.8 220.75 569.65 219.65 L575.1 214.85 582.05 208.65 Q583.5 207.3 583.5 206.35 583.5 206.0 580.0 201.7 576.5 197.4 576.5 194.75 576.5 190.0 580.3 186.7 584.3 183.25 590.5 183.25 L592.6 184.7 594.75 183.6 596.1 182.45 Q596.8 182.45 597.7 181.0 598.5 179.6 598.5 178.75 598.5 176.6 599.75 173.0 L602.5 175.75 605.5 168.75 Q609.2 166.6 613.55 163.5 L614.9 164.65 Q615.95 165.75 616.5 165.75 618.2 165.75 619.25 164.2 L621.5 159.75 626.7 159.6 Q627.7 159.6 627.8 160.3 627.9 160.95 628.2 160.95 L629.35 161.0 Q629.9 161.15 631.5 162.0 L631.5 168.95 633.2 169.0 636.15 168.6 639.1 167.6 Q638.2 169.7 638.7 170.8 639.15 171.8 640.5 171.8 L643.75 171.85 Q644.25 172.05 644.25 173.75 L656.25 175.9 654.05 176.2 653.0 176.25 655.75 176.5 Q658.75 176.6 660.75 177.3 661.7 177.6 663.4 178.55 L666.15 180.05 Q668.7 181.35 669.95 183.8 670.95 185.75 670.95 187.7 L670.5 190.3 677.9 190.1 Q678.0 192.2 678.7 192.85 L676.5 193.5 676.65 193.55 680.2 195.8 Q683.8 198.0 684.5 198.0 L684.5 191.25 683.65 191.4 687.7 186.5 690.45 186.5 Q690.25 189.7 687.45 192.0 L688.85 191.95 Q690.55 192.1 694.95 190.5 694.55 190.05 694.65 189.85 694.3 190.05 694.1 189.45 L693.9 188.1 Q693.9 187.6 695.2 187.25 696.5 186.9 696.5 186.4 696.5 185.8 697.0 185.35 L697.45 185.0 696.1 183.5 694.95 182.0 689.0 183.2 689.25 180.25 681.1 179.35 Q680.25 179.05 680.25 177.6 680.25 175.1 686.6 170.55 693.5 165.6 699.1 165.6 L702.05 166.3 705.0 167.0 707.3 164.75 Q709.7 162.5 711.5 162.5 L714.1 163.25 Q716.2 164.0 717.0 164.0 717.45 164.0 718.4 162.4 L719.65 160.4 Q720.5 159.6 722.35 159.1 L725.35 158.7 Q728.8 158.7 730.45 160.6 732.5 162.85 732.5 168.25 L733.75 167.3 Q734.7 166.55 738.25 166.9 741.2 167.15 751.5 166.75 753.25 166.75 756.6 175.25 L757.05 181.1 Q757.1 183.25 758.0 185.35 759.0 187.7 760.85 189.2 L765.6 193.1 Q766.5 194.35 767.35 199.0 767.35 199.95 765.35 206.95 763.45 213.6 763.65 214.45 L760.5 214.25 Q753.25 214.25 749.55 218.1 748.35 219.35 747.7 220.8 L747.25 222.1 Q747.25 222.65 749.75 225.45 752.25 228.3 752.25 229.55 752.25 230.25 750.25 234.45 748.25 238.65 748.25 240.5 L748.85 242.55 749.45 245.15 Q749.45 247.75 743.55 249.2 738.4 250.5 731.1 250.5 728.55 250.5 727.4 247.6 726.8 246.05 726.1 241.2 725.45 236.7 724.5 234.8 723.0 231.9 719.85 231.9 L717.9 232.35 715.5 233.0 714.65 230.95 Q714.15 230.25 713.0 230.25 L711.35 230.5 711.35 230.95 Q711.35 238.25 710.8 240.9 709.2 248.25 703.6 248.25 699.75 248.25 698.85 246.65 698.5 246.05 698.5 243.1 698.5 241.6 700.5 234.9 702.5 228.25 702.5 227.45 L702.0 223.55 Q701.5 219.7 701.5 217.25 701.5 213.45 699.55 211.55 698.1 210.15 696.35 210.15 L692.5 211.15 Q688.95 212.3 687.35 213.35 685.1 214.85 684.35 216.4 683.65 217.8 683.55 220.6 683.4 224.9 679.3 227.0 L675.2 228.25 674.5 228.15 674.5 227.25 Q674.5 226.7 673.6 226.3 672.35 225.8 672.0 225.5 668.9 229.05 668.25 229.3 666.05 230.25 657.0 230.25 L655.55 230.35 655.4 230.95 Q655.25 231.5 655.25 232.1 L656.7 234.25 659.9 239.25 660.4 241.15 660.85 243.9 Q661.2 245.3 662.55 247.65 663.75 249.7 663.75 250.5 L662.0 252.95 Q660.3 254.95 660.25 255.35 L660.0 259.2 Q659.2 261.9 651.75 261.7 L652.1 257.75 Q652.1 252.9 649.5 252.25 644.9 251.15 643.0 249.25 639.3 253.15 637.55 259.1 L636.45 262.2 Q635.7 263.35 634.25 263.35 631.4 261.1 630.25 260.6 L625.4 260.0 Q623.8 259.75 621.3 257.15 618.75 254.6 618.75 253.1 L620.75 249.95 Q622.75 246.7 622.75 246.0 L621.5 244.65 619.25 242.2 Q618.85 241.7 618.95 238.45 L619.15 234.55 Q619.15 232.8 618.5 230.75 L611.45 232.15 604.95 232.95 Q598.2 234.0 597.55 237.9 597.2 240.15 595.8 244.0 594.0 248.75 592.5 249.75 L575.25 249.0 572.25 246.05 Q571.5 245.35 571.5 244.85 571.5 244.0 572.5 241.7 L573.5 239.1 572.95 236.05 571.5 228.75 Q568.2 230.15 564.6 236.4 561.5 241.7 561.5 243.25 L562.4 246.05 Q563.35 248.9 564.0 250.0 563.25 250.45 561.0 253.6 558.8 256.6 558.25 256.85 L556.75 254.4 555.2 251.3 554.65 250.05 550.0 249.5 547.95 251.5 544.6 254.55 543.75 254.85 544.1 250.25 543.85 247.75 Q538.1 249.0 536.4 250.1 534.55 251.25 529.25 257.1 528.25 255.65 526.25 250.1 525.1 246.75 522.35 246.75 518.25 246.75 515.0 252.05 512.5 256.2 512.5 258.25 512.5 258.85 512.95 259.55 L514.15 261.45 515.7 262.4 Q517.4 263.35 518.0 263.35 L520.6 262.5 Q522.95 261.7 529.75 261.85 L529.65 263.95 Q529.65 265.45 530.25 267.1 L533.1 266.15 535.1 265.1 535.5 264.85 534.0 267.85 Q526.9 268.6 525.75 270.55 525.6 273.2 524.5 274.85 L516.75 275.6 515.0 285.85 510.5 286.7 500.5 288.1 500.15 284.6 499.5 281.6 Q495.95 281.6 495.55 280.7 L495.65 278.9 Q494.35 274.65 493.65 274.15 L491.85 273.75 484.0 273.35 Q482.0 280.4 476.1 286.2 L472.35 290.05 Q470.7 292.1 470.55 294.35 M449.5 274.3 L449.55 272.65 450.6 273.4 449.5 274.3 M-84.55 313.85 Q-84.15 312.6 -83.05 311.1 L-80.5 311.5 -80.0 311.5 Q-78.85 312.05 -78.7 313.05 -78.6 313.8 -77.5 313.5 -76.1 313.45 -75.4 312.65 L-75.3 312.6 -74.85 312.55 -72.6 310.6 Q-71.8 309.8 -73.8 310.9 L-74.5 311.35 Q-74.8 310.85 -77.0 310.0 L-78.0 309.5 -78.8 306.8 Q-77.5 305.75 -76.35 305.4 -77.6 304.6 -78.0 302.4 L-78.2 300.1 Q-78.2 298.6 -77.45 295.7 L-76.8 293.95 -76.35 292.8 -77.7 290.5 Q-79.1 288.35 -79.1 287.85 -79.1 287.2 -75.85 282.85 L-78.05 281.7 -80.45 280.35 -78.35 279.65 Q-77.45 279.3 -77.45 278.7 -77.45 277.05 -79.9 275.8 -82.35 274.55 -82.35 273.9 -82.35 268.95 -79.55 266.6 -76.1 263.7 -67.45 263.7 -66.95 263.7 -65.5 264.95 L-62.5 267.15 -62.3 267.05 -63.55 263.95 Q-63.55 263.1 -60.0 259.15 -56.45 255.2 -56.45 254.7 L-56.55 252.85 -54.3 252.6 -53.45 251.7 -54.55 248.8 Q-54.55 247.35 -53.65 246.5 -53.0 245.9 -51.75 245.45 L-50.5 244.7 Q-49.0 242.3 -45.95 241.45 L-43.2 240.85 Q-40.85 240.3 -40.25 239.65 L-37.7 236.2 -35.1 232.7 Q-29.05 226.65 -24.95 226.65 -24.3 226.65 -23.8 227.75 L-23.45 228.85 -20.55 233.45 -18.0 237.25 Q-17.75 237.7 -17.75 238.55 -17.75 239.2 -17.9 239.55 L-18.5 240.7 -14.5 234.7 Q-13.85 239.7 -10.6 245.7 L-7.5 250.7 -10.5 256.7 -2.5 255.7 -1.6 254.3 0.0 256.6 Q4.95 256.3 6.8 257.1 7.8 257.55 8.05 258.2 9.65 255.5 12.0 253.0 13.75 251.1 13.75 250.65 L13.4 248.8 13.0 246.9 11.8 239.2 Q11.8 238.6 12.15 236.6 L12.5 234.7 16.5 232.7 18.1 233.25 19.7 233.65 20.3 233.5 20.2 233.05 Q19.4 229.7 20.95 228.75 23.15 228.15 23.95 227.2 L26.1 224.95 Q27.55 223.8 29.5 223.7 L32.5 217.7 Q36.4 217.65 37.15 216.15 L37.45 215.15 Q37.55 214.7 38.0 214.7 L39.0 214.75 Q39.0 216.0 39.5 216.7 L40.6 215.75 40.6 215.45 Q40.4 215.05 39.0 214.75 L39.9 212.05 40.95 209.35 60.25 213.25 59.25 216.6 Q69.5 216.85 72.3 218.9 74.25 220.25 74.25 224.9 L74.0 227.7 Q73.4 229.95 71.5 231.1 74.9 232.45 76.2 234.3 77.4 236.1 77.4 239.45 77.4 241.1 76.25 245.6 L78.4 245.9 80.8 243.7 82.5 242.35 Q85.75 242.35 86.7 244.95 87.2 246.25 87.0 247.55 L86.75 249.35 87.5 249.1 90.05 247.25 91.5 246.35 Q93.0 246.35 93.45 246.8 93.75 247.15 93.75 248.15 93.75 248.85 90.5 251.8 87.3 254.75 87.45 258.1 89.25 255.55 90.7 254.35 L93.5 252.7 98.5 254.7 98.5 253.85 99.4 254.0 101.0 253.7 Q100.65 253.7 100.05 250.35 L99.45 246.25 Q99.45 239.9 101.65 238.75 103.2 238.0 105.25 236.0 L105.9 234.4 106.5 232.7 108.35 231.65 Q108.85 231.35 108.85 230.65 L108.25 229.85 Q107.5 229.1 106.5 228.7 106.5 228.4 108.65 226.85 110.75 225.3 110.75 224.75 110.75 222.7 111.3 222.15 116.6 216.85 122.0 216.85 125.15 216.85 125.85 217.75 L126.25 218.85 125.95 220.05 136.85 220.1 Q136.45 222.3 132.5 225.7 133.95 226.35 135.4 228.25 L137.5 230.7 144.5 222.7 Q144.9 224.3 145.75 224.9 146.85 225.65 149.5 225.7 L153.5 231.7 Q155.05 231.35 156.0 229.7 L157.25 226.45 158.8 228.15 Q159.95 229.4 160.55 229.4 L162.05 228.9 Q163.0 228.4 163.5 228.4 166.1 228.4 169.65 231.75 L173.0 235.05 175.95 234.7 Q177.0 234.85 177.0 237.7 177.0 239.35 175.8 240.8 174.35 242.45 172.0 242.85 172.9 240.95 171.5 240.15 169.8 239.55 169.45 239.25 168.3 238.25 166.65 237.3 L170.1 241.85 173.45 245.05 175.0 246.7 Q176.05 247.4 176.45 248.8 L176.7 250.6 Q176.5 251.95 177.35 250.35 L178.2 249.0 Q179.6 250.3 180.65 252.7 181.5 254.6 181.5 255.2 181.5 256.55 180.8 259.6 180.15 262.5 179.5 264.1 L186.3 267.1 Q188.25 267.9 188.25 268.85 L186.9 272.35 Q185.5 275.75 185.5 276.75 185.5 277.25 187.85 280.3 190.25 283.45 190.45 284.3 190.85 283.65 191.55 279.05 192.1 275.1 195.15 271.85 192.25 271.65 192.25 268.85 192.25 268.05 194.75 266.3 197.25 264.55 198.75 264.35 L195.75 268.1 Q196.25 268.25 197.05 268.7 L198.2 269.0 Q198.55 269.0 202.75 267.0 206.9 264.95 208.65 264.95 213.75 264.95 214.75 266.15 215.8 267.5 216.15 270.25 217.35 271.7 219.8 272.05 221.6 272.3 221.5 273.7 L219.5 279.7 Q221.1 278.45 223.7 277.5 226.2 276.55 227.1 275.75 L229.4 274.1 Q230.45 273.45 230.7 273.45 232.15 273.45 233.05 274.8 233.95 276.1 234.45 276.1 234.65 276.1 238.75 273.1 239.4 273.1 240.6 274.2 L242.5 276.1 Q243.6 277.1 245.2 277.95 L246.5 278.7 244.65 283.45 Q242.75 287.9 242.5 289.7 244.4 288.55 247.25 284.5 250.55 279.85 249.65 277.95 L250.35 278.95 Q251.25 281.1 251.25 283.1 251.25 294.6 247.75 302.05 244.8 308.3 241.0 309.1 L244.95 313.55 249.0 313.35 Q249.55 316.25 249.55 317.75 L249.25 320.6 254.25 320.9 254.5 323.9 254.25 325.8 250.15 323.05 246.5 320.6 245.15 317.55 Q244.15 315.15 243.5 314.6 L236.75 314.1 Q237.1 313.4 237.1 312.4 237.1 309.15 232.8 307.05 229.35 305.35 226.0 305.35 225.35 305.35 224.15 306.95 L222.25 309.1 Q220.95 307.55 219.85 307.2 219.5 307.1 219.5 305.6 219.5 305.05 222.9 301.55 226.25 298.1 226.25 295.85 226.25 295.0 224.6 294.05 L222.25 292.85 220.0 296.85 Q219.4 296.05 219.4 295.05 219.4 294.1 218.45 290.8 217.4 287.05 216.5 285.85 L211.0 286.6 Q209.05 287.5 206.8 292.2 205.0 295.95 204.25 299.1 203.45 302.7 201.6 303.3 L194.5 305.6 194.9 308.2 195.25 310.85 Q195.25 311.6 194.4 312.75 193.4 314.05 192.25 314.1 L187.0 311.85 Q187.7 309.05 187.7 306.7 187.7 305.55 186.9 304.7 185.9 303.6 183.85 303.6 183.2 303.6 180.85 304.9 L178.3 306.4 178.0 306.7 177.25 306.85 Q175.85 306.85 174.05 304.9 172.5 303.2 172.5 302.6 172.5 300.2 174.05 299.35 L177.55 298.35 Q182.55 296.85 182.55 288.55 L182.4 283.75 Q181.9 280.35 180.0 280.35 L173.1 281.85 164.2 283.85 164.0 283.85 Q166.5 277.85 166.5 276.0 166.5 271.8 164.65 268.85 163.55 267.1 163.25 265.55 L163.0 263.7 Q162.75 262.6 158.25 262.25 L158.0 259.35 157.5 257.0 152.0 256.75 Q149.75 256.75 148.0 258.65 147.1 259.65 145.65 262.2 L144.1 263.95 142.25 264.55 139.3 265.45 137.0 266.8 134.5 268.35 Q136.5 269.4 139.45 269.8 140.5 269.95 140.5 272.1 L139.8 273.45 138.75 275.1 134.25 275.1 Q134.25 274.35 136.25 272.1 L132.25 269.95 Q127.95 267.85 126.25 268.1 126.2 262.7 125.5 260.0 122.95 259.95 120.15 261.6 L116.0 264.05 114.05 264.5 Q112.7 264.8 112.1 265.25 111.2 265.95 109.95 267.6 L108.75 269.1 105.5 269.2 101.75 268.85 Q102.5 274.75 105.3 277.25 107.75 279.55 107.75 282.15 107.75 283.6 107.05 283.85 104.45 284.75 103.0 285.6 101.5 286.45 101.2 288.0 L101.0 289.6 100.0 287.85 98.5 284.85 92.0 284.6 Q90.6 284.8 89.9 287.9 L88.55 293.25 Q87.65 295.0 85.35 296.2 L84.6 295.75 82.95 294.65 Q86.25 289.2 86.25 288.25 85.25 285.85 82.45 284.9 L81.3 285.0 83.8 283.75 84.0 283.6 84.55 285.5 86.25 287.35 Q88.6 285.2 89.9 279.55 90.75 275.75 90.75 273.5 L90.55 271.75 89.0 271.1 Q86.7 274.6 85.3 275.85 82.75 278.2 77.55 280.25 75.2 281.15 73.9 282.55 72.15 284.25 72.75 286.2 L72.25 284.9 71.0 283.15 Q70.1 282.15 69.0 282.25 L67.6 282.45 Q66.45 282.15 66.3 273.7 66.3 272.2 65.4 270.7 64.5 269.15 63.35 268.85 L59.4 268.15 58.4 268.1 58.3 267.3 Q57.8 265.7 56.6 265.15 55.5 264.6 53.0 264.6 49.75 264.6 48.05 265.9 46.35 267.15 45.75 270.1 44.2 270.05 43.0 269.35 43.55 264.25 43.0 259.65 42.3 255.9 42.35 255.05 42.5 253.35 42.1 251.55 41.65 249.55 40.8 248.7 39.65 247.6 37.9 246.75 35.45 245.5 33.0 245.5 32.55 245.5 31.6 248.25 30.75 250.65 30.5 252.0 L28.45 254.95 Q26.5 257.75 26.5 258.85 26.5 259.65 27.5 260.1 28.5 260.55 28.5 261.5 28.5 262.1 27.4 264.05 25.85 266.8 23.3 268.65 24.25 264.8 23.9 263.45 L23.25 263.35 Q22.3 263.35 18.85 265.25 L15.5 267.1 11.15 266.75 11.0 274.45 10.45 280.8 13.9 278.5 Q14.55 280.9 15.7 282.35 L19.25 285.65 13.35 285.1 Q10.35 284.8 9.55 283.55 L8.5 285.1 12.65 288.25 17.15 291.3 Q16.2 292.0 15.45 293.55 14.75 294.95 14.75 295.85 14.75 298.5 18.6 300.5 21.2 301.85 24.75 302.6 L24.85 307.95 26.45 306.75 Q27.4 307.2 27.75 308.75 L28.0 313.25 27.85 315.2 25.25 315.35 23.25 314.5 21.0 313.6 Q19.9 313.6 19.05 315.2 L18.25 317.1 Q17.6 315.7 17.0 315.2 16.3 314.6 15.0 314.6 14.45 314.6 12.8 316.15 L10.0 318.85 Q9.75 318.4 5.7 315.1 2.25 312.3 2.25 310.35 2.25 309.4 5.25 307.8 8.25 306.15 8.25 303.6 8.25 302.65 5.65 301.6 L2.25 300.35 3.0 293.75 3.45 288.85 3.0 285.05 Q2.65 283.55 1.2 282.0 -0.2 280.6 -1.0 280.6 L-2.95 281.85 Q-4.75 283.1 -5.5 283.1 L-8.65 282.6 Q-10.25 281.95 -10.75 281.85 -10.65 279.75 -10.95 279.25 -11.35 278.6 -15.0 278.6 -16.5 278.6 -18.8 281.85 -21.3 285.4 -23.5 286.1 L-23.0 285.35 -22.6 280.6 Q-22.6 278.2 -23.45 275.3 -24.2 272.85 -25.0 271.6 -25.6 272.05 -26.9 272.5 L-31.25 273.1 Q-34.25 273.1 -35.15 271.3 -35.8 268.95 -36.75 267.85 L-43.75 275.1 Q-48.1 279.35 -49.75 279.35 -51.0 279.35 -54.05 276.0 -57.15 272.6 -60.0 272.6 -60.5 272.6 -64.2 276.4 -68.25 280.55 -69.45 281.35 -71.55 282.7 -72.55 285.7 -73.25 287.8 -73.25 289.75 -73.25 292.0 -72.2 293.8 -71.25 295.5 -70.0 295.85 -69.1 295.3 -67.2 289.9 -65.5 284.95 -65.5 284.35 -64.7 285.75 -64.0 287.55 -63.25 289.5 -63.25 290.35 -63.25 291.45 -64.25 292.6 -63.45 293.85 -62.5 294.4 -61.95 295.15 -61.95 298.95 L-63.5 301.0 -63.2 303.3 -63.0 305.1 -64.75 305.35 Q-65.75 305.35 -67.45 303.8 L-69.75 301.85 -70.75 305.6 -70.5 307.3 -63.55 307.85 -61.2 307.65 -59.0 307.2 Q-59.2 309.2 -57.25 311.0 -55.25 312.85 -55.25 314.35 L-56.7 316.65 -59.4 320.3 Q-59.65 320.65 -64.2 322.05 -68.95 323.5 -69.75 324.1 -71.0 322.1 -72.0 322.1 L-74.0 322.6 -76.05 323.05 Q-79.3 323.05 -81.45 322.15 -84.0 321.1 -84.0 319.1 L-83.6 316.9 -83.2 314.7 -83.25 314.0 -83.5 313.85 -84.55 313.85 M250.25 326.6 L247.7 326.05 Q246.65 325.5 246.65 324.7 L250.25 326.6 M85.75 261.35 Q84.55 262.0 84.35 261.5 L85.25 259.85 85.05 260.1 Q84.7 261.0 84.0 261.1 L82.9 261.1 Q81.95 261.2 83.4 265.8 L85.0 273.75 84.85 274.85 86.2 273.45 86.5 272.6 84.5 267.75 Q84.5 267.05 85.05 264.4 L85.75 261.35 M83.15 287.6 Q83.5 288.0 83.5 288.6 L80.35 292.85 79.95 292.25 Q79.85 291.95 79.25 291.95 78.9 291.95 78.2 290.6 77.5 289.15 77.55 288.0 L82.75 287.35 83.15 287.6 M42.7 208.1 L40.95 209.35 39.6 209.05 44.05 206.8 43.9 207.3 42.7 208.1 M78.05 259.7 L78.0 259.1 Q77.5 259.1 78.0 260.55 L78.05 259.7 M73.1 286.25 L73.35 286.2 74.75 286.1 73.1 286.25 M190.35 293.85 L192.5 292.1 Q192.35 291.0 192.0 290.8 L190.35 290.6 188.4 290.3 Q186.95 289.9 186.25 289.1 186.25 291.85 181.9 296.1 L177.5 300.0 Q177.5 301.05 177.65 301.5 179.5 301.4 182.1 299.65 L187.35 296.05 190.35 293.85 M271.1 325.55 L273.25 326.1 Q273.25 328.1 271.5 328.1 L269.1 327.75 267.0 327.1 267.05 326.9 Q268.25 325.1 268.5 325.1 L271.1 325.55 M-70.0 288.05 L-70.75 289.35 -69.2 284.95 Q-68.6 283.15 -68.55 284.0 L-69.25 286.05 -70.0 288.05" fill="#66b175" fill-rule="evenodd" stroke="none"/>
    <path d="M470.55 294.35 Q470.7 292.1 472.35 290.05 L476.1 286.2 Q482.0 280.4 484.0 273.35 L491.85 273.75 493.65 274.15 Q494.35 274.65 495.65 278.9 L495.55 280.7 Q495.95 281.6 499.5 281.6 L500.15 284.6 500.5 288.1 510.5 286.7 515.0 285.85 516.75 275.6 524.5 274.85 Q525.6 273.2 525.75 270.55 526.9 268.6 534.0 267.85 L535.5 264.85 535.1 265.1 533.1 266.15 530.25 267.1 Q529.65 265.45 529.65 263.95 L529.75 261.85 Q522.95 261.7 520.6 262.5 L518.0 263.35 Q517.4 263.35 515.7 262.4 L514.15 261.45 512.95 259.55 Q512.5 258.85 512.5 258.25 512.5 256.2 515.0 252.05 518.25 246.75 522.35 246.75 525.1 246.75 526.25 250.1 528.25 255.65 529.25 257.1 534.55 251.25 536.4 250.1 538.1 249.0 543.85 247.75 L544.1 250.25 543.75 254.85 544.6 254.55 547.95 251.5 550.0 249.5 554.65 250.05 555.2 251.3 556.75 254.4 558.25 256.85 Q558.8 256.6 561.0 253.6 563.25 250.45 564.0 250.0 563.35 248.9 562.4 246.05 L561.5 243.25 Q561.5 241.7 564.6 236.4 568.2 230.15 571.5 228.75 L572.95 236.05 573.5 239.1 572.5 241.7 Q571.5 244.0 571.5 244.85 571.5 245.35 572.25 246.05 L575.25 249.0 592.5 249.75 Q594.0 248.75 595.8 244.0 597.2 240.15 597.55 237.9 598.2 234.0 604.95 232.95 L611.45 232.15 618.5 230.75 Q619.15 232.8 619.15 234.55 L618.95 238.45 Q618.85 241.7 619.25 242.2 L621.5 244.65 622.75 246.0 Q622.75 246.7 620.75 249.95 L618.75 253.1 Q618.75 254.6 621.3 257.15 623.8 259.75 625.4 260.0 L630.25 260.6 Q631.4 261.1 634.25 263.35 635.7 263.35 636.45 262.2 L637.55 259.1 Q639.3 253.15 643.0 249.25 644.9 251.15 649.5 252.25 652.1 252.9 652.1 257.75 L651.75 261.7 Q659.2 261.9 660.0 259.2 L660.25 255.35 Q660.3 254.95 662.0 252.95 L663.75 250.5 Q663.75 249.7 662.55 247.65 661.2 245.3 660.85 243.9 L660.4 241.15 659.9 239.25 656.7 234.25 655.25 232.1 Q655.25 231.5 655.4 230.95 L655.55 230.35 657.0 230.25 Q666.05 230.25 668.25 229.3 668.9 229.05 672.0 225.5 672.35 225.8 673.6 226.3 674.5 226.7 674.5 227.25 L674.5 228.15 675.2 228.25 679.3 227.0 Q683.4 224.9 683.55 220.6 683.65 217.8 684.35 216.4 685.1 214.85 687.35 213.35 688.95 212.3 692.5 211.15 L696.35 210.15 Q698.1 210.15 699.55 211.55 701.5 213.45 701.5 217.25 701.5 219.7 702.0 223.55 L702.5 227.45 Q702.5 228.25 700.5 234.9 698.5 241.6 698.5 243.1 698.5 246.05 698.85 246.65 699.75 248.25 703.6 248.25 709.2 248.25 710.8 240.9 711.35 238.25 711.35 230.95 L711.35 230.5 713.0 230.25 Q714.15 230.25 714.65 230.95 L715.5 233.0 717.9 232.35 719.85 231.9 Q723.0 231.9 724.5 234.8 725.45 236.7 726.1 241.2 726.8 246.05 727.4 247.6 728.55 250.5 731.1 250.5 738.4 250.5 743.55 249.2 749.45 247.75 749.45 245.15 L748.85 242.55 748.25 240.5 Q748.25 238.65 750.25 234.45 752.25 230.25 752.25 229.55 752.25 228.3 749.75 225.45 747.25 222.65 747.25 222.1 L747.7 220.8 Q748.35 219.35 749.55 218.1 753.25 214.25 760.5 214.25 L763.65 214.45 Q766.4 219.95 772.35 226.85 776.35 231.45 776.35 235.85 776.35 239.55 773.35 246.4 L767.15 260.2 Q766.05 263.05 764.55 265.45 763.8 267.15 764.35 270.5 765.05 274.75 763.2 277.15 760.8 280.2 754.75 279.1 L756.35 281.1 Q756.7 281.55 758.3 282.25 759.95 282.95 760.2 283.35 761.6 285.35 763.5 291.35 763.5 294.0 756.95 302.3 749.65 311.6 744.5 311.6 738.15 311.6 737.25 305.95 737.3 299.1 736.5 296.6 L733.1 298.6 731.1 299.6 Q729.0 299.6 727.5 296.1 720.05 301.05 717.85 302.15 713.1 304.6 708.5 304.6 706.45 304.6 704.85 301.55 703.5 298.95 703.5 296.6 703.5 295.55 704.95 294.0 L708.5 289.85 699.7 290.6 699.65 300.65 Q698.9 306.6 694.7 306.6 L686.15 305.75 675.5 304.6 Q673.35 304.45 672.7 303.3 L671.25 301.1 Q663.85 300.95 661.1 299.35 659.35 298.35 659.35 296.4 659.35 295.3 660.7 292.4 662.0 289.5 662.0 288.75 L662.0 288.1 661.95 288.15 Q659.3 293.55 657.4 295.45 655.1 297.6 651.4 297.6 648.65 297.6 647.4 296.45 L644.25 293.8 Q643.3 293.25 637.65 292.65 L630.75 292.1 622.1 294.05 Q621.1 294.2 620.15 295.0 L616.5 297.6 601.5 297.6 598.55 294.85 Q597.45 293.55 597.5 292.85 L592.05 293.9 588.4 294.6 Q587.1 294.6 586.5 294.1 L586.85 286.7 Q586.85 279.55 585.05 279.55 580.9 279.55 579.7 280.1 578.45 280.65 577.0 283.15 L575.35 285.8 Q574.65 286.85 574.35 287.65 573.4 290.2 569.35 292.15 L564.25 294.35 Q563.85 294.6 562.4 297.45 L560.0 301.85 Q558.7 303.8 554.4 306.25 550.5 308.45 550.5 308.6 550.5 309.9 550.1 311.4 549.5 313.4 548.45 314.55 546.35 316.9 544.15 318.2 542.35 319.25 541.3 319.25 L539.9 318.8 538.5 318.35 Q537.55 318.35 536.6 319.5 535.65 320.6 534.6 320.6 532.45 320.6 531.8 319.25 531.2 318.0 531.25 314.1 L530.85 315.4 Q530.7 316.7 529.3 317.6 528.05 318.35 526.95 318.35 525.85 317.65 524.45 317.0 521.6 315.6 519.5 315.6 517.9 315.6 514.6 316.5 L511.5 317.35 509.35 316.75 506.45 315.5 Q504.15 314.0 503.5 311.25 L503.25 308.35 503.15 308.5 494.8 311.75 495.45 313.55 495.75 315.5 Q495.75 317.1 492.4 320.55 488.25 324.85 483.5 324.85 481.8 324.85 478.2 322.05 474.25 319.0 474.25 316.6 474.25 313.75 478.2 311.1 481.9 308.6 484.8 308.85 484.75 308.7 484.1 308.65 L483.45 308.6 Q476.3 307.15 472.65 305.25 470.05 303.55 468.75 303.1 472.5 297.0 477.9 296.2 480.2 295.85 480.7 295.5 481.75 294.75 481.75 292.3 481.75 291.7 481.4 291.2 L481.0 290.85 478.65 292.7 Q476.25 294.25 474.7 294.35 L470.55 294.35 M568.4 287.65 L567.65 287.8 565.5 287.8 565.5 288.35 566.0 289.1 568.4 287.65 M-84.55 313.85 L-83.5 313.85 -83.25 314.0 -83.2 314.7 -83.6 316.9 -84.0 319.1 Q-84.0 321.1 -81.45 322.15 -79.3 323.05 -76.05 323.05 L-74.0 322.6 -72.0 322.1 Q-71.0 322.1 -69.75 324.1 -68.95 323.5 -64.2 322.05 -59.65 320.65 -59.4 320.3 L-56.7 316.65 -55.25 314.35 Q-55.25 312.85 -57.25 311.0 -59.2 309.2 -59.0 307.2 L-61.2 307.65 -63.55 307.85 -70.5 307.3 -70.75 305.6 -69.75 301.85 -67.45 303.8 Q-65.75 305.35 -64.75 305.35 L-63.0 305.1 -63.2 303.3 -63.5 301.0 -61.95 298.95 Q-61.95 295.15 -62.5 294.4 -63.45 293.85 -64.25 292.6 -63.25 291.45 -63.25 290.35 -63.25 289.5 -64.0 287.55 -64.7 285.75 -65.5 284.35 -65.5 284.95 -67.2 289.9 -69.1 295.3 -70.0 295.85 -71.25 295.5 -72.2 293.8 -73.25 292.0 -73.25 289.75 -73.25 287.8 -72.55 285.7 -71.55 282.7 -69.45 281.35 -68.25 280.55 -64.2 276.4 -60.5 272.6 -60.0 272.6 -57.15 272.6 -54.05 276.0 -51.0 279.35 -49.75 279.35 -48.1 279.35 -43.75 275.1 L-36.75 267.85 Q-35.8 268.95 -35.15 271.3 -34.25 273.1 -31.25 273.1 L-26.9 272.5 Q-25.6 272.05 -25.0 271.6 -24.2 272.85 -23.45 275.3 -22.6 278.2 -22.6 280.6 L-23.0 285.35 -23.5 286.1 Q-21.3 285.4 -18.8 281.85 -16.5 278.6 -15.0 278.6 -11.35 278.6 -10.95 279.25 -10.65 279.75 -10.75 281.85 -10.25 281.95 -8.65 282.6 L-5.5 283.1 Q-4.75 283.1 -2.95 281.85 L-1.0 280.6 Q-0.2 280.6 1.2 282.0 2.65 283.55 3.0 285.05 L3.45 288.85 3.0 293.75 2.25 300.35 5.65 301.6 Q8.25 302.65 8.25 303.6 8.25 306.15 5.25 307.8 2.25 309.4 2.25 310.35 2.25 312.3 5.7 315.1 9.75 318.4 10.0 318.85 L12.8 316.15 Q14.45 314.6 15.0 314.6 16.3 314.6 17.0 315.2 17.6 315.7 18.25 317.1 L19.05 315.2 Q19.9 313.6 21.0 313.6 L23.25 314.5 25.25 315.35 27.85 315.2 28.0 313.25 27.75 308.75 Q27.4 307.2 26.45 306.75 L24.85 307.95 24.75 302.6 Q21.2 301.85 18.6 300.5 14.75 298.5 14.75 295.85 14.75 294.95 15.45 293.55 16.2 292.0 17.15 291.3 17.6 291.35 18.65 290.15 L22.25 285.9 21.2 285.75 21.05 285.65 19.25 285.65 15.7 282.35 Q14.55 280.9 13.9 278.5 L17.3 276.4 Q19.15 275.15 21.1 273.05 L22.4 271.15 23.3 268.65 Q25.85 266.8 27.4 264.05 28.5 262.1 28.5 261.5 28.5 260.55 27.5 260.1 26.5 259.65 26.5 258.85 26.5 257.75 28.45 254.95 L30.5 252.0 Q30.75 250.65 31.6 248.25 32.55 245.5 33.0 245.5 35.45 245.5 37.9 246.75 39.65 247.6 40.8 248.7 41.65 249.55 42.1 251.55 42.5 253.35 42.35 255.05 42.3 255.9 43.0 259.65 43.55 264.25 43.0 269.35 44.2 270.05 45.75 270.1 46.35 267.15 48.05 265.9 49.75 264.6 53.0 264.6 55.5 264.6 56.6 265.15 57.8 265.7 58.3 267.3 L58.4 268.1 59.4 268.15 63.35 268.85 Q64.5 269.15 65.4 270.7 66.3 272.2 66.3 273.7 66.45 282.15 67.6 282.45 L69.0 282.25 Q70.1 282.15 71.0 283.15 L72.25 284.9 72.75 286.2 Q72.15 284.25 73.9 282.55 75.2 281.15 77.55 280.25 82.75 278.2 85.3 275.85 86.7 274.6 89.0 271.1 L90.55 271.75 90.75 273.5 Q90.75 275.75 89.9 279.55 88.6 285.2 86.25 287.35 L84.55 285.5 84.0 283.6 83.8 283.75 81.3 285.0 82.45 284.9 Q85.25 285.85 86.25 288.25 86.25 289.2 82.95 294.65 L84.6 295.75 84.75 298.55 86.0 296.6 85.35 296.2 Q87.65 295.0 88.55 293.25 L89.9 287.9 Q90.6 284.8 92.0 284.6 L98.5 284.85 100.0 287.85 101.0 289.6 101.2 288.0 Q101.5 286.45 103.0 285.6 104.45 284.75 107.05 283.85 107.75 283.6 107.75 282.15 107.75 279.55 105.3 277.25 102.5 274.75 101.75 268.85 L105.5 269.2 108.75 269.1 109.95 267.6 Q111.2 265.95 112.1 265.25 112.7 264.8 114.05 264.5 L116.0 264.05 120.15 261.6 Q122.95 259.95 125.5 260.0 126.2 262.7 126.25 268.1 127.95 267.85 132.25 269.95 L136.25 272.1 Q134.25 274.35 134.25 275.1 L138.75 275.1 139.8 273.45 140.5 272.1 Q140.5 269.95 139.45 269.8 136.5 269.4 134.5 268.35 L137.0 266.8 139.3 265.45 142.25 264.55 144.1 263.95 145.65 262.2 Q147.1 259.65 148.0 258.65 149.75 256.75 152.0 256.75 L157.5 257.0 158.0 259.35 158.25 262.25 Q162.75 262.6 163.0 263.7 L163.25 265.55 Q163.55 267.1 164.65 268.85 166.5 271.8 166.5 276.0 166.5 277.85 164.0 283.85 L164.2 283.85 173.1 281.85 180.0 280.35 Q181.9 280.35 182.4 283.75 L182.55 288.55 Q182.55 296.85 177.55 298.35 L174.05 299.35 Q172.5 300.2 172.5 302.6 172.5 303.2 174.05 304.9 175.85 306.85 177.25 306.85 L178.0 306.7 178.3 306.4 180.85 304.9 Q183.2 303.6 183.85 303.6 185.9 303.6 186.9 304.7 187.7 305.55 187.7 306.7 187.7 309.05 187.0 311.85 L192.25 314.1 Q193.4 314.05 194.4 312.75 195.25 311.6 195.25 310.85 L194.9 308.2 194.5 305.6 201.6 303.3 Q203.45 302.7 204.25 299.1 205.0 295.95 206.8 292.2 209.05 287.5 211.0 286.6 L216.5 285.85 Q217.4 287.05 218.45 290.8 219.4 294.1 219.4 295.05 219.4 296.05 220.0 296.85 L222.25 292.85 224.6 294.05 Q226.25 295.0 226.25 295.85 226.25 298.1 222.9 301.55 219.5 305.05 219.5 305.6 219.5 307.1 219.85 307.2 220.95 307.55 222.25 309.1 L224.15 306.95 Q225.35 305.35 226.0 305.35 229.35 305.35 232.8 307.05 237.1 309.15 237.1 312.4 237.1 313.4 236.75 314.1 L243.5 314.6 Q244.15 315.15 245.15 317.55 L246.5 320.6 250.15 323.05 254.25 325.8 Q253.8 326.35 250.25 326.6 L246.65 324.7 246.05 323.5 245.5 322.1 Q245.65 332.35 231.5 336.35 L220.5 336.35 Q218.45 335.9 217.7 333.1 217.1 329.45 216.5 327.6 214.85 328.35 213.35 330.25 211.45 331.85 206.35 331.85 202.15 331.85 200.35 330.75 199.35 330.15 197.25 327.35 L191.65 329.65 Q187.55 331.4 184.35 331.4 182.8 331.4 181.7 330.55 L179.95 328.9 Q178.0 327.4 175.8 324.95 L174.0 322.85 168.6 322.1 Q164.05 321.05 164.6 318.3 L162.9 318.5 161.25 318.35 Q160.5 318.1 160.35 317.15 L160.05 315.65 Q159.7 315.1 156.85 314.15 L154.0 313.35 153.55 316.4 Q154.5 316.45 156.1 317.95 157.7 319.45 157.75 320.35 151.55 321.5 152.05 323.85 152.2 324.8 151.5 325.1 L146.15 325.6 Q140.4 325.6 137.4 324.2 133.25 322.25 133.25 317.35 133.25 314.2 136.55 311.05 L140.25 307.85 138.0 305.35 132.75 306.1 Q130.9 311.15 129.55 312.75 127.95 314.6 124.8 314.6 122.9 314.6 119.9 312.85 116.85 311.1 113.5 311.1 112.9 311.1 111.1 313.0 109.05 315.15 109.5 316.85 105.95 316.25 102.35 312.35 99.25 309.1 99.25 307.85 L94.7 307.2 89.1 306.65 87.7 310.95 Q87.2 312.4 86.5 313.1 L86.25 310.15 Q86.1 308.15 86.25 307.35 L83.35 309.4 Q81.15 311.0 80.25 311.1 79.3 307.85 79.3 306.2 80.35 302.2 81.25 300.85 L75.0 300.6 72.6 298.1 Q71.25 296.85 71.25 295.25 71.7 293.75 71.45 292.4 70.9 289.95 67.15 287.25 L67.05 288.25 Q65.6 294.45 65.0 298.6 L67.15 301.7 Q69.25 304.85 69.25 305.7 69.25 307.2 68.4 309.5 67.95 310.75 62.25 319.25 L64.25 324.1 Q64.25 325.95 62.05 327.2 L55.5 330.35 49.5 330.35 47.7 329.0 Q46.75 328.35 46.1 328.35 37.85 328.35 29.7 329.85 26.95 330.35 21.9 332.45 L15.5 334.95 11.75 335.9 6.95 336.15 0.8 336.65 -3.6 338.15 Q-7.6 339.6 -8.5 339.6 -10.35 339.6 -10.95 336.2 -11.25 332.35 -11.55 331.45 -12.25 329.4 -14.6 325.9 -16.5 323.15 -16.5 321.1 -16.25 318.55 -15.15 315.05 -12.95 308.05 -8.55 302.45 -10.6 301.95 -11.55 301.25 -12.1 300.6 -12.25 300.6 -17.05 300.6 -19.8 305.0 L-21.8 308.0 Q-22.95 309.35 -24.5 309.35 L-30.4 308.15 -30.55 310.75 Q-29.85 310.9 -27.65 311.75 L-25.5 312.6 -23.0 312.25 -20.5 311.85 -18.25 312.15 Q-18.25 312.8 -20.05 314.65 L-22.45 316.7 Q-23.55 317.4 -27.5 321.35 -26.0 322.9 -25.8 323.3 -25.5 323.95 -25.5 326.1 -25.5 328.4 -26.45 329.5 -27.45 330.6 -30.5 331.6 -31.2 331.85 -33.4 333.65 -34.95 334.95 -38.6 334.95 L-41.65 334.55 -44.75 334.1 -48.6 334.8 -61.85 335.35 -69.6 335.85 -74.95 336.6 -76.9 338.1 Q-78.3 338.85 -81.85 338.85 -83.95 338.85 -84.9 338.1 -85.8 337.4 -85.8 335.95 L-85.65 334.95 -85.55 334.7 Q-85.4 334.35 -85.85 333.95 L-86.3 333.65 -87.65 332.05 Q-87.75 331.6 -89.4 331.5 L-92.8 331.25 Q-99.45 330.45 -101.9 329.25 -104.85 327.8 -104.85 324.75 -104.85 320.8 -95.35 317.45 -85.4 314.65 -84.55 313.85 M83.15 287.6 L82.75 287.35 77.55 288.0 Q77.5 289.15 78.2 290.6 78.9 291.95 79.25 291.95 79.85 291.95 79.95 292.25 L80.35 292.85 83.5 288.6 Q83.5 288.0 83.15 287.6 M73.1 286.25 L74.75 286.1 73.35 286.2 73.1 286.25 M107.5 318.55 L115.0 318.1 Q117.8 318.1 118.75 319.1 119.75 320.1 119.75 323.1 119.75 324.05 118.15 324.55 L116.0 324.85 107.5 324.1 107.5 318.55 M123.45 322.5 L122.5 322.6 118.0 317.35 Q121.95 318.75 123.05 320.5 123.45 321.1 123.45 322.5 M-70.0 288.05 L-69.25 286.05 -68.55 284.0 Q-68.6 283.15 -69.2 284.95 L-70.75 289.35 -70.0 288.05 M-37.75 338.6 L-39.05 339.9 Q-42.55 341.85 -43.5 341.85 L-45.4 341.5 -47.0 340.85 -46.3 340.35 Q-39.4 337.35 -38.25 337.1 L-37.75 338.6" fill="#5b8a79" fill-rule="evenodd" stroke="none"/>
    <path d="M549.4 320.9 L548.75 320.1 Q549.55 319.0 553.2 316.65 557.2 314.1 558.75 314.35 L559.0 314.95 559.25 316.25 Q559.25 320.55 557.6 321.95 555.8 322.65 555.5 323.1 L555.3 322.65 Q555.4 322.15 555.8 321.4 L556.25 320.35 553.1 320.9 550.5 321.35 Q549.85 321.35 549.4 320.9 M190.35 293.85 L187.35 296.05 182.1 299.65 Q179.5 301.4 177.65 301.5 177.5 301.05 177.5 300.0 L181.9 296.1 Q186.25 291.85 186.25 289.1 186.95 289.9 188.4 290.3 L190.35 290.6 192.0 290.8 Q192.35 291.0 192.5 292.1 L190.35 293.85" fill="#52796b" fill-rule="evenodd" stroke="none"/>
    <path d="M175.0 112.85 Q171.5 131.45 168.8 155.0 L161.2 221.75 157.6 260.8 Q155.3 284.2 149.95 350.8 L148.05 373.55 148.1 377.35 147.7 377.65 147.2 378.0 145.85 378.35 Q144.6 378.35 143.7 376.65 142.9 375.2 142.9 373.75 142.9 341.1 147.85 295.4 L152.75 252.2 Q155.9 223.8 158.05 200.25 160.65 171.85 164.5 144.55 L171.05 97.5 171.45 94.45 173.85 94.0 Q174.85 94.0 174.1 94.2 174.3 96.5 175.25 101.95 173.35 104.15 173.35 108.85 L173.55 111.1 Q173.9 111.95 175.0 112.85" fill="url(#gradient1)" fill-rule="evenodd" stroke="none"/>
    <path d="M175.0 112.85 Q173.9 111.95 173.55 111.1 L173.35 108.85 Q173.35 104.15 175.25 101.95 176.1 100.95 177.35 100.45 179.0 99.8 180.1 101.1 181.35 102.55 181.35 105.85 181.35 109.85 181.05 110.45 180.25 112.05 175.85 113.5 L175.0 112.85" fill="#5d5a51" fill-rule="evenodd" stroke="none"/>
    <path d="M154.1 216.0 Q-145.35 520.7 113.15 255.0 152.75 213.7 153.4 212.55 154.4 210.85 156.85 211.0 156.35 211.5 154.1 216.0" fill="#9d988d" fill-rule="evenodd" stroke="none"/>
    <path d="M771.0 302.35 Q766.65 301.45 761.75 298.85 755.75 295.65 753.85 293.2 L753.6 293.2 Q753.5 293.65 753.55 295.45 753.65 296.9 753.2 297.8 751.8 300.55 744.1 301.6 741.55 304.75 734.85 306.9 L731.85 306.9 Q728.05 305.8 727.85 303.15 727.75 301.0 729.85 298.5 L726.5 299.1 722.35 299.55 Q717.0 299.55 715.15 297.9 714.1 297.0 714.1 295.15 714.1 293.85 714.9 292.85 L716.6 291.15 Q715.85 290.65 715.6 290.15 715.35 289.55 715.35 288.1 715.35 286.75 716.15 285.8 L719.35 281.95 718.85 280.9 718.6 280.7 714.6 280.9 Q714.55 283.45 711.45 285.7 708.95 287.6 705.3 288.8 705.1 289.15 704.35 289.3 L696.4 288.9 698.35 291.35 698.35 292.6 Q697.85 293.2 696.1 293.4 695.6 293.0 693.35 292.6 693.35 292.15 694.85 291.55 L691.55 285.9 691.1 285.05 Q687.15 289.65 682.6 288.35 683.25 289.7 682.6 292.0 681.9 294.4 680.25 296.4 675.9 301.45 669.6 299.0 669.45 300.5 669.75 301.0 L670.1 301.65 Q670.1 304.6 666.65 309.55 663.35 314.35 660.6 315.8 L659.25 315.8 668.35 327.25 676.1 327.25 726.9 322.25 Q747.35 320.1 765.9 319.65 L767.0 319.6 767.65 329.05 767.9 332.65 766.1 332.75 712.1 332.75 695.3 332.15 684.1 333.8 675.8 335.45 669.1 336.85 Q667.1 336.85 653.95 323.9 L646.3 316.25 645.4 316.15 645.45 315.4 645.4 315.35 645.35 315.35 644.85 315.35 Q644.2 315.6 642.8 317.0 641.75 318.0 638.85 318.25 639.65 321.65 632.1 323.55 628.65 324.05 625.85 322.3 623.6 320.9 623.35 319.45 607.55 319.35 603.7 317.9 602.3 317.35 602.2 316.55 L602.35 315.15 Q602.35 313.75 605.55 308.9 608.6 304.3 609.85 303.5 L608.4 302.5 Q607.15 301.85 605.6 301.85 604.2 301.85 603.9 302.75 603.55 303.8 603.1 303.9 L593.1 303.9 Q591.35 302.9 590.35 301.65 L582.35 301.05 581.05 300.25 Q580.35 299.6 580.35 298.3 580.35 297.55 581.75 295.85 583.35 293.9 583.6 293.05 L578.6 290.6 Q578.6 288.15 580.1 286.95 L581.55 285.35 Q576.35 286.4 572.55 288.8 568.25 291.5 561.7 298.35 L560.2 299.85 562.6 302.8 562.1 304.45 555.65 304.45 552.1 308.15 557.2 310.0 Q558.6 310.6 558.6 311.75 558.6 313.05 558.05 313.3 L556.35 313.65 Q557.0 315.3 560.45 318.1 563.6 320.7 563.6 321.35 563.6 322.6 562.4 323.8 560.8 325.4 557.35 326.55 560.0 328.95 557.5 334.2 L555.35 338.25 Q554.2 340.5 554.1 341.65 L554.4 341.9 552.85 342.1 Q552.1 342.1 550.9 341.2 L548.1 339.2 542.35 339.85 539.15 342.9 Q536.7 345.35 536.35 345.95 L534.45 348.5 531.85 351.1 528.9 350.9 528.85 350.2 528.7 347.95 528.7 347.8 528.25 341.1 528.9 340.0 529.35 340.05 528.15 339.9 528.1 339.4 528.05 338.9 528.05 338.75 527.95 337.45 527.1 326.75 527.1 321.8 523.1 324.8 517.1 324.8 Q515.7 324.55 515.25 324.1 514.85 323.65 514.85 322.55 514.85 322.1 522.1 316.2 L535.8 304.75 Q545.05 296.6 549.6 292.75 L549.7 292.65 554.25 288.55 558.35 285.1 567.55 277.35 569.9 275.35 571.25 274.2 574.45 271.2 Q577.75 267.7 578.5 265.2 L578.85 265.25 581.8 265.2 583.6 265.05 585.4 265.2 590.35 265.55 595.75 264.95 600.35 264.4 628.1 263.8 Q651.8 263.8 662.75 264.45 L673.1 265.05 677.9 264.85 688.35 263.75 691.7 263.3 691.75 263.3 691.85 263.3 692.0 263.3 692.35 263.3 696.4 263.35 Q704.55 263.35 722.6 262.6 L731.15 261.8 737.25 261.3 Q741.0 261.3 742.6 262.45 743.85 263.35 745.1 266.35 749.45 276.55 756.25 284.25 L767.35 297.6 767.4 297.6 768.3 298.8 771.0 302.35 M699.6 284.3 L699.9 284.45 699.85 284.2 699.6 284.3 M695.1 287.05 L695.1 287.0 Q695.1 286.15 695.25 285.6 L694.35 285.85 695.1 287.05 M589.05 271.4 L588.6 271.3 Q588.3 271.35 588.65 271.4 L589.05 271.4" fill="#556460" fill-rule="evenodd" stroke="none"/>
    <path d="M765.9 319.65 Q747.35 320.1 726.9 322.25 L676.1 327.25 668.35 327.25 659.25 315.8 660.6 315.8 Q663.35 314.35 666.65 309.55 670.1 304.6 670.1 301.65 L669.75 301.0 Q669.45 300.5 669.6 299.0 675.9 301.45 680.25 296.4 681.9 294.4 682.6 292.0 683.25 289.7 682.6 288.35 687.15 289.65 691.1 285.05 L691.55 285.9 694.85 291.55 Q693.35 292.15 693.35 292.6 695.6 293.0 696.1 293.4 697.85 293.2 698.35 292.6 L698.35 291.35 696.4 288.9 704.35 289.3 Q705.1 289.15 705.3 288.8 708.95 287.6 711.45 285.7 714.55 283.45 714.6 280.9 L718.6 280.7 718.85 280.9 719.35 281.95 716.15 285.8 Q715.35 286.75 715.35 288.1 715.35 289.55 715.6 290.15 715.85 290.65 716.6 291.15 L714.9 292.85 Q714.1 293.85 714.1 295.15 714.1 297.0 715.15 297.9 717.0 299.55 722.35 299.55 L726.5 299.1 729.85 298.5 Q727.75 301.0 727.85 303.15 728.05 305.8 731.85 306.9 L734.85 306.9 Q741.55 304.75 744.1 301.6 751.8 300.55 753.2 297.8 753.65 296.9 753.55 295.45 753.5 293.65 753.6 293.2 L753.85 293.2 Q755.75 295.65 761.75 298.85 766.65 301.45 771.0 302.35 L773.35 305.5 Q780.35 315.05 780.35 316.55 780.35 317.85 777.2 318.5 L765.9 319.65 M695.1 287.05 L694.35 285.85 695.25 285.6 Q695.1 286.15 695.1 287.0 L695.1 287.05 M699.6 284.3 L699.85 284.2 699.9 284.45 699.6 284.3" fill="#6c807b" fill-rule="evenodd" stroke="none"/>
    <path d="M528.1 339.4 L528.15 339.9 529.35 340.05 528.9 340.0 528.25 341.1 528.1 339.4 M528.9 350.9 L531.85 351.1 534.45 348.5 536.35 345.95 Q536.7 345.35 539.15 342.9 L542.35 339.85 548.1 339.2 550.9 341.2 Q552.1 342.1 552.85 342.1 L554.4 341.9 554.1 341.65 Q554.2 340.5 555.35 338.25 L557.5 334.2 Q560.0 328.95 557.35 326.55 560.8 325.4 562.4 323.8 563.6 322.6 563.6 321.35 563.6 320.7 560.45 318.1 557.0 315.3 556.35 313.65 L558.05 313.3 Q558.6 313.05 558.6 311.75 558.6 310.6 557.2 310.0 L552.1 308.15 555.65 304.45 562.1 304.45 562.6 302.8 560.2 299.85 561.7 298.35 Q568.25 291.5 572.55 288.8 576.35 286.4 581.55 285.35 L580.1 286.95 Q578.6 288.15 578.6 290.6 L583.6 293.05 Q583.35 293.9 581.75 295.85 580.35 297.55 580.35 298.3 580.35 299.6 581.05 300.25 L582.35 301.05 590.35 301.65 Q591.35 302.9 593.1 303.9 L603.1 303.9 Q603.55 303.8 603.9 302.75 604.2 301.85 605.6 301.85 607.15 301.85 608.4 302.5 L609.85 303.5 Q608.6 304.3 605.55 308.9 602.35 313.75 602.35 315.15 L602.2 316.55 Q602.3 317.35 603.7 317.9 607.55 319.35 623.35 319.45 623.6 320.9 625.85 322.3 628.65 324.05 632.1 323.55 639.65 321.65 638.85 318.25 641.75 318.0 642.8 317.0 644.2 315.6 644.85 315.35 L645.35 315.35 645.4 315.35 645.45 315.4 645.4 316.15 646.3 316.25 653.95 323.9 Q667.1 336.85 669.1 336.85 L675.8 335.45 684.1 333.8 695.3 332.15 712.1 332.75 766.1 332.75 767.9 332.65 768.1 335.5 768.35 341.25 768.55 343.15 Q768.55 344.4 767.95 344.4 L767.9 347.0 Q767.75 350.05 767.2 352.6 765.35 360.75 759.9 360.55 L704.1 360.55 702.6 360.15 642.85 360.15 Q636.6 360.6 628.25 360.35 619.5 360.05 609.7 360.8 L597.3 361.55 572.15 361.25 567.75 361.75 557.15 362.2 543.8 361.15 534.6 359.8 530.8 358.7 Q529.15 357.85 529.1 356.05 L528.9 350.9" fill="#6e837d" fill-rule="evenodd" stroke="none"/>
    <path d="M741.1 260.35 L743.8 260.6 Q746.2 260.75 748.6 263.55 748.45 267.25 747.95 268.1 L746.7 268.45 744.95 268.25 Q743.45 267.75 743.85 266.2 742.0 272.3 739.6 274.9 737.3 277.45 733.85 277.45 730.95 277.45 729.95 275.85 728.85 274.15 725.85 273.6 722.8 273.25 722.0 272.9 719.5 271.8 718.6 271.7 L709.1 271.3 708.1 269.9 707.1 268.45 699.1 268.85 Q698.5 268.65 697.75 265.4 697.05 262.45 697.1 261.0 L689.2 260.6 685.6 260.25 Q683.65 260.25 681.55 263.45 679.45 266.6 676.85 266.6 L668.7 266.2 Q669.5 270.65 667.55 272.8 665.55 274.95 660.35 274.95 658.45 274.95 657.45 274.05 L655.6 272.35 Q646.3 282.15 645.85 282.15 639.3 282.15 635.85 280.4 632.6 278.75 628.35 273.55 L623.1 272.95 622.1 271.55 621.1 270.1 Q619.3 271.6 617.05 272.85 L614.85 273.95 609.1 273.75 Q607.9 273.35 606.7 271.0 605.7 269.0 605.6 268.25 L598.35 267.6 596.7 267.2 Q594.5 265.85 594.05 265.1 593.6 264.3 593.6 263.15 593.6 262.25 593.85 261.7 592.85 261.8 591.7 262.45 L588.85 262.9 Q588.25 262.9 587.5 262.45 L586.85 261.9 Q589.1 259.3 592.05 258.25 595.05 257.2 600.35 257.2 604.75 257.2 609.7 258.15 611.1 258.4 612.7 259.95 614.35 261.45 617.75 262.1 L623.65 263.0 Q626.4 263.35 627.7 263.85 628.2 263.3 628.85 263.15 642.5 261.05 644.15 260.25 644.7 260.0 644.85 259.45 645.0 258.8 645.85 258.2 648.45 258.2 651.3 260.65 653.85 262.9 653.85 264.05 653.85 265.0 653.3 265.85 L662.9 262.3 Q673.7 258.65 684.2 256.4 694.05 254.25 699.3 254.25 705.15 254.25 708.8 256.55 712.45 258.8 718.9 258.8 L725.7 258.75 Q732.1 258.75 733.75 258.95 L738.65 260.05 741.1 260.35" fill="#5b8a79" fill-rule="evenodd" stroke="none"/>
    <path d="M742.4 335.75 L720.2 335.15 710.85 334.85 673.35 336.25 637.8 337.6 624.35 337.55 624.1 336.0 624.25 334.5 648.8 333.8 666.8 332.5 695.85 331.85 704.45 331.5 706.95 331.25 748.8 332.05 752.95 332.1 753.9 332.85 753.9 332.9 742.4 335.75 M585.65 331.9 L562.75 333.6 534.05 335.8 506.95 337.85 507.9 335.7 509.0 333.6 547.2 332.8 556.05 332.3 562.15 332.1 585.65 331.9" fill="#b5d4c9" fill-rule="evenodd" stroke="none"/>
    <path d="M752.95 332.1 L748.8 332.05 706.95 331.25 704.45 331.5 695.85 331.85 666.8 332.5 648.8 333.8 624.25 334.5 624.1 336.0 624.35 337.55 637.8 337.6 673.35 336.25 710.85 334.85 720.2 335.15 742.4 335.75 Q733.65 338.55 711.05 338.55 L679.65 337.8 636.6 338.5 625.8 339.1 Q625.85 347.6 625.1 366.4 L620.6 366.65 620.2 366.1 Q620.0 360.2 619.4 355.05 618.5 345.9 618.5 343.15 L618.6 336.45 Q618.75 334.7 619.55 334.25 L622.3 333.6 Q625.0 333.05 627.85 331.6 L734.1 331.1 738.85 329.75 742.7 329.1 Q746.8 329.1 748.8 332.05 L748.65 331.7 752.95 332.1 M506.95 337.85 L534.05 335.8 562.75 333.6 585.65 331.9 586.55 331.9 591.45 331.35 592.7 331.2 593.8 331.1 597.65 330.7 602.7 331.05 Q604.6 331.5 605.55 334.05 L586.1 335.6 532.5 338.6 Q529.65 345.55 529.65 357.85 L529.7 365.85 508.8 365.85 508.75 365.8 507.9 362.6 Q506.8 358.95 506.7 354.4 L506.75 340.75 506.95 337.85" fill="#98b4a9" fill-rule="evenodd" stroke="none"/>
    <path d="M742.4 335.75 L753.9 332.9 753.85 334.1 754.1 339.7 Q755.15 358.8 754.05 360.1 753.4 360.8 752.9 359.55 L753.1 362.1 744.35 362.6 712.85 362.85 700.3 363.75 688.1 364.6 650.85 364.85 625.1 366.4 Q625.85 347.6 625.8 339.1 L636.6 338.5 679.65 337.8 711.05 338.55 Q733.65 338.55 742.4 335.75 M619.4 355.05 Q620.0 360.2 620.2 366.1 L619.3 363.4 618.8 361.45 619.4 355.05 M529.7 365.85 L529.65 357.85 Q529.65 345.55 532.5 338.6 L586.1 335.6 605.55 334.05 607.35 361.25 Q607.35 365.4 602.95 367.55 L583.25 368.6 557.75 368.6 Q547.8 366.15 542.25 365.9 537.95 366.1 536.0 365.85 L529.7 365.85" fill="#768c84" fill-rule="evenodd" stroke="none"/>
  </g>
  <defs>
    <radialGradient cx="0" cy="0" gradientTransform="matrix(0.4505, 0.0, 0.0, 0.3858, 329.95, 0.0)" gradientUnits="userSpaceOnUse" id="gradient0" r="819.2" spreadMethod="pad">
      <stop offset="0.17254901960784313" stop-color="#5f9efe"/>
      <stop offset="1.0" stop-color="#aae6ff"/>
    </radialGradient>
    <linearGradient gradientTransform="matrix(-0.0114, 0.199, -0.01, -6.0E-4, 159.75, 208.15)" gradientUnits="userSpaceOnUse" id="gradient1" spreadMethod="pad" x1="-819.2" x2="819.2">
      <stop offset="0.0" stop-color="#46443c"/>
      <stop offset="1.0" stop-color="#c9c2b6"/>
    </linearGradient>
  </defs>
</svg>
