<?xml version="1.0" encoding="UTF-8" standalone="no"?>
<svg xmlns:xlink="http://www.w3.org/1999/xlink" height="114.95px" width="92.0px" xmlns="http://www.w3.org/2000/svg">
  <g transform="matrix(1.0, 0.0, 0.0, 1.0, 49.8, 108.35)">
    <path d="M-17.2 4.7 Q-18.75 2.7 -19.95 -4.05 -21.55 -13.15 -23.45 -18.8 -26.3 -27.05 -30.3 -33.85 L-33.55 -37.6 Q-35.9 -40.2 -35.9 -41.6 -35.9 -42.6 -44.75 -50.05 -53.6 -57.5 -46.9 -53.3 -40.25 -49.1 -33.65 -44.25 -27.05 -39.4 -23.8 -33.9 L-23.9 -34.7 Q-24.65 -38.3 -29.1 -54.55 L-33.3 -70.15 Q-33.3 -71.4 -37.9 -88.05 L-35.45 -81.3 Q-29.45 -72.55 -24.15 -59.55 -19.65 -48.5 -19.0 -45.95 L-18.95 -46.15 Q-18.75 -47.3 -16.9 -65.95 -15.7 -78.0 -14.0 -106.8 -12.6 -77.6 -12.65 -73.25 L-13.05 -68.3 -9.65 -78.15 Q-7.1 -85.45 -2.1 -108.35 -1.35 -94.85 -2.3 -89.15 L-3.55 -80.55 -5.35 -59.1 -7.35 -33.9 -6.8 -35.15 -3.1 -41.4 Q-0.4 -45.8 -0.4 -46.95 L-2.55 -55.2 Q-4.75 -63.5 -4.75 -65.05 -4.75 -67.7 -3.05 -67.7 -1.05 -67.7 1.1 -63.3 3.55 -57.45 4.95 -54.6 L5.0 -54.65 Q4.3 -58.15 2.7 -62.55 1.3 -66.4 1.3 -66.95 L1.5 -68.5 Q1.75 -69.3 -0.6 -87.0 3.85 -67.9 6.75 -60.3 7.95 -57.0 8.9 -56.0 L9.5 -55.05 Q9.5 -54.4 9.0 -53.7 L8.45 -53.15 10.95 -39.1 Q10.85 -38.25 11.15 -36.45 13.35 -46.1 17.95 -70.5 19.65 -79.35 22.8 -83.8 L23.25 -83.7 Q23.65 -83.05 25.2 -89.95 26.7 -96.85 26.7 -85.3 26.7 -73.75 24.8 -58.85 22.9 -44.0 22.9 -42.55 L22.95 -41.25 23.5 -42.15 Q35.65 -61.6 39.15 -68.5 42.65 -75.4 42.15 -72.3 41.6 -69.25 40.0 -64.8 38.4 -60.4 37.9 -60.3 37.35 -60.25 34.15 -53.75 30.9 -47.3 29.75 -40.8 28.6 -34.35 24.95 -21.5 L19.95 -3.7 Q20.2 -12.8 22.15 -23.1 L24.9 -37.25 24.7 -37.8 Q20.55 -35.25 18.25 -20.9 16.65 -10.85 16.65 -2.75 L16.35 -1.7 15.6 0.15 Q16.1 -6.6 13.85 -25.35 12.75 -24.55 12.6 -13.8 L12.55 -1.1 10.35 -10.4 7.55 -23.05 7.35 -24.6 7.4 -23.65 Q5.0 -34.7 4.25 -36.65 3.5 -38.4 1.1 -39.35 0.8 -38.65 1.05 -37.55 L-1.75 -30.05 2.0 -24.0 4.3 -20.0 3.5 -25.5 5.1 -16.8 5.9 -5.85 2.7 -13.9 Q0.4 -19.2 -3.35 -24.9 L-7.2 -10.85 -8.55 -5.1 -8.95 -13.4 -8.15 -18.55 -7.35 -24.8 Q-7.35 -25.95 -7.75 -27.0 L-7.85 -27.2 -8.45 -27.25 Q-9.75 -27.25 -11.0 -19.8 -11.65 -16.05 -11.95 -12.05 L-12.15 -10.45 -13.15 -22.95 -14.55 -35.65 -15.45 -35.65 -16.1 -30.1 -15.2 -11.35 -15.3 -7.05 -15.65 -7.05 Q-16.8 -13.55 -18.35 -28.05 -18.95 -33.45 -22.25 -39.85 L-23.05 -38.9 -23.35 -38.2 -22.2 -33.15 Q-21.1 -28.3 -21.1 -21.55 -21.1 -18.7 -19.4 -7.95 L-17.2 4.7 M18.05 1.7 Q16.75 4.0 16.2 4.0 L15.15 3.85 14.75 3.65 14.9 3.05 15.55 3.0 16.75 2.6 18.05 1.7 M11.35 5.25 L9.75 3.95 Q8.65 2.85 8.25 2.1 9.5 2.1 10.4 3.05 11.35 3.95 11.35 5.25" fill="#8ab68a" fill-rule="evenodd" stroke="none"/>
    <path d="M-17.2 4.7 L-19.4 -7.95 Q-21.1 -18.7 -21.1 -21.55 -21.1 -28.3 -22.2 -33.15 L-23.35 -38.2 -23.05 -38.9 -22.25 -39.85 Q-18.95 -33.45 -18.35 -28.05 -16.8 -13.55 -15.65 -7.05 L-15.3 -7.05 -15.2 -11.35 -16.1 -30.1 -15.45 -35.65 -14.55 -35.65 -13.15 -22.95 -12.15 -10.45 -11.95 -12.05 Q-11.65 -16.05 -11.0 -19.8 -9.75 -27.25 -8.45 -27.25 L-7.85 -27.2 -7.75 -27.0 Q-7.35 -25.95 -7.35 -24.8 L-8.15 -18.55 -8.95 -13.4 -8.55 -5.1 Q-8.1 -0.9 -9.2 1.0 -10.0 2.2 -11.25 2.2 -12.05 2.2 -12.7 1.65 -13.3 1.1 -12.95 0.9 L-13.2 1.0 Q-13.45 1.85 -13.4 4.45 -13.65 6.6 -15.35 6.6 -16.15 6.6 -17.2 4.7 M5.9 -5.85 L5.1 -16.8 3.5 -25.5 1.05 -37.55 Q0.8 -38.65 1.1 -39.35 3.5 -38.4 4.25 -36.65 5.0 -34.7 7.4 -23.65 L7.55 -23.05 10.35 -10.4 12.55 -1.1 12.6 -13.8 Q12.75 -24.55 13.85 -25.35 16.1 -6.6 15.6 0.15 L16.35 -1.7 16.65 -2.75 Q16.65 -10.85 18.25 -20.9 20.55 -35.25 24.7 -37.8 L24.9 -37.25 22.15 -23.1 Q20.2 -12.8 19.95 -3.7 20.25 -0.25 19.35 0.75 18.35 1.3 18.05 1.7 L16.75 2.6 15.55 3.0 14.9 3.05 14.75 3.65 Q14.3 6.1 12.9 6.3 12.1 6.3 11.35 5.25 11.35 3.95 10.4 3.05 9.5 2.1 8.25 2.1 L8.05 2.2 Q7.6 1.25 6.85 -1.45 5.95 -4.6 5.9 -5.85" fill="#6e9c7f" fill-rule="evenodd" stroke="none"/>
    <path d="M-30.05 -39.85 L-25.8 -32.6 Q-27.25 -32.4 -28.55 -34.8 L-30.9 -39.35 -30.05 -39.85 M-15.5 -41.25 L-14.55 -42.9 -14.85 -41.15 Q-15.1 -40.2 -15.35 -40.1 L-15.35 -40.45 -15.5 -41.25 M-12.6 -61.9 Q-11.15 -73.25 -8.85 -76.85 -8.35 -75.4 -10.15 -65.9 L-14.05 -47.7 -13.9 -48.95 Q-13.6 -50.5 -12.6 -61.9 M-26.4 -65.85 L-26.05 -65.5 Q-25.45 -64.85 -24.6 -62.5 -23.75 -60.25 -23.45 -58.65 -24.1 -59.15 -25.15 -61.65 L-27.0 -66.3 -26.4 -65.85 M30.9 -55.85 L31.1 -55.6 Q31.0 -52.75 27.45 -48.75 L27.7 -49.6 29.25 -52.8 30.9 -55.85 M5.25 -53.6 L0.9 -62.45 Q3.25 -61.75 5.6 -56.25 7.65 -51.55 8.25 -47.2 7.9 -47.6 5.25 -53.6 M22.4 -79.5 L22.5 -79.15 Q22.45 -76.75 19.7 -64.7 16.8 -52.0 15.5 -49.5 L15.4 -49.5 15.35 -50.2 Q15.35 -52.7 17.85 -64.15 20.6 -76.65 22.4 -79.5" fill="#b1d7ba" fill-rule="evenodd" stroke="none"/>
  </g>
</svg>
