<?xml version="1.0" encoding="UTF-8" standalone="no"?>
<svg xmlns:xlink="http://www.w3.org/1999/xlink" height="169.65px" width="557.35px" xmlns="http://www.w3.org/2000/svg">
  <g transform="matrix(1.0, 0.0, 0.0, 1.0, 77.5, -342.2)">
    <path d="M399.35 351.1 Q399.9 350.2 400.55 349.9 L402.1 349.6 Q401.6 351.1 399.35 351.1 M478.35 343.4 Q477.25 343.4 476.85 342.85 477.3 341.55 479.85 342.85 479.5 343.4 478.35 343.4 M468.1 345.6 L465.35 348.6 463.1 348.85 462.85 349.05 Q462.6 348.9 462.6 347.35 462.6 344.85 467.35 344.85 L468.1 345.6 M433.5 347.4 L434.35 348.1 432.65 348.25 Q431.25 348.1 431.1 347.6 L431.9 347.25 432.85 347.1 433.5 347.4 M475.15 351.15 L470.85 352.35 470.1 351.85 Q471.85 350.7 474.4 350.15 477.05 349.55 478.35 350.1 L475.15 351.15 M37.35 355.6 L38.4 356.0 41.35 357.1 40.85 357.35 37.35 357.1 37.35 355.6 M76.15 352.05 Q77.55 352.4 77.85 352.85 L77.35 353.6 73.35 354.6 72.85 353.85 73.95 352.65 74.85 351.85 76.15 352.05 M65.35 350.1 Q65.6 350.45 65.4 350.95 65.1 351.8 65.1 353.1 L66.15 353.95 66.5 354.3 70.35 354.1 67.55 355.4 68.1 356.1 67.5 357.4 Q66.9 358.1 65.35 358.1 L62.9 357.85 62.35 357.6 62.15 357.05 58.85 357.35 57.1 357.15 56.85 356.35 56.35 355.6 61.85 354.9 Q61.9 353.3 63.3 351.75 64.35 350.6 65.35 350.1 M52.35 357.1 L49.85 357.6 Q47.35 357.35 47.1 356.6 L48.0 356.25 49.85 356.1 51.0 356.4 Q52.2 356.8 52.35 357.1 M-77.5 350.1 Q-75.75 348.65 -72.9 347.15 -69.9 345.6 -68.75 345.6 -69.6 346.25 -73.2 348.15 -77.0 350.1 -77.5 350.1 M-70.45 357.65 Q-70.95 358.1 -71.5 358.1 -73.75 357.6 -74.5 356.85 -73.9 356.25 -73.05 356.15 L-69.75 356.6 Q-69.95 357.2 -70.45 357.65" fill="#d9cecb" fill-rule="evenodd" stroke="none"/>
    <path d="M231.9 381.0 Q249.1 372.2 255.9 368.35 L256.45 368.05 263.0 367.85 301.0 368.1 304.75 368.85 352.0 369.1 364.4 367.75 373.65 367.2 374.45 367.8 377.0 369.8 376.5 369.85 377.95 370.65 381.5 373.85 385.0 378.1 386.5 379.8 386.4 381.85 386.5 384.35 378.3 383.5 378.2 383.5 365.5 381.85 237.5 381.85 235.4 382.8 Q234.05 383.35 232.5 383.35 L230.55 383.1 230.5 382.85 229.95 382.6 229.8 382.1 231.4 381.3 231.95 381.0 231.9 381.0" fill="#d4cec5" fill-rule="evenodd" stroke="none"/>
    <path d="M386.5 384.35 L386.7 387.5 387.25 393.4 387.25 396.1 385.25 446.35 Q384.9 458.7 383.25 471.85 383.05 473.4 384.3 478.35 385.2 481.9 383.25 483.8 377.75 489.15 339.0 492.35 L330.15 492.5 327.25 489.8 320.3 483.75 Q317.25 480.95 317.25 480.1 L317.4 478.5 Q317.3 477.0 316.0 475.1 311.75 478.15 302.3 487.5 L296.85 493.1 284.8 492.3 256.25 490.85 Q252.05 490.75 240.1 490.8 236.15 490.85 235.0 490.1 L234.4 486.35 233.75 482.6 233.15 477.35 Q232.6 465.2 231.75 456.3 L231.75 454.85 232.05 454.35 232.65 454.0 231.8 446.6 Q231.15 441.4 231.0 438.35 L231.0 412.3 230.2 399.35 229.5 386.5 229.25 382.4 229.45 381.95 Q229.55 381.85 231.0 381.1 L231.9 381.0 231.95 381.0 231.4 381.3 229.8 382.1 229.95 382.6 230.5 382.85 230.55 383.1 232.5 383.35 Q234.05 383.35 235.4 382.8 L237.5 381.85 365.5 381.85 378.2 383.5 378.3 383.5 386.5 384.35 M322.7 492.6 L307.5 492.85 301.0 493.35 302.9 491.3 Q310.5 483.35 313.75 483.35 L322.7 492.6 M367.0 419.65 L366.5 419.85 Q355.3 427.8 343.1 439.55 329.55 452.6 323.5 462.35 324.75 462.35 326.0 462.85 332.8 457.55 350.05 440.4 367.5 423.0 367.5 421.35 367.5 419.8 367.0 419.65 M251.5 424.35 L249.0 424.1 248.4 424.4 247.25 424.85 Q256.2 431.8 277.9 451.75 293.45 466.1 296.5 466.1 298.1 466.1 298.75 465.5 L299.5 464.35 Q289.95 455.6 275.95 444.15 L251.5 424.35 M306.0 394.6 L271.95 395.8 247.0 397.85 245.5 398.1 Q244.75 398.4 244.75 400.0 244.75 401.65 245.4 402.3 L245.5 402.4 245.5 402.6 246.25 403.35 Q247.35 403.6 248.8 404.55 250.0 405.35 251.35 405.35 253.0 405.35 253.7 403.95 L254.05 403.05 285.5 400.1 Q313.9 398.0 363.8 398.75 L361.5 398.85 361.25 404.85 Q363.65 404.8 367.9 402.25 371.9 399.9 372.25 398.85 L371.75 398.6 371.75 398.35 Q371.75 397.35 370.5 396.1 L324.95 394.8 Q306.0 394.3 306.0 394.6" fill="#ada193" fill-rule="evenodd" stroke="none"/>
    <path d="M330.15 492.5 L323.65 492.6 322.75 492.6 322.7 492.6 313.75 483.35 Q310.5 483.35 302.9 491.3 L301.0 493.35 300.75 493.35 299.35 493.25 297.2 493.1 296.85 493.1 302.3 487.5 Q311.75 478.15 316.0 475.1 317.3 477.0 317.4 478.5 L317.25 480.1 Q317.25 480.95 320.3 483.75 L327.25 489.8 330.15 492.5 M306.0 394.6 Q306.0 394.3 324.95 394.8 L370.5 396.1 Q371.75 397.35 371.75 398.35 L371.75 398.6 372.25 398.85 Q371.9 399.9 367.9 402.25 363.65 404.8 361.25 404.85 L361.5 398.85 363.8 398.75 Q313.9 398.0 285.5 400.1 L254.05 403.05 253.7 403.95 Q253.0 405.35 251.35 405.35 250.0 405.35 248.8 404.55 247.35 403.6 246.25 403.35 L245.5 402.6 245.5 402.4 245.4 402.3 Q244.75 401.65 244.75 400.0 244.75 398.4 245.5 398.1 L247.0 397.85 271.95 395.8 306.0 394.6 M251.5 424.35 L275.95 444.15 Q289.95 455.6 299.5 464.35 L298.75 465.5 Q298.1 466.1 296.5 466.1 293.45 466.1 277.9 451.75 256.2 431.8 247.25 424.85 L248.4 424.4 249.0 424.1 251.5 424.35 M367.0 419.65 Q367.5 419.8 367.5 421.35 367.5 423.0 350.05 440.4 332.8 457.55 326.0 462.85 324.75 462.35 323.5 462.35 329.55 452.6 343.1 439.55 355.3 427.8 366.5 419.85 L367.0 419.65" fill="#958a7c" fill-rule="evenodd" stroke="none"/>
    <path d="M313.5 397.35 Q314.0 404.1 314.0 417.25 L312.95 444.35 311.05 446.4 311.0 444.5 Q311.0 439.85 312.0 435.85 L312.0 397.35 313.5 397.35 M297.5 398.35 Q298.0 399.85 298.0 404.35 L297.7 418.3 Q297.3 431.7 296.5 438.85 L296.0 439.35 295.55 438.55 295.5 436.25 Q296.25 411.1 296.25 398.35 L297.5 398.35 M280.8 412.25 Q281.15 419.35 281.75 423.85 281.25 424.6 280.0 424.6 280.0 422.35 279.25 420.1 L279.25 400.6 280.25 400.6 280.8 412.25 M261.25 401.85 L261.5 407.85 261.0 408.35 260.5 407.85 260.5 401.85 261.25 401.85 M248.5 424.1 L251.5 462.35 251.5 490.1 250.5 490.35 Q249.4 480.45 248.15 463.6 246.5 442.3 246.5 432.6 246.35 430.65 246.5 428.85 246.85 425.3 248.5 424.1 M264.5 438.35 Q264.2 441.5 264.55 447.45 L265.0 454.5 Q265.0 469.85 264.25 477.35 L263.5 477.35 Q263.0 471.7 262.45 462.45 L262.0 451.85 Q261.15 448.4 261.05 445.4 260.8 439.55 264.5 438.35 M279.2 454.15 Q279.75 455.9 279.75 457.75 279.75 465.4 278.5 470.1 L277.5 470.35 278.1 467.75 Q278.5 465.85 278.5 464.35 278.5 457.6 276.25 450.85 L277.0 450.35 Q278.5 451.8 279.2 454.15 M312.5 488.85 L312.5 479.85 313.25 479.85 313.5 488.85 313.0 489.35 312.5 488.85 M368.25 424.35 L369.5 424.35 Q370.5 429.35 370.5 436.35 L369.5 451.25 Q368.5 466.2 368.5 473.85 368.5 492.25 367.75 511.35 L367.0 511.85 Q366.2 504.85 365.8 491.75 365.5 483.05 365.5 478.0 L365.7 466.75 Q366.0 456.4 366.5 450.6 367.05 445.65 367.45 437.2 L368.25 424.35 M346.5 416.1 L345.5 416.35 Q346.0 410.35 346.0 397.35 L347.5 397.35 Q348.0 399.6 348.0 404.85 348.0 411.6 346.5 416.1 M328.9 398.75 L330.25 398.85 Q329.95 405.15 329.8 415.05 L329.5 431.85 329.0 432.35 Q328.65 428.55 328.45 421.5 L328.25 413.1 Q328.25 403.35 328.5 398.85 L328.9 398.75 M347.15 443.25 L347.25 441.35 348.5 441.35 350.0 474.35 349.5 493.85 349.0 494.35 Q348.35 485.15 347.65 468.4 L347.0 452.0 347.0 451.85 347.0 442.95 347.05 443.0 347.15 443.25 M328.3 460.4 L329.0 459.4 330.45 457.25 330.45 457.45 Q331.0 460.65 331.0 462.75 331.0 466.85 329.5 474.35 L328.5 474.6 Q328.8 470.5 328.45 462.7 L328.3 460.4" fill="#958a7c" fill-rule="evenodd" stroke="none"/>
    <path d="M298.25 443.35 Q296.7 443.15 291.45 439.3 L285.5 434.6 Q283.9 433.05 279.35 429.95 L273.5 425.6 Q270.95 423.05 262.4 416.7 255.75 411.75 254.5 409.1 259.65 409.1 266.15 414.6 L276.5 423.85 289.35 433.75 Q296.7 439.3 298.25 442.6 L298.25 443.35 M276.25 493.75 Q276.0 493.8 276.0 492.25 276.0 491.15 281.05 486.95 286.65 482.35 287.25 481.35 L290.7 476.7 Q293.35 473.35 294.5 472.35 L295.2 472.8 Q295.5 473.1 295.5 474.6 279.75 492.35 276.5 493.35 L276.25 493.75 M315.5 447.85 L337.75 426.05 Q351.55 412.35 362.5 404.85 L363.0 404.65 Q363.5 404.8 363.5 406.35 363.5 408.05 351.4 418.15 L339.0 428.1 327.15 439.95 Q320.35 446.35 316.0 448.35 L315.5 447.85 M346.25 491.35 Q344.5 491.6 342.5 490.85 339.05 485.65 334.7 480.25 L327.25 470.85 Q330.75 471.1 336.0 478.05 L346.25 491.35" fill="#d4cec5" fill-rule="evenodd" stroke="none"/>
    <path d="M359.65 373.15 Q360.7 373.55 362.75 374.6 L363.0 375.75 362.5 376.85 358.0 377.6 317.0 378.85 312.8 378.5 Q310.5 378.1 310.5 377.6 L332.0 375.85 358.0 374.6 Q354.5 373.85 354.0 373.1 L354.6 372.5 355.0 372.1 Q357.25 372.25 359.65 373.15 M256.75 376.35 L260.45 372.9 Q262.7 370.85 264.0 370.6 L290.0 370.6 307.25 371.8 Q311.3 372.1 315.5 373.35 L315.0 373.85 Q302.25 373.45 290.0 373.65 265.75 374.0 259.0 377.35 257.25 377.1 256.75 376.35" fill="#ada193" fill-rule="evenodd" stroke="none"/>
    <path d="M344.75 376.6 Q343.05 377.9 339.55 378.35 333.05 379.2 316.25 378.85 309.45 378.7 296.1 379.4 L282.5 380.1 277.4 378.75 270.75 376.6 270.0 375.85 Q269.55 374.8 269.9 374.1 270.55 372.75 276.0 372.6 276.45 371.9 278.7 371.5 L290.0 370.6 290.0 370.1 339.0 370.1 352.0 372.1 Q353.55 372.7 354.0 374.1 L353.25 376.1 344.75 376.6" fill="#ada193" fill-rule="evenodd" stroke="none"/>
  </g>
</svg>
