<?xml version="1.0" encoding="UTF-8" standalone="no"?>
<svg xmlns:xlink="http://www.w3.org/1999/xlink" height="611.4px" width="920.0px" xmlns="http://www.w3.org/2000/svg">
  <g transform="matrix(1.0, 0.0, 0.0, 1.0, 110.0, 59.3)">
    <path d="M750.0 480.0 L-110.0 480.0 -110.0 0.0 750.0 0.0 750.0 480.0" fill="#ffb3e9" fill-rule="evenodd" stroke="none"/>
    <path d="M187.6 48.5 Q189.45 50.3 189.45 52.85 189.45 55.4 187.6 57.2 185.8 59.0 183.3 59.0 180.75 59.0 178.95 57.2 177.15 55.4 177.15 52.85 177.15 50.3 178.95 48.5 180.75 46.7 183.3 46.7 185.8 46.7 187.6 48.5 M179.5 30.8 Q183.6 31.3 183.6 35.8 183.75 39.05 180.35 41.1 L171.25 41.1 171.25 56.5 Q171.3 59.0 168.3 59.4 L157.0 59.4 Q153.9 58.0 152.85 53.5 152.5 49.85 156.4 47.25 L159.15 47.25 159.15 41.1 145.85 41.1 145.85 55.85 Q145.75 58.55 142.6 59.1 L133.45 59.1 133.45 41.4 120.75 41.4 120.75 31.05 179.5 30.8 M162.65 71.35 L162.65 74.65 162.6 74.65 162.3 82.0 Q160.95 85.5 156.15 85.55 151.7 86.1 150.5 82.3 L150.5 62.95 162.4 62.95 162.6 71.35 162.65 71.35 M179.5 62.95 L179.7 71.35 179.75 71.35 179.75 74.65 179.7 74.65 179.45 82.0 Q178.1 85.5 173.25 85.55 168.8 86.1 167.65 82.3 L167.65 62.95 179.5 62.95 M167.4 90.95 Q168.4 88.15 173.1 88.2 177.85 88.2 179.2 91.95 L179.2 100.95 Q178.6 104.55 175.65 105.8 L137.6 105.8 Q133.3 105.95 133.75 99.95 L133.75 62.35 145.55 62.35 145.55 95.2 167.4 95.2 167.4 90.95 M158.55 24.85 Q157.15 27.95 152.65 29.0 149.0 29.35 146.4 25.45 L146.4 17.2 158.55 17.2 158.55 24.85 M91.2 48.2 L91.2 106.7 79.1 106.7 79.1 47.9 Q81.15 43.35 85.6 43.45 90.15 43.55 91.2 48.2 M105.35 30.5 Q110.1 30.05 110.4 36.1 L110.4 106.1 98.0 106.1 98.0 41.7 72.9 41.7 72.9 30.8 105.35 30.5 M121.25 46.7 Q123.8 46.7 125.6 48.5 127.4 50.3 127.4 52.85 127.4 55.4 125.6 57.2 123.8 59.0 121.25 59.0 118.7 59.0 116.9 57.2 115.1 55.4 115.1 52.85 115.1 50.3 116.9 48.5 118.7 46.7 121.25 46.7 M117.85 84.9 L132.35 71.05 132.35 87.6 124.65 94.65 Q120.2 95.6 117.85 92.15 116.15 89.1 117.85 84.9 M70.5 75.4 L70.5 91.95 57.85 79.8 57.85 105.5 46.0 105.5 46.0 65.35 Q48.05 58.35 54.9 60.9 L70.5 75.4 M57.85 25.15 Q56.45 28.7 51.65 28.7 47.2 29.25 46.0 25.45 L46.0 18.35 58.15 18.35 57.85 25.15 M66.4 30.2 Q70.7 31.0 70.8 34.9 71.65 37.7 66.7 41.7 L14.1 91.35 14.1 73.95 48.35 40.8 33.0 40.8 33.0 30.2 66.4 30.2 M69.05 66.85 Q64.55 67.75 62.25 64.3 60.5 61.25 62.25 57.1 L76.75 43.2 76.75 59.75 69.05 66.85" fill="#ffffff" fill-rule="evenodd" stroke="none"/>
    <path d="M131.6 47.0 L139.85 47.0 139.85 59.15 132.2 59.15 Q129.1 57.75 128.05 53.25 127.7 49.6 131.6 47.0" fill="#ffffff" fill-rule="evenodd" stroke="none"/>
    <path d="M402.1 -19.5 L399.1 -19.25 398.85 -18.75 Q400.25 -18.75 402.1 -19.5 M400.85 -22.25 Q403.65 -21.7 405.1 -20.25 417.05 -21.75 427.85 -18.4 437.45 -15.45 443.35 -9.75 445.8 -7.35 449.65 -2.55 453.2 1.9 454.85 4.5 458.4 9.9 459.55 18.55 460.2 23.4 460.85 32.25 464.35 55.6 467.85 88.5 473.2 138.95 483.1 200.85 485.2 213.95 493.0 257.2 499.25 292.1 502.1 313.35 505.6 339.9 511.6 369.6 512.75 375.45 519.65 400.2 525.85 422.55 525.85 424.75 525.85 427.25 525.6 426.6 L524.75 427.25 Q523.85 427.85 522.35 427.85 521.1 427.85 511.75 422.45 502.6 417.2 500.35 415.35 494.0 410.45 485.35 402.6 480.3 398.15 474.45 390.1 L464.85 377.1 Q457.95 388.95 451.6 402.6 444.9 417.05 440.6 429.6 438.6 435.55 435.0 443.15 L428.35 456.6 Q427.75 457.85 423.45 469.65 418.65 480.85 414.35 480.85 408.85 480.85 404.45 461.35 L399.35 432.35 Q398.0 425.5 395.4 408.3 392.95 392.05 391.35 384.35 384.45 397.6 374.7 412.5 364.8 427.7 353.85 441.6 351.9 440.95 351.35 439.65 351.1 439.0 351.1 437.35 351.1 435.75 361.45 397.05 372.25 356.8 373.6 344.35 375.55 327.0 377.65 297.8 L381.1 251.35 Q384.3 215.0 385.9 158.85 L388.6 65.5 388.6 20.5 388.8 9.25 Q388.8 1.85 389.35 -2.35 391.05 -15.8 400.85 -22.25" fill="#448888" fill-rule="evenodd" stroke="none"/>
    <path d="M492.5 294.4 L495.8 292.25 Q497.45 291.15 499.05 290.2 L506.3 285.9 Q519.3 278.75 526.5 278.75 531.95 278.75 541.5 270.4 546.4 266.15 551.1 261.25 554.0 259.2 556.05 256.3 557.85 253.75 559.6 252.8 565.0 249.8 593.85 247.25 L593.85 246.75 629.85 246.75 Q635.3 247.85 658.3 249.4 L698.6 252.25 Q704.45 252.7 708.9 255.3 L714.85 258.75 Q719.2 260.1 726.05 266.35 731.7 271.5 734.85 275.75 737.35 279.15 754.35 293.0 755.95 294.35 756.55 297.85 L757.1 302.75 Q757.25 304.45 758.0 307.3 L759.1 311.75 761.2 324.2 763.25 336.9 763.6 339.05 Q750.1 344.25 734.75 349.75 714.6 357.0 700.6 361.35 L654.5 375.3 654.1 375.45 Q663.35 385.3 663.35 390.85 663.35 405.75 651.6 425.4 L643.5 438.2 Q639.85 444.05 639.85 446.0 639.85 448.7 643.2 467.85 646.1 484.4 647.35 490.6 649.3 499.35 653.05 513.1 655.05 521.2 655.6 528.2 L603.85 528.35 597.85 529.1 588.95 529.1 Q589.25 521.65 590.35 509.35 591.85 492.8 591.85 485.35 591.85 476.95 590.1 473.7 589.1 471.8 585.95 470.3 582.7 468.7 581.05 465.95 578.4 461.55 577.1 451.6 576.45 446.2 573.2 431.4 L570.1 417.1 Q570.1 408.55 587.6 388.55 L591.05 384.65 Q581.95 382.45 567.7 376.95 L543.85 366.85 Q537.3 364.0 515.1 356.05 497.8 349.9 488.1 344.35 L487.2 343.35 Q486.85 342.65 486.85 341.0 486.85 339.3 488.65 330.5 L490.6 320.5 Q491.85 309.25 491.85 300.25 L492.3 294.55 492.5 294.4" fill="#878aa3" fill-rule="evenodd" stroke="none"/>
    <path d="M763.25 336.9 Q765.2 349.25 765.55 353.45 766.1 359.45 766.1 387.35 766.1 395.45 765.05 407.0 L763.1 424.85 Q762.4 431.15 758.9 443.2 754.65 458.0 753.85 461.6 752.75 466.85 750.7 479.15 748.25 490.45 743.4 498.3 729.55 520.55 688.85 528.1 L655.6 528.2 Q655.05 521.2 653.05 513.1 649.3 499.35 647.35 490.6 646.1 484.4 643.2 467.85 639.85 448.7 639.85 446.0 639.85 444.05 643.5 438.2 L651.6 425.4 Q663.35 405.75 663.35 390.85 663.35 385.3 654.1 375.45 L654.5 375.3 700.6 361.35 Q714.6 357.0 734.75 349.75 750.1 344.25 763.6 339.05 L763.25 336.9 M588.95 529.1 L557.85 529.1 Q548.0 527.5 530.7 526.5 L502.2 524.8 Q468.9 521.9 457.1 510.6 455.7 509.25 455.25 506.45 L455.05 502.95 455.05 502.7 455.55 497.1 455.6 494.1 455.5 485.0 455.6 478.0 Q455.6 456.8 457.6 426.7 L458.85 409.95 461.35 374.85 Q463.1 350.3 462.85 324.0 L462.3 320.55 Q461.9 318.45 462.35 317.25 L464.65 315.2 465.55 314.5 469.6 311.25 Q473.7 307.15 486.35 298.5 489.6 296.3 492.5 294.4 L492.3 294.55 491.85 300.25 Q491.85 309.25 490.6 320.5 L488.65 330.5 Q486.85 339.3 486.85 341.0 486.85 342.65 487.2 343.35 L488.1 344.35 Q497.8 349.9 515.1 356.05 537.3 364.0 543.85 366.85 L567.7 376.95 Q581.95 382.45 591.05 384.65 L587.6 388.55 Q570.1 408.55 570.1 417.1 L573.2 431.4 Q576.45 446.2 577.1 451.6 578.4 461.55 581.05 465.95 582.7 468.7 585.95 470.3 589.1 471.8 590.1 473.7 591.85 476.95 591.85 485.35 591.85 492.8 590.35 509.35 589.25 521.65 588.95 529.1" fill="#b3b3cc" fill-rule="evenodd" stroke="none"/>
    <path d="M455.25 506.45 L455.3 506.75 454.85 507.1 446.1 507.4 435.85 508.1 420.85 508.1 419.05 505.9 Q418.25 506.85 416.85 506.85 410.05 506.85 409.2 501.7 L408.75 496.8 Q408.4 493.65 407.1 491.6 L406.25 493.1 Q405.6 494.15 404.85 494.6 399.75 482.05 397.55 453.8 396.1 434.6 396.1 409.75 396.1 404.45 398.15 394.15 L398.15 394.1 Q401.0 366.6 418.75 344.9 428.35 333.2 440.4 326.3 449.55 321.05 458.85 319.35 457.25 321.35 456.2 323.8 455.1 326.4 455.35 327.95 L455.35 328.1 Q457.1 329.7 457.65 337.35 L458.1 349.1 Q458.25 353.8 459.05 363.25 L459.85 373.1 459.65 379.95 Q459.35 385.4 458.85 388.85 L458.85 409.95 457.6 426.7 Q455.6 456.8 455.6 478.0 L455.5 485.0 455.6 494.1 455.55 497.1 455.05 502.7 455.05 502.95 455.25 506.45 M414.65 359.4 Q415.9 361.6 419.85 361.6 424.3 361.6 426.9 359.15 429.35 356.8 429.35 353.1 429.35 351.5 428.55 351.0 L426.85 350.35 Q420.8 348.8 417.05 351.65 414.1 353.9 414.1 356.75 414.1 358.5 414.65 359.4" fill="#ffdbc4" fill-rule="evenodd" stroke="none"/>
    <path d="M458.85 319.35 L459.4 318.7 Q462.1 315.6 464.65 315.2 L462.35 317.25 Q461.9 318.45 462.3 320.55 L462.85 324.0 Q463.1 350.3 461.35 374.85 L458.85 409.95 458.85 388.85 Q459.35 385.4 459.65 379.95 L459.85 373.1 459.05 363.25 Q458.25 353.8 458.1 349.1 L457.65 337.35 Q457.1 329.7 455.35 328.1 L455.35 327.95 Q455.1 326.4 456.2 323.8 457.25 321.35 458.85 319.35" fill="#53b5b5" fill-rule="evenodd" stroke="none"/>
    <path d="M414.65 359.4 Q414.1 358.5 414.1 356.75 414.1 353.9 417.05 351.65 420.8 348.8 426.85 350.35 L428.55 351.0 Q429.35 351.5 429.35 353.1 429.35 356.8 426.9 359.15 424.3 361.6 419.85 361.6 415.9 361.6 414.65 359.4" fill="#ffffff" fill-rule="evenodd" stroke="none"/>
    <path d="M388.8 86.5 Q424.85 115.75 432.85 166.45 439.75 209.95 436.35 254.55 433.8 288.45 425.6 320.7 425.3 321.85 424.35 322.85 405.45 269.9 397.55 211.85 389.4 151.7 386.75 91.35 386.6 88.5 388.8 86.5" fill="#42b5a8" fill-rule="evenodd" stroke="none"/>
    <path d="M433.85 89.45 Q437.5 91.8 442.1 98.5 446.8 105.45 448.3 118.7 449.1 125.9 449.1 140.1 L448.55 158.6 Q447.95 177.6 447.85 187.0 L447.7 194.6 Q447.15 202.55 445.25 209.0 440.2 226.15 426.9 228.8 L427.5 231.15 Q428.45 234.9 429.35 237.0 431.4 243.2 434.45 248.45 439.5 257.1 444.35 257.1 445.6 257.1 448.35 255.85 451.1 254.6 452.35 254.6 457.65 254.6 461.9 261.35 465.1 266.5 465.1 268.5 465.1 272.05 463.15 274.85 460.8 278.1 456.85 278.1 449.7 278.1 445.25 271.3 443.95 269.25 442.7 266.3 L441.35 263.35 Q421.0 247.3 418.3 229.1 407.75 228.05 399.05 220.9 395.8 218.2 393.15 214.9 L390.85 211.75 Q389.3 209.35 388.45 202.55 387.85 197.5 387.85 193.0 387.85 185.2 389.65 175.55 391.4 166.45 391.1 151.0 L390.45 130.3 Q390.15 117.85 391.1 109.75 391.65 105.4 397.65 100.1 404.5 94.1 415.35 90.0 427.45 85.35 433.85 89.45" fill="#363443" fill-rule="evenodd" stroke="none"/>
    <path d="M503.35 295.1 L504.35 290.75 502.3 292.5 Q505.3 287.25 507.1 281.65 513.35 262.3 531.75 252.8 539.15 249.0 545.85 244.0 549.9 241.1 552.6 236.9 556.5 230.7 563.15 228.65 L568.35 226.85 Q586.25 219.85 605.55 218.95 623.8 217.75 642.05 218.65 L660.05 220.5 Q679.1 222.8 697.25 229.0 699.75 229.95 701.4 232.3 706.85 240.2 705.1 250.55 703.55 261.9 703.6 273.65 L703.75 282.1 Q704.35 300.8 705.8 319.45 707.15 336.7 705.7 354.0 695.5 345.35 683.65 337.45 L670.85 329.05 Q662.75 323.95 654.8 318.45 649.6 314.85 643.6 312.75 641.75 312.0 639.7 312.4 L641.25 309.75 Q643.55 306.85 644.15 303.5 644.45 301.95 645.35 300.65 651.0 292.4 655.8 283.5 L627.45 290.65 Q639.55 275.45 648.25 258.3 648.45 257.85 648.1 257.35 643.1 250.7 634.8 250.25 624.0 249.95 613.35 252.5 607.45 254.1 601.35 254.75 583.2 255.65 566.4 262.4 562.85 263.75 563.35 267.4 563.9 271.5 567.55 273.65 569.25 274.7 570.2 276.45 580.1 293.85 584.45 313.45 L587.4 328.1 Q587.6 329.35 588.05 330.6 L592.5 332.75 589.6 335.9 553.6 313.55 553.6 313.5 555.4 296.4 Q552.25 295.4 549.05 295.35 L510.5 295.0 505.9 295.0 503.35 295.1 M706.4 365.1 L704.3 363.5 Q703.55 373.15 697.65 380.5 697.0 381.25 695.85 381.35 682.55 372.5 671.55 360.7 L663.5 351.9 662.35 350.2 675.15 338.7 641.75 320.05 603.8 343.4 600.2 343.65 588.7 344.25 594.9 337.65 595.1 339.1 Q610.95 327.75 627.65 317.7 632.1 315.0 636.65 317.6 L638.7 314.1 Q641.1 317.5 646.1 320.25 663.5 329.75 679.45 341.4 692.4 350.95 705.6 360.2 L706.4 365.1 M543.2 348.45 L536.15 355.25 Q533.45 357.7 531.25 360.45 520.3 374.25 507.85 386.6 506.0 385.3 505.7 382.9 504.25 370.8 504.35 358.4 L530.75 333.1 543.2 348.45" fill="#878aa3" fill-rule="evenodd" stroke="none"/>
    <path d="M592.5 332.75 L588.05 330.6 Q587.6 329.35 587.4 328.1 L584.45 313.45 Q580.1 293.85 570.2 276.45 569.25 274.7 567.55 273.65 563.9 271.5 563.35 267.4 562.85 263.75 566.4 262.4 583.2 255.65 601.35 254.75 607.45 254.1 613.35 252.5 624.0 249.95 634.8 250.25 643.1 250.7 648.1 257.35 648.45 257.85 648.25 258.3 639.55 275.45 627.45 290.65 L594.15 331.5 592.5 332.75" fill="#f3b4a5" fill-rule="evenodd" stroke="none"/>
    <path d="M553.6 313.55 L589.6 335.9 592.5 332.75 594.15 331.5 594.7 335.8 594.9 337.65 588.7 344.25 574.15 344.25 Q571.1 349.3 567.45 354.05 563.2 359.5 557.6 363.4 L543.2 348.45 530.75 333.1 546.35 318.5 549.1 318.5 550.85 319.55 553.1 320.75 553.25 316.95 553.6 313.55 M639.7 312.4 Q641.75 312.0 643.6 312.75 649.6 314.85 654.8 318.45 662.75 323.95 670.85 329.05 L683.65 337.45 Q695.5 345.35 705.7 354.0 707.15 336.7 705.8 319.45 704.35 300.8 703.75 282.1 L703.6 273.65 Q703.55 261.9 705.1 250.55 705.9 267.6 706.3 284.65 706.65 299.85 708.0 314.9 709.65 333.9 710.8 353.05 L710.0 365.25 707.85 365.85 706.4 365.1 705.6 360.2 Q692.4 350.95 679.45 341.4 663.5 329.75 646.1 320.25 641.1 317.5 638.7 314.1 L639.7 312.4 M662.35 350.2 L657.15 354.55 Q646.35 364.05 632.95 368.6 L600.2 343.65 603.8 343.4 641.75 320.05 675.15 338.7 662.35 350.2 M620.6 432.25 L618.4 436.55 622.3 453.85 609.5 452.7 622.45 454.65 623.75 460.95 623.8 461.05 623.4 460.95 615.0 458.75 612.65 457.95 Q593.0 454.9 573.2 453.55 569.2 453.65 567.1 451.9 L568.65 437.85 566.55 436.3 599.0 436.3 Q610.35 436.4 620.6 432.25" fill="#449998" fill-rule="evenodd" stroke="none"/>
    <path d="M505.9 295.0 L510.5 295.0 494.75 361.15 Q502.25 353.6 509.2 345.3 517.3 335.6 526.2 326.8 538.0 315.25 553.7 312.05 L553.6 313.5 553.6 313.55 553.25 316.95 550.85 319.55 549.1 318.5 546.35 318.5 530.75 333.1 504.35 358.4 492.35 369.85 489.35 369.3 488.85 366.55 505.9 295.0 M641.25 309.75 L639.7 312.4 638.7 314.1 636.65 317.6 Q632.1 315.0 627.65 317.7 610.95 327.75 595.1 339.1 L594.9 337.65 594.7 335.8 Q596.6 331.6 600.1 328.55 604.85 324.3 609.65 320.2 616.2 314.55 624.45 312.6 L627.6 311.65 Q634.35 308.85 641.25 309.75 M632.95 368.6 Q632.9 370.4 635.4 373.75 637.85 377.1 638.7 381.0 641.3 393.25 635.3 404.6 L620.6 432.25 Q610.35 436.4 599.0 436.3 L566.55 436.3 Q557.15 425.4 546.85 415.45 545.45 414.1 545.1 412.05 543.3 401.4 548.1 391.3 554.45 377.85 557.6 363.4 563.2 359.5 567.45 354.05 571.1 349.3 574.15 344.25 L588.7 344.25 600.2 343.65 632.95 368.6 M622.3 453.85 L623.8 460.95 625.85 471.35 Q626.4 474.0 627.65 495.2 628.85 515.8 628.85 520.5 L628.85 531.35 Q628.15 539.85 624.35 539.85 L610.4 539.45 597.6 538.85 562.85 538.6 Q560.85 536.6 560.3 531.75 L560.1 524.6 Q560.1 519.25 566.5 460.95 L567.1 451.9 Q569.2 453.65 573.2 453.55 593.0 454.9 612.65 457.95 L615.0 458.75 623.4 460.95 623.8 461.05 623.75 460.95 622.45 454.65 609.5 452.7 622.3 453.85" fill="#53b5b5" fill-rule="evenodd" stroke="none"/>
    <path d="M503.35 295.1 L505.9 295.0 488.85 366.55 503.35 295.1 M510.5 295.0 L549.05 295.35 Q552.25 295.4 555.4 296.4 L553.6 313.5 553.7 312.05 Q538.0 315.25 526.2 326.8 517.3 335.6 509.2 345.3 502.25 353.6 494.75 361.15 L510.5 295.0 M627.45 290.65 L655.8 283.5 Q651.0 292.4 645.35 300.65 644.45 301.95 644.15 303.5 643.55 306.85 641.25 309.75 634.35 308.85 627.6 311.65 L624.45 312.6 Q616.2 314.55 609.65 320.2 604.85 324.3 600.1 328.55 596.6 331.6 594.7 335.8 L594.15 331.5 627.45 290.65 M553.25 316.95 L553.1 320.75 550.85 319.55 553.25 316.95" fill="#b3b3cc" fill-rule="evenodd" stroke="none"/>
    <path d="M686.45 -13.0 L713.05 -12.1 745.1 -10.0 Q751.05 -9.7 758.5 -7.5 765.45 -5.45 767.45 -3.75 771.85 -0.1 773.05 5.15 773.75 8.2 774.15 14.25 775.85 24.45 775.85 49.1 775.85 63.9 774.3 79.25 772.1 100.7 771.3 116.25 L769.55 149.25 Q768.5 168.4 767.2 182.25 L765.4 199.2 Q764.15 208.7 762.4 216.0 L760.55 224.4 Q758.7 229.85 754.25 232.5 747.45 236.55 742.4 238.85 736.65 241.4 729.25 243.5 725.35 244.6 714.75 248.95 703.85 253.45 700.4 254.5 L680.35 260.5 661.95 266.0 Q639.7 273.45 622.95 278.45 591.0 288.0 580.75 288.0 565.65 288.0 531.15 278.05 L494.45 266.5 Q487.1 264.1 478.05 260.35 468.9 256.5 464.65 254.0 L452.15 245.9 441.85 238.75 Q433.4 232.95 428.0 223.4 422.85 214.3 423.1 207.0 423.4 200.6 422.8 188.25 L422.15 175.5 Q422.15 171.0 423.35 148.5 423.35 143.85 425.4 133.15 L427.4 122.6 Q427.4 114.35 421.35 90.45 L414.45 62.25 412.15 47.25 Q410.45 37.0 409.85 32.25 408.85 24.45 408.2 17.25 408.0 12.6 407.45 9.75 407.1 7.8 405.5 6.05 404.1 4.45 404.1 3.25 404.1 -6.85 410.3 -12.95 422.6 -25.1 456.75 -22.5 L456.75 -23.0 497.1 -23.0 508.35 -22.1 519.45 -21.25 548.05 -21.0 552.35 -20.25 591.3 -20.0 627.05 -16.55 660.05 -13.25 686.45 -13.0" fill="#ffdbc4" fill-rule="evenodd" stroke="none"/>
    <path d="M739.1 36.5 L741.85 32.25 Q761.0 36.65 774.75 47.0 797.3 64.0 805.2 97.1 817.1 146.8 799.4 193.8 794.65 206.5 786.6 217.4 758.3 255.7 730.25 293.95 L717.85 310.6 715.15 307.75 Q742.35 178.25 739.4 47.0 L739.1 36.5" fill="#42b5a8" fill-rule="evenodd" stroke="none"/>
    <path d="M700.35 31.5 Q699.35 33.6 686.2 37.25 675.7 40.15 669.1 41.25 L652.3 45.15 Q638.85 48.25 635.85 48.25 L631.4 48.0 628.85 47.75 Q626.8 46.4 626.1 45.0 630.7 41.8 635.95 40.9 L644.1 40.25 Q649.5 39.85 653.8 38.85 L661.35 37.0 680.0 32.5 Q692.15 29.65 697.85 29.5 699.45 30.15 700.35 31.5 M509.5 39.9 Q518.4 42.5 521.85 42.5 526.6 48.5 526.6 49.5 L525.5 50.9 Q524.45 51.75 522.85 51.75 519.8 51.75 491.4 41.25 461.1 30.1 461.1 26.25 461.1 22.95 463.9 22.95 466.1 23.0 470.95 25.25 473.8 26.55 480.35 29.8 486.25 32.6 490.1 33.5 502.6 37.85 509.5 39.9" fill="#42b5a8" fill-rule="evenodd" stroke="none"/>
    <path d="M681.85 88.15 Q695.35 89.05 705.05 95.35 715.6 102.2 715.6 112.0 715.6 120.05 708.4 127.0 699.4 135.75 683.85 135.75 663.95 135.75 654.65 126.55 648.1 120.1 648.1 111.5 648.1 99.05 658.65 92.8 667.95 87.25 681.85 88.15 M650.3 101.45 Q648.9 104.25 648.4 107.55 645.45 105.95 643.4 103.0 641.95 100.95 641.15 98.45 640.6 96.85 640.6 96.25 640.6 94.5 641.15 93.75 641.6 93.15 642.85 92.75 643.65 93.65 645.1 96.85 646.2 99.15 648.85 100.75 L650.3 101.45 M500.85 126.55 Q492.75 135.5 479.35 135.5 458.0 135.5 449.4 126.55 444.6 121.55 444.6 115.25 444.6 107.1 449.5 100.6 L451.1 98.7 Q445.95 97.6 443.15 94.3 440.8 91.55 439.85 86.25 445.5 84.05 445.9 85.75 L445.9 87.55 Q445.85 88.75 446.35 89.25 448.2 91.05 453.8 93.4 L455.95 94.25 Q461.2 90.25 468.85 87.25 489.5 86.65 499.9 96.3 507.35 103.2 507.35 111.5 507.35 119.35 500.85 126.55" fill="#1d5c6b" fill-rule="evenodd" stroke="none"/>
    <path d="M562.45 155.8 Q562.5 147.05 565.35 143.75 566.6 146.75 566.6 153.5 L566.45 162.05 Q565.9 166.05 563.1 171.5 562.35 171.5 562.1 170.75 562.4 168.75 562.45 155.8 M424.85 191.25 L423.0 189.75 Q422.6 189.15 422.6 187.35 422.6 183.3 427.0 182.25 431.35 181.2 431.35 186.1 431.35 188.45 424.85 191.25" fill="#ffffff" fill-rule="evenodd" stroke="none"/>
    <path d="M587.1 235.5 Q587.1 238.0 586.85 237.75 L586.25 238.2 584.85 239.0 Q580.45 232.55 577.05 228.15 570.55 219.75 565.5 219.75 563.1 219.75 555.7 228.3 547.5 237.65 544.1 239.25 L543.75 239.6 Q543.35 239.65 543.35 238.1 543.35 236.65 548.2 231.2 L553.35 225.75 558.55 219.8 Q561.5 216.15 563.35 215.25 567.6 213.15 577.5 222.15 587.1 230.9 587.1 235.5" fill="#f3b4a5" fill-rule="evenodd" stroke="none"/>
    <path d="M686.1 144.5 Q686.1 147.05 681.4 152.4 676.8 157.55 677.1 160.25 L677.15 160.7 Q677.3 161.2 677.6 161.5 683.25 161.05 696.05 155.1 708.6 149.25 709.35 149.25 702.35 156.25 692.5 161.4 683.2 166.25 677.85 166.25 673.45 166.25 672.6 163.3 L672.6 160.25 Q672.6 157.15 673.9 154.7 675.25 152.1 679.1 148.25 L662.7 155.4 Q647.9 161.75 642.85 161.75 L639.8 161.5 638.6 161.25 638.35 161.6 Q638.1 161.65 638.1 160.1 638.1 159.15 645.3 153.7 652.5 148.2 654.35 147.75 L654.75 148.2 655.35 149.25 644.35 157.5 643.85 158.0 Q652.95 154.9 664.4 150.15 677.8 144.6 683.85 141.0 685.0 141.45 685.45 142.0 686.1 142.8 686.1 144.5 M504.6 151.0 Q495.85 155.8 486.1 160.15 474.15 165.45 467.85 166.75 L464.85 166.75 463.5 166.3 Q463.1 166.0 463.1 164.35 463.1 160.7 467.9 155.85 470.55 153.1 476.1 148.25 462.85 151.35 440.85 161.5 L438.95 161.65 Q438.35 161.65 438.35 160.1 438.35 158.65 445.3 153.55 451.55 148.95 453.35 148.25 L453.85 149.0 450.0 152.45 Q446.4 155.2 445.85 155.75 L445.35 156.25 Q448.45 155.5 464.0 148.75 479.25 142.6 484.1 143.75 L484.6 145.25 475.8 153.7 Q470.35 159.0 467.6 162.5 L467.35 163.0 Q475.15 160.9 487.5 156.3 498.05 152.3 504.6 151.0" fill="#ff9999" fill-rule="evenodd" stroke="none"/>
    <path d="M658.85 -52.65 Q703.15 -53.9 747.05 -49.75 768.5 -47.7 784.05 -35.6 787.95 -32.55 788.1 -26.9 789.3 17.5 795.7 61.3 799.3 86.0 800.0 109.75 770.35 93.35 752.4 60.3 746.7 49.8 739.65 40.05 748.3 84.05 744.65 128.45 L742.35 128.7 Q723.65 98.2 706.55 66.45 677.5 12.35 654.95 -44.75 650.75 -52.4 658.85 -52.65 M368.65 -48.5 L379.95 -52.45 Q389.15 -54.6 400.45 -54.25 444.95 -52.5 486.4 -48.2 487.15 -47.9 486.85 -47.0 L486.55 -46.8 Q485.8 -40.45 485.35 -34.05 L488.85 -38.75 490.5 -37.95 Q433.55 71.55 414.75 192.35 411.6 212.65 417.75 231.75 394.75 220.95 379.95 199.1 356.6 158.15 349.25 111.05 346.9 96.15 345.6 81.25 334.7 118.25 330.65 156.45 L328.25 156.65 324.15 121.5 Q326.95 82.05 336.55 43.7 348.35 -3.7 368.65 -48.5 M359.45 -25.6 L359.0 -25.8 Q354.4 -14.35 350.4 -2.75 L355.55 -4.55 Q358.1 -5.4 358.1 -6.25 358.1 -9.5 379.3 -16.25 388.9 -19.25 409.35 -24.75 L409.1 -25.5 384.3 -21.85 Q371.75 -19.35 357.1 -13.0 357.55 -13.95 358.8 -18.25 L360.1 -23.5 Q360.1 -25.1 359.45 -25.6 M521.55 -50.4 Q533.1 -61.9 554.65 -58.5 580.55 -54.7 606.45 -57.6 644.2 -61.5 645.9 -27.95 647.2 -2.85 642.45 21.8 632.45 73.95 624.3 126.45 622.85 135.9 617.85 144.0 578.2 97.7 550.75 42.2 552.25 81.3 556.45 119.75 L555.1 120.65 553.55 120.6 Q529.75 81.3 519.45 37.5 518.85 31.05 518.85 26.35 518.85 24.85 519.05 24.75 L519.6 24.5 519.6 -13.75 520.65 -30.55 Q528.5 -31.2 533.35 -32.65 540.4 -34.8 552.35 -35.75 L552.15 -36.55 552.1 -37.0 530.7 -36.5 520.95 -35.8 521.35 -45.25 521.5 -49.1 521.55 -50.4" fill="#42b5a8" fill-rule="evenodd" stroke="none"/>
    <path d="M324.15 121.5 Q321.3 71.65 333.75 23.2 337.8 7.4 343.25 -7.9 L341.55 -9.9 Q343.45 -20.85 350.5 -29.05 359.1 -39.2 368.65 -48.5 348.35 -3.7 336.55 43.7 326.95 82.05 324.15 121.5 M359.45 -25.6 Q360.1 -25.1 360.1 -23.5 L358.8 -18.25 Q357.55 -13.95 357.1 -13.0 371.75 -19.35 384.3 -21.85 L409.1 -25.5 409.35 -24.75 Q388.9 -19.25 379.3 -16.25 358.1 -9.5 358.1 -6.25 358.1 -5.4 355.55 -4.55 L350.4 -2.75 Q354.4 -14.35 359.0 -25.8 L359.45 -25.6 M519.45 37.5 L519.45 37.55 519.2 36.45 511.55 -32.2 511.55 -32.8 Q511.55 -38.5 513.85 -43.75 L515.0 -39.4 514.7 -40.65 Q517.5 -46.4 521.55 -50.4 L521.5 -49.1 521.35 -45.25 520.95 -35.8 530.7 -36.5 552.1 -37.0 552.15 -36.55 552.35 -35.75 Q540.4 -34.8 533.35 -32.65 528.5 -31.2 520.65 -30.55 L519.6 -13.75 519.6 24.5 519.05 24.75 Q518.85 24.85 518.85 26.35 518.85 31.05 519.45 37.5" fill="#9cebda" fill-rule="evenodd" stroke="none"/>
    <path d="M272.35 440.15 Q271.2 438.45 271.15 435.2 271.85 427.55 271.35 425.6 270.55 422.25 270.15 416.95 269.85 413.25 269.85 410.25 L269.75 404.8 Q269.85 401.8 270.85 399.65 273.45 394.05 284.6 390.1 294.65 386.6 310.75 383.55 331.7 379.65 357.85 377.6 358.35 375.8 360.35 375.2 L360.4 375.2 367.65 376.65 373.85 378.75 Q377.25 381.25 377.6 384.85 L379.0 391.3 Q379.6 395.0 379.6 396.85 379.6 400.15 378.4 406.65 L377.65 410.0 373.2 413.3 Q346.25 432.15 311.6 438.2 294.7 441.1 278.45 440.5 L272.35 440.15" fill="#f3b4a5" fill-rule="evenodd" stroke="none"/>
    <path d="M360.35 375.2 Q343.9 372.95 324.85 379.95 322.95 380.7 321.15 381.55 L317.0 380.7 316.75 378.25 322.6 374.1 Q259.4 379.15 225.2 426.65 224.3 427.9 227.25 429.2 249.1 438.3 272.35 440.15 L278.45 440.5 Q294.7 441.1 311.6 438.2 346.25 432.15 373.2 413.3 L377.65 410.0 Q384.6 404.7 391.05 398.5 394.25 395.4 393.65 391.4 384.35 382.9 373.85 378.75 L367.65 376.65 360.4 375.2 360.35 375.2 M219.15 429.95 L217.2 423.55 Q244.55 382.45 297.15 372.25 333.55 365.3 370.2 369.95 394.85 373.15 400.7 393.3 372.25 435.0 318.05 442.55 278.2 448.0 239.15 439.65 228.0 437.3 219.15 429.95" fill="#53b5b5" fill-rule="evenodd" stroke="none"/>
    <path d="M272.35 440.15 Q249.1 438.3 227.25 429.2 224.3 427.9 225.2 426.65 259.4 379.15 322.6 374.1 L316.75 378.25 317.0 380.7 321.15 381.55 Q322.95 380.7 324.85 379.95 343.9 372.95 360.35 375.2 358.35 375.8 357.85 377.6 331.7 379.65 310.75 383.55 294.65 386.6 284.6 390.1 273.45 394.05 270.85 399.65 269.85 401.8 269.75 404.8 L269.85 410.25 Q269.85 413.25 270.15 416.95 270.55 422.25 271.35 425.6 271.85 427.55 271.15 435.2 271.2 438.45 272.35 440.15 M373.85 378.75 Q384.35 382.9 393.65 391.4 394.25 395.4 391.05 398.5 384.6 404.7 377.65 410.0 L378.4 406.65 Q379.6 400.15 379.6 396.85 379.6 395.0 379.0 391.3 L377.6 384.85 Q377.25 381.25 373.85 378.75 M400.7 393.3 Q409.75 438.85 417.35 485.75 421.35 510.2 406.1 526.7 398.6 534.8 387.4 538.05 343.05 551.1 296.3 551.0 272.55 550.95 248.85 552.1 224.9 494.5 219.15 429.95 228.0 437.3 239.15 439.65 278.2 448.0 318.05 442.55 372.25 435.0 400.7 393.3" fill="#3f4152" fill-rule="evenodd" stroke="none"/>
    <path d="M343.95 347.8 L357.15 349.9 363.45 356.15 366.65 360.1 Q367.55 361.5 367.85 362.6 L367.9 362.75 369.1 365.4 370.05 366.85 370.4 367.3 371.2 368.25 371.85 371.1 Q372.85 375.1 372.85 376.35 372.85 380.8 365.8 393.95 L364.65 396.1 364.25 396.5 361.45 401.65 361.3 401.9 Q358.05 407.35 356.1 409.35 347.35 418.45 336.05 426.1 321.9 435.75 311.0 437.3 308.05 436.15 307.9 434.45 307.8 433.35 309.35 431.1 L307.45 431.1 306.35 432.2 Q302.85 435.0 293.1 436.85 290.35 437.4 281.4 440.55 L272.85 443.6 Q270.2 443.6 269.4 441.65 269.1 440.95 269.1 439.35 269.1 437.65 269.45 437.1 L271.1 435.6 282.35 432.4 Q277.1 429.55 277.1 427.1 L277.1 426.55 274.5 425.85 270.85 424.8 Q260.0 425.3 251.85 428.6 L246.85 428.6 244.0 426.65 Q243.1 425.9 243.1 425.1 243.1 423.9 243.7 422.0 244.25 420.3 244.1 419.1 245.8 417.45 250.35 416.7 L249.15 416.1 Q243.75 413.45 239.3 410.7 L230.1 412.85 Q227.95 413.4 222.55 416.25 218.1 418.6 214.85 418.6 210.95 418.6 210.15 415.9 L210.1 412.85 Q210.1 408.25 218.15 403.7 221.7 401.7 226.1 400.3 223.15 397.1 221.65 394.1 L224.1 391.35 Q243.85 369.2 243.85 365.85 243.85 362.7 242.3 360.2 255.05 351.35 269.8 346.35 278.0 344.85 285.35 344.1 L319.85 344.1 343.95 347.8" fill="#ffdbc4" fill-rule="evenodd" stroke="none"/>
    <path d="M293.6 417.5 Q293.6 422.15 280.2 434.65 270.1 444.05 263.0 449.0 251.35 457.3 233.6 465.65 217.55 473.2 210.15 474.75 207.2 474.1 206.45 472.8 206.1 472.25 206.1 470.5 206.1 464.4 221.85 451.75 L244.75 434.5 251.65 430.4 Q256.75 427.5 258.2 426.0 261.1 423.05 269.7 417.0 273.65 414.25 277.0 412.35 282.0 409.55 283.15 410.25 286.1 410.6 286.8 411.35 287.85 412.55 289.6 413.25 293.6 414.9 293.6 417.5" fill="#ffdbc4" fill-rule="evenodd" stroke="none"/>
    <path d="M256.4 417.0 Q248.6 425.45 235.4 434.5 231.75 437.0 223.25 441.75 215.2 446.25 211.0 449.3 L200.4 456.8 Q193.1 461.5 186.5 463.55 L179.6 464.55 Q176.75 464.7 175.3 462.8 174.35 461.6 174.15 459.95 173.3 453.9 183.65 442.4 193.4 431.55 204.5 424.7 206.8 423.25 218.8 417.05 227.7 412.4 232.45 408.4 241.25 401.05 252.2 398.4 263.5 395.7 264.35 401.65 265.2 407.55 256.4 417.0" fill="#ffdbc4" fill-rule="evenodd" stroke="none"/>
    <path d="M300.85 423.05 Q310.7 413.1 323.15 410.1 325.75 411.8 326.9 414.9 327.6 416.85 327.6 418.6 327.6 434.3 299.15 454.05 288.5 461.35 277.6 466.65 267.4 471.6 263.75 471.6 259.5 471.6 258.45 469.95 258.1 469.5 258.1 468.0 258.1 463.3 270.05 452.7 L287.2 438.3 Q289.4 436.25 293.55 431.2 298.25 425.7 300.85 423.05" fill="#ffdbc4" fill-rule="evenodd" stroke="none"/>
    <path d="M196.1 363.15 Q203.05 357.95 216.5 355.0 229.0 352.35 240.4 347.35 252.9 343.45 283.0 342.25 285.9 344.5 290.75 355.9 290.75 358.5 287.7 362.7 284.4 367.25 279.05 371.25 269.6 378.35 258.5 380.65 252.65 378.95 247.75 376.5 237.35 374.25 227.2 376.2 L218.65 378.2 209.0 379.0 Q202.75 379.4 198.5 380.65 192.45 380.15 190.75 377.0 190.25 376.1 190.25 372.5 190.25 367.55 196.1 363.15" fill="#ffdbc4" fill-rule="evenodd" stroke="none"/>
    <path d="M239.4 384.85 Q242.7 386.15 244.75 388.5 246.6 390.55 246.6 392.35 246.6 395.25 240.9 399.1 L230.35 406.6 Q229.55 407.3 224.45 413.55 220.9 417.9 217.1 419.35 L202.45 424.4 Q193.0 427.45 189.6 429.1 L177.65 435.65 Q171.5 438.6 162.85 439.6 160.1 438.55 159.4 436.5 159.1 435.75 159.1 433.5 159.1 426.45 169.25 417.0 177.85 409.0 190.85 401.6 201.5 395.65 219.35 386.85 230.7 381.35 239.4 384.85" fill="#ffdbc4" fill-rule="evenodd" stroke="none"/>
    <path d="M259.1 379.35 L271.0 384.7 281.35 389.1 Q280.35 390.1 277.5 390.1 271.8 390.1 263.65 385.85 255.4 381.55 253.35 377.35 L248.05 378.35 Q245.4 379.0 244.85 379.35 L244.1 380.05 Q243.35 380.4 243.35 378.85 243.35 378.45 246.95 376.95 250.7 375.4 252.85 375.1 254.35 374.9 255.55 376.55 257.15 378.6 259.1 379.35" fill="#f3b4a5" fill-rule="evenodd" stroke="none"/>
    <path d="M337.8 368.55 L341.1 371.6 Q339.8 374.05 333.7 375.35 L326.6 376.35 314.55 377.95 305.35 379.1 Q298.45 379.1 287.8 376.8 277.25 374.5 275.35 372.6 277.35 368.45 285.9 367.15 L317.85 364.6 317.85 364.1 320.35 364.6 Q321.35 365.6 321.35 366.1 L334.85 366.35 Q335.95 366.7 337.8 368.55" fill="#f3b4a5" fill-rule="evenodd" stroke="none"/>
  </g>
</svg>
