<?xml version="1.0" encoding="UTF-8" standalone="no"?>
<svg xmlns:xlink="http://www.w3.org/1999/xlink" height="480.0px" width="860.0px" xmlns="http://www.w3.org/2000/svg">
  <g transform="matrix(1.0, 0.0, 0.0, 1.0, 110.0, 0.0)">
    <path d="M750.0 480.0 L-110.0 480.0 -110.0 0.0 750.0 0.0 750.0 480.0" fill="#3b6ea5" fill-rule="evenodd" stroke="none"/>
    <path d="M440.0 380.0 L435.0 385.0 195.0 385.0 195.0 465.0 190.0 470.0 190.0 380.0 440.0 380.0" fill="#ffffff" fill-rule="evenodd" stroke="none"/>
    <path d="M435.0 385.0 L440.0 380.0 440.0 470.0 190.0 470.0 195.0 465.0 435.0 465.0 435.0 385.0" fill="#7f7a74" fill-rule="evenodd" stroke="none"/>
    <path d="M195.0 465.0 L195.0 385.0 435.0 385.0 435.0 465.0 195.0 465.0" fill="#d4d0c7" fill-rule="evenodd" stroke="none"/>
    <path d="M140.7 49.25 Q149.65 51.0 154.6 58.25 162.8 70.3 163.85 84.65 L165.85 113.95 Q166.45 124.7 165.45 135.8 L159.5 139.5 144.75 147.4 Q139.65 150.0 134.35 152.25 L101.35 165.9 Q85.85 172.1 69.15 173.8 L65.0 171.15 66.15 171.45 65.9 169.45 65.75 168.4 58.55 106.7 58.7 104.6 Q57.1 97.75 55.8 90.85 55.3 88.2 53.95 85.7 L53.25 85.1 Q64.45 78.75 76.15 73.1 82.2 70.3 88.45 67.8 101.6 62.9 114.6 57.5 127.15 52.25 140.7 49.25 M163.75 144.15 Q168.65 149.35 170.35 155.9 172.2 162.85 171.7 170.05 171.55 171.8 170.6 173.2 168.05 176.85 163.7 178.2 L157.05 180.3 Q143.3 185.05 130.8 192.0 L105.65 205.7 Q103.75 206.65 101.5 207.15 94.35 209.1 87.15 206.25 L83.35 184.15 82.65 180.4 Q95.9 179.0 108.75 175.95 120.95 173.0 130.85 165.3 132.15 164.3 133.6 163.55 146.75 157.35 159.5 150.15 163.35 148.0 163.75 144.15 M137.25 62.1 Q122.6 63.65 109.05 69.55 L97.15 74.65 Q83.55 80.5 69.8 85.75 67.35 86.65 66.55 88.95 65.9 90.85 65.9 92.85 65.8 105.7 68.1 118.45 70.1 129.6 72.85 140.55 74.9 147.95 75.8 155.4 76.0 157.2 76.95 158.65 78.9 161.85 82.9 161.55 97.65 160.45 111.3 154.65 124.15 149.35 136.5 143.0 147.75 137.3 157.85 130.4 158.6 129.95 158.9 129.15 160.75 124.35 160.45 119.1 159.65 104.4 157.5 89.65 155.4 75.2 145.8 64.25 144.85 63.2 143.3 62.85 140.25 61.85 137.25 62.1" fill="#d9d9d9" fill-rule="evenodd" stroke="none"/>
    <path d="M140.7 49.25 Q127.15 52.25 114.6 57.5 101.6 62.9 88.45 67.8 82.2 70.3 76.15 73.1 64.45 78.75 53.25 85.1 L53.95 85.7 Q46.5 80.9 37.65 80.75 L36.55 80.8 29.5 78.8 Q39.1 67.95 52.85 62.75 L63.2 58.45 Q76.0 53.15 89.4 48.95 98.2 46.25 107.15 44.4 115.7 42.7 124.15 45.3 L130.15 46.95 140.7 49.25 M46.75 171.95 L47.4 171.25 Q51.1 167.6 56.25 168.85 L59.65 175.45 Q68.9 178.2 78.3 180.3 L82.65 180.4 83.35 184.15 76.25 183.8 67.0 181.45 Q55.75 178.55 46.75 171.95 M81.65 98.25 Q80.35 100.9 77.7 100.9 74.75 100.9 72.9 98.4 71.65 96.6 71.65 95.65 71.65 92.25 77.05 91.0 82.35 89.8 82.35 94.8 82.35 96.55 81.65 98.25" fill="#ffffff" fill-rule="evenodd" stroke="none"/>
    <path d="M81.65 98.25 Q82.35 96.55 82.35 94.8 82.35 89.8 77.05 91.0 71.65 92.25 71.65 95.65 71.65 96.6 72.9 98.4 74.75 100.9 77.7 100.9 80.35 100.9 81.65 98.25 M72.85 140.55 Q70.1 129.6 68.1 118.45 65.8 105.7 65.9 92.85 65.9 90.85 66.55 88.95 67.35 86.65 69.8 85.75 83.55 80.5 97.15 74.65 L109.05 69.55 Q122.6 63.65 137.25 62.1 143.5 74.65 144.6 88.5 145.3 97.3 143.2 105.85 139.75 120.45 128.2 129.95 116.95 139.45 102.9 143.7 94.2 146.25 85.3 144.75 L79.55 144.45 72.85 140.55" fill="#68d1fd" fill-rule="evenodd" stroke="none"/>
    <path d="M72.85 140.55 L79.55 144.45 85.3 144.75 Q94.2 146.25 102.9 143.7 116.95 139.45 128.2 129.95 139.75 120.45 143.2 105.85 145.3 97.3 144.6 88.5 143.5 74.65 137.25 62.1 140.25 61.85 143.3 62.85 144.85 63.2 145.8 64.25 155.4 75.2 157.5 89.65 159.65 104.4 160.45 119.1 160.75 124.35 158.9 129.15 158.6 129.95 157.85 130.4 147.75 137.3 136.5 143.0 124.15 149.35 111.3 154.65 97.65 160.45 82.9 161.55 78.9 161.85 76.95 158.65 76.0 157.2 75.8 155.4 74.9 147.95 72.85 140.55" fill="#769df8" fill-rule="evenodd" stroke="none"/>
    <path d="M53.95 85.7 Q55.3 88.2 55.8 90.85 57.1 97.75 58.7 104.6 L58.55 106.7 65.75 168.4 64.2 167.95 54.95 166.0 48.35 164.95 Q43.4 164.2 39.4 161.15 38.8 160.75 38.75 160.0 38.15 156.3 37.85 152.5 37.25 144.9 35.55 137.6 34.8 134.4 34.4 131.15 31.0 107.25 28.75 83.55 L27.45 80.3 29.5 78.8 36.55 80.8 37.65 80.75 Q46.5 80.9 53.95 85.7 M87.15 206.25 L86.05 209.25 Q79.85 209.95 73.85 206.55 62.05 200.0 49.85 194.0 45.85 192.15 45.6 188.1 L45.2 185.2 42.95 176.25 46.75 171.95 Q55.75 178.55 67.0 181.45 L76.25 183.8 83.35 184.15 87.15 206.25" fill="#c0c0c0" fill-rule="evenodd" stroke="none"/>
    <path d="M65.9 169.45 L66.15 171.45 65.0 171.15 69.15 173.8 Q85.85 172.1 101.35 165.9 L134.35 152.25 Q139.65 150.0 144.75 147.4 L159.5 139.5 163.75 144.15 Q163.35 148.0 159.5 150.15 146.75 157.35 133.6 163.55 132.15 164.3 130.85 165.3 120.95 173.0 108.75 175.95 95.9 179.0 82.65 180.4 L78.3 180.3 Q68.9 178.2 59.65 175.45 L56.25 168.85 54.95 166.0 64.2 167.95 65.9 169.45" fill="#a2a2a2" fill-rule="evenodd" stroke="none"/>
    <path d="M114.55 200.15 L117.65 201.1 Q130.85 196.05 143.9 190.45 156.95 184.9 169.85 179.05 L181.15 173.5 Q185.65 171.3 186.55 166.95 187.9 168.4 187.65 170.5 187.15 174.35 183.45 176.2 175.1 180.15 167.1 185.2 160.35 189.5 153.55 193.1 140.95 199.55 128.2 205.45 125.4 206.85 122.75 208.5 117.85 211.5 113.55 209.0 117.1 206.0 114.55 202.0 L113.5 200.2 114.55 200.15" fill="#d9d9d9" fill-rule="evenodd" stroke="none"/>
    <path d="M186.55 166.95 Q185.65 171.3 181.15 173.5 L169.85 179.05 Q156.95 184.9 143.9 190.45 130.85 196.05 117.65 201.1 L114.55 200.15 112.85 199.05 102.55 189.1 101.65 187.85 Q107.0 183.35 113.4 180.6 L118.75 177.95 Q131.55 171.0 144.4 164.35 L156.15 158.15 Q160.6 155.75 165.55 155.9 167.05 156.95 168.35 158.05 172.5 161.75 177.95 163.1 182.85 164.0 186.55 166.95" fill="#ffffff" fill-rule="evenodd" stroke="none"/>
    <path d="M102.55 189.1 L112.85 199.05 113.5 200.2 114.55 202.0 Q117.1 206.0 113.55 209.0 L112.45 209.25 Q111.7 209.1 111.35 208.8 110.6 208.2 109.35 207.9 L101.6 206.0 Q100.85 205.85 100.65 205.3 96.8 197.1 98.4 188.7 L102.55 189.1" fill="#c0c0c0" fill-rule="evenodd" stroke="none"/>
  </g>
</svg>
