<?xml version="1.0" encoding="UTF-8" standalone="no"?>
<svg xmlns:xlink="http://www.w3.org/1999/xlink" height="552.65px" width="502.2px" xmlns="http://www.w3.org/2000/svg">
  <g transform="matrix(1.0, 0.0, 0.0, 1.0, -110.65, -52.95)">
    <path d="M193.05 519.1 Q193.8 522.7 193.45 526.65 L193.7 540.9 Q193.7 543.3 191.95 544.65 190.65 545.65 189.45 545.65 186.7 545.65 185.2 542.2 184.2 539.9 184.2 538.4 184.2 533.2 188.45 532.4 L188.45 523.4 181.2 523.65 Q180.3 526.15 181.5 533.4 181.5 539.4 174.45 539.4 L172.0 539.2 169.95 538.65 Q169.7 538.15 169.7 535.65 169.7 532.65 170.65 531.05 172.25 528.25 176.7 528.65 176.7 522.4 175.7 518.65 176.15 517.25 177.95 516.65 178.35 516.8 178.85 517.7 179.25 518.4 180.7 518.4 L188.45 518.15 Q191.9 513.7 193.05 519.1 M189.7 563.4 L189.45 571.65 Q188.55 577.65 184.95 577.65 180.1 577.65 179.15 575.0 L179.2 572.05 Q179.2 568.95 179.55 568.2 180.45 566.3 184.2 565.65 L184.2 558.9 177.45 557.4 Q177.45 562.65 177.7 564.9 L177.2 567.15 174.95 567.65 169.95 567.65 Q167.2 565.2 167.2 562.3 167.2 559.25 167.55 558.55 168.45 556.85 172.2 556.9 172.3 556.3 171.9 555.05 171.45 553.6 171.45 552.3 171.45 550.45 172.6 549.75 173.55 549.1 174.95 549.4 176.55 550.0 177.0 550.75 L177.6 551.85 Q178.55 552.85 186.95 553.15 188.45 554.65 189.15 558.3 189.7 560.9 189.7 563.4" fill="#000000" fill-rule="evenodd" stroke="none"/>
    <path d="M114.65 549.9 Q116.95 547.45 120.65 547.95 124.05 548.35 126.65 550.85 129.4 553.4 129.4 556.45 129.4 559.0 127.15 561.05 124.75 563.2 120.4 564.05 113.8 565.3 112.2 562.1 111.7 561.15 111.75 559.85 L111.9 558.85 Q111.9 552.75 114.65 549.9" fill="#ff1111" fill-rule="evenodd" stroke="none"/>
    <path d="M110.65 587.15 Q113.05 575.85 114.15 574.5 120.0 571.25 124.9 569.9 128.2 570.05 128.95 572.6 129.15 573.25 129.15 577.1 129.15 581.5 128.7 582.4 127.6 584.45 120.9 590.2 L114.9 591.35 Q110.65 589.45 110.65 587.15" fill="#0000ff" fill-rule="evenodd" stroke="none"/>
    <path d="M151.85 548.1 Q152.25 549.05 152.2 550.1 152.15 551.15 150.85 554.85 L149.5 558.6 Q149.15 560.75 145.9 562.4 L138.9 563.75 Q135.65 564.2 134.45 562.75 133.65 561.75 133.65 559.5 133.65 554.85 134.95 551.05 137.0 544.85 141.9 543.9 147.0 542.9 149.65 545.45 151.4 547.1 151.85 548.1" fill="#00ff00" fill-rule="evenodd" stroke="none"/>
    <path d="M133.0 581.35 L132.9 580.15 Q132.9 573.95 135.65 570.95 138.05 568.35 141.8 568.6 145.2 568.8 147.9 571.15 150.65 573.5 150.65 576.45 150.65 579.45 148.4 582.2 146.0 585.1 142.4 585.8 136.25 587.0 133.95 583.75 133.25 582.7 133.0 581.35" fill="#ffff00" fill-rule="evenodd" stroke="none"/>
    <path d="M199.35 554.25 L199.3 555.15 Q202.95 554.1 204.85 554.1 L207.45 554.15 209.1 554.6 209.6 556.1 Q205.95 559.0 198.95 561.4 L198.3 573.2 198.05 578.55 Q205.55 575.9 208.1 575.6 L208.6 575.85 Q209.1 576.1 209.1 577.6 209.1 579.3 197.75 584.4 197.2 595.8 197.1 602.6 196.8 602.6 196.15 603.05 L194.85 603.85 Q193.05 602.25 192.55 598.2 L192.35 591.75 192.6 586.65 190.15 587.65 182.6 590.75 183.15 584.15 186.4 582.85 192.9 580.4 193.35 567.35 193.35 563.1 184.2 565.65 183.45 579.6 Q182.2 599.2 180.35 605.6 178.8 604.05 177.95 599.5 177.35 596.1 177.35 593.25 L177.4 592.85 170.85 595.1 168.65 594.85 168.35 594.6 167.8 594.35 Q167.6 594.25 167.6 592.75 167.6 590.8 177.8 586.35 L179.1 568.1 179.1 567.15 Q174.8 568.4 170.85 569.6 168.75 567.95 168.1 566.1 170.2 565.7 178.95 562.45 L179.0 563.15 178.9 555.25 Q178.95 546.95 181.85 543.6 183.8 546.1 184.25 551.6 L184.35 559.85 184.35 560.4 186.5 559.55 193.4 557.0 193.4 554.85 Q193.9 547.7 196.85 543.6 198.8 545.65 199.25 549.0 L199.35 554.25" fill="#000000" fill-rule="evenodd" stroke="none"/>
    <path d="M599.9 86.15 Q596.75 83.8 592.95 82.25 580.85 77.4 567.75 77.25 L538.3 75.8 535.4 75.75 534.15 75.6 527.5 70.05 528.55 68.7 Q528.75 66.9 526.85 66.25 516.1 63.35 505.0 63.95 503.0 64.25 501.1 65.15 495.2 67.8 492.75 74.3 L488.85 79.3 Q485.9 82.6 486.5 87.15 487.25 92.6 486.75 98.25 485.9 107.25 485.35 116.2 484.2 132.85 484.1 149.6 L484.1 150.2 Q480.8 147.65 482.1 143.4 482.65 141.65 482.65 139.75 482.7 110.6 483.35 81.5 483.45 79.2 484.6 77.4 490.05 68.6 495.95 60.4 500.25 58.15 504.6 58.25 514.4 58.5 524.2 60.9 L524.85 62.85 Q528.85 62.3 532.1 64.8 L538.3 69.9 543.45 74.0 Q548.0 72.4 553.0 72.0 L562.45 72.6 Q573.2 75.85 586.75 77.8 600.3 79.7 599.9 86.15" fill="#fffbad" fill-rule="evenodd" stroke="none"/>
    <path d="M599.9 86.15 L600.35 96.3 Q600.3 111.25 598.85 126.3 595.55 161.0 596.55 195.55 L594.75 200.55 Q593.85 201.6 592.7 201.9 584.0 203.2 574.85 201.7 558.65 199.9 542.45 197.2 530.3 195.45 518.3 192.95 509.0 190.9 499.55 187.95 493.1 186.1 487.25 183.9 484.95 183.0 484.1 180.5 482.65 176.2 482.7 171.9 483.05 160.95 484.1 150.2 L484.1 149.6 Q484.2 132.85 485.35 116.2 485.9 107.25 486.75 98.25 487.25 92.6 486.5 87.15 485.9 82.6 488.85 79.3 L490.25 78.8 492.75 74.3 Q495.2 67.8 501.1 65.15 503.0 64.25 505.0 63.95 516.1 63.35 526.85 66.25 528.75 66.9 528.55 68.7 L527.5 70.05 525.25 74.95 535.4 75.75 538.3 75.8 567.75 77.25 Q580.85 77.4 592.95 82.25 596.75 83.8 599.9 86.15" fill="#c7c381" fill-rule="evenodd" stroke="none"/>
    <path d="M510.25 74.5 Q512.85 71.1 515.6 66.35 L516.1 65.4 520.3 61.3 524.7 55.6 Q526.4 53.6 529.4 52.95 L535.0 57.1 Q539.25 60.15 540.55 61.6 550.15 71.6 560.65 81.55 572.45 92.7 576.9 95.55 583.45 99.6 596.9 111.45 612.85 125.55 612.85 129.8 612.85 133.35 605.0 141.85 L594.65 153.3 588.7 165.4 Q583.5 175.2 580.6 175.2 575.25 170.5 566.75 163.9 549.8 150.7 534.2 141.35 519.0 132.75 506.95 125.4 483.4 111.1 483.4 108.05 483.4 106.65 484.2 104.65 L499.75 85.5 510.25 74.5" fill="#f5ffff" fill-rule="evenodd" stroke="none"/>
    <path d="M526.35 63.25 L528.3 61.95 Q540.7 68.25 546.1 80.6 546.75 82.2 545.4 83.95 536.9 95.0 524.85 102.6 521.45 101.05 519.15 97.9 L511.2 86.8 Q514.35 78.55 520.8 71.7 523.6 68.7 524.85 64.75 L526.35 63.25" fill="#7ce4ed" fill-rule="evenodd" stroke="none"/>
    <path d="M510.15 97.0 Q510.9 97.95 510.25 98.8 501.4 109.95 490.55 119.05 L489.25 118.7 Q488.5 115.75 490.9 113.5 496.5 108.4 500.65 102.2 504.2 96.8 510.15 97.0 M602.1 125.75 L603.25 126.0 Q604.0 128.6 602.25 131.2 589.05 150.85 572.35 167.8 L571.05 167.45 570.7 165.95 Q571.7 164.15 572.75 162.8 581.7 151.1 589.95 138.7 594.9 131.2 602.1 125.75 M563.25 157.55 L561.05 154.95 Q563.45 148.85 568.45 144.5 577.65 136.3 584.35 126.0 586.25 123.6 588.8 121.75 590.95 120.3 593.25 119.95 593.65 123.15 591.75 125.5 578.4 142.5 563.25 157.55 M535.2 131.0 Q538.55 124.5 544.5 119.7 L569.05 99.7 570.7 100.2 570.85 101.95 537.65 134.4 535.75 133.5 535.2 131.0 M551.7 146.8 L549.45 144.25 Q554.35 135.55 561.35 128.45 L573.6 115.5 Q577.4 111.2 581.95 109.85 L582.2 110.35 Q582.5 112.85 580.85 114.9 567.15 131.85 551.7 146.8 M557.75 92.7 L557.9 94.0 Q557.0 96.5 555.0 98.4 540.65 112.6 525.25 125.65 L523.2 124.75 522.85 123.35 Q522.7 122.4 523.2 121.75 528.65 113.35 537.25 107.7 540.65 105.3 543.45 102.0 549.2 95.0 557.75 92.7" fill="#383f3f" fill-rule="evenodd" stroke="none"/>
    <path d="M480.0 169.45 L479.7 166.55 Q478.7 157.6 473.85 131.75 L469.0 106.4 Q468.35 100.2 471.25 98.45 495.45 100.2 510.3 103.9 523.25 107.2 557.35 108.8 572.65 109.55 576.1 118.45 577.1 121.2 577.55 126.3 577.9 131.75 578.4 133.5 581.05 141.9 586.6 166.15 L590.9 185.4 589.4 185.6 Q581.3 185.6 522.6 180.15 509.7 177.85 503.2 176.05 497.25 174.65 481.9 169.85 L480.0 169.45" fill="#fffbad" fill-rule="evenodd" stroke="none"/>
    <path d="M590.9 185.4 L591.95 191.0 592.0 191.3 592.05 191.55 592.05 191.9 Q592.7 199.15 590.45 202.15 588.15 205.05 582.2 205.05 L569.35 201.75 Q555.95 198.1 550.7 197.1 545.3 195.95 531.5 194.4 L511.0 192.15 Q493.8 189.75 490.1 188.5 485.55 187.05 484.55 184.95 484.25 182.65 483.45 181.4 482.15 179.45 481.4 177.05 L480.85 175.05 480.65 174.4 480.6 174.05 480.0 169.45 481.9 169.85 Q497.25 174.65 503.2 176.05 509.7 177.85 522.6 180.15 581.3 185.6 589.4 185.6 L590.9 185.4" fill="#f1d292" fill-rule="evenodd" stroke="none"/>
  </g>
</svg>
