<?xml version="1.0" encoding="UTF-8" standalone="no"?>
<svg xmlns:xlink="http://www.w3.org/1999/xlink" height="17.0px" width="14.0px" xmlns="http://www.w3.org/2000/svg">
  <g transform="matrix(1.0, 0.0, 0.0, 1.0, 0.0, 0.0)">
    <path d="M7.0 15.95 L6.0 15.95 6.0 10.95 7.0 10.95 7.0 8.95 6.0 8.95 6.0 9.95 2.95 9.95 2.95 8.95 2.0 8.95 2.0 7.95 5.1 7.95 5.1 7.0 6.0 7.0 6.0 6.0 7.0 6.0 7.0 4.95 8.05 4.95 8.05 3.95 7.0 3.95 7.0 4.95 6.0 4.95 6.0 6.0 2.95 6.0 2.95 4.95 2.0 4.95 2.0 3.95 5.1 3.95 5.1 2.95 6.0 2.95 6.0 2.0 7.0 2.0 7.0 1.0 8.05 1.0 8.05 0.0 10.95 0.0 10.95 4.95 10.0 4.95 10.0 8.95 9.0 8.95 9.0 9.95 10.0 9.95 10.0 8.95 13.0 8.95 13.0 9.95 14.0 9.95 14.0 13.95 13.0 13.95 13.0 13.0 10.95 13.0 10.95 13.95 10.0 13.95 10.0 14.95 12.05 14.95 12.05 15.95 10.95 15.95 10.95 17.0 7.0 17.0 7.0 15.95 9.0 15.95 9.0 13.95 7.0 13.95 7.0 15.95 M13.0 9.95 L10.95 9.95 10.95 12.0 13.0 12.0 13.0 9.95 M0.0 3.95 L0.0 2.95 1.05 2.95 1.05 3.95 0.0 3.95 M0.0 7.95 L0.0 7.0 1.05 7.0 1.05 7.95 0.0 7.95 M10.0 10.95 L8.05 10.95 8.05 13.0 10.0 13.0 10.0 10.95 M13.0 13.95 L13.0 14.95 12.05 14.95 12.05 13.95 13.0 13.95" fill="#000000" fill-rule="evenodd" stroke="none"/>
    <path d="M13.0 9.95 L13.0 12.0 10.95 12.0 10.95 9.95 13.0 9.95" fill="#00ff00" fill-rule="evenodd" stroke="none"/>
    <path d="M12.05 14.95 L10.0 14.95 10.0 13.95 10.95 13.95 10.95 13.0 13.0 13.0 13.0 13.95 12.05 13.95 12.05 14.95" fill="#ffff00" fill-rule="evenodd" stroke="none"/>
    <path d="M10.0 10.95 L10.0 13.0 8.05 13.0 8.05 10.95 10.0 10.95" fill="#ed1c24" fill-rule="evenodd" stroke="none"/>
    <path d="M7.0 15.95 L7.0 13.95 9.0 13.95 9.0 15.95 7.0 15.95" fill="#0000ff" fill-rule="evenodd" stroke="none"/>
  </g>
</svg>
