<?xml version="1.0" encoding="UTF-8" standalone="no"?>
<svg xmlns:xlink="http://www.w3.org/1999/xlink" height="13.0px" width="16.0px" xmlns="http://www.w3.org/2000/svg">
  <g transform="matrix(1.0, 0.0, 0.0, 1.0, 0.0, 0.0)">
    <path d="M16.0 6.0 L15.0 6.0 15.0 7.0 14.0 7.0 14.0 8.0 15.0 8.0 15.0 9.0 16.0 9.0 16.0 12.0 12.0 12.0 12.0 11.0 11.0 11.0 11.0 12.0 7.0 12.0 7.0 9.0 8.0 9.0 8.0 8.0 9.0 8.0 9.0 7.0 7.0 7.0 7.0 4.0 8.0 4.0 8.0 0.0 11.0 0.0 11.0 2.0 16.0 2.0 16.0 6.0 M12.0 3.0 L11.0 3.0 10.0 3.0 10.0 1.0 9.0 1.0 9.0 5.0 8.0 5.0 8.0 6.0 9.0 6.0 9.0 5.0 10.0 5.0 10.0 4.0 11.0 4.0 11.0 6.8 11.0 8.0 10.0 8.0 10.0 9.0 9.0 9.0 9.0 10.0 8.0 10.0 8.0 11.0 10.0 11.0 10.0 10.0 11.0 10.0 11.0 9.0 12.0 9.0 12.0 10.0 13.0 10.0 13.0 11.0 15.0 11.0 15.0 10.0 14.0 10.0 14.0 9.0 13.0 9.0 13.0 8.0 12.0 8.0 12.0 6.8 12.0 4.0 14.0 4.0 14.0 5.0 13.0 5.0 13.0 6.0 14.0 6.0 14.0 5.0 15.0 5.0 15.0 3.0 12.0 3.0 M6.0 5.0 L5.0 5.0 5.0 6.0 4.0 6.0 4.0 5.0 1.0 5.0 1.0 2.0 4.0 2.0 4.0 5.0 5.0 5.0 5.0 1.0 0.0 1.0 0.0 0.0 6.0 0.0 6.0 5.0 M3.0 4.0 L3.0 3.0 2.0 3.0 2.0 4.0 3.0 4.0 M0.0 7.0 L6.0 7.0 6.0 12.0 5.0 12.0 5.0 13.0 4.0 13.0 4.0 12.0 1.0 12.0 1.0 9.0 4.0 9.0 4.0 12.0 5.0 12.0 5.0 8.0 0.0 8.0 0.0 7.0 M2.0 10.0 L2.0 11.0 3.0 11.0 3.0 10.0 2.0 10.0" fill="#000000" fill-rule="evenodd" stroke="none"/>
    <path d="M11.0 4.0 L10.0 4.0 10.0 5.0 9.0 5.0 9.0 6.0 8.0 6.0 8.0 5.0 9.0 5.0 9.0 1.0 10.0 1.0 10.0 3.0 11.0 3.0 11.0 4.0" fill="#ed1c24" fill-rule="evenodd" stroke="none"/>
    <path d="M12.0 3.0 L15.0 3.0 15.0 5.0 14.0 5.0 14.0 6.0 13.0 6.0 13.0 5.0 14.0 5.0 14.0 4.0 12.0 4.0 12.0 3.0" fill="#00ff00" fill-rule="evenodd" stroke="none"/>
    <path d="M11.0 9.0 L11.0 10.0 10.0 10.0 10.0 11.0 8.0 11.0 8.0 10.0 9.0 10.0 9.0 9.0 10.0 9.0 10.0 8.0 11.0 8.0 11.0 9.0" fill="#0000ff" fill-rule="evenodd" stroke="none"/>
    <path d="M12.0 8.0 L13.0 8.0 13.0 9.0 14.0 9.0 14.0 10.0 15.0 10.0 15.0 11.0 13.0 11.0 13.0 10.0 12.0 10.0 12.0 9.0 12.0 8.0" fill="#fff200" fill-rule="evenodd" stroke="none"/>
    <path d="M11.0 3.0 L12.0 3.0 12.0 4.0 12.0 6.8 11.0 6.8 11.0 4.0 11.0 3.0" fill="#010000" fill-rule="evenodd" stroke="none"/>
    <path d="M12.0 6.8 L12.0 8.0 12.0 9.0 11.0 9.0 11.0 8.0 11.0 6.8 12.0 6.8" fill="#000001" fill-rule="evenodd" stroke="none"/>
  </g>
</svg>
