<?xml version="1.0" encoding="UTF-8" standalone="no"?>
<svg xmlns:xlink="http://www.w3.org/1999/xlink" height="522.25px" width="925.1px" xmlns="http://www.w3.org/2000/svg">
  <g transform="matrix(1.0, 0.0, 0.0, 1.0, 132.4, 18.65)">
    <path d="M223.35 331.6 L223.6 330.85 Q226.3 331.3 226.85 331.85 L223.35 331.85 223.35 331.6 M160.6 368.85 Q161.35 368.6 161.6 368.85 L156.9 371.15 Q153.7 372.55 151.85 372.6 L160.6 368.85 M147.85 374.1 L147.85 373.85 Q150.6 373.5 146.35 375.05 142.1 376.65 139.85 376.85 L147.85 374.1" fill="#524a57" fill-rule="evenodd" stroke="none"/>
    <path d="M212.5 -3.0 L405.6 -3.0 342.65 58.6 Q310.85 89.65 279.65 121.6 247.8 154.25 217.1 187.9 L194.6 212.85 193.6 212.85 Q189.0 219.7 152.85 254.25 116.7 288.75 63.4 355.95 10.1 423.1 49.85 390.4 L53.0 393.45 Q67.45 380.7 80.1 366.0 102.1 340.4 124.75 315.4 L180.6 253.1 Q239.65 186.4 299.55 120.65 343.2 72.75 390.65 28.9 408.65 12.25 427.8 -3.0 L432.35 -3.0 433.15 1.3 449.15 69.65 450.2 74.15 449.75 78.2 437.25 77.85 430.35 85.2 416.35 99.75 398.65 117.8 377.6 139.8 Q361.9 156.45 347.2 173.9 314.45 212.65 280.1 250.15 270.5 260.6 260.25 270.4 241.3 288.45 228.2 310.9 L225.55 315.6 227.85 317.35 243.3 299.75 Q249.25 298.4 253.6 294.4 L254.85 293.3 232.2 326.95 226.85 325.25 Q211.85 325.75 200.7 332.3 198.8 333.45 192.15 337.95 187.05 341.4 183.35 343.1 177.85 345.6 164.0 353.2 149.7 361.05 143.1 364.1 110.8 379.15 99.25 385.1 L81.15 394.85 Q73.25 399.05 66.0 401.6 54.55 405.85 25.9 418.7 L-21.75 440.1 -61.1 458.8 Q-96.5 476.5 -99.45 481.95 L-110.0 481.95 -110.0 360.35 Q-63.7 323.4 -27.8 274.6 7.15 227.0 44.55 181.15 53.25 170.4 62.3 160.0 72.0 160.7 81.55 162.35 132.2 170.2 183.1 171.55 L193.1 171.75 Q213.05 149.9 238.9 124.0 264.7 98.05 281.7 79.5 279.25 76.65 275.9 74.95 L273.85 74.05 Q227.8 56.8 185.2 31.75 195.75 19.3 205.75 6.45 L212.5 -3.0 M421.05 -3.0 L421.15 -3.0 418.65 -1.0 421.05 -3.0 M-110.0 350.3 L-110.0 -3.0 206.05 -3.0 184.65 14.75 182.8 11.5 180.45 11.15 Q137.95 60.5 92.5 107.3 51.05 150.0 11.65 194.65 -20.75 231.3 -51.1 269.75 -58.0 278.45 -63.3 288.2 L-62.3 290.15 -110.0 350.3" fill="url(#gradient0)" fill-rule="evenodd" stroke="none"/>
    <path d="M432.35 -3.0 L457.1 -3.0 433.15 1.3 432.35 -3.0 M468.9 -3.0 L474.35 -3.0 474.35 -1.55 471.1 -0.5 468.9 -3.0 M469.4 77.6 L468.85 80.75 452.85 79.75 451.15 78.25 469.4 77.6" fill="url(#gradient1)" fill-rule="evenodd" stroke="none"/>
    <path d="M183.1 171.55 Q132.2 170.2 81.55 162.35 72.0 160.7 62.3 160.0 91.0 127.75 122.35 98.0 155.5 66.55 185.2 31.75 227.8 56.8 273.85 74.05 L275.9 74.95 269.95 79.65 Q261.15 86.4 255.5 92.4 249.85 98.35 232.6 114.95 215.35 131.5 201.75 148.15 188.15 164.8 183.1 171.55" fill="#ffffff" fill-rule="evenodd" stroke="none"/>
    <path d="M752.95 390.65 L752.95 481.95 -99.45 481.95 Q-96.5 476.5 -61.1 458.8 L-21.75 440.1 25.9 418.7 Q54.55 405.85 66.0 401.6 73.25 399.05 81.15 394.85 L99.25 385.1 Q110.8 379.15 143.1 364.1 149.7 361.05 164.0 353.2 177.85 345.6 183.35 343.1 187.05 341.4 192.15 337.95 198.8 333.45 200.7 332.3 211.85 325.75 226.85 325.25 L232.2 326.95 237.7 329.4 Q239.85 330.65 240.6 331.85 L293.6 331.85 Q303.45 329.5 317.7 329.2 L330.85 329.1 368.85 328.6 370.85 328.1 410.85 328.1 412.6 328.6 466.85 329.1 470.1 329.85 518.85 329.85 549.9 330.9 Q565.95 331.25 567.85 330.85 L625.85 330.85 Q635.85 331.2 642.15 332.45 647.35 333.45 649.1 334.85 L652.15 337.05 Q653.55 337.75 656.35 338.35 L657.15 338.55 666.8 340.85 670.8 341.8 Q677.65 343.65 679.6 345.35 686.2 351.15 690.4 354.15 696.95 358.8 706.1 363.35 734.5 377.4 739.05 380.05 748.35 385.55 752.95 390.65 M147.85 374.1 L139.85 376.85 Q142.1 376.65 146.35 375.05 150.6 373.5 147.85 373.85 L147.85 374.1 M160.6 368.85 L151.85 372.6 Q153.7 372.55 156.9 371.15 L161.6 368.85 Q161.35 368.6 160.6 368.85 M223.35 331.6 L223.35 331.85 226.85 331.85 Q226.3 331.3 223.6 330.85 L223.35 331.6" fill="url(#gradient2)" fill-rule="evenodd" stroke="none"/>
    <path d="M454.1 101.3 Q465.35 97.25 474.35 97.25 489.0 97.25 499.4 109.0 L500.75 110.65 500.85 110.25 500.45 111.95 488.7 101.4 454.1 101.3 M527.0 143.35 L529.6 145.95 529.85 148.25 527.0 143.35" fill="url(#gradient3)" fill-rule="evenodd" stroke="none"/>
    <path d="M405.6 -3.0 L421.05 -3.0 418.65 -1.0 421.15 -3.0 427.8 -3.0 Q408.65 12.25 390.65 28.9 343.2 72.75 299.55 120.65 239.65 186.4 180.6 253.1 L124.75 315.4 Q102.1 340.4 80.1 366.0 67.45 380.7 53.0 393.45 L49.85 390.4 Q10.1 423.1 63.4 355.95 116.7 288.75 152.85 254.25 189.0 219.7 193.6 212.85 L194.6 212.85 217.1 187.9 Q247.8 154.25 279.65 121.6 310.85 89.65 342.65 58.6 L405.6 -3.0" fill="url(#gradient4)" fill-rule="evenodd" stroke="none"/>
    <path d="M752.95 246.85 L752.95 257.35 Q723.15 220.5 691.15 185.8 660.7 152.9 633.45 117.55 606.9 83.05 579.25 49.65 563.3 30.3 557.85 6.6 556.8 2.0 557.2 -2.4 569.8 7.7 580.1 20.05 607.15 52.4 631.55 86.7 653.8 118.0 677.75 147.95 713.55 192.8 748.05 238.55 L747.45 240.55 752.95 246.85" fill="url(#gradient5)" fill-rule="evenodd" stroke="none"/>
    <path d="M449.75 78.25 L448.6 79.75 450.55 82.55 435.05 101.2 433.95 101.25 454.1 101.3 488.7 101.4 500.45 111.95 500.85 110.25 487.35 93.25 486.85 92.65 484.35 89.3 Q480.2 83.55 477.45 77.25 474.5 70.35 473.6 63.0 495.5 87.6 516.75 112.7 L527.1 124.9 Q552.05 154.1 554.9 162.85 557.7 171.6 577.8 197.7 597.85 223.8 607.45 240.25 617.0 256.65 625.5 269.05 L634.2 281.4 643.3 293.4 652.85 305.2 664.45 319.3 Q667.45 322.9 669.1 327.3 L667.2 328.3 Q657.25 321.25 648.0 313.0 L647.5 312.55 642.9 308.15 Q632.25 297.25 622.45 285.65 L618.85 281.75 Q610.65 272.55 602.5 260.25 L594.45 248.25 573.45 216.15 561.95 198.4 552.75 184.15 550.7 180.95 530.0 149.2 529.95 148.85 529.85 148.3 529.85 148.25 529.6 145.95 527.0 143.35 523.9 140.25 Q520.95 136.2 521.95 138.3 L500.2 116.7 416.75 120.6 416.4 120.95 415.5 121.8 Q407.8 129.2 400.45 137.1 398.45 139.2 396.6 141.45 L357.5 189.55 Q338.85 212.65 318.0 234.15 288.85 264.15 262.7 296.8 249.75 312.9 237.7 329.4 L232.2 326.95 254.85 293.3 253.6 294.4 Q249.25 298.4 243.3 299.75 L227.85 317.35 225.55 315.6 228.2 310.9 Q241.3 288.45 260.25 270.4 270.5 260.6 280.1 250.15 314.45 212.65 347.2 173.9 361.9 156.45 377.6 139.8 L398.65 117.8 416.35 99.75 430.35 85.2 437.25 77.85 449.75 78.2 449.75 78.25 M449.15 69.65 L450.0 69.1 Q450.15 69.05 450.7 69.55 L450.2 74.15 449.15 69.65" fill="url(#gradient6)" fill-rule="evenodd" stroke="none"/>
    <path d="M206.05 -3.0 L212.5 -3.0 205.75 6.45 Q195.75 19.3 185.2 31.75 155.5 66.55 122.35 98.0 91.0 127.75 62.3 160.0 53.25 170.4 44.55 181.15 7.15 227.0 -27.8 274.6 -63.7 323.4 -110.0 360.35 L-110.0 350.3 -62.3 290.15 -63.3 288.2 Q-58.0 278.45 -51.1 269.75 -20.75 231.3 11.65 194.65 51.05 150.0 92.5 107.3 137.95 60.5 180.45 11.15 L182.8 11.5 184.65 14.75 206.05 -3.0" fill="url(#gradient7)" fill-rule="evenodd" stroke="none"/>
    <path d="M457.1 -3.0 L468.9 -3.0 471.1 -0.5 474.35 -1.55 471.75 59.3 471.45 62.05 469.4 77.6 451.15 78.25 Q450.7 77.85 450.3 77.85 L449.75 78.2 449.75 78.25 449.75 78.2 450.2 74.15 450.7 69.55 Q450.15 69.05 450.0 69.1 L449.15 69.65 433.15 1.3 457.1 -3.0" fill="url(#gradient8)" fill-rule="evenodd" stroke="none"/>
    <path d="M648.0 313.0 L655.0 322.45 Q662.95 333.65 666.8 340.85 L657.15 338.55 656.35 338.35 Q653.55 337.75 652.15 337.05 L649.1 334.85 Q647.35 333.45 642.15 332.45 635.85 331.2 625.85 330.85 L567.85 330.85 Q565.95 331.25 549.9 330.9 L518.85 329.85 470.1 329.85 466.85 329.1 412.6 328.6 410.85 328.1 370.85 328.1 368.85 328.6 330.85 329.1 317.7 329.2 Q303.45 329.5 293.6 331.85 L240.6 331.85 Q239.85 330.65 237.7 329.4 249.75 312.9 262.7 296.8 288.85 264.15 318.0 234.15 338.85 212.65 357.5 189.55 L396.6 141.45 Q398.45 139.2 400.45 137.1 407.8 129.2 415.5 121.8 L416.4 120.95 416.75 120.6 500.2 116.7 521.95 138.3 Q520.95 136.2 523.9 140.25 L527.0 143.35 529.85 148.25 529.85 148.3 529.95 148.85 530.0 149.2 550.7 180.95 552.75 184.15 561.95 198.4 573.45 216.15 594.45 248.25 602.5 260.25 Q610.65 272.55 618.85 281.75 L622.45 285.65 Q632.25 297.25 642.9 308.15 L647.5 312.55 648.0 313.0" fill="url(#gradient9)" fill-rule="evenodd" stroke="none"/>
    <path d="M474.35 -3.0 L752.95 -3.0 752.95 246.85 747.45 240.55 748.05 238.55 Q713.55 192.8 677.75 147.95 653.8 118.0 631.55 86.7 607.15 52.4 580.1 20.05 569.8 7.7 557.2 -2.4 556.8 2.0 557.85 6.6 563.3 30.3 579.25 49.65 606.9 83.05 633.45 117.55 660.7 152.9 691.15 185.8 723.15 220.5 752.95 257.35 L752.95 390.65 Q748.35 385.55 739.05 380.05 734.5 377.4 706.1 363.35 696.95 358.8 690.4 354.15 686.2 351.15 679.6 345.35 677.65 343.65 670.8 341.8 L666.8 340.85 Q662.95 333.65 655.0 322.45 L648.0 313.0 Q657.25 321.25 667.2 328.3 L669.1 327.3 Q667.45 322.9 664.45 319.3 L652.85 305.2 643.3 293.4 634.2 281.4 625.5 269.05 Q617.0 256.65 607.45 240.25 597.85 223.8 577.8 197.7 557.7 171.6 554.9 162.85 552.05 154.1 527.1 124.9 L516.75 112.7 Q495.5 87.6 473.6 63.0 474.5 70.35 477.45 77.25 480.2 83.55 484.35 89.3 L486.85 92.65 487.35 93.25 500.85 110.25 500.75 110.65 499.4 109.0 Q489.0 97.25 474.35 97.25 465.35 97.25 454.1 101.3 L433.95 101.25 435.05 101.2 450.55 82.55 448.6 79.75 449.75 78.25 449.75 78.2 450.3 77.85 Q450.7 77.85 451.15 78.25 L452.85 79.75 468.85 80.75 469.4 77.6 471.45 62.05 471.75 59.3 474.35 -1.55 474.35 -3.0" fill="url(#gradient10)" fill-rule="evenodd" stroke="none"/>
    <path d="M275.9 74.95 Q279.25 76.65 281.7 79.5 264.7 98.05 238.9 124.0 213.05 149.9 193.1 171.75 L183.1 171.55 Q188.15 164.8 201.75 148.15 215.35 131.5 232.6 114.95 249.85 98.35 255.5 92.4 261.15 86.4 269.95 79.65 L275.9 74.95" fill="#e3cdb1" fill-rule="evenodd" stroke="none"/>
    <path d="M697.35 36.25 Q699.0 32.7 704.9 39.25 L709.6 44.85 713.6 49.0 Q716.85 52.2 721.4 58.35 L728.1 67.75 727.85 68.25 711.25 48.4 Q701.25 36.55 697.35 36.25 M677.35 56.75 Q686.75 68.1 704.8 93.75 723.85 120.95 733.1 132.5 L733.1 133.25 Q720.8 118.75 704.3 95.5 L677.35 57.0 677.35 56.75 M680.35 195.85 L649.7 158.45 Q629.95 134.3 616.35 119.0 L617.1 118.75 Q633.6 137.0 650.25 157.3 666.7 177.35 680.35 195.85 M713.1 141.6 Q728.5 161.7 741.1 176.75 L740.85 177.25 Q716.25 151.95 683.25 108.4 L657.1 73.95 Q642.0 54.45 629.35 40.0 L630.1 39.75 Q655.55 65.85 687.15 107.35 L713.1 141.6 M710.35 296.85 Q669.2 239.85 587.35 115.0 L588.1 114.75 649.75 205.8 Q684.05 256.7 710.35 296.85 M545.1 96.75 Q562.35 119.85 581.1 149.2 589.3 162.05 613.2 201.25 632.95 233.7 646.05 253.35 665.2 282.05 684.35 305.85 651.15 267.4 611.3 202.05 L579.35 149.45 Q560.6 119.3 544.35 97.0 L545.1 96.75 M511.35 147.5 L511.35 195.5 511.6 206.0 511.35 216.5 511.35 260.75 Q509.35 293.75 509.35 311.0 L508.35 311.25 Q508.35 294.75 510.35 260.25 L510.35 216.75 Q510.1 213.0 510.1 205.85 510.1 198.75 510.35 195.0 L510.35 146.75 511.1 146.75 511.35 147.5 M535.3 195.35 L536.1 194.75 Q536.1 195.9 535.35 197.0 L535.35 275.0 534.35 275.25 534.35 196.5 535.3 195.35 M352.1 157.0 L370.1 136.75 Q345.7 165.75 303.55 225.6 262.3 284.3 236.85 314.1 L236.35 313.6 Q260.1 283.0 302.85 224.5 L318.8 201.95 334.1 179.5 Q339.9 170.9 352.1 157.0 M453.35 134.75 Q454.6 149.0 454.6 177.85 454.6 214.3 453.25 248.95 451.0 305.35 450.35 329.6 L449.85 330.1 448.35 303.1 Q448.35 297.15 449.55 261.3 L451.1 217.25 451.1 136.25 Q451.6 134.75 453.35 134.75 M484.65 147.25 Q484.85 158.05 484.85 192.35 L484.8 219.25 484.35 261.75 482.5 295.8 Q481.05 317.65 481.35 329.85 L480.35 330.1 480.1 313.0 Q480.1 310.5 482.85 253.0 L482.85 131.5 Q482.3 127.4 482.0 120.2 L481.35 108.75 482.1 108.75 Q484.1 117.6 484.65 147.25 M421.1 169.75 L421.35 170.85 Q419.15 182.35 417.65 197.3 418.9 181.3 419.35 170.0 L419.95 169.7 421.1 169.75 M416.2 215.1 L413.35 259.0 412.35 259.25 Q412.95 250.35 416.15 215.1 L416.35 212.85 416.2 215.1 M595.1 296.25 L594.35 296.25 594.35 279.75 595.1 279.75 Q595.5 288.0 595.1 296.25 M565.6 237.85 Q565.6 250.8 564.95 258.6 L562.6 287.0 562.3 287.45 561.85 288.25 561.6 288.55 Q561.35 288.55 561.35 287.0 561.35 284.2 562.75 268.55 L564.1 252.5 Q564.1 230.0 564.35 218.75 L565.1 218.75 Q565.6 224.75 565.6 237.85 M180.35 178.6 Q168.35 200.1 133.65 233.9 L105.35 261.25 Q89.4 277.1 79.6 289.0 65.25 306.5 36.75 343.2 10.45 376.2 -11.0 398.1 L-11.5 397.6 Q7.8 376.4 34.65 342.05 73.4 292.55 78.1 286.75 87.85 274.8 103.85 258.8 L132.7 230.75 Q168.75 195.9 180.1 177.5 L180.35 178.6 M128.5 35.7 Q130.2 35.95 130.35 36.25 119.3 41.1 109.95 47.5 118.7 40.85 126.85 35.5 L128.5 35.7 M87.8 66.8 L77.35 77.5 Q68.05 86.75 55.55 97.9 42.95 109.1 30.25 119.5 10.15 135.9 -14.0 161.1 L-54.0 202.5 -56.5 202.25 -17.0 161.3 Q8.2 134.85 27.25 119.25 37.8 110.6 51.55 98.05 L74.85 76.75 Q86.75 65.95 97.85 57.0 93.5 60.9 87.8 66.8 M53.05 44.3 Q73.95 25.55 86.1 15.75 L20.4 74.25 Q-18.95 108.8 -52.5 132.25 -41.4 121.5 -16.7 102.8 11.2 81.65 20.25 73.75 L53.05 44.3 M10.25 281.75 Q-0.6 295.55 -21.95 324.65 -43.6 354.2 -54.5 368.1 -33.4 334.25 8.4 281.1 L43.0 237.45 Q63.35 211.8 76.1 194.75 64.7 212.5 45.15 237.75 33.8 252.35 10.25 281.75 M146.35 382.6 Q162.4 368.85 176.4 349.7 180.95 343.5 198.85 315.85 216.05 289.45 248.85 249.25 263.5 231.25 300.65 181.35 331.4 139.95 352.1 116.75 L303.1 183.95 Q273.75 224.25 251.35 250.25 239.65 263.85 225.3 283.35 218.2 293.0 201.35 316.85 L190.45 333.35 179.15 350.1 Q164.9 369.65 146.85 383.1 L146.35 382.6 M49.35 285.0 Q38.25 299.55 16.9 330.2 -3.4 357.55 -25.0 376.1 L-25.5 375.6 Q-7.25 359.25 18.85 324.05 43.5 289.3 47.85 283.5 62.05 264.5 85.45 237.05 100.5 219.35 124.1 192.75 L85.95 239.0 Q64.25 265.55 49.35 285.0" fill="#514752" fill-rule="evenodd" stroke="none"/>
    <path d="M344.2 388.0 Q297.1 391.4 260.65 376.5 356.35 356.65 461.4 368.1 467.65 368.7 471.1 372.15 437.5 389.85 389.75 387.45 367.0 386.55 344.2 388.0" fill="url(#gradient11)" fill-rule="evenodd" stroke="none"/>
    <path d="M252.8 70.15 Q254.1 72.85 255.15 76.6 L255.85 76.5 261.85 75.5 Q267.1 75.75 267.35 76.25 L258.05 77.65 255.6 78.15 255.35 77.4 257.05 83.4 258.45 82.9 Q264.95 80.7 267.85 80.5 261.2 83.4 254.75 85.4 L250.95 86.65 252.35 90.75 252.35 93.65 Q259.15 88.35 269.4 81.65 L269.25 80.7 268.35 75.75 269.1 75.75 Q269.8 77.4 270.3 80.25 L270.45 80.95 280.1 74.75 270.6 81.7 Q271.0 83.75 271.35 84.75 L271.1 86.25 270.35 86.25 269.45 81.8 269.55 82.45 259.45 89.65 252.35 94.95 252.35 102.0 251.35 102.25 Q251.8 98.95 251.65 95.5 L245.85 100.3 245.85 101.35 Q245.85 105.9 245.0 109.0 L242.35 119.0 241.35 119.25 243.05 108.95 243.85 102.15 240.85 105.25 240.35 104.75 Q241.65 103.0 243.85 100.85 243.8 94.5 242.75 88.75 L242.85 89.5 240.35 89.25 240.4 88.95 Q240.55 88.65 240.85 88.5 L242.6 88.0 Q241.75 84.0 240.45 80.3 237.15 71.05 228.85 58.5 L228.35 58.5 Q229.35 60.0 229.35 60.75 L229.1 62.25 228.35 62.25 Q228.35 60.3 226.1 56.25 232.55 56.9 235.85 64.4 L238.35 70.95 Q239.85 74.9 241.35 77.0 242.55 80.05 244.0 87.6 L250.05 85.7 249.15 82.7 247.55 78.35 246.65 78.3 Q242.35 78.0 242.35 77.5 L247.1 77.3 Q245.65 74.0 243.85 71.1 L240.85 71.5 Q240.4 71.4 239.55 71.85 239.35 71.95 239.35 70.5 239.35 68.95 239.6 69.15 L239.85 69.5 242.85 69.55 240.35 66.25 240.35 63.75 241.1 63.75 Q243.5 66.35 245.3 69.65 L251.8 69.9 252.0 70.5 247.6 70.8 245.95 70.9 Q247.4 73.8 248.4 77.2 L253.9 76.75 251.35 68.75 252.1 68.75 252.75 69.95 254.35 70.25 252.95 70.4 252.8 70.15 M254.35 78.35 L252.85 78.5 248.7 78.4 250.15 84.0 250.6 85.5 256.45 83.6 Q255.5 82.1 254.35 78.35 M250.35 86.85 L244.3 88.95 244.25 88.9 Q245.45 95.25 245.75 99.05 L251.55 94.25 Q251.25 90.65 250.35 86.85 M190.9 164.3 Q183.9 168.0 180.1 171.25 L179.35 171.25 Q182.35 166.4 190.25 163.25 199.0 159.8 201.6 158.15 L193.7 162.8 192.45 163.5 190.9 164.3 M168.35 169.25 L168.4 168.95 Q168.55 168.65 168.85 168.5 173.9 166.25 179.1 163.2 L179.85 162.75 Q187.35 158.2 195.25 151.95 203.4 145.45 211.1 137.75 208.5 144.8 196.6 153.5 191.15 157.5 180.55 163.85 L179.65 164.4 Q175.8 166.65 171.35 169.25 L168.35 169.25 M76.35 152.25 L82.2 148.65 Q84.7 147.1 86.5 146.4 85.85 145.0 85.35 144.75 86.1 142.5 86.1 141.5 L87.1 141.5 88.4 145.85 89.1 145.75 88.55 146.35 88.7 146.95 89.1 146.75 88.75 147.25 90.1 154.25 Q88.85 153.7 87.55 149.5 L87.4 148.9 82.85 153.0 Q81.75 153.9 81.55 154.45 81.35 154.95 81.35 156.85 81.35 158.2 81.5 159.0 L86.0 157.3 Q91.4 155.2 93.45 154.85 92.25 152.6 90.95 149.2 88.35 142.35 88.35 139.0 88.35 137.35 89.5 134.0 90.9 129.65 92.85 128.5 L94.0 128.7 Q95.2 128.95 95.35 129.25 L91.85 130.0 Q89.35 135.0 89.35 139.0 89.35 141.3 91.95 148.6 94.55 156.0 96.1 157.75 L95.85 158.25 Q94.75 157.3 93.6 155.15 91.55 156.5 85.6 158.9 L82.1 160.25 Q83.1 161.35 86.35 163.25 81.85 163.15 80.8 161.3 L80.65 160.8 79.45 161.25 79.35 163.0 78.35 163.25 78.05 161.45 76.35 161.25 76.4 160.95 Q76.55 160.65 76.85 160.5 L77.65 160.3 76.45 157.6 68.85 162.25 68.35 161.75 75.9 156.35 Q74.8 153.6 75.35 151.75 L76.1 151.75 77.45 155.15 79.7 153.4 87.05 147.95 87.3 148.65 86.95 147.65 Q84.25 149.6 78.85 152.5 L76.35 152.25 M80.65 155.25 Q80.85 154.7 81.2 154.25 L80.1 155.05 78.1 156.5 78.5 157.4 Q79.15 159.1 79.4 160.55 L79.25 159.8 80.45 159.4 80.35 157.0 Q80.35 156.05 80.65 155.25" fill="#000000" fill-opacity="0.101960786" fill-rule="evenodd" stroke="none"/>
    <path d="M538.35 160.25 L543.85 158.5 Q582.9 173.0 579.15 216.65 578.3 226.45 580.7 236.1 588.4 267.3 584.2 297.75 573.9 299.15 563.05 295.4 557.45 293.5 551.75 291.0 L551.1 247.6 549.0 290.15 528.6 287.1 Q530.15 253.5 528.35 220.0 527.6 221.7 527.25 223.55 521.4 255.15 520.55 287.4 L510.35 288.1 513.05 182.8 538.35 160.25" fill="#887785" fill-rule="evenodd" stroke="none"/>
    <path d="M551.75 291.0 L549.0 290.15 551.1 247.6 551.75 291.0 M528.6 287.1 L520.55 287.4 Q521.4 255.15 527.25 223.55 527.6 221.7 528.35 220.0 530.15 253.5 528.6 287.1 M510.35 288.1 Q505.55 289.95 500.7 289.15 L500.3 289.0 Q500.85 232.75 507.6 176.65 521.9 166.75 538.35 160.25 L513.05 182.8 510.35 288.1" fill="#d0c8ce" fill-rule="evenodd" stroke="none"/>
    <path d="M683.35 367.1 L682.85 367.35 613.85 367.85 338.85 367.6 252.2 367.25 Q209.25 367.05 187.55 366.6 L613.85 365.85 654.85 366.1 683.35 367.1 M685.35 347.25 L645.85 348.25 261.85 348.0 226.35 346.5 261.85 346.0 645.85 345.75 685.1 346.25 685.35 347.25 M734.85 392.35 L211.85 392.85 171.85 392.6 156.7 392.3 141.5 391.6 136.75 392.1 Q134.5 392.1 134.5 391.35 L142.5 391.1 211.85 390.85 703.85 391.1 735.35 392.1 734.85 392.35 M758.85 420.35 L732.85 420.85 532.85 421.35 157.0 420.6 118.5 420.1 Q118.5 417.85 117.75 417.6 L104.5 420.1 110.4 418.45 Q115.85 417.1 119.25 416.6 L119.5 417.35 119.5 418.85 157.0 419.1 532.85 418.35 733.6 419.1 759.35 420.1 758.85 420.35 M773.35 457.1 Q772.45 457.55 743.85 457.85 L365.85 458.1 72.0 457.85 36.5 457.1 35.0 456.85 33.5 456.6 Q36.15 455.6 37.25 455.6 L743.85 455.85 773.35 457.1" fill="#514752" fill-opacity="0.5019608" fill-rule="evenodd" stroke="none"/>
    <path d="M572.65 222.4 L575.6 238.25 Q577.0 244.2 578.05 253.0 L579.6 268.85 Q580.6 278.8 583.1 299.15 L586.6 329.6 586.1 330.7 584.85 331.6 Q579.7 320.05 577.25 302.2 L574.1 272.6 Q573.3 265.2 569.15 239.05 L565.35 213.85 Q565.35 212.0 566.15 210.25 566.85 208.65 567.85 207.75 570.75 213.0 572.65 222.4 M577.4 213.05 Q577.65 212.75 578.85 212.25 584.7 232.5 587.25 269.25 L589.35 298.1 Q590.85 314.35 593.35 326.6 593.1 327.35 592.35 328.1 589.0 323.5 587.2 315.15 586.15 310.35 585.1 300.35 L583.85 286.4 582.6 271.85 579.35 241.4 Q576.85 217.75 576.85 215.35 576.85 213.65 577.4 213.05" fill="#554b56" fill-rule="evenodd" stroke="none"/>
    <path d="M441.25 273.25 L441.6 273.25 Q440.45 273.15 440.1 272.65 439.75 272.1 439.8 270.35 L460.4 265.2 463.75 263.5 Q468.2 261.8 476.5 261.0 L497.7 260.2 Q516.55 259.65 522.3 259.65 546.0 259.65 558.1 261.45 564.5 262.35 569.95 263.8 L580.6 265.15 583.35 265.55 586.55 266.3 Q588.0 266.85 588.1 268.75 587.05 273.8 587.3 280.75 L587.05 283.9 587.3 289.7 587.3 329.9 581.7 332.6 Q577.05 335.05 569.45 342.1 568.5 342.5 566.5 344.9 L566.45 344.95 566.45 344.9 Q566.2 327.7 564.9 306.55 563.7 287.15 560.55 279.75 559.55 277.35 553.45 277.1 L540.95 276.7 528.0 275.25 514.4 272.85 Q503.1 271.0 498.9 271.0 L478.05 272.25 462.5 273.5 Q450.8 273.9 441.25 273.25" fill="#564b53" fill-rule="evenodd" stroke="none"/>
    <path d="M441.25 273.25 Q450.8 273.9 462.5 273.5 L478.05 272.25 498.9 271.0 Q503.1 271.0 514.4 272.85 L528.0 275.25 540.95 276.7 553.45 277.1 Q559.55 277.35 560.55 279.75 563.7 287.15 564.9 306.55 566.2 327.7 566.45 344.9 L566.25 344.95 553.1 346.05 Q539.65 346.75 520.85 346.75 L492.4 346.0 463.4 344.45 448.05 343.3 439.25 342.6 Q437.6 342.2 436.55 341.3 L439.05 285.7 439.25 283.0 439.55 277.75 439.95 274.05 440.15 273.1 441.25 273.25 M566.5 344.9 Q568.5 342.5 569.45 342.1 570.15 341.85 570.3 342.65 569.95 344.2 566.5 344.9" fill="url(#gradient12)" fill-rule="evenodd" stroke="none"/>
    <path d="M439.95 274.05 L439.55 277.75 439.3 277.7 439.3 275.15 439.3 274.65 439.95 274.05" fill="#7a6b76" fill-rule="evenodd" stroke="none"/>
    <path d="M465.05 266.4 Q464.3 265.65 464.3 264.15 464.95 263.5 466.2 263.2 L471.3 262.65 536.3 262.4 Q560.05 264.05 567.3 265.4 573.8 266.6 573.8 269.0 573.8 271.5 573.55 271.25 L573.25 271.75 Q572.85 272.25 571.3 272.25 L562.3 270.15 Q552.4 267.9 536.3 267.4 L471.3 267.15 465.05 266.4" fill="#968b8b" fill-rule="evenodd" stroke="none"/>
    <path d="M461.8 283.4 Q461.8 283.95 458.9 288.65 456.05 293.4 455.25 294.05 L458.45 288.5 Q460.6 284.95 461.05 282.75 L461.55 282.75 461.7 282.6 461.8 283.4 M463.5 284.5 L467.75 284.55 468.0 285.1 466.7 286.1 465.5 287.25 466.7 287.95 468.0 289.05 Q466.35 291.5 464.0 292.05 462.05 292.0 461.8 291.55 463.0 290.65 464.45 290.3 L466.3 289.75 466.55 289.3 Q465.95 288.55 463.75 288.3 463.5 288.85 463.5 287.6 L463.65 286.9 Q464.15 286.15 465.8 285.75 L464.2 285.6 Q463.3 285.6 463.0 284.55 L463.5 284.5 M453.25 286.0 Q452.55 286.1 451.4 286.75 450.25 287.4 450.0 287.75 450.0 288.8 451.0 289.0 L452.6 287.65 Q453.75 286.75 454.55 286.55 453.45 288.45 452.3 289.55 453.6 290.0 453.9 290.65 L454.0 291.6 Q454.0 292.95 453.35 293.55 452.45 294.4 450.05 294.5 L449.35 294.0 449.25 292.9 Q449.25 292.3 449.75 291.6 450.25 290.95 450.25 290.3 450.25 289.7 449.65 289.3 449.0 288.9 449.0 288.25 449.0 286.9 450.2 285.8 451.55 284.6 453.05 285.25 L453.25 286.0 M450.8 292.8 Q451.9 292.8 452.8 292.25 L453.0 291.5 Q452.55 290.95 451.3 291.05 L450.8 292.55 450.8 292.8 M477.3 282.05 L477.3 282.6 Q477.3 283.5 475.8 286.45 474.25 289.45 474.25 290.0 L473.75 290.05 Q473.5 288.75 474.9 286.0 L477.05 281.75 477.3 282.05 M483.95 282.2 L485.25 282.3 Q486.35 282.3 489.1 281.15 491.85 280.0 492.75 280.0 L489.55 288.25 489.25 288.25 488.95 287.6 Q488.8 287.15 488.8 286.35 L490.3 282.55 490.55 282.25 Q485.7 282.3 485.75 285.15 485.8 286.85 485.5 287.45 484.85 288.75 482.5 289.3 L480.25 289.25 479.65 288.2 479.55 286.75 Q479.55 285.35 479.7 284.95 480.05 284.05 481.5 282.55 L481.8 282.7 482.25 283.05 482.25 283.8 Q481.95 284.1 481.55 283.5 480.3 285.15 480.3 286.75 L480.5 288.5 483.0 288.3 Q484.4 288.05 484.85 287.05 L485.05 285.65 484.8 284.1 483.5 282.05 483.95 282.2 M470.55 283.75 Q471.3 285.0 471.3 286.5 L471.25 289.0 471.0 289.55 470.55 286.7 470.05 283.8 470.55 283.75" fill="#403838" fill-opacity="0.5019608" fill-rule="evenodd" stroke="none"/>
    <path d="M202.35 369.85 L154.85 369.85 Q146.2 370.4 143.9 363.1 143.1 360.65 143.1 353.1 143.5 335.5 145.35 332.1 L143.3 330.7 Q142.1 329.8 142.1 328.85 142.1 327.7 143.65 325.45 145.5 322.8 148.4 320.5 155.15 315.25 164.25 314.5 L168.1 314.35 168.5 314.35 174.15 314.6 175.95 314.7 Q187.6 315.5 194.15 318.05 201.2 320.85 201.85 325.35 L205.3 342.7 Q206.85 351.4 206.85 358.75 L206.75 363.6 206.65 364.35 Q206.0 368.65 203.85 369.85 L202.35 369.85" fill="#5a5056" fill-rule="evenodd" stroke="none"/>
    <path d="M164.25 314.5 Q170.05 310.85 173.1 309.6 L189.35 303.2 Q200.0 299.45 211.85 297.1 L227.95 296.45 244.85 297.1 Q250.7 298.7 251.35 300.85 L254.05 305.8 Q256.35 309.6 256.6 310.6 L259.7 319.9 Q261.6 326.0 261.6 330.1 261.6 331.5 260.25 336.65 258.95 341.65 258.35 342.85 257.05 345.4 252.4 348.25 L245.6 351.85 Q205.0 370.35 204.35 370.35 L202.4 370.1 202.35 369.85 203.85 369.85 Q206.0 368.65 206.65 364.35 L206.75 363.6 206.85 358.75 Q206.85 351.4 205.3 342.7 L201.85 325.35 Q201.2 320.85 194.15 318.05 187.6 315.5 175.95 314.7 L174.15 314.6 168.5 314.35 168.1 314.35 164.25 314.5" fill="url(#gradient13)" fill-rule="evenodd" stroke="none"/>
    <path d="M147.35 332.85 L148.85 332.6 158.85 332.1 158.85 331.6 185.85 331.6 186.55 331.9 187.6 332.6 199.35 333.6 199.75 334.05 200.35 335.1 Q195.1 337.7 191.85 337.9 189.1 338.05 185.6 336.35 L159.1 336.6 157.85 337.1 148.85 337.1 147.15 336.7 Q146.6 336.35 146.6 334.75 146.6 333.15 147.35 332.85" fill="#444246" fill-rule="evenodd" stroke="none"/>
    <path d="M204.55 329.65 Q206.05 330.35 207.35 330.35 208.75 330.35 223.95 324.5 L225.15 324.0 Q241.55 317.6 250.1 317.6 L250.3 318.0 Q250.85 316.9 252.3 316.2 254.05 315.4 256.1 315.6 254.75 317.1 253.65 317.7 252.2 318.55 250.1 318.6 L250.25 318.2 Q234.6 327.05 223.95 331.65 212.5 336.6 206.85 336.6 L204.3 336.35 203.6 336.1 203.5 332.75 Q203.55 330.65 202.85 329.35 203.35 329.1 204.55 329.65" fill="#766f77" fill-rule="evenodd" stroke="none"/>
    <path d="M241.4 342.8 Q241.55 342.5 241.85 342.35 245.1 342.45 248.65 340.75 L252.85 338.35 254.0 338.55 Q255.2 338.8 255.35 339.1 254.0 339.5 249.5 341.4 245.5 343.05 244.85 343.35 L241.35 343.1 241.4 342.8 M202.35 360.6 Q211.65 356.7 218.3 354.55 222.85 353.05 229.85 351.35 L214.15 357.7 Q206.4 360.75 201.35 362.1 201.6 361.35 202.35 360.6 M205.35 349.1 L201.35 350.1 Q203.1 348.95 208.7 346.65 L214.1 344.6 Q213.6 345.55 210.8 346.85 210.7 346.9 205.35 349.1 M255.9 324.05 L255.1 325.1 Q252.15 326.2 243.65 330.05 236.55 333.2 233.35 334.1 L244.25 328.6 Q253.1 324.15 256.1 323.6 L255.9 324.05" fill="#594f54" fill-rule="evenodd" stroke="none"/>
    <path d="M608.4 247.1 L616.4 242.4 Q624.4 244.45 632.7 244.6 L672.05 246.25 689.2 246.65 Q708.25 247.35 725.55 256.1 735.25 261.0 743.75 267.6 748.75 271.5 750.3 277.75 752.05 284.75 752.65 292.0 754.35 311.45 754.55 330.95 754.75 350.65 756.15 370.3 757.6 390.1 750.5 408.45 748.0 414.8 742.65 419.1 730.35 428.95 715.4 423.6 712.3 422.55 713.35 421.0 721.75 411.4 728.05 400.7 729.35 398.5 729.75 395.9 731.3 385.6 731.2 375.15 L730.55 335.3 Q730.15 315.4 728.25 295.4 727.3 285.6 720.2 278.85 706.95 266.2 688.9 262.05 L653.5 254.05 Q636.25 250.55 618.85 247.9 L608.4 247.1" fill="#4b4752" fill-rule="evenodd" stroke="none"/>
    <path d="M608.4 247.1 L618.85 247.9 Q636.25 250.55 653.5 254.05 L688.9 262.05 Q706.95 266.2 720.2 278.85 727.3 285.6 728.25 295.4 730.15 315.4 730.55 335.3 L731.2 375.15 Q731.3 385.6 729.75 395.9 729.35 398.5 728.05 400.7 721.75 411.4 713.35 421.0 708.6 425.1 702.5 426.6 692.15 429.1 681.35 429.35 678.25 429.45 677.85 426.65 683.05 428.75 687.75 426.1 692.45 423.35 696.35 419.4 697.65 418.1 698.5 416.4 707.2 398.6 706.7 378.7 706.55 371.55 707.15 364.65 708.75 345.45 707.3 326.2 705.85 307.0 696.0 290.55 689.95 280.55 680.75 273.75 664.6 261.65 644.5 258.75 L628.55 256.35 612.8 255.1 Q594.15 254.0 575.5 254.25 571.1 254.3 567.6 257.0 568.15 255.1 570.05 254.35 588.5 247.25 608.4 247.1" fill="#534652" fill-rule="evenodd" stroke="none"/>
    <path d="M677.85 426.65 Q663.75 422.15 650.15 416.45 630.2 408.25 610.95 398.55 594.55 390.25 576.9 384.8 565.3 381.3 558.4 371.2 555.35 366.8 557.4 362.3 558.15 360.65 558.5 359.0 559.3 355.2 558.1 351.25 553.9 337.55 562.35 325.95 L562.05 324.85 Q561.15 323.0 560.7 321.0 557.25 306.0 564.85 292.35 561.4 287.35 560.8 281.45 559.35 267.6 567.6 257.0 571.1 254.3 575.5 254.25 594.15 254.0 612.8 255.1 L628.55 256.35 644.5 258.75 Q664.6 261.65 680.75 273.75 689.95 280.55 696.0 290.55 705.85 307.0 707.3 326.2 708.75 345.45 707.15 364.65 706.55 371.55 706.7 378.7 707.2 398.6 698.5 416.4 697.65 418.1 696.35 419.4 692.45 423.35 687.75 426.1 683.05 428.75 677.85 426.65" fill="url(#gradient14)" fill-rule="evenodd" stroke="none"/>
    <path d="M668.1 317.0 Q668.1 316.1 668.65 314.9 669.3 313.35 670.35 312.6 672.1 315.25 672.1 317.1 L671.0 318.15 Q670.25 318.7 669.1 318.85 L668.3 318.6 Q668.1 318.5 668.1 317.0 M585.85 296.4 Q586.35 296.55 586.35 298.1 586.35 299.6 585.65 300.35 L584.35 301.85 Q581.6 299.1 581.6 297.35 582.35 296.6 585.35 296.6 L585.85 296.4 M639.3 308.75 L639.85 308.35 642.1 308.6 642.35 310.1 641.5 312.3 Q640.85 313.5 639.85 314.35 L638.35 309.35 639.3 308.75 M602.1 304.1 Q601.35 303.35 601.35 301.85 L602.65 301.9 Q603.7 302.15 604.35 303.1 603.85 303.85 602.1 304.1" fill="#645a66" fill-rule="evenodd" stroke="none"/>
    <path d="M674.1 354.35 Q674.1 356.2 671.35 358.85 666.6 356.4 666.6 353.6 668.7 352.6 669.3 351.65 L673.35 352.35 673.75 352.6 Q674.1 352.85 674.1 354.35 M660.6 386.85 Q662.4 384.65 663.8 385.25 664.8 385.65 668.1 387.6 L666.8 391.0 Q666.0 393.0 665.85 394.35 L664.85 394.85 Q663.55 394.0 662.5 391.85 661.65 390.15 660.6 386.85 M608.1 341.1 L607.35 341.6 Q606.6 342.1 605.1 342.1 603.7 342.1 603.65 341.25 603.55 340.1 603.1 339.85 L602.85 340.05 Q602.6 339.9 602.6 338.35 L602.65 336.95 603.1 336.85 606.55 335.7 608.35 335.1 608.6 334.75 Q608.85 334.7 608.85 336.25 L608.55 338.75 608.1 341.1 M580.35 332.0 Q580.35 329.95 580.65 328.85 580.95 327.5 581.85 326.6 585.0 326.6 585.85 327.85 L584.9 330.7 Q583.9 332.75 581.1 333.1 L580.75 333.5 Q580.35 333.55 580.35 332.0 M601.1 366.85 Q601.1 365.1 602.3 363.45 603.8 361.45 606.35 360.85 L607.5 363.3 Q608.1 364.9 608.1 366.5 608.1 366.85 607.15 367.6 L604.35 369.85 Q601.1 367.9 601.1 366.85 M577.0 356.45 Q578.55 355.8 580.1 355.6 580.1 357.35 580.75 359.1 L581.35 360.85 580.2 362.35 577.85 365.1 575.95 363.75 575.85 362.25 Q575.85 360.7 575.05 359.9 L573.85 358.85 Q574.65 357.4 577.0 356.45 M639.6 346.85 Q641.5 345.05 642.9 345.5 643.95 345.85 645.1 347.85 L644.85 349.35 643.85 350.1 Q640.75 348.6 639.6 346.85 M635.95 375.95 Q637.6 375.45 637.6 377.6 637.6 379.1 638.75 379.4 L640.1 379.85 637.35 382.85 Q635.35 381.8 633.8 380.15 632.6 378.85 632.6 378.35 634.55 376.4 635.95 375.95" fill="#564a57" fill-rule="evenodd" stroke="none"/>
    <path d="M562.05 324.85 L560.35 322.6 568.55 326.25 562.05 324.85 M637.6 251.05 Q632.9 253.85 629.55 258.4 624.5 265.3 623.4 273.95 L622.5 279.45 Q616.85 307.6 616.8 336.4 L620.25 337.35 Q619.6 326.45 620.3 315.6 621.35 298.35 625.5 281.55 L627.0 275.1 Q630.6 258.45 644.1 249.25 641.6 248.7 637.6 251.05 M729.05 352.35 Q729.0 353.05 728.35 352.55 L729.05 352.35 M712.15 354.8 Q714.1 354.1 716.15 353.8 L712.1 356.05 Q710.6 355.35 712.15 354.8 M667.15 347.05 Q668.75 347.45 670.2 348.15 682.25 353.5 694.85 356.25 702.4 357.95 710.25 357.05 729.55 355.2 745.1 344.1 L748.85 344.85 738.8 351.5 740.35 351.35 Q742.35 351.15 744.15 350.4 L749.1 348.55 Q751.2 347.95 753.25 349.0 745.3 352.35 736.25 354.15 L734.35 354.8 Q718.25 361.4 700.55 359.85 695.5 359.55 690.8 358.2 678.7 354.9 667.1 349.85 L621.6 340.55 623.25 373.6 621.7 364.0 625.2 406.1 Q620.95 392.75 620.25 377.35 619.45 358.9 620.4 340.3 L616.65 340.3 615.9 359.6 Q615.25 378.2 617.5 396.5 L614.8 392.65 Q613.7 365.8 614.65 338.95 L564.35 322.35 564.1 321.25 566.7 321.55 Q590.95 328.2 614.75 335.8 615.4 318.5 616.9 301.25 618.3 285.3 622.75 269.75 627.55 253.2 642.85 246.0 L645.8 247.1 646.1 248.75 644.25 250.95 643.85 251.25 643.7 251.05 643.6 250.7 Q640.85 253.1 638.8 256.25 625.2 276.85 623.2 302.0 621.8 319.8 621.75 337.55 L625.8 338.7 Q631.8 340.8 638.05 341.65 652.7 343.9 667.15 347.05" fill="#555555" fill-rule="evenodd" stroke="none"/>
    <path d="M72.1 282.5 L71.8 282.45 83.0 281.25 107.4 281.25 109.0 281.25 Q112.95 285.95 113.5 294.6 113.8 299.5 113.75 309.35 114.2 314.9 114.05 325.5 L113.75 336.75 113.75 370.85 114.25 374.7 Q114.7 377.4 114.3 379.05 113.9 381.0 112.3 382.35 109.7 384.5 104.0 385.1 102.95 385.2 97.2 387.4 L88.1 390.95 Q77.7 395.1 70.2 396.1 L68.0 396.05 Q70.3 390.2 71.3 383.95 L71.7 381.1 Q76.9 334.65 73.1 288.85 L72.5 282.5 72.1 282.5 M180.85 394.7 Q182.6 394.9 183.05 397.1 183.35 398.6 183.35 404.5 L182.45 415.35 Q181.5 425.95 181.35 431.1 181.3 436.0 181.8 446.4 L182.35 457.35 182.35 466.35 Q182.25 474.35 181.6 479.1 L180.8 485.0 Q179.95 488.15 177.35 490.1 174.6 492.1 164.6 493.1 L144.15 495.15 143.45 489.1 Q139.15 447.15 146.25 405.3 L146.45 403.95 144.0 400.85 142.75 400.6 145.25 400.1 Q147.2 399.75 154.65 397.4 L161.85 395.1 Q163.5 395.1 163.55 396.25 163.6 397.1 162.85 398.35 L167.3 397.4 173.5 395.95 174.5 395.7 174.6 395.7 174.75 395.65 Q179.4 394.55 180.85 394.7 M-3.9 493.45 L-2.75 493.45 -3.15 493.95 Q-6.3 497.7 -10.0 498.85 L-13.5 498.9 -12.25 493.35 -3.9 493.45 M-19.15 498.95 L-32.5 499.05 -32.5 436.6 Q-31.85 431.75 -31.5 423.5 L-31.25 414.1 Q-31.25 411.85 -31.85 409.05 -32.65 405.45 -34.0 403.85 L-34.45 404.65 -34.5 404.6 Q-47.1 402.1 -63.05 402.3 L-82.0 401.6 -84.1 401.5 Q-84.1 396.9 -83.5 393.6 -83.35 392.55 -71.9 390.75 L-58.0 388.6 -51.4 387.5 -51.4 387.55 -51.45 391.3 -51.5 393.8 -51.5 393.9 Q-51.5 394.9 -51.05 395.0 -36.65 399.0 -21.3 399.8 L-25.0 400.1 Q-25.25 400.5 -25.55 400.4 -25.75 400.5 -25.75 402.0 -25.75 403.5 -25.35 403.55 L-24.0 403.6 -18.95 403.6 Q-21.75 406.6 -21.25 412.25 -18.15 448.15 -18.15 484.4 L-25.65 487.2 -25.9 488.25 -25.95 489.35 -25.8 490.4 -25.5 491.25 -25.05 492.05 -24.7 492.5 -24.5 492.7 -22.0 495.1 -19.95 494.7 -18.5 492.45 -18.45 492.95 -18.45 493.5 -19.15 497.95 -19.15 498.9 -19.15 498.95" fill="#6b6168" fill-rule="evenodd" stroke="none"/>
    <path d="M107.4 281.25 L83.0 281.25 71.8 282.45 72.1 282.5 71.6 282.45 70.0 282.4 66.25 282.2 65.25 281.85 Q57.95 281.7 51.45 280.3 43.65 278.6 41.0 278.35 L31.3 277.75 30.5 277.7 Q28.05 276.1 23.5 274.6 L22.8 274.5 Q23.0 272.85 25.75 270.85 L60.0 270.85 62.7 270.6 78.95 273.2 96.6 275.6 Q103.15 276.6 105.35 278.2 106.85 279.25 107.4 281.25" fill="#70656c" fill-rule="evenodd" stroke="none"/>
    <path d="M22.8 274.5 L23.5 274.6 Q28.05 276.1 30.5 277.7 L31.65 278.55 Q33.45 280.15 33.75 282.25 13.8 283.05 -6.05 285.95 L-13.85 287.1 -18.25 287.75 -37.35 290.9 -38.65 291.15 -38.6 291.15 -30.55 285.6 -17.75 277.35 Q-16.55 276.45 2.55 275.2 L22.8 274.5" fill="#302e30" fill-rule="evenodd" stroke="none"/>
    <path d="M66.25 282.2 L70.0 282.4 71.6 282.45 72.1 282.5 72.5 282.5 73.1 288.85 Q76.9 334.65 71.7 381.1 L71.3 383.95 Q70.3 390.2 68.0 396.05 L70.2 396.1 Q124.2 396.65 142.75 400.6 L144.0 400.85 146.45 403.95 146.25 405.3 Q139.15 447.15 143.45 489.1 L144.15 495.15 144.35 496.95 Q144.6 498.75 143.65 500.4 L142.6 500.7 Q69.7 494.25 -3.9 493.45 L-12.25 493.35 -13.5 498.9 -14.3 502.35 -17.4 502.35 -18.7 500.55 -19.05 499.75 -19.15 498.95 -19.15 498.9 -19.15 497.95 -18.45 493.5 -18.45 492.95 -18.5 492.45 -19.95 494.7 -22.0 495.1 -24.5 492.7 -24.7 492.5 -25.05 492.05 -25.5 491.25 -25.8 490.4 -25.95 489.35 -25.9 488.25 -25.65 487.2 -18.15 484.4 Q-18.15 448.15 -21.25 412.25 -21.75 406.6 -18.95 403.6 -16.05 400.5 -9.55 400.3 L35.05 397.6 Q26.2 395.9 59.0 396.0 40.2 392.6 21.2 396.45 -0.9 400.9 -21.3 399.8 -36.65 399.0 -51.05 395.0 -51.5 394.9 -51.5 393.9 L-51.5 393.8 -51.45 391.3 -51.4 387.55 -51.4 387.5 Q-51.05 341.0 -58.65 295.05 L-38.6 291.15 -38.65 291.15 -37.35 290.9 -18.25 287.75 -13.85 287.1 -6.05 285.95 Q13.8 283.05 33.75 282.25 50.0 281.5 66.25 282.2 M-32.5 499.05 L-65.0 499.35 -67.0 499.85 -77.0 499.85 Q-80.95 495.95 -82.35 488.6 -83.3 480.3 -84.0 476.85 -84.95 472.3 -84.95 464.0 L-84.75 454.75 Q-83.75 427.35 -83.75 413.85 L-84.0 407.0 -84.1 403.7 -84.1 401.5 -82.0 401.6 -63.05 402.3 Q-47.1 402.1 -34.5 404.6 L-34.45 404.65 -34.0 403.85 Q-32.65 405.45 -31.85 409.05 -31.25 411.85 -31.25 414.1 L-31.5 423.5 Q-31.85 431.75 -32.5 436.6 L-32.5 499.05" fill="#4b454b" fill-rule="evenodd" stroke="none"/>
    <path d="M70.2 396.1 Q77.7 395.1 88.1 390.95 L97.2 387.4 Q102.95 385.2 104.0 385.1 109.7 384.5 112.3 382.35 L130.0 382.35 Q164.55 383.45 175.2 388.8 179.4 390.9 180.65 393.95 L180.9 394.7 180.85 394.7 Q179.4 394.55 174.75 395.65 L174.6 395.7 174.5 395.7 173.5 395.95 167.3 397.4 162.85 398.35 Q163.6 397.1 163.55 396.25 163.5 395.1 161.85 395.1 L154.65 397.4 Q147.2 399.75 145.25 400.1 L142.75 400.6 Q124.2 396.65 70.2 396.1 M-21.3 399.8 Q-0.9 400.9 21.2 396.45 40.2 392.6 59.0 396.0 26.2 395.9 35.05 397.6 L-9.55 400.3 Q-16.05 400.5 -18.95 403.6 L-24.0 403.6 -25.35 403.55 Q-25.75 403.5 -25.75 402.0 -25.75 400.5 -25.55 400.4 -25.25 400.5 -25.0 400.1 L-21.3 399.8" fill="#786d71" fill-rule="evenodd" stroke="none"/>
    <path d="M1.25 345.1 L0.5 345.1 Q0.5 337.45 -0.5 321.95 L-1.5 306.5 -1.25 294.65 Q-0.55 288.0 2.25 286.6 0.15 290.9 -0.35 296.75 L-0.5 306.5 0.5 320.75 1.5 335.0 1.25 345.1 M2.45 386.35 L1.5 380.85 1.5 363.6 2.25 363.6 2.6 373.0 Q2.85 378.55 3.5 382.35 L3.5 390.6 3.0 391.1 2.45 386.35 M140.5 403.6 L131.85 402.4 120.0 401.6 79.25 402.1 78.0 402.6 69.25 402.6 Q69.25 402.1 68.5 401.35 69.65 400.05 71.9 399.65 75.7 399.0 78.0 398.1 L119.75 397.6 Q121.0 397.35 121.0 397.1 135.6 397.8 140.75 399.5 L143.95 400.75 Q145.65 401.35 148.25 401.6 L148.5 402.1 144.9 403.05 140.5 403.6 M60.75 401.45 Q59.95 402.1 59.2 402.35 55.1 403.75 38.0 404.1 -0.4 404.7 -4.0 405.35 -9.5 405.1 -9.5 404.35 53.5 400.5 58.0 399.35 L60.5 399.85 61.4 400.3 62.5 401.1 Q61.25 401.05 60.75 401.45 M-38.25 401.75 Q-38.0 401.7 -38.0 403.25 -38.0 404.0 -39.75 405.65 -41.45 407.25 -43.0 408.1 -45.75 407.85 -46.25 407.35 -60.8 407.95 -65.5 408.95 -68.35 409.6 -71.0 411.1 -73.5 410.6 -74.0 409.85 L-73.5 409.1 -69.45 408.5 -60.25 405.35 Q-59.4 405.15 -52.05 405.35 L-43.0 405.6 Q-41.3 405.6 -40.35 404.3 -39.15 402.45 -38.5 402.1 L-38.25 401.75" fill="#464246" fill-rule="evenodd" stroke="none"/>
    <path d="M9.75 273.1 L9.75 271.85 Q20.0 270.45 43.8 275.9 56.4 278.75 74.25 283.35 L75.0 284.85 Q74.25 287.1 71.5 287.1 69.35 287.1 55.1 283.65 L40.0 279.85 24.0 276.85 Q12.9 274.75 9.75 273.1 M-45.7 289.45 L-32.0 283.85 Q-24.75 280.65 -19.35 278.65 -9.0 274.85 -6.5 276.1 -11.5 279.8 -19.25 283.4 -23.6 285.45 -32.0 289.1 -51.85 299.1 -54.5 299.1 L-56.45 298.85 -56.5 298.6 -57.05 298.35 Q-57.25 298.25 -57.25 296.75 -57.25 294.6 -45.7 289.45" fill="#4b454b" fill-rule="evenodd" stroke="none"/>
    <path d="M167.5 433.75 L167.6 436.5 177.75 442.85 Q174.35 445.35 177.15 444.35 174.45 445.5 169.25 447.75 167.4 458.95 170.25 468.75 L161.5 474.6 162.0 450.35 153.75 454.25 152.0 453.35 165.1 435.25 167.5 433.75" fill="#423c40" fill-opacity="0.4" fill-rule="evenodd" stroke="none"/>
    <path d="M502.3 390.0 Q504.1 391.7 506.45 396.35 L507.85 399.25 508.6 398.9 Q508.6 400.0 509.85 402.4 511.55 405.6 513.75 405.6 515.75 405.6 516.8 404.1 L518.6 401.1 Q525.0 401.05 534.05 397.6 L539.85 395.05 540.05 395.35 Q540.55 395.9 541.85 396.35 L546.2 392.4 Q548.25 390.35 549.35 388.35 549.95 387.3 554.05 383.95 L561.45 386.0 Q564.2 387.05 564.6 389.6 L565.4 393.65 565.85 397.85 Q565.85 399.75 564.6 401.15 L558.85 405.85 557.9 405.85 558.65 407.15 Q560.1 409.95 560.1 415.25 560.1 420.2 557.6 426.15 556.05 429.85 554.05 431.8 L553.85 434.35 Q553.85 436.25 555.35 440.0 556.85 443.75 556.85 445.6 556.85 449.25 555.75 450.65 554.5 452.2 550.8 452.85 L519.85 455.85 504.85 457.65 Q502.8 457.95 497.6 459.6 495.05 460.4 490.2 462.8 486.05 464.85 485.35 464.85 L482.9 464.6 482.35 464.35 482.1 463.9 Q481.85 463.55 481.85 462.1 481.85 460.65 482.8 458.9 L485.1 455.35 Q487.7 451.3 487.05 450.6 485.85 450.45 485.85 449.75 485.85 449.35 488.05 447.75 489.5 449.35 491.85 449.35 493.5 449.35 494.95 448.4 496.1 447.6 496.35 446.85 494.45 445.65 493.35 444.1 494.15 443.55 494.9 443.1 493.2 442.2 492.0 441.15 491.6 439.5 491.6 437.5 491.6 432.4 494.0 428.0 496.35 423.65 496.35 420.6 L496.1 418.05 495.85 416.85 Q495.05 416.5 494.3 416.45 L492.1 414.2 Q489.6 411.3 489.6 409.6 489.6 407.35 490.8 404.0 L492.85 399.1 Q493.4 397.95 496.1 396.45 497.45 395.7 498.85 395.1 500.9 393.8 501.15 393.0 501.75 391.0 502.3 390.0" fill="#594e5c" fill-rule="evenodd" stroke="none"/>
    <path d="M492.0 441.15 Q490.75 440.0 490.05 438.7 489.1 437.0 489.1 432.0 489.1 425.3 491.5 418.85 L492.35 416.75 492.45 416.55 492.5 416.4 492.65 416.1 492.75 415.85 Q491.45 415.45 489.95 413.45 L487.85 410.1 485.35 406.6 Q484.35 405.25 484.35 404.1 484.35 400.4 488.4 395.35 493.8 388.65 501.85 389.6 L502.3 390.0 Q501.75 391.0 501.15 393.0 500.9 393.8 498.85 395.1 497.45 395.7 496.1 396.45 493.4 397.95 492.85 399.1 L490.8 404.0 Q489.6 407.35 489.6 409.6 489.6 411.3 492.1 414.2 L494.3 416.45 Q495.05 416.5 495.85 416.85 L496.1 418.05 496.35 420.6 Q496.35 423.65 494.0 428.0 491.6 432.4 491.6 437.5 491.6 439.5 492.0 441.15 M508.6 398.9 Q512.7 397.0 517.6 396.35 L523.8 394.75 Q528.85 393.3 532.15 392.8 538.0 391.85 542.6 393.0 L543.45 393.25 542.85 393.05 542.85 392.65 542.85 392.6 542.95 390.5 Q543.3 387.1 544.75 384.75 547.45 380.45 552.85 383.6 L554.05 383.95 Q549.95 387.3 549.35 388.35 548.25 390.35 546.2 392.4 L541.85 396.35 Q540.55 395.9 540.05 395.35 L539.85 395.05 534.05 397.6 Q525.0 401.05 518.6 401.1 L516.8 404.1 Q515.75 405.6 513.75 405.6 511.55 405.6 509.85 402.4 508.6 400.0 508.6 398.9 M488.05 447.75 Q489.65 446.55 492.45 444.7 L493.35 444.1 Q494.45 445.65 496.35 446.85 496.1 447.6 494.95 448.4 493.5 449.35 491.85 449.35 489.5 449.35 488.05 447.75" fill="#8a6c70" fill-rule="evenodd" stroke="none"/>
    <path d="M665.45 403.55 Q713.8 407.8 711.0 460.35 709.65 485.4 678.4 485.85 629.75 486.6 581.1 483.95 536.65 481.5 492.2 484.05 L442.75 486.0 Q467.1 475.25 490.6 463.15 529.85 443.1 573.05 432.9 620.35 421.55 665.45 403.55 M417.15 486.5 Q417.15 484.4 418.5 482.9 419.8 481.4 421.65 481.4 L417.15 486.5" fill="#5c5656" fill-rule="evenodd" stroke="none"/>
    <path d="M442.75 486.0 L423.85 488.1 426.45 489.6 418.45 488.2 417.15 486.5 421.65 481.4 Q429.7 477.3 437.95 473.5 481.85 453.1 527.95 437.8 571.85 423.35 616.25 410.05 640.4 402.85 665.45 403.55 620.35 421.55 573.05 432.9 529.85 443.1 490.6 463.15 467.1 475.25 442.75 486.0" fill="#7d6b60" fill-rule="evenodd" stroke="none"/>
    <path d="M703.9 392.8 L704.35 393.35 Q702.6 395.75 699.3 397.1 695.5 398.45 693.6 399.35 691.2 400.6 688.9 403.0 L684.85 407.6 Q679.45 413.45 678.3 416.3 677.6 418.15 677.6 423.6 677.6 428.35 679.25 432.75 680.85 437.15 680.85 439.75 L680.7 441.3 678.15 438.6 Q672.35 431.6 672.35 423.25 672.35 412.95 675.65 406.55 678.2 402.95 681.5 399.7 685.85 395.4 689.8 393.15 L689.85 393.1 Q693.4 391.75 702.3 392.6 L703.9 392.8 M671.05 451.55 Q668.9 454.85 663.1 461.45 L653.25 472.15 653.25 472.2 653.7 471.35 660.4 460.05 660.6 459.75 Q666.1 451.85 669.35 451.25 670.3 451.05 671.05 451.55 M300.75 468.45 Q298.35 466.75 298.35 463.6 298.35 456.15 316.5 445.75 325.2 440.75 332.9 437.85 344.75 434.6 359.35 433.35 L361.2 433.2 Q383.15 433.55 400.8 445.15 406.05 448.6 410.25 452.7 L395.65 446.65 Q382.5 441.1 375.1 441.1 338.5 441.1 314.7 456.6 307.15 461.55 301.25 467.9 L300.75 468.45 M-47.25 288.35 Q-44.9 294.9 -37.5 318.75 -20.2 374.65 -7.3 413.05 5.6 451.4 13.45 487.1 L6.65 485.8 6.2 484.35 Q5.35 481.9 3.85 479.75 3.3 479.0 13.45 487.1 -10.0 433.85 -23.95 389.7 -37.55 346.65 -44.55 302.0 -50.45 279.55 -47.25 288.35" fill="#5a5261" fill-rule="evenodd" stroke="none"/>
    <path d="M680.7 441.3 L680.85 439.75 Q680.85 437.15 679.25 432.75 677.6 428.35 677.6 423.6 677.6 418.15 678.3 416.3 679.45 413.45 684.85 407.6 L688.9 403.0 Q691.2 400.6 693.6 399.35 695.5 398.45 699.3 397.1 702.6 395.75 704.35 393.35 L703.9 392.8 Q714.15 394.05 718.1 398.6 719.6 401.65 720.55 406.65 721.35 410.95 721.35 414.0 721.35 426.45 719.35 432.35 715.4 444.05 704.55 446.65 L704.6 448.5 Q704.6 450.7 703.3 452.4 L704.05 452.8 Q706.35 454.15 707.35 457.85 713.25 457.7 716.35 464.0 718.6 468.55 718.6 473.85 718.6 480.2 705.65 485.1 695.65 488.85 690.85 488.85 677.4 488.85 672.9 482.85 670.85 480.15 670.85 475.35 670.85 473.9 672.0 470.25 L670.1 471.6 Q669.7 472.15 668.05 475.05 666.85 477.1 665.6 478.35 L658.45 484.8 Q652.5 489.85 651.35 489.85 649.05 489.85 648.35 488.6 647.85 487.75 647.85 485.25 647.85 483.15 651.85 474.95 L653.25 472.15 663.1 461.45 Q668.9 454.85 671.05 451.55 673.35 453.05 673.35 461.0 673.35 462.0 674.65 463.4 L676.3 460.05 Q681.8 450.0 687.5 450.15 L687.35 449.1 Q687.35 447.7 689.0 446.1 684.3 444.55 680.7 441.3 M689.8 393.15 Q685.85 395.4 681.5 399.7 678.2 402.95 675.65 406.55 L676.1 405.7 Q679.7 399.45 688.85 393.6 689.25 393.35 689.8 393.15 M332.9 437.85 Q340.35 435.0 346.85 434.1 L361.2 433.2 359.35 433.35 Q344.75 434.6 332.9 437.85 M410.25 452.7 L414.15 456.85 Q418.6 462.15 418.6 464.25 418.6 467.4 416.65 469.2 413.95 471.75 406.85 472.6 L404.4 472.6 404.6 475.85 Q404.6 478.9 402.9 484.15 400.5 491.35 396.85 491.35 393.8 491.35 393.15 485.45 L393.1 479.25 Q393.1 475.5 393.6 472.6 L322.85 472.6 319.8 472.25 320.1 478.35 319.85 483.6 Q318.65 486.6 312.85 486.6 310.1 486.6 308.85 483.3 308.1 481.4 308.1 479.75 308.1 474.65 308.8 470.8 L302.9 469.5 Q301.65 469.1 300.75 468.45 L301.25 467.9 Q307.15 461.55 314.7 456.6 338.5 441.1 375.1 441.1 382.5 441.1 395.65 446.65 L410.25 452.7 M6.2 484.35 Q1.7 483.1 0.5 484.4 L-3.75 483.6 -7.35 483.3 Q-58.6 374.0 -69.75 251.6 -64.3 251.7 -63.4 257.25 L-60.5 256.95 Q-51.6 271.55 -47.25 288.35 -50.45 279.55 -44.55 302.0 -37.55 346.65 -23.95 389.7 -10.0 433.85 13.45 487.1 3.3 479.0 3.85 479.75 5.35 481.9 6.2 484.35" fill="#49424f" fill-rule="evenodd" stroke="none"/>
    <path d="M370.4 117.55 L370.45 121.05 Q370.05 178.5 325.4 215.8 263.05 272.35 197.3 324.55 127.25 245.5 65.75 159.6 130.7 103.5 188.85 40.45 281.25 75.35 370.4 117.55" fill="url(#gradient15)" fill-rule="evenodd" stroke="none"/>
    <path d="M707.15 -4.4 Q743.85 -28.35 779.35 -12.0 783.85 -9.95 784.8 -4.4 793.0 42.85 792.7 91.4 L791.8 191.3 Q791.3 237.05 784.75 282.3 778.65 324.35 774.25 366.65 769.15 415.2 768.15 464.05 767.75 483.9 760.85 502.35 734.55 503.35 708.45 500.2 L710.1 363.1 709.85 232.0 707.15 -4.4 M706.1 499.7 Q704.0 498.3 705.45 496.7 L705.9 496.35 706.1 499.7 M706.2 7.85 Q704.45 4.1 705.55 -0.05 L706.3 -2.55 706.2 7.85 M-51.7 494.9 Q-89.55 510.3 -113.5 475.35 -118.4 468.3 -120.75 459.5 -133.35 412.85 -132.35 363.95 -131.35 315.8 -128.35 267.55 -125.35 218.7 -123.45 169.55 -121.6 122.45 -122.2 75.45 -122.75 35.2 -116.1 -3.2 -115.75 -5.1 -113.0 -5.6 -87.45 -9.35 -62.25 -8.15 L-62.3 -12.1 -60.5 -12.25 -57.0 -6.5 -50.35 -5.7 -47.8 -3.05 -49.9 3.85 -50.5 0.0 Q-57.2 23.5 -55.6 48.55 -53.0 88.5 -53.15 128.55 L-53.55 239.35 -53.7 259.75 -53.75 260.5 -54.0 385.25 -51.7 494.9 M-50.1 488.1 L-49.0 488.1 -46.25 490.85 -50.25 493.95 -50.1 488.1" fill="#2c282d" fill-rule="evenodd" stroke="none"/>
    <path d="M706.3 -2.55 L707.1 -7.25 707.15 -4.4 709.85 232.0 710.1 363.1 708.45 500.2 708.05 503.6 706.1 499.7 705.9 496.35 703.6 363.0 703.85 231.5 706.2 7.85 706.3 -2.55 M-49.9 3.85 L-48.25 261.0 -48.0 385.35 -50.1 488.1 -50.25 493.95 -51.45 500.85 -51.7 494.9 -54.0 385.25 -53.75 260.5 -53.7 259.75 -53.55 239.35 -53.15 128.55 Q-53.0 88.5 -55.6 48.55 -57.2 23.5 -50.5 0.0 L-49.9 3.85" fill="#615452" fill-rule="evenodd" stroke="none"/>
    <path d="M71.3 -6.5 L72.8 -6.75 Q76.95 6.0 87.95 13.8 99.5 22.0 113.5 23.85 145.55 27.95 176.75 19.45 165.55 17.3 155.35 12.35 135.65 2.85 121.15 -13.25 L122.55 -12.45 Q132.8 -6.75 142.05 0.45 152.85 8.9 166.05 12.85 L174.75 15.8 Q182.2 18.6 189.65 16.25 216.15 8.05 240.5 -5.25 232.8 2.15 222.8 6.55 206.7 13.5 189.75 18.1 L205.2 19.2 Q224.2 20.05 242.45 14.75 265.4 8.1 285.05 -5.25 277.4 3.95 266.55 9.25 250.3 17.15 232.5 20.5 214.6 23.7 196.5 22.0 189.65 21.25 182.95 21.65 177.45 22.3 171.8 23.9 154.0 29.1 135.35 28.8 115.55 28.45 97.05 21.75 76.3 14.15 71.3 -6.5 M480.05 -10.6 Q483.4 -7.15 483.3 -2.05 L488.85 -12.0 490.6 -11.25 491.35 -9.3 496.15 -18.65 501.65 -11.45 502.7 -11.85 Q504.95 -12.05 506.85 -10.5 509.2 -8.5 509.1 -5.3 L513.85 -17.5 516.1 -17.25 515.85 -10.75 514.35 -12.75 509.1 58.95 Q507.4 59.05 506.35 56.25 504.3 50.9 504.6 45.3 L502.85 51.5 502.35 50.6 503.45 59.8 Q503.9 62.95 502.5 65.8 L498.5 44.45 496.45 62.95 Q492.5 34.7 495.95 6.05 L494.3 8.35 Q494.7 35.95 486.65 62.1 L487.8 38.35 483.35 41.25 485.85 9.0 482.0 39.3 Q463.75 15.8 478.6 -11.4 479.5 -11.2 480.05 -10.6 M588.85 -5.2 L592.45 5.15 590.7 3.75 607.3 58.3 Q635.7 78.65 670.25 85.55 697.25 90.9 723.55 83.85 748.55 77.3 764.8 56.5 L767.05 59.25 Q755.2 79.6 732.0 87.25 693.05 99.85 651.85 87.45 629.15 80.6 609.1 67.55 614.9 97.45 639.85 115.4 675.15 140.7 711.6 119.35 732.95 106.8 750.9 89.75 736.35 118.2 706.55 128.5 660.95 144.3 627.05 110.8 605.55 89.65 600.75 59.8 580.25 41.45 568.0 16.65 561.6 3.8 567.35 -7.0 575.95 19.7 592.75 42.0 L597.6 48.25 Q587.85 22.45 584.8 -3.9 584.75 -4.45 585.0 -4.95 L585.5 -6.0 587.15 -6.1 588.85 -5.2 M502.1 41.75 Q506.25 28.0 506.3 13.7 506.3 3.2 504.1 -7.0 L502.75 3.15 502.1 41.75 M496.1 1.15 L495.35 -8.0 494.2 3.45 496.1 1.15 M-6.35 0.75 Q-11.95 46.9 -47.45 86.1 -63.0 103.35 -76.75 122.0 -91.15 141.55 -110.15 156.2 L-110.45 156.1 -69.65 105.15 Q-86.85 120.5 -109.5 124.75 -50.9 99.25 -36.35 37.45 L-27.45 -0.25 Q-23.85 36.45 -42.9 68.65 -17.45 40.5 -8.4 3.85 L-6.35 0.75" fill="#474048" fill-rule="evenodd" stroke="none"/>
  </g>
  <defs>
    <radialGradient cx="0" cy="0" fx="208.0" fy="0" gradientTransform="matrix(0.7907, 0.0, 0.0, 0.5715, 474.15, 500.9)" gradientUnits="userSpaceOnUse" id="gradient0" r="819.2" spreadMethod="pad">
      <stop offset="0.0" stop-color="#eca082"/>
      <stop offset="0.7137254901960784" stop-color="#514752"/>
    </radialGradient>
    <radialGradient cx="0" cy="0" gradientTransform="matrix(0.4992, 0.0, 0.0, 0.4992, 484.95, 393.95)" gradientUnits="userSpaceOnUse" id="gradient1" r="819.2" spreadMethod="pad">
      <stop offset="0.0" stop-color="#eca082"/>
      <stop offset="0.7137254901960784" stop-color="#514752"/>
    </radialGradient>
    <radialGradient cx="0" cy="0" fx="-380.8" fy="0" gradientTransform="matrix(0.2926, 0.0, 0.0, 0.0953, 435.95, 386.95)" gradientUnits="userSpaceOnUse" id="gradient2" r="819.2" spreadMethod="pad">
      <stop offset="0.1607843137254902" stop-color="#eddebc"/>
      <stop offset="0.4117647058823529" stop-color="#d0ac9d"/>
      <stop offset="0.7137254901960784" stop-color="#514752"/>
    </radialGradient>
    <radialGradient cx="0" cy="0" fx="208.0" fy="0" gradientTransform="matrix(0.7907, 0.0, 0.0, 0.5715, 474.15, 500.9)" gradientUnits="userSpaceOnUse" id="gradient3" r="819.2" spreadMethod="pad">
      <stop offset="0.0" stop-color="#d2b09b"/>
      <stop offset="0.7137254901960784" stop-color="#514752"/>
    </radialGradient>
    <radialGradient cx="0" cy="0" gradientTransform="matrix(0.5316, 0.0, 0.0, 0.5316, 293.95, 414.95)" gradientUnits="userSpaceOnUse" id="gradient4" r="819.2" spreadMethod="pad">
      <stop offset="0.0" stop-color="#d2a69b"/>
      <stop offset="0.7137254901960784" stop-color="#514752"/>
    </radialGradient>
    <radialGradient cx="0" cy="0" gradientTransform="matrix(0.4036, 0.0, 0.0, 0.4036, 555.0, 337.25)" gradientUnits="userSpaceOnUse" id="gradient5" r="819.2" spreadMethod="pad">
      <stop offset="0.0" stop-color="#d2a69b"/>
      <stop offset="0.7137254901960784" stop-color="#514752"/>
    </radialGradient>
    <radialGradient cx="0" cy="0" gradientTransform="matrix(0.4992, 0.0, 0.0, 0.4992, 484.95, 393.95)" gradientUnits="userSpaceOnUse" id="gradient6" r="819.2" spreadMethod="pad">
      <stop offset="0.0" stop-color="#d2a69b"/>
      <stop offset="0.7137254901960784" stop-color="#514752"/>
    </radialGradient>
    <radialGradient cx="0" cy="0" gradientTransform="matrix(0.599, 0.0, 0.0, 0.599, 160.0, 490.95)" gradientUnits="userSpaceOnUse" id="gradient7" r="819.2" spreadMethod="pad">
      <stop offset="0.0" stop-color="#d2a69b"/>
      <stop offset="0.7137254901960784" stop-color="#514752"/>
    </radialGradient>
    <radialGradient cx="0" cy="0" gradientTransform="matrix(0.16, 0.0, 0.0, 0.16, 407.7, 112.7)" gradientUnits="userSpaceOnUse" id="gradient8" r="819.2" spreadMethod="pad">
      <stop offset="0.0" stop-color="#d2a69b"/>
      <stop offset="0.7137254901960784" stop-color="#514752"/>
    </radialGradient>
    <radialGradient cx="0" cy="0" gradientTransform="matrix(0.3976, 0.0, 0.0, 0.3976, 634.95, 487.95)" gradientUnits="userSpaceOnUse" id="gradient9" r="819.2" spreadMethod="pad">
      <stop offset="0.0" stop-color="#d2a69b"/>
      <stop offset="1.0" stop-color="#514752"/>
    </radialGradient>
    <radialGradient cx="0" cy="0" gradientTransform="matrix(0.4395, 0.0, 0.0, 0.4395, 721.95, 494.95)" gradientUnits="userSpaceOnUse" id="gradient10" r="819.2" spreadMethod="pad">
      <stop offset="0.0" stop-color="#d2a69b"/>
      <stop offset="1.0" stop-color="#514752"/>
    </radialGradient>
    <linearGradient gradientTransform="matrix(0.0972, 0.0, 0.0, 0.0151, 391.25, 376.25)" gradientUnits="userSpaceOnUse" id="gradient11" spreadMethod="pad" x1="-819.2" x2="819.2">
      <stop offset="0.0" stop-color="#655467"/>
      <stop offset="1.0" stop-color="#655467" stop-opacity="0.0"/>
    </linearGradient>
    <linearGradient gradientTransform="matrix(0.007, -0.0263, 0.0847, 0.0227, 511.8, 313.95)" gradientUnits="userSpaceOnUse" id="gradient12" spreadMethod="pad" x1="-819.2" x2="819.2">
      <stop offset="0.0" stop-color="#8a726c"/>
      <stop offset="1.0" stop-color="#6f5e6a"/>
    </linearGradient>
    <linearGradient gradientTransform="matrix(-0.0114, -0.0198, 0.0436, -0.025, 222.5, 333.25)" gradientUnits="userSpaceOnUse" id="gradient13" spreadMethod="pad" x1="-819.2" x2="819.2">
      <stop offset="0.0" stop-color="#7e7070"/>
      <stop offset="1.0" stop-color="#5e4d5c"/>
    </linearGradient>
    <linearGradient gradientTransform="matrix(-0.0169, 0.0638, -0.1013, -0.0268, 622.15, 375.65)" gradientUnits="userSpaceOnUse" id="gradient14" spreadMethod="pad" x1="-819.2" x2="819.2">
      <stop offset="0.0" stop-color="#564a57"/>
      <stop offset="1.0" stop-color="#959298"/>
    </linearGradient>
    <linearGradient gradientTransform="matrix(0.0577, 0.0577, -0.1231, 0.1231, 175.55, 161.4)" gradientUnits="userSpaceOnUse" id="gradient15" spreadMethod="pad" x1="-819.2" x2="819.2">
      <stop offset="0.0" stop-color="#ffffff"/>
      <stop offset="1.0" stop-color="#ffffff" stop-opacity="0.0"/>
    </linearGradient>
  </defs>
</svg>
