<?xml version="1.0" encoding="UTF-8" standalone="no"?>
<svg xmlns:xlink="http://www.w3.org/1999/xlink" height="508.15px" width="943.35px" xmlns="http://www.w3.org/2000/svg">
  <g transform="matrix(1.0, 0.0, 0.0, 1.0, 161.4, 18.1)">
    <path d="M755.2 277.1 L-120.0 277.1 -120.0 -10.0 755.2 -10.0 755.2 277.1" fill="#ccf0ff" fill-rule="evenodd" stroke="none"/>
    <path d="M492.0 126.5 Q492.6 127.45 492.6 128.6 492.6 135.5 485.5 148.2 L474.35 166.5 469.45 175.2 Q466.05 180.95 462.45 184.95 452.0 196.5 434.1 200.1 421.0 202.7 403.5 207.35 L371.35 216.1 Q362.4 220.05 347.55 223.3 318.55 229.6 274.85 229.6 264.8 229.6 258.05 227.5 252.95 225.9 247.55 222.2 L237.5 215.35 Q230.65 211.25 222.1 208.6 213.6 206.05 203.2 204.25 193.75 202.6 189.35 201.1 181.65 198.35 174.9 191.45 L164.85 179.85 Q164.35 179.25 156.7 175.25 150.05 171.75 149.25 168.75 148.25 164.6 148.25 157.5 148.25 152.5 148.75 150.85 149.8 147.1 154.0 144.0 154.9 143.3 159.45 140.55 L164.6 137.25 Q166.85 135.45 175.9 135.2 L186.85 135.75 196.1 135.75 Q197.1 134.6 197.2 131.0 197.35 126.05 197.7 124.5 199.45 116.25 211.35 116.25 216.3 116.25 221.7 119.65 224.45 121.3 226.35 123.0 228.05 123.0 229.75 121.65 231.5 120.25 232.85 120.25 235.65 120.25 236.8 121.7 237.5 122.55 237.95 124.9 238.45 127.15 239.2 128.05 240.45 129.5 243.35 129.5 L248.6 129.0 249.25 128.75 Q249.85 128.5 249.85 127.0 L248.0 122.9 Q246.1 119.05 246.1 118.0 246.1 111.45 251.65 104.5 260.55 93.25 279.35 93.25 289.05 93.25 291.05 94.85 292.15 95.7 291.6 97.0 298.05 96.9 300.8 98.3 302.2 99.0 303.6 101.2 304.8 103.05 307.0 103.55 L317.85 103.25 Q319.2 103.95 321.2 106.65 322.85 108.95 323.85 111.0 L327.35 110.75 326.65 102.0 Q326.1 96.6 326.1 95.35 325.65 88.8 326.05 85.7 326.7 80.55 331.1 75.5 L335.25 70.15 Q337.95 66.75 340.5 64.8 347.85 59.1 360.1 60.5 371.9 62.7 377.25 68.5 378.85 70.2 381.1 73.7 383.45 77.35 384.85 79.0 388.65 83.3 392.7 88.55 397.25 94.35 399.6 98.25 L412.85 98.5 Q414.4 99.45 419.9 105.7 424.6 111.15 428.1 112.0 432.95 113.15 436.5 117.15 440.2 121.25 439.35 125.0 449.6 113.9 451.85 112.8 453.65 111.95 456.8 111.9 L465.35 112.0 Q481.5 112.0 484.1 116.9 485.45 119.45 483.6 123.0 L488.85 123.25 Q491.15 125.1 492.0 126.5" fill="#ffffff" fill-opacity="0.5019608" fill-rule="evenodd" stroke="none"/>
    <path d="M673.45 -11.1 L682.35 -11.75 713.85 -9.25 727.9 -8.8 742.85 -7.5 Q745.45 -6.75 746.9 -6.75 747.45 -6.65 749.1 -4.5 751.55 -1.5 752.9 4.25 753.75 7.8 754.6 15.0 755.9 24.45 758.5 37.35 759.6 42.75 759.6 54.0 759.6 64.95 757.95 72.85 755.0 86.8 753.35 99.75 752.35 107.5 751.6 110.55 749.8 117.4 745.95 122.45 735.3 136.25 706.6 140.0 698.85 141.0 690.35 150.5 682.35 160.95 680.1 163.25 674.7 168.75 660.85 173.45 L645.35 177.85 632.5 181.0 Q624.15 182.9 613.35 186.1 607.7 187.75 602.25 190.75 L593.6 195.65 Q582.9 200.9 563.85 200.35 L535.85 200.35 Q500.7 205.4 477.3 214.9 467.35 218.9 462.6 220.05 454.3 222.1 441.85 222.1 416.9 222.1 408.05 220.2 404.95 219.55 401.8 218.2 L395.85 215.85 387.7 213.35 376.85 213.85 364.35 215.1 359.1 214.55 347.85 213.85 Q346.3 212.3 345.45 210.65 344.85 209.45 344.85 208.85 344.85 204.7 346.2 200.3 347.7 195.35 349.85 193.85 362.65 193.85 371.9 194.35 L380.1 194.85 Q381.6 194.85 382.3 193.35 L383.45 189.75 Q385.2 183.65 390.85 180.85 396.25 178.25 398.65 175.05 402.25 172.7 419.1 170.5 429.25 169.2 433.4 164.45 L435.75 160.9 Q436.85 159.0 437.6 158.5 439.65 157.1 440.8 154.8 442.15 152.0 442.75 151.4 446.0 148.0 461.35 148.0 462.6 148.0 465.05 149.0 467.5 150.0 468.75 150.0 469.85 150.0 471.85 148.0 473.85 146.0 473.85 144.85 473.85 142.9 471.35 138.6 468.85 134.3 468.85 132.75 468.85 130.15 471.75 127.4 476.5 122.85 486.6 123.5 486.85 122.75 488.35 121.25 487.85 119.6 486.6 117.75 485.6 116.25 485.6 115.6 485.6 114.0 486.05 112.75 L486.85 110.75 Q487.2 109.9 486.95 108.9 486.6 107.25 486.6 106.25 486.6 103.7 489.1 99.5 489.6 98.8 491.7 97.55 L496.6 94.5 Q497.4 93.95 498.85 91.2 500.3 88.45 501.35 87.75 506.95 83.75 516.35 83.75 524.85 83.75 528.4 88.55 L531.3 93.25 Q533.2 96.3 535.6 98.25 L538.65 96.05 542.85 92.75 Q542.35 91.15 538.45 88.85 L532.85 85.5 Q529.35 82.85 528.4 81.4 527.6 80.15 527.6 77.6 527.6 74.55 532.75 70.55 537.75 66.65 545.35 63.5 548.65 62.15 550.75 60.0 L553.8 56.4 Q557.3 52.45 566.85 52.25 563.85 47.35 559.5 42.45 L552.55 35.1 Q545.35 27.3 545.35 20.0 545.35 12.9 549.8 7.5 555.65 0.4 568.6 -3.25 L575.45 -3.0 584.1 -2.75 Q584.75 -2.8 586.95 -3.8 589.45 -4.9 591.1 -5.25 L602.7 -6.1 622.85 -7.25 627.75 -7.85 630.55 -8.6 659.1 -10.25 673.45 -11.1 M25.5 -11.5 Q40.15 -7.65 42.45 -0.5 43.8 3.65 42.25 12.0 42.25 13.35 44.15 14.9 L48.25 17.75 Q54.25 21.9 54.25 26.75 54.25 29.55 48.75 34.6 41.55 40.7 38.25 44.0 39.8 45.15 42.9 48.8 46.4 52.35 51.0 54.25 51.3 51.0 51.8 49.15 52.65 45.75 56.5 43.5 60.6 41.15 66.1 41.15 71.9 41.15 73.75 40.25 76.0 39.2 80.45 37.85 84.85 36.5 86.0 36.5 92.45 36.5 100.55 41.15 107.1 44.95 109.5 48.0 110.2 48.85 110.75 51.4 111.25 53.8 112.25 54.75 112.7 55.15 115.05 56.4 117.15 57.45 118.25 58.75 119.3 60.15 124.25 63.8 128.65 67.6 128.75 71.0 128.75 72.75 130.25 77.15 131.75 81.6 131.75 83.75 131.75 91.4 123.25 94.95 119.0 96.5 117.4 97.35 114.75 98.8 114.75 101.0 114.75 102.3 115.7 104.1 116.7 105.95 116.75 107.0 L116.0 109.25 Q115.25 110.9 115.25 112.25 115.25 113.2 116.55 114.65 L118.75 116.75 Q121.7 117.55 126.55 115.1 132.2 112.25 136.0 112.25 139.05 112.25 139.9 114.75 140.4 116.05 140.5 118.0 L144.0 118.5 Q150.35 124.1 151.55 126.2 152.5 127.9 152.5 132.5 152.5 137.25 151.65 137.95 149.0 138.9 145.5 140.75 145.5 144.5 143.5 150.5 L143.45 150.8 143.25 151.25 147.7 152.2 Q150.65 153.0 152.0 153.0 157.95 153.0 159.95 151.9 163.1 150.2 164.1 150.0 L164.85 146.55 Q165.5 144.6 167.85 143.5 L171.7 143.2 176.85 142.5 183.85 142.5 Q186.65 144.45 189.65 149.15 192.55 153.7 193.85 154.5 L202.6 158.75 Q209.0 162.55 208.35 167.0 210.45 165.95 218.85 163.05 228.7 159.65 231.85 159.5 234.15 161.2 235.0 165.15 235.5 167.4 235.6 172.0 L262.0 173.1 Q264.65 173.6 265.85 174.65 L267.85 177.35 268.95 180.8 Q269.95 183.6 272.1 185.6 274.25 187.55 275.35 193.05 276.55 199.4 277.6 201.1 L280.85 201.35 Q283.6 203.4 284.2 205.35 L284.35 208.25 Q284.35 212.05 280.9 214.35 276.25 217.35 265.85 217.35 L207.15 214.85 142.25 211.6 102.0 211.35 78.9 209.45 53.2 208.0 Q23.5 205.85 22.25 199.85 22.15 193.35 20.65 189.8 18.0 183.55 6.5 178.85 1.45 176.8 -10.1 169.1 -22.1 161.15 -31.0 157.25 -37.25 154.5 -42.4 151.0 L-49.5 145.75 Q-56.4 140.75 -66.5 140.75 -71.15 140.75 -77.0 142.15 -82.9 143.5 -87.0 143.5 -100.75 143.5 -110.6 126.9 -113.2 122.55 -117.15 113.85 -120.5 106.45 -122.0 104.5 -123.55 102.45 -132.7 95.0 -140.4 88.7 -141.5 85.0 L-144.5 75.7 Q-146.5 69.35 -146.5 65.85 -146.5 64.0 -142.65 55.25 L-138.0 45.25 Q-136.2 41.95 -135.15 35.8 L-133.5 25.75 Q-132.0 19.1 -126.4 14.3 -119.3 9.3 -115.75 6.25 -111.9 3.1 -102.5 -3.5 L-99.65 -5.65 Q-97.7 -7.05 -95.5 -8.0 -89.0 -10.7 -75.0 -11.5 L-39.0 -11.5 Q-36.75 -11.1 -35.0 -9.5 -33.4 -8.0 -33.1 -8.0 -32.4 -8.0 -28.35 -9.9 -24.05 -11.9 -21.5 -12.25 -19.75 -12.45 -16.85 -13.3 L-12.75 -14.25 Q4.15 -15.55 14.55 -14.0 20.05 -13.15 25.5 -11.5" fill="#ffffff" fill-rule="evenodd" stroke="none"/>
    <path d="M162.5 175.0 L171.85 169.5 Q184.5 170.7 196.55 174.75 201.9 176.45 204.8 181.2 207.15 185.0 205.6 189.25 203.1 196.1 201.65 201.75 L213.95 197.1 Q218.1 195.45 219.0 191.1 219.2 190.2 220.0 189.95 233.7 184.75 247.9 190.25 257.2 193.8 265.85 198.95 270.7 201.85 269.7 208.0 269.5 209.3 270.2 210.15 L275.35 216.1 Q275.1 221.15 270.3 222.9 255.8 227.85 240.05 228.65 L227.5 230.15 Q210.15 230.25 192.9 229.2 L124.9 225.55 Q49.4 220.85 -25.35 213.6 -30.0 213.15 -33.65 210.5 -34.6 209.8 -34.85 208.75 -37.0 200.4 -40.35 192.2 -42.3 187.5 -45.6 184.1 -60.7 168.45 -78.65 156.15 -97.85 142.9 -116.1 128.35 -119.9 125.3 -124.3 123.0 -134.6 117.75 -144.4 111.65 -145.5 110.9 -145.95 109.8 -152.1 95.3 -155.85 80.0 -157.4 73.8 -159.2 67.6 -162.55 56.15 -160.85 44.6 -157.55 22.3 -148.55 2.2 -146.15 -3.1 -142.2 -6.9 -135.6 -13.25 -127.25 -17.45 L-126.05 -18.1 -101.0 -16.75 -82.75 1.35 -86.5 7.75 Q-82.9 8.55 -79.5 9.8 -71.85 12.85 -73.25 21.15 -73.5 22.8 -73.1 24.5 -72.1 28.75 -68.8 28.85 -68.0 24.2 -65.65 20.3 -64.6 18.6 -62.85 17.5 -56.5 13.65 -49.65 19.0 -47.8 20.45 -45.9 21.35 -38.3 24.95 -40.5 33.25 L-36.0 33.5 -30.0 41.5 -27.6 36.2 Q-26.35 33.75 -24.5 31.7 -14.6 20.8 0.5 18.7 L9.6 19.1 Q16.85 20.85 16.3 28.55 16.15 30.6 16.7 32.5 20.4 45.25 19.15 58.45 19.0 60.2 17.85 61.45 8.0 71.9 -4.5 79.5 -3.75 81.7 -2.55 83.6 -1.9 84.5 -2.0 85.45 -2.6 90.45 -4.4 95.25 L-3.45 96.45 Q2.4 102.7 10.2 105.95 11.8 105.55 12.65 104.0 15.1 99.45 16.15 95.1 L28.5 96.0 Q35.75 86.35 44.1 77.75 45.05 76.75 46.55 76.6 61.9 74.3 77.45 76.25 79.55 76.5 80.75 78.25 82.3 80.55 84.45 82.05 93.2 88.15 97.0 97.8 97.85 99.95 97.85 102.0 97.7 121.6 80.75 132.25 L83.25 133.55 Q85.3 134.8 85.1 137.2 84.6 142.6 89.25 145.0 L99.25 145.0 Q104.95 138.9 112.9 136.95 120.3 135.2 126.65 138.85 128.1 139.6 128.45 140.95 130.5 149.45 129.2 158.45 128.3 164.5 123.3 168.3 119.25 171.4 118.2 173.55 128.4 178.7 139.5 178.85 141.05 173.95 145.75 172.15 152.95 169.45 157.5 175.0 L162.5 175.0 M662.85 -9.1 Q670.05 -6.75 677.25 -7.45 L694.0 -5.75 Q712.15 -10.65 730.7 -14.75 751.35 -19.35 767.65 -6.4 774.45 -1.0 774.45 7.5 774.45 23.0 778.65 37.95 785.6 62.8 778.0 88.05 775.95 94.95 775.0 102.1 773.5 113.05 768.35 122.55 765.15 128.5 759.6 132.25 739.9 145.65 716.25 149.55 703.7 164.25 686.95 173.75 653.35 192.65 614.65 197.5 568.55 203.35 523.85 216.35 499.9 223.15 475.2 225.65 454.0 227.55 433.0 230.35 422.55 231.7 414.1 226.55 412.8 224.05 414.05 221.35 416.3 216.3 419.9 212.2 429.5 201.15 443.25 202.6 L449.8 206.85 453.95 206.2 Q454.3 201.4 450.95 197.75 449.5 196.15 449.8 193.8 451.3 182.65 463.1 180.85 L464.8 178.15 Q467.2 175.1 471.0 174.35 474.8 166.0 483.85 167.5 L484.45 167.8 Q493.85 173.6 504.5 169.95 L511.85 163.25 Q509.85 163.0 508.0 162.1 505.15 160.65 505.5 157.55 L506.0 150.85 Q499.0 141.65 500.55 129.9 502.45 115.25 517.2 112.2 L527.45 111.2 Q543.3 111.0 552.1 123.5 L573.6 123.25 577.6 118.85 Q578.7 118.7 579.65 119.2 580.85 119.9 581.3 121.15 582.3 123.65 584.1 122.8 581.9 116.25 576.75 109.75 572.15 103.9 570.45 96.6 566.9 81.45 577.55 70.0 588.15 58.7 602.25 52.0 606.0 50.15 610.2 49.6 619.55 48.8 626.85 55.25 627.95 48.9 632.3 44.3 634.4 42.15 637.4 42.15 643.5 42.2 649.35 44.5 L639.35 32.15 Q637.5 29.85 637.05 27.1 634.85 12.9 642.75 0.4 648.5 -8.6 659.0 -9.7 L662.85 -9.1" fill="#e5f7ff" fill-rule="evenodd" stroke="none"/>
    <path d="M-117.7 142.3 L-118.25 138.25 -119.75 128.75 -118.75 121.65 -117.75 113.55 Q-119.75 107.6 -119.75 106.1 -119.75 104.45 -118.65 99.75 -117.25 93.7 -115.05 88.5 -108.55 73.0 -98.5 73.0 L-92.15 73.2 -92.0 76.0 -92.4 77.35 -93.0 79.05 -92.75 79.05 -86.1 79.3 Q-80.0 80.0 -80.0 82.5 -80.0 84.2 -80.95 85.65 L-81.75 86.6 Q-77.9 86.35 -74.05 90.4 -70.0 94.65 -70.0 97.0 -70.0 97.95 -71.65 98.95 L-74.7 100.65 -71.15 101.1 Q-69.25 101.35 -68.35 102.3 L-62.55 107.6 Q-60.2 109.55 -60.0 111.0 L-57.25 109.35 Q-54.95 108.2 -54.0 108.0 L-49.0 114.0 Q-49.85 111.85 -48.25 109.65 -46.65 107.4 -43.0 106.0 L-19.0 107.0 -22.9 96.05 -19.0 98.0 -11.0 95.0 -10.6 94.75 -10.55 94.05 Q-10.55 92.85 -11.45 92.3 -12.4 91.65 -12.5 91.05 -7.7 91.4 -5.35 92.15 -0.1 93.8 1.0 98.0 3.7 97.65 5.0 94.2 7.05 88.75 7.6 87.95 8.75 89.55 13.65 92.2 18.2 94.7 19.25 94.75 L22.7 94.7 27.4 94.95 Q30.3 95.35 33.6 101.05 33.6 101.9 33.2 102.0 36.75 101.75 38.95 98.4 40.6 95.0 41.0 95.0 41.85 95.0 43.25 95.55 44.5 96.05 44.95 96.5 47.05 98.5 47.05 101.0 L47.0 103.0 52.0 104.0 52.0 109.0 48.0 115.0 Q49.25 118.15 54.75 123.4 L60.0 128.0 58.0 131.0 63.0 134.0 Q65.4 133.5 68.15 129.55 70.65 125.95 73.8 125.95 76.95 125.95 79.25 127.35 80.95 128.45 83.0 131.0 87.1 131.7 89.2 132.7 91.15 133.65 91.8 135.1 92.7 137.15 95.1 141.0 96.85 144.75 95.95 149.0 95.45 150.0 93.85 154.9 92.7 158.25 90.95 160.0 93.25 163.1 97.35 164.95 100.75 166.45 103.45 166.45 104.05 166.45 104.55 165.9 105.15 165.15 104.95 164.0 L105.75 164.2 Q107.9 164.4 110.9 169.45 113.95 174.55 113.95 178.0 113.95 179.15 111.1 183.1 L108.25 186.9 108.7 187.2 109.95 188.0 110.9 187.3 Q111.4 186.95 112.0 186.95 L112.65 187.1 112.65 187.2 Q112.65 189.7 112.85 190.3 113.15 191.15 114.4 191.15 L117.25 190.8 Q119.1 190.15 119.95 188.0 L120.95 181.0 Q122.1 180.3 125.2 179.35 L128.1 178.6 132.95 179.0 Q133.15 179.0 135.75 180.75 L138.7 182.65 137.95 187.0 142.95 188.0 145.75 184.45 146.3 183.9 Q151.0 184.2 151.9 185.9 152.35 186.75 151.95 188.0 L148.95 193.0 153.0 192.55 152.95 195.0 147.95 202.0 150.6 201.5 153.95 201.0 Q157.35 201.0 160.85 202.45 164.45 203.9 166.95 204.0 L168.95 197.0 173.85 197.3 Q175.35 199.85 177.15 201.15 178.35 202.0 178.95 202.0 181.15 202.0 185.9 198.0 L193.65 200.6 193.95 202.0 197.95 202.0 Q199.2 201.0 202.6 199.45 205.8 198.0 206.35 198.0 207.65 198.0 209.05 199.75 210.5 201.55 210.7 203.85 210.9 205.9 211.25 206.1 L213.7 206.25 215.3 206.3 216.95 206.05 Q217.95 205.75 219.55 206.6 221.9 207.95 224.95 209.0 L223.95 216.0 224.75 217.35 225.8 218.45 Q229.6 222.0 230.45 222.0 233.55 222.0 234.35 220.75 234.8 220.05 234.95 219.0 L232.95 213.0 Q234.15 211.75 236.85 210.15 240.45 208.0 242.95 208.0 L245.7 210.7 Q248.1 213.4 250.4 213.4 L254.8 212.75 Q255.55 212.5 256.05 213.65 L255.95 217.0 Q262.65 216.8 266.8 215.05 L280.95 208.0 288.95 211.0 288.95 227.0 294.05 225.5 Q296.55 224.75 297.1 224.75 298.05 224.75 298.75 225.8 L299.1 225.3 298.45 221.45 Q298.35 219.15 300.8 217.7 305.15 215.05 308.2 214.7 L320.95 215.0 322.55 218.95 Q323.2 220.25 324.5 220.25 L327.9 219.8 Q330.45 219.05 331.0 210.0 332.85 209.15 334.6 208.9 L337.55 208.75 Q338.5 208.75 339.85 209.45 L341.15 210.25 Q343.25 212.75 342.55 214.3 342.25 214.9 345.95 216.0 L347.9 212.5 348.85 210.95 Q350.5 209.15 352.25 208.3 354.5 207.25 357.95 207.0 L362.6 204.35 Q366.6 201.8 371.7 201.8 L374.95 202.0 373.95 207.0 Q377.55 207.55 383.05 209.3 389.45 211.35 390.95 213.0 L396.95 214.0 Q397.8 213.8 398.9 211.75 L400.0 208.95 Q399.95 208.35 402.45 206.6 L404.95 205.0 412.95 206.0 416.95 200.0 423.0 198.6 427.3 197.95 430.95 198.0 436.95 203.0 437.95 211.0 451.95 208.0 Q452.0 205.55 453.2 203.45 L455.3 200.65 455.35 200.85 453.95 205.0 457.95 200.0 469.95 198.0 Q470.15 195.15 473.15 193.35 475.7 191.8 477.95 192.0 L479.9 188.5 Q481.2 186.0 482.95 186.0 484.55 186.0 486.35 187.0 L487.95 188.0 490.05 186.9 Q492.05 185.8 493.6 185.8 495.55 185.8 499.15 182.55 503.0 179.0 505.95 174.0 L515.95 174.0 512.95 167.0 514.85 164.0 520.95 166.0 Q521.05 165.8 522.3 164.9 523.7 163.9 524.4 163.9 525.4 163.9 525.7 165.25 525.95 165.65 526.4 165.85 L529.9 166.9 Q529.5 170.2 528.35 172.7 L528.45 172.9 529.7 173.1 531.95 173.0 530.25 178.05 530.35 179.15 530.75 179.8 531.95 180.15 Q534.65 180.1 534.65 177.1 L534.6 175.0 542.3 173.8 Q545.2 173.4 545.85 171.5 546.85 168.55 552.25 167.45 L558.15 166.55 557.45 164.95 Q556.7 163.6 555.95 163.0 L555.95 157.0 561.95 151.0 567.95 151.0 569.35 149.9 570.5 149.2 Q571.0 149.2 572.2 150.4 L572.2 150.35 Q572.2 149.4 571.6 148.35 570.95 147.25 570.95 145.0 570.95 144.3 571.75 143.6 572.55 142.95 573.4 142.95 L575.95 143.0 Q582.2 139.25 585.6 137.7 L587.7 136.85 590.75 136.35 595.55 134.75 Q597.65 133.95 598.75 131.9 599.5 130.4 599.5 129.05 L599.35 127.95 Q598.7 128.0 597.75 127.0 597.1 126.35 596.8 125.25 L596.55 124.1 Q596.55 123.0 600.25 118.85 603.95 114.7 603.95 112.85 L603.7 111.75 602.95 111.0 602.95 103.0 617.95 102.0 621.95 108.0 Q622.9 107.55 629.95 102.0 L640.95 102.0 650.95 93.0 Q654.7 94.9 660.2 95.65 L664.95 96.0 668.95 100.0 675.95 101.0 677.1 103.45 677.95 106.0 688.95 107.0 Q690.55 108.65 690.65 112.0 690.65 114.45 689.05 115.85 687.4 117.25 687.4 117.7 L689.6 119.95 Q692.7 122.2 697.25 122.2 699.55 122.2 701.0 121.2 702.6 120.05 703.95 117.0 L717.95 114.0 Q719.25 117.5 720.25 117.5 721.25 117.5 720.95 117.0 L720.95 104.0 714.95 100.0 712.95 92.0 715.65 89.6 718.45 87.3 725.95 86.0 731.4 81.55 737.95 80.0 746.95 85.0 761.9 75.15 Q766.45 80.35 767.85 87.45 768.6 91.25 768.6 99.3 768.6 105.85 767.1 113.15 L747.65 107.75 Q741.85 106.2 736.7 106.2 729.25 106.2 725.15 110.5 721.35 114.5 721.35 121.1 721.35 123.95 722.25 125.15 723.1 126.35 723.1 127.5 723.1 128.9 719.85 131.55 716.6 134.2 716.6 135.35 716.6 139.75 720.85 142.15 724.4 144.15 728.35 143.75 L727.45 147.1 Q726.5 149.9 726.35 151.3 L717.95 153.4 713.6 154.0 Q712.6 154.0 711.85 152.9 711.15 151.75 710.85 151.75 708.15 151.75 704.2 153.0 L698.85 154.25 Q698.1 154.25 696.0 152.0 693.85 149.75 693.35 149.75 691.55 149.75 682.9 156.3 673.7 163.25 668.1 164.5 667.8 161.75 669.4 157.05 L671.1 151.6 Q671.1 149.45 669.85 148.5 668.0 147.05 663.1 147.3 662.8 146.7 663.0 144.05 L663.05 139.15 Q662.2 132.75 654.35 132.75 650.05 132.75 648.6 135.4 647.4 139.15 646.05 141.35 L645.85 141.5 Q645.35 140.5 645.15 137.25 644.9 133.25 644.3 130.65 643.65 127.9 641.9 126.25 640.55 125.0 639.35 125.0 630.15 130.55 627.6 131.5 L623.65 132.0 619.7 132.2 Q619.25 132.3 612.45 135.55 610.4 136.5 608.6 138.6 606.85 140.65 606.85 141.75 606.85 144.7 609.2 146.55 610.45 147.55 614.55 149.4 L615.6 149.5 Q614.15 150.45 613.45 152.2 612.7 154.05 612.9 156.25 L605.85 156.7 Q603.1 157.5 603.1 161.85 603.1 163.1 603.75 164.2 604.4 165.25 605.1 165.25 605.55 165.25 610.45 162.65 L613.25 160.65 Q614.25 161.65 615.85 161.95 L622.6 161.75 Q623.9 165.7 625.5 167.3 626.6 168.4 626.6 170.45 L626.35 172.5 Q625.75 173.0 621.95 173.0 618.2 173.0 616.6 175.15 614.9 177.4 611.85 177.55 602.9 178.0 601.9 179.65 601.1 180.95 601.95 186.65 L601.85 189.5 Q590.25 190.5 586.8 191.65 582.85 192.95 582.85 196.25 582.85 197.3 583.85 198.25 584.85 199.15 584.85 200.1 584.85 201.1 583.3 201.45 579.75 202.4 574.95 205.05 L574.1 205.5 574.2 202.7 573.95 199.65 Q573.4 196.4 571.85 195.0 L563.85 195.0 Q561.55 195.85 559.9 198.0 559.1 199.05 552.75 198.8 543.2 198.5 540.25 199.75 539.45 200.05 539.2 201.8 538.85 203.85 537.85 204.95 537.15 205.75 533.75 207.5 529.25 209.85 524.35 211.25 L523.5 208.95 Q522.95 207.35 521.8 206.0 520.85 204.85 520.85 204.55 520.85 202.3 522.1 201.4 523.35 200.45 523.35 199.65 523.35 198.85 522.1 197.75 520.15 196.1 516.4 196.1 513.15 196.1 511.35 203.75 501.75 203.6 498.75 205.15 497.7 205.75 497.15 206.7 L496.35 208.3 495.6 210.9 494.75 213.7 493.1 215.05 Q491.75 216.5 491.6 218.8 490.25 217.55 488.15 217.45 L484.6 217.1 484.35 218.85 Q484.35 222.35 487.4 224.7 488.55 225.6 490.45 226.15 L491.75 226.35 Q491.6 226.8 491.6 227.25 491.6 229.2 496.3 230.15 L501.1 230.75 Q485.45 233.65 482.35 234.8 L473.35 239.75 458.6 239.75 Q458.5 236.45 457.85 234.75 457.0 232.65 455.0 232.85 452.8 233.0 451.8 231.0 450.45 228.25 443.35 228.25 L438.25 228.55 Q434.95 229.0 434.4 229.85 432.2 233.5 431.85 233.5 L426.65 233.85 420.65 234.15 410.7 235.2 Q405.75 236.5 402.85 241.0 400.95 241.15 400.85 237.75 L401.05 232.25 Q401.05 227.65 396.85 226.0 L386.85 226.0 Q381.75 226.85 377.45 229.1 373.35 231.3 372.45 233.35 L371.05 237.0 Q370.05 239.05 367.7 240.0 L364.85 241.0 Q362.4 242.05 359.85 244.1 L360.7 245.45 361.05 245.9 Q361.4 246.45 361.4 247.05 361.4 247.5 361.2 247.25 360.8 246.85 360.35 247.25 360.25 244.75 358.65 242.9 357.0 241.0 354.85 241.0 350.95 241.0 350.0 245.3 349.5 247.55 349.35 250.6 L347.6 250.6 Q349.4 248.8 349.4 247.6 349.4 246.05 346.95 243.7 L343.85 241.0 337.85 241.0 Q335.3 242.2 334.2 242.2 333.3 242.2 332.95 241.5 L332.3 240.0 Q330.75 237.9 323.45 238.3 318.8 238.6 313.7 238.2 L308.85 237.75 Q307.15 237.75 306.4 238.95 305.75 240.0 305.35 242.85 L302.55 242.35 298.85 242.05 298.9 240.85 Q298.9 238.9 296.7 238.15 L290.45 237.25 287.7 236.45 285.35 235.75 Q282.75 235.75 282.55 236.85 L282.35 238.95 281.45 240.85 Q280.75 242.25 280.1 242.25 L276.05 241.6 273.35 240.75 Q274.15 238.9 274.6 233.3 274.6 227.0 269.85 227.0 264.85 227.0 260.8 230.0 255.05 234.3 251.85 235.5 252.05 234.05 251.4 233.15 250.5 232.0 248.35 232.0 246.4 232.0 240.65 236.25 234.85 240.55 234.85 242.25 234.85 243.25 235.85 246.35 232.8 247.35 229.35 245.8 L225.35 243.5 220.9 241.8 216.85 240.5 217.0 236.6 Q217.0 234.1 213.9 234.05 L203.85 234.5 202.35 232.75 Q200.7 231.0 199.35 231.0 198.75 231.0 195.4 232.05 L192.2 233.05 Q191.75 233.65 191.25 234.8 L190.85 236.0 Q190.85 237.55 191.1 238.2 191.65 239.4 193.6 240.5 L191.2 240.7 188.65 240.55 Q186.1 240.55 184.15 242.05 L179.15 246.55 Q177.3 248.2 176.2 248.7 174.0 249.65 170.15 249.65 168.8 249.65 168.05 248.3 167.6 247.45 167.6 246.85 167.6 246.4 171.0 243.15 L175.25 238.9 177.1 235.7 Q177.85 233.95 177.85 233.1 177.85 231.45 177.05 230.95 176.0 230.3 171.85 229.75 172.3 229.15 172.3 228.15 172.3 225.35 167.5 221.05 L160.85 215.0 154.85 215.0 Q151.85 215.65 150.1 218.15 L146.1 224.25 143.95 220.7 Q142.45 218.0 140.35 218.0 L138.55 218.2 138.15 221.95 137.15 230.5 125.1 229.5 Q125.75 228.2 125.75 227.25 125.75 222.25 118.85 217.0 L95.85 217.0 Q92.45 217.55 90.1 223.2 L86.75 231.5 81.0 231.75 Q81.0 228.8 82.55 225.35 83.25 223.75 85.85 219.2 L87.8 215.65 89.0 212.55 Q89.0 210.1 85.05 209.2 80.05 208.5 78.0 207.75 80.3 206.6 84.2 203.75 88.3 200.8 89.9 198.95 92.85 195.65 92.85 193.25 90.0 187.5 90.0 186.85 L91.35 181.4 Q91.35 177.95 86.5 176.8 L80.45 176.15 Q77.85 175.75 74.55 172.75 71.65 170.0 67.0 170.0 58.3 170.0 57.25 173.9 57.0 174.75 56.95 177.8 56.9 180.5 56.2 182.15 L55.75 183.0 Q55.95 180.05 55.1 178.3 54.1 176.25 52.0 176.25 L48.85 176.7 43.75 177.5 Q44.25 176.35 53.0 167.3 61.0 159.0 61.0 156.1 61.0 153.7 58.8 149.05 56.05 143.35 52.4 141.55 50.15 140.45 47.2 140.5 L41.5 140.75 Q40.65 140.75 39.5 139.4 L37.05 136.4 Q33.25 132.0 28.5 132.0 25.9 132.0 21.5 135.6 L17.35 139.4 13.15 140.85 Q8.9 142.5 6.95 144.8 6.55 145.25 6.05 146.85 5.35 148.3 3.8 148.6 L0.05 149.4 Q-1.1 149.9 -1.55 150.95 -2.0 151.95 -2.0 153.75 L-1.1 156.35 0.25 159.75 Q-7.35 162.8 -8.25 162.75 -7.15 160.25 -10.55 159.4 -14.95 158.3 -15.4 157.7 -16.0 155.1 -16.9 153.3 -18.6 149.9 -22.25 150.5 -21.9 149.55 -21.9 148.6 -21.9 147.55 -23.1 146.25 -24.25 145.0 -26.0 144.0 L-32.0 144.0 Q-35.85 146.8 -37.05 149.55 -37.9 151.55 -38.6 151.55 L-40.95 151.85 Q-43.2 152.9 -43.6 153.65 -44.25 154.85 -44.25 159.1 -44.25 162.35 -42.25 165.5 L-43.85 166.05 -45.2 166.25 -47.65 165.4 Q-49.8 164.55 -50.25 164.55 -54.1 164.55 -57.95 169.3 L-63.25 176.0 Q-64.85 174.4 -68.75 171.5 -67.9 170.65 -67.2 169.35 L-66.7 168.05 Q-66.7 167.75 -67.15 166.95 -67.85 165.85 -69.0 165.0 L-75.0 164.75 Q-73.3 163.8 -67.9 154.9 -62.75 146.3 -62.75 145.4 L-63.45 141.6 Q-64.1 137.45 -64.0 133.25 -63.9 127.25 -69.05 123.05 -74.0 119.05 -80.5 119.05 -85.4 119.05 -88.4 121.3 -91.05 123.3 -92.0 126.75 L-94.75 126.45 Q-101.35 126.45 -106.65 129.9 -112.55 133.75 -117.7 142.3" fill="#63ad96" fill-rule="evenodd" stroke="none"/>
    <path d="M-117.7 142.3 Q-112.55 133.75 -106.65 129.9 -101.35 126.45 -94.75 126.45 L-92.0 126.75 Q-91.05 123.3 -88.4 121.3 -85.4 119.05 -80.5 119.05 -74.0 119.05 -69.05 123.05 -63.9 127.25 -64.0 133.25 -64.1 137.45 -63.45 141.6 L-62.75 145.4 Q-62.75 146.3 -67.9 154.9 -73.3 163.8 -75.0 164.75 L-69.0 165.0 Q-67.85 165.85 -67.15 166.95 -66.7 167.75 -66.7 168.05 L-67.2 169.35 Q-67.9 170.65 -68.75 171.5 -64.85 174.4 -63.25 176.0 L-57.95 169.3 Q-54.1 164.55 -50.25 164.55 -49.8 164.55 -47.65 165.4 L-45.2 166.25 -43.85 166.05 -42.25 165.5 Q-44.25 162.35 -44.25 159.1 -44.25 154.85 -43.6 153.65 -43.2 152.9 -40.95 151.85 L-38.6 151.55 Q-37.9 151.55 -37.05 149.55 -35.85 146.8 -32.0 144.0 L-26.0 144.0 Q-24.25 145.0 -23.1 146.25 -21.9 147.55 -21.9 148.6 -21.9 149.55 -22.25 150.5 -18.6 149.9 -16.9 153.3 -16.0 155.1 -15.4 157.7 -14.95 158.3 -10.55 159.4 -7.15 160.25 -8.25 162.75 -7.35 162.8 0.25 159.75 L-1.1 156.35 -2.0 153.75 Q-2.0 151.95 -1.55 150.95 -1.1 149.9 0.05 149.4 L3.8 148.6 Q5.35 148.3 6.05 146.85 6.55 145.25 6.95 144.8 8.9 142.5 13.15 140.85 L17.35 139.4 21.5 135.6 Q25.9 132.0 28.5 132.0 33.25 132.0 37.05 136.4 L39.5 139.4 Q40.65 140.75 41.5 140.75 L47.2 140.5 Q50.15 140.45 52.4 141.55 56.05 143.35 58.8 149.05 61.0 153.7 61.0 156.1 61.0 159.0 53.0 167.3 44.25 176.35 43.75 177.5 L48.85 176.7 52.0 176.25 Q54.1 176.25 55.1 178.3 55.95 180.05 55.75 183.0 L56.2 182.15 Q56.9 180.5 56.95 177.8 57.0 174.75 57.25 173.9 58.3 170.0 67.0 170.0 71.65 170.0 74.55 172.75 77.85 175.75 80.45 176.15 L86.5 176.8 Q91.35 177.95 91.35 181.4 L90.0 186.85 Q90.0 187.5 92.85 193.25 92.85 195.65 89.9 198.95 88.3 200.8 84.2 203.75 80.3 206.6 78.0 207.75 80.05 208.5 85.05 209.2 89.0 210.1 89.0 212.55 L87.8 215.65 85.85 219.2 Q83.25 223.75 82.55 225.35 81.0 228.8 81.0 231.75 L86.75 231.5 90.1 223.2 Q92.45 217.55 95.85 217.0 L118.85 217.0 Q125.75 222.25 125.75 227.25 125.75 228.2 125.1 229.5 L137.15 230.5 138.15 221.95 138.55 218.2 140.35 218.0 Q142.45 218.0 143.95 220.7 L146.1 224.25 150.1 218.15 Q151.85 215.65 154.85 215.0 L160.85 215.0 167.5 221.05 Q172.3 225.35 172.3 228.15 172.3 229.15 171.85 229.75 176.0 230.3 177.05 230.95 177.85 231.45 177.85 233.1 177.85 233.95 177.1 235.7 L175.25 238.9 171.0 243.15 Q167.6 246.4 167.6 246.85 167.6 247.45 168.05 248.3 168.8 249.65 170.15 249.65 174.0 249.65 176.2 248.7 177.3 248.2 179.15 246.55 L184.15 242.05 Q186.1 240.55 188.65 240.55 L191.2 240.7 193.6 240.5 Q191.65 239.4 191.1 238.2 190.85 237.55 190.85 236.0 L191.25 234.8 Q191.75 233.65 192.2 233.05 L195.4 232.05 Q198.75 231.0 199.35 231.0 200.7 231.0 202.35 232.75 L203.85 234.5 213.9 234.05 Q217.0 234.1 217.0 236.6 L216.85 240.5 220.9 241.8 225.35 243.5 229.35 245.8 Q232.8 247.35 235.85 246.35 234.85 243.25 234.85 242.25 234.85 240.55 240.65 236.25 246.4 232.0 248.35 232.0 250.5 232.0 251.4 233.15 252.05 234.05 251.85 235.5 255.05 234.3 260.8 230.0 264.85 227.0 269.85 227.0 274.6 227.0 274.6 233.3 274.15 238.9 273.35 240.75 L276.05 241.6 280.1 242.25 Q280.75 242.25 281.45 240.85 L282.35 238.95 282.55 236.85 Q282.75 235.75 285.35 235.75 L287.7 236.45 290.45 237.25 296.7 238.15 Q298.9 238.9 298.9 240.85 L298.85 242.05 302.55 242.35 305.35 242.85 Q305.75 240.0 306.4 238.95 307.15 237.75 308.85 237.75 L313.7 238.2 Q318.8 238.6 323.45 238.3 330.75 237.9 332.3 240.0 L332.95 241.5 Q333.3 242.2 334.2 242.2 335.3 242.2 337.85 241.0 L343.85 241.0 346.95 243.7 Q349.4 246.05 349.4 247.6 349.4 248.8 347.6 250.6 L349.35 250.6 Q349.5 247.55 350.0 245.3 350.95 241.0 354.85 241.0 357.0 241.0 358.65 242.9 360.25 244.75 360.35 247.25 360.8 246.85 361.2 247.25 361.4 247.5 361.4 247.05 361.4 246.45 361.05 245.9 L360.7 245.45 359.85 244.1 Q362.4 242.05 364.85 241.0 L367.7 240.0 Q370.05 239.05 371.05 237.0 L372.45 233.35 Q373.35 231.3 377.45 229.1 381.75 226.85 386.85 226.0 L396.85 226.0 Q401.05 227.65 401.05 232.25 L400.85 237.75 Q400.95 241.15 402.85 241.0 405.75 236.5 410.7 235.2 L420.65 234.15 426.65 233.85 431.85 233.5 Q432.2 233.5 434.4 229.85 434.95 229.0 438.25 228.55 L443.35 228.25 Q450.45 228.25 451.8 231.0 452.8 233.0 455.0 232.85 457.0 232.65 457.85 234.75 458.5 236.45 458.6 239.75 L473.35 239.75 482.35 234.8 Q485.45 233.65 501.1 230.75 L496.3 230.15 Q491.6 229.2 491.6 227.25 491.6 226.8 491.75 226.35 L490.45 226.15 Q488.55 225.6 487.4 224.7 484.35 222.35 484.35 218.85 L484.6 217.1 488.15 217.45 Q490.25 217.55 491.6 218.8 491.75 216.5 493.1 215.05 L494.75 213.7 495.6 210.9 496.35 208.3 497.15 206.7 Q497.7 205.75 498.75 205.15 501.75 203.6 511.35 203.75 513.15 196.1 516.4 196.1 520.15 196.1 522.1 197.75 523.35 198.85 523.35 199.65 523.35 200.45 522.1 201.4 520.85 202.3 520.85 204.55 520.85 204.85 521.8 206.0 522.95 207.35 523.5 208.95 L524.35 211.25 Q529.25 209.85 533.75 207.5 537.15 205.75 537.85 204.95 538.85 203.85 539.2 201.8 539.45 200.05 540.25 199.75 543.2 198.5 552.75 198.8 559.1 199.05 559.9 198.0 561.55 195.85 563.85 195.0 L571.85 195.0 Q573.4 196.4 573.95 199.65 L574.2 202.7 574.1 205.5 574.95 205.05 Q579.75 202.4 583.3 201.45 584.85 201.1 584.85 200.1 584.85 199.15 583.85 198.25 582.85 197.3 582.85 196.25 582.85 192.95 586.8 191.65 590.25 190.5 601.85 189.5 L601.95 186.65 Q601.1 180.95 601.9 179.65 602.9 178.0 611.85 177.55 614.9 177.4 616.6 175.15 618.2 173.0 621.95 173.0 625.75 173.0 626.35 172.5 L626.6 170.45 Q626.6 168.4 625.5 167.3 623.9 165.7 622.6 161.75 L615.85 161.95 Q614.25 161.65 613.25 160.65 L610.45 162.65 Q605.55 165.25 605.1 165.25 604.4 165.25 603.75 164.2 603.1 163.1 603.1 161.85 603.1 157.5 605.85 156.7 L612.9 156.25 Q612.7 154.05 613.45 152.2 614.15 150.45 615.6 149.5 L614.55 149.4 Q610.45 147.55 609.2 146.55 606.85 144.7 606.85 141.75 606.85 140.65 608.6 138.6 610.4 136.5 612.45 135.55 619.25 132.3 619.7 132.2 L623.65 132.0 627.6 131.5 Q630.15 130.55 639.35 125.0 640.55 125.0 641.9 126.25 643.65 127.9 644.3 130.65 644.9 133.25 645.15 137.25 645.35 140.5 645.85 141.5 L646.05 141.35 Q647.4 139.15 648.6 135.4 650.05 132.75 654.35 132.75 662.2 132.75 663.05 139.15 L663.0 144.05 Q662.8 146.7 663.1 147.3 668.0 147.05 669.85 148.5 671.1 149.45 671.1 151.6 L669.4 157.05 Q667.8 161.75 668.1 164.5 673.7 163.25 682.9 156.3 691.55 149.75 693.35 149.75 693.85 149.75 696.0 152.0 698.1 154.25 698.85 154.25 L704.2 153.0 Q708.15 151.75 710.85 151.75 711.15 151.75 711.85 152.9 712.6 154.0 713.6 154.0 L717.95 153.4 726.35 151.3 Q726.5 149.9 727.45 147.1 L728.35 143.75 Q724.4 144.15 720.85 142.15 716.6 139.75 716.6 135.35 716.6 134.2 719.85 131.55 723.1 128.9 723.1 127.5 723.1 126.35 722.25 125.15 721.35 123.95 721.35 121.1 721.35 114.5 725.15 110.5 729.25 106.2 736.7 106.2 741.85 106.2 747.65 107.75 L767.1 113.15 Q765.8 118.7 762.6 128.95 759.6 139.75 757.55 153.45 755.6 166.2 755.8 183.4 756.05 204.0 755.45 211.5 754.6 221.9 753.3 229.1 751.25 240.1 750.15 248.4 748.5 260.75 746.1 265.05 743.05 270.6 735.85 270.6 L726.25 269.6 717.25 268.55 700.1 267.85 Q668.2 267.85 634.3 270.4 L565.15 276.4 Q555.3 277.25 541.7 280.2 528.75 283.0 515.9 283.9 L458.85 286.6 279.1 286.85 170.0 294.6 114.85 294.6 Q76.65 292.55 48.2 288.95 15.2 284.8 -8.1 278.15 -13.35 276.65 -25.45 274.05 L-53.2 267.75 Q-59.85 266.15 -70.95 262.3 -81.15 258.8 -86.2 257.75 L-94.4 256.4 -102.55 254.65 Q-111.2 251.95 -110.9 245.1 -110.8 243.25 -114.25 217.45 -117.8 190.8 -117.8 179.35 L-117.45 170.9 -117.0 160.95 -116.75 156.9 Q-116.75 152.45 -117.7 142.3" fill="#538a8a" fill-rule="evenodd" stroke="none"/>
    <path d="M414.85 377.1 L408.85 377.85 270.85 377.85 220.35 375.1 127.0 374.85 120.25 374.1 75.0 373.85 Q12.85 368.4 -10.3 356.0 -20.8 350.35 -25.25 342.5 -29.0 335.8 -29.0 326.0 L-29.0 317.2 Q-28.85 314.05 -27.95 311.7 -27.3 309.95 -17.0 292.75 -9.9 281.1 -1.85 275.95 2.65 273.05 9.0 270.75 L-2.0 270.75 Q-4.6 270.1 -5.5 268.75 L-4.15 266.4 Q-3.15 265.0 -2.0 265.25 L30.1 265.3 35.0 264.5 36.7 264.95 37.15 265.35 564.85 266.25 588.1 267.05 594.1 267.5 594.35 268.25 Q592.65 269.1 588.05 269.3 L564.85 269.75 564.35 269.75 569.65 273.05 Q579.85 280.05 581.6 285.0 584.1 291.85 584.65 297.75 584.85 300.15 584.85 309.6 584.85 316.3 584.05 319.05 582.2 325.2 580.85 332.85 578.5 346.85 566.85 356.1 559.45 362.05 543.95 365.55 L523.6 369.1 Q518.8 370.1 484.55 373.3 L444.85 376.85 414.85 377.1 M18.25 272.75 L16.75 272.95 Q16.25 273.15 15.25 273.75 L15.25 274.0 18.25 272.75" fill="url(#gradient0)" fill-rule="evenodd" stroke="none"/>
    <path d="M418.3 291.9 Q408.4 293.1 398.3 291.7 388.0 290.35 380.8 297.25 375.15 302.75 370.35 308.85 369.4 310.05 368.1 310.95 352.65 322.3 333.65 325.75 314.0 329.1 297.2 318.6 292.8 315.85 288.85 312.35 275.65 312.4 265.0 305.7 261.75 303.7 261.2 300.15 260.85 297.9 261.35 295.55 253.7 294.2 246.05 293.4 240.95 293.1 235.85 293.35 L232.45 288.95 218.0 289.15 Q213.7 298.65 203.8 301.45 193.1 304.65 183.85 299.0 182.7 298.25 182.1 296.95 181.35 295.4 181.35 293.6 L177.85 298.15 159.0 296.35 Q156.75 298.75 153.9 300.5 150.9 302.4 147.25 302.85 145.3 307.1 141.6 309.75 139.15 311.55 136.25 311.9 L135.35 312.25 Q129.1 325.3 117.7 333.6 116.9 334.15 115.95 333.9 109.45 332.6 105.05 327.7 100.3 322.4 101.5 315.35 95.0 319.7 94.35 328.35 94.25 329.55 93.1 330.1 88.25 332.3 82.85 332.25 78.85 339.95 72.7 345.9 68.75 349.75 63.45 350.9 47.05 354.5 33.45 344.75 31.85 343.65 30.75 342.1 21.75 329.05 20.95 313.15 L19.0 273.0 Q18.95 271.85 19.7 270.8 20.25 269.95 21.0 269.25 L38.55 270.5 Q39.95 267.05 42.5 265.0 L300.1 265.0 301.75 265.1 325.85 266.15 Q359.15 266.3 392.35 268.9 404.0 269.55 415.75 269.4 L503.1 266.4 514.05 267.35 Q530.55 269.0 547.15 266.7 L565.3 265.0 574.75 265.0 576.0 265.5 Q585.7 270.4 587.95 281.65 589.2 288.05 589.45 294.65 589.95 309.2 582.65 321.3 580.75 324.4 577.55 326.3 566.4 332.8 553.6 335.55 544.55 337.45 536.6 333.05 L535.7 331.25 Q517.25 333.85 500.15 327.4 498.55 326.8 497.2 325.65 490.0 319.35 480.8 316.2 479.15 315.55 478.4 314.3 476.2 310.75 477.85 306.85 462.9 309.05 448.1 306.8 441.95 305.85 440.15 299.9 438.5 294.45 441.1 289.6 L418.3 291.9" fill="#e5f7ff" fill-opacity="0.5019608" fill-rule="evenodd" stroke="none"/>
    <path d="M421.7 283.75 Q416.2 287.25 409.85 286.5 L407.35 283.0 380.2 282.35 375.35 278.0 358.05 276.05 357.9 276.05 Q351.0 282.95 341.1 283.0 334.3 288.8 325.4 290.0 313.6 291.05 303.75 285.65 L295.95 286.35 Q287.0 287.8 280.85 281.5 L273.2 282.35 Q267.45 283.4 264.05 278.75 L235.75 276.7 Q233.1 276.5 231.4 274.75 230.0 273.35 228.05 272.8 L207.9 274.8 203.5 275.5 Q192.45 279.0 181.0 280.9 L178.4 281.35 Q161.2 279.85 144.4 275.6 L139.85 278.25 136.85 278.25 Q129.5 271.05 119.9 275.35 118.45 276.0 118.2 277.6 117.65 280.85 118.2 284.25 118.6 286.45 117.05 287.7 L109.45 293.0 106.15 294.9 Q97.7 300.05 90.25 293.5 88.75 293.65 87.5 294.5 82.25 297.95 76.15 297.1 72.5 296.9 69.0 298.45 61.2 302.1 52.95 303.85 45.3 305.45 40.65 300.45 L41.0 297.9 37.0 296.6 33.95 299.6 Q30.75 297.7 28.35 294.0 27.6 292.8 27.25 291.3 25.85 285.45 27.25 279.75 28.25 279.75 29.05 280.2 29.3 280.25 29.4 280.75 L29.75 290.25 30.0 288.4 Q29.8 279.55 31.9 270.9 32.55 268.25 32.7 265.25 32.95 261.2 34.55 257.75 34.95 256.95 35.7 256.55 79.25 255.25 122.85 256.1 L136.6 256.25 Q171.1 256.15 205.6 260.0 L443.6 260.25 468.8 259.05 475.85 258.95 Q526.2 258.85 576.55 259.2 577.6 260.3 578.25 261.85 581.4 269.7 581.8 278.25 582.5 292.2 568.75 296.15 564.35 297.45 559.9 297.85 549.15 299.0 541.4 291.55 L531.35 291.5 Q524.95 292.1 519.3 289.2 518.45 288.75 517.65 288.65 505.7 285.55 493.55 287.65 L492.85 288.5 Q483.0 288.7 473.2 287.2 471.2 286.8 469.6 285.7 466.6 283.65 465.4 281.9 455.05 286.35 443.95 284.05 L426.1 281.25 421.7 283.75" fill="#538a8a" fill-opacity="0.5019608" fill-rule="evenodd" stroke="none"/>
    <path d="M8.9 329.1 Q19.45 329.6 22.05 331.2 22.75 331.65 23.85 333.35 24.75 334.7 27.0 335.35 L39.5 337.15 Q51.7 339.1 59.0 342.35 L63.55 344.05 64.55 344.05 71.75 344.6 100.0 344.85 Q101.5 345.35 102.75 346.6 120.95 346.3 124.15 346.6 130.2 347.25 130.5 350.75 136.2 348.85 137.75 348.85 150.5 348.5 156.65 349.05 168.8 350.2 169.35 354.6 L170.85 354.4 173.85 353.85 188.85 353.85 191.85 356.6 214.65 358.8 235.85 360.85 Q238.25 361.0 239.75 363.2 L240.65 364.85 252.1 364.35 Q261.95 363.9 262.85 365.15 263.9 366.6 269.35 366.6 276.95 366.6 299.3 363.6 L324.85 360.1 354.85 359.6 370.35 359.05 Q385.0 358.55 392.1 356.85 L396.3 356.45 Q399.85 356.35 407.85 356.6 432.7 357.55 438.1 355.1 L440.95 353.4 Q442.75 352.65 447.35 352.85 L448.75 354.15 450.85 355.6 457.85 355.6 460.85 354.75 467.6 353.85 470.15 355.8 Q473.25 357.6 476.85 357.6 485.3 357.6 492.7 352.65 496.75 350.0 502.35 345.1 L532.3 343.3 553.85 342.6 Q562.2 342.6 568.45 340.35 579.15 336.5 585.35 335.1 L605.1 330.2 Q612.5 328.55 627.95 327.25 615.85 350.85 595.95 371.05 584.05 383.15 565.55 381.5 459.9 372.8 353.9 378.6 236.1 384.5 118.5 385.8 34.6 386.7 -48.0 374.95 L-48.0 338.2 -30.85 337.35 -27.9 337.8 -26.25 337.85 -26.25 336.35 -27.5 334.85 -30.5 334.35 -29.0 334.1 -18.55 331.05 Q-10.6 328.85 -3.0 328.85 L4.9 328.95 8.9 329.1" fill="#59a677" fill-rule="evenodd" stroke="none"/>
    <path d="M627.95 327.25 Q612.5 328.55 605.1 330.2 L585.35 335.1 Q579.15 336.5 568.45 340.35 562.2 342.6 553.85 342.6 L532.3 343.3 502.35 345.1 Q496.75 350.0 492.7 352.65 485.3 357.6 476.85 357.6 473.25 357.6 470.15 355.8 L467.6 353.85 460.85 354.75 457.85 355.6 450.85 355.6 448.75 354.15 447.35 352.85 Q442.75 352.65 440.95 353.4 L438.1 355.1 Q432.7 357.55 407.85 356.6 399.85 356.35 396.3 356.45 L392.1 356.85 Q385.0 358.55 370.35 359.05 L354.85 359.6 324.85 360.1 299.3 363.6 Q276.95 366.6 269.35 366.6 263.9 366.6 262.85 365.15 261.95 363.9 252.1 364.35 L240.65 364.85 239.75 363.2 Q238.25 361.0 235.85 360.85 L214.65 358.8 191.85 356.6 188.85 353.85 173.85 353.85 170.85 354.4 169.35 354.6 Q168.8 350.2 156.65 349.05 150.5 348.5 137.75 348.85 136.2 348.85 130.5 350.75 130.2 347.25 124.15 346.6 120.95 346.3 102.75 346.6 101.5 345.35 100.0 344.85 L71.75 344.6 64.55 344.05 63.55 344.05 59.0 342.35 Q51.7 339.1 39.5 337.15 L27.0 335.35 Q24.75 334.7 23.85 333.35 22.75 331.65 22.05 331.2 19.45 329.6 8.9 329.1 15.65 329.1 22.3 327.45 L23.75 327.15 Q33.6 325.15 39.0 332.35 40.1 333.75 41.0 335.6 L48.6 334.3 Q58.9 333.1 69.15 335.0 72.25 335.6 74.8 337.4 L76.5 338.6 Q107.5 337.4 137.3 341.6 L180.4 346.05 Q214.3 348.3 248.0 353.35 290.85 359.7 332.95 353.7 382.65 353.0 431.7 344.3 436.2 343.55 441.0 344.25 491.25 346.55 538.1 328.8 581.65 312.25 628.1 317.85 L630.95 321.05 630.75 321.5 627.95 327.25 M4.9 328.95 L-3.0 328.85 Q-10.6 328.85 -18.55 331.05 L-29.0 334.1 -30.5 334.35 -27.5 334.85 -26.25 336.35 -26.25 337.85 -27.9 337.8 -30.85 337.35 -48.0 338.2 -48.0 328.95 -46.1 328.65 Q-40.3 327.55 -34.4 327.8 L-26.2 328.4 -14.2 327.9 -14.05 327.8 Q-8.95 326.5 -2.55 327.9 L4.9 328.95" fill="#6bb672" fill-rule="evenodd" stroke="none"/>
    <path d="M754.95 468.4 L754.95 490.05 -116.0 489.6 -116.0 468.4 754.95 468.4" fill="#bbaaaa" fill-rule="evenodd" stroke="none"/>
    <path d="M754.95 468.4 L-116.0 468.4 -116.0 357.9 -115.0 356.9 Q-114.3 357.65 -113.8 359.05 L-113.9 358.7 629.85 358.7 754.95 359.8 754.95 468.4" fill="#d2c6c6" fill-rule="evenodd" stroke="none"/>
    <path d="M717.85 394.25 Q719.65 395.85 724.1 397.75 726.85 398.95 726.85 401.05 726.85 403.0 719.65 406.35 L712.35 409.4 Q712.0 409.4 698.85 397.85 698.85 395.95 700.5 395.3 704.4 393.7 717.85 394.25 M727.25 365.5 Q727.75 365.2 728.85 365.15 L738.35 365.85 Q744.45 366.2 746.35 367.35 747.25 367.8 747.85 371.2 L749.55 372.35 Q751.25 373.35 751.6 374.5 L749.6 377.2 Q747.0 379.4 741.85 379.7 L736.85 379.7 Q726.35 372.65 726.35 367.6 726.35 365.85 727.25 365.5 M744.35 456.35 Q740.8 456.35 737.85 454.2 735.35 452.4 735.35 451.15 735.35 445.9 744.85 446.75 747.6 449.75 747.6 451.4 L747.45 453.9 747.1 455.55 746.5 455.95 744.35 456.35 M666.35 439.2 Q666.35 441.95 666.1 441.25 L665.5 441.7 663.35 442.05 Q659.6 442.05 658.6 439.6 L658.35 437.15 Q658.35 430.7 665.5 430.8 668.3 430.8 670.35 432.15 672.6 433.55 672.6 435.65 672.6 436.7 672.0 437.75 671.05 439.25 669.1 439.6 668.65 439.1 668.55 438.0 L668.6 436.6 667.85 436.6 665.1 437.15 666.0 437.45 Q666.35 437.55 666.35 439.2 M495.85 372.55 L516.5 372.25 516.0 373.1 Q515.2 374.1 516.1 375.3 L519.85 375.6 Q521.55 375.95 522.8 378.15 523.85 380.15 523.85 381.9 L523.2 383.75 Q522.3 385.4 520.85 386.3 L500.85 386.3 Q496.35 385.75 494.3 384.0 492.85 382.8 492.85 381.35 492.85 380.0 493.95 376.65 495.1 373.15 495.85 372.55 M599.85 381.6 L612.5 380.95 Q620.2 381.4 625.1 383.35 630.85 385.6 630.85 389.3 630.85 391.8 628.5 392.75 625.65 393.9 611.85 396.45 L605.85 396.45 Q604.0 395.4 602.0 391.8 600.25 388.65 595.1 386.85 L594.4 386.35 Q594.1 386.05 594.1 384.4 594.1 382.55 599.85 381.6 M617.85 388.2 L607.1 389.05 618.85 388.2 617.85 388.2 M91.2 387.55 Q90.5 387.0 90.5 385.2 90.5 380.25 94.75 377.0 98.5 374.2 104.2 373.45 109.55 372.75 113.6 374.1 117.85 375.65 117.85 378.75 117.85 380.9 115.55 383.6 113.4 386.2 111.85 386.3 L103.75 387.1 93.0 388.2 91.2 387.55 M152.85 462.4 Q152.85 463.25 152.35 464.4 151.55 466.25 149.85 467.9 L128.85 467.6 126.7 465.5 126.1 464.6 Q126.1 463.4 127.9 459.8 130.3 454.85 133.85 452.5 L140.7 453.4 Q144.85 453.8 148.85 453.6 152.85 455.1 152.85 462.4 M41.4 436.5 Q40.55 438.75 39.0 439.3 36.6 440.3 18.0 442.35 L15.45 442.05 14.75 441.8 14.5 441.1 Q14.25 440.55 14.25 438.95 14.25 438.3 15.5 436.05 17.15 433.05 19.6 430.8 27.2 423.95 39.0 427.25 42.0 430.4 42.0 433.15 42.0 434.8 41.4 436.5 M577.55 433.7 Q578.85 435.55 578.85 436.05 L578.6 441.8 Q578.6 442.8 577.35 444.0 L561.85 444.8 555.85 444.8 Q555.3 444.75 552.8 440.65 550.35 436.5 550.35 435.65 550.35 433.95 550.5 433.15 L550.6 432.75 574.85 430.55 Q576.25 431.85 577.55 433.7 M526.65 427.25 Q526.05 430.25 523.35 430.25 L519.4 429.95 505.85 429.15 Q503.2 426.7 502.45 423.05 502.1 421.5 502.1 418.35 502.1 415.2 503.8 415.0 L514.85 415.7 Q517.25 416.9 523.65 418.45 526.85 419.2 526.85 421.9 526.85 426.35 526.65 427.25 M341.35 428.05 Q340.6 429.3 339.3 429.95 337.9 430.6 335.35 430.8 L328.85 429.7 Q327.6 429.25 327.15 428.6 326.6 427.8 326.6 425.85 326.6 423.45 327.9 422.9 L331.35 422.55 334.65 422.85 333.6 425.6 337.85 425.85 Q340.65 426.9 341.35 428.05 M343.7 462.15 L343.1 461.3 Q343.1 457.0 345.1 453.05 348.85 451.05 350.9 448.85 351.8 448.3 355.35 450.85 L360.35 450.25 366.85 449.2 Q369.85 452.35 369.85 452.7 369.85 455.75 368.9 459.1 367.7 463.25 365.85 464.35 L345.85 464.35 343.7 462.15 M-65.25 372.6 L-53.0 371.2 Q-50.8 372.35 -49.15 374.15 L-48.3 374.45 Q-47.55 374.8 -47.5 376.35 -47.0 377.25 -47.0 377.95 -47.0 379.85 -48.7 380.5 L-49.1 380.6 Q-50.1 382.0 -51.75 383.6 -53.85 385.65 -56.0 387.1 L-61.6 386.2 -66.2 385.2 -73.0 385.2 -74.65 383.9 -77.05 383.6 Q-81.7 382.85 -84.5 380.8 -84.55 378.0 -76.5 373.7 -68.4 369.45 -65.75 370.9 L-65.25 372.55 -65.25 372.6 M-6.25 407.45 Q-6.25 409.2 -7.95 411.4 L-11.25 415.7 Q-12.0 416.9 -11.95 418.1 -11.95 419.0 -12.3 419.15 L-25.5 419.25 -41.0 419.0 Q-42.45 418.45 -42.8 418.1 -43.5 417.4 -43.5 415.6 -43.5 413.75 -41.0 410.75 L-37.0 406.35 Q-33.95 402.55 -31.0 401.95 -30.2 402.15 -29.3 403.1 L-28.0 404.7 Q-24.7 405.05 -21.25 407.2 L-13.85 405.4 Q-10.7 404.45 -9.5 404.45 -7.0 404.45 -6.75 405.0 L-6.5 405.5 Q-6.25 405.85 -6.25 407.45 M-35.75 413.2 Q-33.75 412.95 -33.0 412.15 L-33.5 411.3 Q-34.0 411.3 -35.0 412.4 L-35.75 413.2 M-82.0 450.3 Q-79.0 453.35 -79.0 453.8 -79.0 454.85 -82.45 458.6 -85.6 462.05 -87.0 462.95 L-102.0 462.95 -103.8 462.3 Q-104.5 461.75 -104.5 459.95 -104.5 457.75 -102.0 454.2 -99.65 450.85 -96.55 448.4 -93.25 445.8 -91.2 445.9 -88.8 446.1 -89.0 450.05 L-82.0 450.3" fill="#d9d0d0" fill-rule="evenodd" stroke="none"/>
    <path d="M682.35 378.75 Q683.4 379.45 686.1 383.0 688.65 386.35 689.35 387.85 706.9 388.3 707.35 389.2 L700.85 389.75 688.35 389.5 Q688.05 388.4 685.45 384.45 682.8 380.4 682.35 378.75 M719.1 365.6 Q720.35 369.05 727.8 375.5 736.0 382.5 737.1 384.25 L736.85 384.8 726.7 376.5 Q718.1 369.2 718.1 368.05 718.1 366.35 718.25 365.9 L718.35 365.6 719.1 365.6 M691.1 393.05 L697.35 398.0 Q697.35 398.85 696.35 399.1 695.75 398.15 693.35 396.05 690.9 393.85 690.35 393.05 L691.1 393.05 M742.35 400.2 L741.85 400.75 Q740.35 401.85 737.85 401.85 732.45 401.85 732.1 400.75 L732.3 400.3 Q732.65 399.8 733.1 399.65 L738.85 399.65 738.85 399.1 740.5 399.3 Q742.2 399.7 742.35 400.2 M756.35 458.3 L755.85 458.55 750.35 458.3 750.35 456.65 Q750.65 456.45 752.05 456.95 L756.35 458.3 M702.5 429.65 L700.85 427.15 701.45 426.65 701.85 426.3 Q702.9 426.4 704.2 428.3 705.6 430.4 705.85 432.9 L728.6 434.25 Q728.6 435.55 727.85 435.9 L725.25 436.7 722.85 437.0 720.35 436.45 720.4 436.15 720.85 435.65 724.85 435.1 Q718.9 435.4 712.45 436.7 L705.85 437.85 696.65 437.6 689.35 436.75 703.85 436.75 703.85 431.25 702.5 429.65 M671.85 404.3 L672.5 404.7 Q673.2 405.2 673.35 405.7 L672.85 406.25 664.85 406.25 Q660.35 405.95 660.1 405.15 L660.75 404.8 Q661.7 404.4 663.1 404.05 L662.25 402.3 Q661.5 400.9 661.35 399.95 L662.1 399.65 Q663.65 402.5 664.4 403.05 665.45 403.75 668.75 403.75 671.25 403.75 671.85 404.3 M683.85 470.1 L682.85 470.65 Q682.55 470.4 682.7 470.2 683.1 469.55 683.1 468.05 683.1 466.9 677.35 457.2 671.75 447.75 670.35 446.2 670.35 445.85 670.6 445.7 L670.85 445.35 Q673.4 446.9 679.2 456.9 684.6 466.3 684.6 467.6 684.6 469.35 684.4 469.6 L683.85 470.1 M663.45 455.95 Q663.75 456.9 664.35 456.9 664.35 457.75 663.85 458.3 662.35 456.9 662.35 454.45 L663.1 454.45 663.45 455.95 M650.6 447.55 L642.8 446.85 Q634.65 446.25 624.35 446.75 L624.1 445.65 625.6 445.3 633.85 444.55 Q635.0 444.1 636.1 443.6 635.05 441.85 633.2 437.35 631.55 433.45 630.35 431.8 L630.35 431.5 Q632.7 432.5 634.65 436.95 L637.6 443.9 Q639.95 444.05 645.25 445.4 650.9 446.85 654.35 447.3 L650.6 447.55 M404.6 388.7 L404.85 388.4 413.9 389.65 423.6 391.4 423.6 392.25 Q423.8 392.55 423.65 392.95 423.45 393.5 422.4 393.6 423.25 393.5 422.8 393.0 L422.1 392.25 Q420.9 391.5 412.8 390.3 L404.35 389.2 Q404.35 388.9 404.6 388.7 M432.1 366.7 Q433.8 371.3 437.35 383.2 440.65 394.3 441.25 397.75 L441.85 396.9 Q446.1 397.45 446.35 398.0 L445.85 398.3 441.35 399.1 441.3 400.8 441.1 401.3 440.35 401.3 Q439.45 395.15 436.15 383.5 L431.35 366.7 432.1 366.7 M441.0 368.85 Q443.2 369.1 443.35 369.45 L439.35 370.55 438.35 369.15 438.6 368.9 438.85 368.6 441.0 368.85 M520.1 368.9 Q521.9 370.0 524.25 373.55 526.6 377.05 527.35 379.85 L526.85 380.4 524.0 375.5 Q521.7 371.3 519.35 369.15 L520.1 368.9 M502.9 380.6 L504.35 384.0 Q505.3 385.35 506.45 385.65 L508.85 385.65 Q517.75 384.95 519.15 385.9 L520.25 387.0 Q521.15 387.75 523.35 388.1 L522.85 388.65 517.8 388.3 507.85 388.95 Q505.6 388.3 503.05 387.8 L488.85 386.45 488.1 386.35 488.65 387.45 490.6 392.8 490.25 393.95 Q490.0 394.55 489.35 394.7 L487.15 389.2 486.7 388.2 486.85 384.2 487.65 385.6 489.85 385.9 503.1 385.65 501.4 381.6 Q500.1 378.6 500.1 377.65 501.85 378.2 502.9 380.6 M579.1 378.75 L584.0 378.5 588.85 379.05 594.85 378.75 593.15 375.1 Q592.35 373.0 592.35 371.35 L593.1 371.1 Q593.85 373.55 596.35 379.05 600.0 379.4 602.3 380.1 L606.35 381.5 605.85 381.8 Q602.35 381.8 601.85 381.25 L591.55 380.9 580.85 380.15 Q579.35 379.6 579.1 378.75 M613.6 363.45 L613.85 363.1 Q619.75 366.9 624.45 372.3 627.65 375.9 629.45 379.4 L627.7 379.8 622.8 373.75 Q616.95 366.45 613.35 363.95 613.35 363.6 613.6 363.45 M634.35 390.85 L635.1 390.85 Q636.95 392.2 638.9 394.95 641.85 397.25 651.35 398.0 640.95 398.2 638.05 395.4 L636.35 393.0 Q635.5 391.5 634.35 390.85 M23.5 363.95 Q19.6 363.6 17.55 365.5 16.5 366.4 16.0 367.5 L14.5 367.25 Q17.05 364.25 19.0 363.1 L21.15 363.35 Q23.35 363.6 23.5 363.95 M3.0 376.85 Q4.95 374.15 6.25 374.4 5.3 375.9 4.45 378.1 L3.0 381.8 Q6.25 381.8 6.25 380.95 L6.8 380.9 Q7.35 381.05 7.5 381.5 6.75 382.8 6.0 383.15 4.65 383.5 3.95 383.95 L3.0 384.55 Q1.75 384.5 1.45 384.25 1.0 384.0 1.0 382.2 1.0 379.65 3.0 376.85 M33.25 386.45 Q36.3 385.9 42.55 383.9 L50.5 384.55 49.5 385.35 Q45.1 385.85 41.9 386.8 L39.0 387.85 Q33.5 387.3 33.25 386.45 M51.5 378.75 L55.65 372.9 Q58.2 369.4 59.25 368.9 59.1 370.35 56.1 374.45 53.45 378.0 52.0 379.3 L51.5 378.75 M65.5 386.45 L65.25 385.95 Q65.0 385.6 65.0 384.0 65.0 382.05 66.45 380.15 68.25 377.8 71.0 377.95 70.35 378.45 68.8 380.8 67.25 383.15 67.25 383.7 67.25 383.9 68.2 384.7 L70.5 387.0 68.75 386.95 65.5 386.45 M89.0 390.05 Q86.5 389.75 86.0 388.95 L86.5 388.1 Q94.2 385.3 102.85 384.75 107.15 384.5 115.0 384.8 116.0 383.95 116.95 382.0 L118.45 378.95 Q120.2 375.8 123.0 377.95 120.35 380.2 118.4 384.55 116.55 388.6 116.75 391.15 L116.0 391.7 Q115.25 391.15 115.25 388.1 L115.25 387.85 107.0 387.85 94.8 388.95 Q89.0 389.65 89.0 390.05 M153.35 369.0 L151.1 375.85 148.35 383.45 147.35 383.7 Q149.05 377.4 149.9 374.6 151.4 369.75 153.1 367.8 L153.35 369.0 M124.8 386.45 L120.5 387.0 Q120.9 385.7 122.0 385.1 L125.15 385.3 Q128.35 385.6 128.5 385.9 L124.8 386.45 M187.35 381.1 L185.6 385.65 184.35 385.9 187.1 379.85 187.35 381.1 M314.85 475.05 L313.35 474.75 Q315.4 473.1 316.45 472.45 318.45 471.25 317.1 473.65 316.1 473.65 314.85 475.05 M187.55 448.85 Q184.5 447.95 180.35 447.3 180.35 446.95 180.6 446.8 L180.85 446.45 Q187.85 446.8 190.1 448.65 L190.1 449.5 187.55 448.85 M173.85 461.3 Q177.9 452.4 178.35 447.85 L179.1 447.85 179.6 451.15 Q177.7 457.5 178.35 461.6 L176.1 461.85 Q174.2 461.85 173.85 461.3 M143.35 405.15 L144.1 405.15 144.35 409.25 Q144.35 411.25 139.1 432.5 133.45 455.6 130.5 462.7 L129.5 462.95 129.25 461.75 Q130.45 457.2 134.1 447.2 137.45 438.05 138.5 433.3 L139.35 426.6 Q139.85 422.05 140.6 419.45 L142.7 412.9 Q143.9 408.35 143.35 405.15 M139.85 405.95 Q140.7 406.15 141.2 407.15 141.6 407.85 141.6 408.45 L136.85 408.7 133.6 408.6 132.25 408.45 130.5 407.9 Q131.3 406.6 139.85 406.25 L139.85 405.95 M141.25 439.5 Q141.45 438.6 142.75 437.45 L144.0 436.05 150.6 436.4 Q154.2 436.85 154.35 437.4 L154.35 438.25 150.25 438.35 143.75 438.25 142.9 439.5 142.25 440.7 141.5 440.7 141.25 439.5 M120.8 446.8 Q129.65 446.45 131.0 447.0 130.5 447.85 130.5 449.5 130.5 450.3 129.5 450.6 L129.25 448.4 125.4 449.15 120.0 449.5 115.45 449.3 112.0 448.95 Q109.5 448.4 109.5 447.55 L120.8 446.8 M41.0 414.75 Q42.75 414.5 45.95 412.95 L60.5 413.4 53.05 414.3 Q45.35 415.2 43.0 415.85 L40.5 415.6 40.55 415.25 41.0 414.75 M32.5 406.8 Q34.2 403.65 37.15 399.7 40.25 395.55 41.25 395.25 L37.65 400.55 33.25 406.8 32.5 406.8 M17.5 434.8 Q13.5 442.75 6.65 452.9 0.5 462.05 -6.0 470.35 L-6.5 469.8 6.2 451.25 Q13.55 440.3 16.5 433.55 L17.25 433.55 17.5 434.8 M19.75 441.7 Q22.65 441.5 32.0 441.5 34.25 442.35 34.5 442.9 27.65 445.25 24.6 444.4 21.65 443.55 15.0 445.9 13.5 445.65 13.0 444.8 13.0 444.0 13.15 443.6 13.35 443.0 14.0 442.6 L18.0 442.05 Q18.0 441.8 19.75 441.7 M23.25 423.65 L20.75 429.45 19.5 429.7 21.2 426.5 Q22.2 424.6 23.25 423.65 M68.75 455.0 L68.75 455.8 68.6 455.95 67.25 455.8 60.25 456.1 Q59.7 456.75 58.15 460.0 56.3 463.35 54.0 464.85 L53.5 464.35 Q55.25 462.9 57.4 458.95 L60.0 453.9 64.2 454.1 Q68.45 454.5 68.75 455.0 M646.8 410.8 L645.55 409.6 645.8 407.75 646.8 410.8 M619.3 436.95 L619.5 436.75 621.2 439.45 619.35 438.95 619.1 437.3 619.3 436.95 M580.85 405.95 L584.95 406.2 Q587.2 406.4 587.35 406.8 L583.05 407.75 Q578.6 408.6 576.85 409.25 L572.35 409.0 Q572.35 408.0 570.8 404.7 569.3 401.45 569.35 400.75 L570.1 400.75 572.25 404.45 Q573.35 406.5 573.35 407.9 575.3 407.75 577.55 406.85 579.65 405.95 580.85 405.95 M615.15 457.85 Q617.35 458.9 620.85 459.65 L621.1 460.5 614.75 458.4 Q609.6 456.75 607.35 458.3 607.35 456.65 607.85 456.35 613.7 457.2 615.15 457.85 M546.1 430.25 Q546.7 432.35 554.25 449.45 L561.6 466.15 561.35 468.15 561.1 468.15 559.3 468.6 557.35 469.25 Q557.35 468.8 558.3 467.6 L559.6 465.95 551.2 448.3 Q546.25 437.2 545.35 430.55 L546.1 430.25 M564.85 432.9 L564.6 434.05 Q564.4 434.55 562.85 434.55 L552.35 434.25 552.1 434.6 Q551.85 434.6 551.85 432.9 551.85 431.25 552.05 431.45 L552.85 432.05 552.85 431.8 558.65 432.0 Q564.55 432.4 564.85 432.9 M513.1 441.25 Q513.7 441.9 515.9 446.25 518.35 451.2 518.35 452.8 518.35 453.35 517.1 454.65 L513.85 457.45 510.6 457.25 Q507.35 456.85 507.35 456.35 L514.1 455.8 517.35 452.5 Q514.1 444.15 512.35 441.25 L513.1 441.25 M521.35 451.95 L528.85 451.4 528.85 450.85 530.0 451.1 Q531.2 451.35 531.35 451.7 L530.35 452.45 Q529.4 453.05 527.85 453.05 L523.65 452.85 Q521.35 452.5 521.35 451.95 M462.6 431.4 L462.85 431.1 471.0 431.25 471.1 430.8 471.75 431.25 483.35 431.9 Q483.0 432.15 472.65 432.0 L472.45 431.85 475.05 434.75 Q478.2 438.7 478.6 442.35 L478.3 442.7 477.85 443.15 476.35 442.9 476.6 441.95 476.85 439.6 473.85 436.8 Q471.1 434.05 470.9 432.0 L462.35 431.9 Q462.35 431.6 462.6 431.4 M475.5 444.3 Q477.2 444.75 477.35 445.1 L472.95 445.55 463.85 447.0 Q460.95 447.75 460.25 449.1 459.75 450.05 457.85 450.05 L458.05 450.65 459.85 457.6 459.1 460.5 Q456.1 455.0 451.5 441.5 446.6 427.2 444.35 422.55 L445.1 422.55 Q450.0 430.55 454.15 440.3 L456.45 446.1 457.3 448.45 457.15 447.95 458.4 446.3 460.85 443.7 466.25 443.75 473.85 444.0 475.5 444.3 M422.35 457.2 L419.5 457.15 410.1 456.1 406.6 456.35 406.85 462.95 406.65 465.3 406.1 466.25 405.35 466.25 403.9 461.8 Q402.85 458.8 402.85 457.2 402.85 455.65 403.75 454.7 404.75 453.65 404.85 453.05 L404.4 452.35 Q403.85 451.8 403.85 450.2 403.85 448.7 404.1 447.5 L404.35 445.65 405.1 445.65 406.85 453.05 411.7 454.25 419.35 455.25 421.15 456.15 Q422.2 456.7 422.35 457.2 M336.35 432.45 Q344.35 434.3 346.85 433.3 L347.5 433.5 348.35 434.1 348.1 434.25 348.4 434.55 348.2 435.9 349.25 438.7 350.35 442.35 349.85 442.9 Q348.8 441.3 348.05 439.1 347.35 437.05 347.35 435.75 L347.9 435.75 348.05 436.05 347.5 434.6 347.55 434.55 346.35 435.15 Q344.45 436.05 342.85 436.05 L337.6 435.25 Q334.25 434.55 333.85 434.1 323.35 433.55 322.85 432.75 L324.5 432.25 334.35 431.1 333.25 428.45 Q332.35 426.5 332.35 424.95 L332.35 423.65 333.1 423.65 334.2 428.0 Q335.2 431.2 336.35 432.45 M346.3 460.4 L346.35 462.4 Q346.35 464.8 344.7 467.4 342.9 470.2 339.85 471.75 L339.1 472.5 Q338.35 472.9 338.35 471.2 340.1 471.35 341.85 470.3 345.35 468.25 345.35 459.95 L346.1 459.95 346.3 460.4 M353.15 465.9 Q354.55 466.3 354.85 466.8 L354.35 467.6 350.1 468.7 349.35 467.9 350.9 466.6 351.85 465.7 353.15 465.9 M-106.5 389.2 Q-106.5 388.65 -106.0 388.4 -101.4 387.65 -95.75 385.05 L-89.0 381.5 -86.75 381.8 -86.5 383.0 -90.5 388.1 -81.0 387.3 -78.85 387.5 Q-76.65 387.8 -76.5 388.1 L-80.55 389.05 -91.0 390.6 -93.5 390.3 Q-91.35 386.4 -88.5 383.7 -88.85 383.7 -95.85 386.5 L-103.0 389.5 -106.5 389.2 M-100.5 379.3 Q-98.5 377.5 -94.7 376.55 L-89.5 376.05 -93.8 377.35 -100.5 379.3 M-57.5 389.2 L-43.75 374.85 Q-35.65 366.8 -29.75 363.1 L-29.5 364.3 Q-31.8 366.2 -42.6 376.65 -51.65 385.3 -57.5 389.2 M-16.5 391.8 L-19.2 396.05 Q-21.15 399.25 -22.5 400.5 L-24.35 399.5 Q-24.9 399.1 -26.35 399.1 -27.6 399.1 -31.65 400.35 L-33.55 400.9 Q-32.6 401.2 -32.5 401.6 -34.6 402.55 -37.85 405.65 -40.8 408.5 -42.75 411.2 L-43.5 411.2 Q-43.05 408.85 -39.9 404.7 L-37.25 401.6 -43.5 401.3 -43.75 400.05 -42.95 398.1 Q-42.55 396.95 -42.0 396.65 -25.0 396.65 -23.1 396.9 -21.2 396.9 -19.55 394.15 -17.65 391.05 -16.75 390.6 L-16.5 391.8 M-33.0 399.1 L-41.25 399.1 -42.25 400.2 -35.0 399.4 -33.0 399.1 M-25.15 443.4 L-27.0 443.45 Q-30.25 443.45 -31.0 442.6 -42.5 442.25 -42.5 440.95 L-27.0 441.8 -24.5 441.5 -21.75 440.75 Q-18.05 439.45 -14.8 436.4 -10.55 431.35 -10.0 431.1 L-8.85 431.3 Q-7.65 431.6 -7.5 431.9 L-10.25 432.75 Q-12.25 436.4 -15.45 439.1 -18.8 441.95 -22.7 442.95 L-25.15 443.4 M-65.75 399.65 L-81.35 421.05 Q-91.5 435.0 -98.0 442.9 L-98.5 442.35 -79.8 416.8 Q-68.1 400.9 -65.75 399.65 M-79.7 459.3 Q-82.0 462.05 -84.5 463.8 -77.35 454.65 -76.75 454.45 -77.5 456.65 -79.7 459.3 M-42.6 464.4 L-42.75 462.4 -40.1 459.25 -36.0 455.15 -34.35 455.35 Q-32.65 455.7 -32.5 456.1 L-33.15 456.4 -36.25 457.2 -38.95 460.55 Q-40.65 462.55 -40.5 464.6 L-40.95 464.8 -42.5 464.85 -42.6 464.4" fill="#bbaaaa" fill-rule="evenodd" stroke="none"/>
    <path d="M678.85 381.1 L680.7 382.1 Q682.3 383.3 682.6 384.4 680.85 386.35 677.05 388.35 673.1 390.4 670.85 390.4 663.7 390.4 661.5 387.6 660.8 386.7 660.55 385.35 L660.35 383.85 Q665.0 381.1 678.85 381.1 M696.8 430.6 L697.6 431.65 Q697.6 433.1 695.15 435.35 L690.85 439.05 683.85 439.05 Q680.3 439.05 678.4 436.9 677.1 435.4 677.1 434.1 677.1 427.45 694.85 428.6 L696.8 430.6 M658.1 470.1 L647.85 470.1 642.65 466.7 640.8 466.7 640.55 465.7 Q639.1 460.3 639.1 459.0 639.1 457.0 639.25 456.7 639.65 455.75 641.55 455.35 645.4 454.6 663.85 455.55 665.15 456.5 665.4 457.2 665.6 457.75 665.6 459.8 665.6 460.65 667.6 463.1 669.4 465.3 669.6 466.5 L658.15 466.6 658.85 467.9 658.1 470.1 M368.85 378.9 Q368.35 379.7 365.85 380.25 363.6 379.95 363.6 378.35 364.35 377.5 365.85 377.5 L367.15 377.9 Q368.55 378.4 368.85 378.9 M442.85 384.65 L456.25 384.6 466.85 384.4 Q468.2 386.6 468.3 387.5 L468.1 388.65 Q468.1 389.85 470.55 391.8 L473.6 394.25 473.1 396.75 454.35 398.4 Q445.85 398.4 443.65 397.35 439.85 395.55 439.85 388.5 439.75 387.8 440.1 386.95 440.75 385.25 442.85 384.65 M454.65 391.4 L451.85 392.05 462.6 391.8 462.35 390.95 454.65 391.4 M552.85 361.55 Q554.25 360.8 557.05 360.7 L562.35 361.0 563.1 361.0 560.2 363.45 Q557.25 365.15 553.6 364.6 L553.25 363.15 552.85 361.55 M11.25 387.4 L21.0 387.65 Q22.6 388.35 23.9 389.85 25.0 391.25 25.0 391.95 25.0 394.1 23.2 396.65 21.5 398.95 20.0 399.5 L11.05 400.6 3.0 401.7 0.8 399.45 0.25 398.65 Q0.25 396.75 5.0 389.6 7.0 386.6 8.2 385.8 10.1 384.6 11.25 387.4 M68.0 387.65 L84.35 387.3 90.0 386.85 91.9 388.85 92.75 389.85 Q92.75 391.2 90.55 393.55 88.15 396.15 87.75 397.3 87.45 398.35 87.45 401.05 87.15 403.35 85.0 403.9 L76.0 404.7 62.0 404.7 Q60.55 404.15 60.2 403.85 59.5 403.1 59.5 401.3 59.5 400.05 60.5 397.85 61.2 396.15 62.55 393.85 65.8 388.2 68.0 387.65 M151.1 377.4 Q151.1 373.35 155.75 369.7 160.6 365.85 163.35 370.1 167.4 367.85 169.9 371.85 171.6 374.6 171.6 376.85 171.6 378.4 167.35 380.25 163.05 382.2 159.35 382.2 153.95 382.2 152.1 380.3 151.1 379.3 151.1 377.4 M253.6 462.4 L253.1 464.85 Q248.65 464.35 241.4 466.45 232.9 469.0 221.85 469.0 220.8 469.0 217.9 465.85 215.1 462.9 215.1 462.4 215.1 460.05 217.75 459.15 L229.85 458.55 Q232.8 459.8 234.65 459.6 L239.85 459.1 250.85 459.4 Q252.1 460.35 253.6 462.4 M139.85 465.15 Q137.1 464.85 136.35 464.05 138.25 462.0 139.65 461.35 142.15 460.1 144.1 462.15 140.95 464.85 139.85 465.15 M70.25 398.95 Q67.5 397.3 60.5 397.85 L66.25 397.85 65.75 398.65 70.25 398.95 M558.85 415.4 Q561.0 416.05 562.0 419.3 562.6 421.3 562.6 423.0 562.6 425.9 560.65 426.5 556.1 427.35 550.85 429.15 L545.85 429.15 Q544.4 427.75 542.3 422.6 540.35 417.8 540.35 416.25 540.35 415.1 540.65 414.15 541.2 412.2 542.85 411.6 551.3 408.4 554.6 414.85 L558.85 415.4 M349.85 462.15 Q349.85 457.45 355.95 455.35 360.55 453.85 375.1 452.25 375.25 453.05 374.8 454.7 374.35 456.65 374.35 458.0 374.35 459.4 375.5 459.65 376.6 459.95 376.6 461.3 376.6 463.85 372.15 465.75 367.05 467.9 358.35 467.9 353.65 467.9 351.4 465.5 349.85 463.9 349.85 462.15 M-14.75 367.6 L-14.25 369.25 -17.2 371.75 Q-19.55 372.85 -26.5 372.85 -31.15 372.85 -32.8 371.8 L-34.5 369.55 Q-33.8 367.9 -30.9 365.9 -28.15 364.05 -25.3 363.05 L-21.3 362.85 Q-20.1 363.75 -22.25 367.05 L-18.0 366.5 -14.75 367.6 M-10.85 459.0 Q-10.0 460.0 -10.0 460.75 -10.0 462.85 -13.25 465.7 -17.05 469.0 -21.5 469.0 L-31.0 467.9 -33.45 465.55 Q-34.0 464.95 -34.0 464.05 -34.0 462.3 -33.65 461.7 L-32.75 460.75 Q-27.9 458.95 -25.2 458.35 -20.3 457.2 -13.0 456.9 L-10.85 459.0 M-81.5 411.3 L-83.4 414.65 -85.0 418.15 Q-85.75 420.5 -86.6 421.2 -88.55 422.85 -93.5 422.85 -98.4 422.85 -99.7 421.35 L-100.75 419.8 -103.15 420.15 Q-105.0 420.4 -106.5 420.1 L-106.75 419.15 -107.0 416.8 Q-107.0 415.05 -106.65 414.45 L-105.75 413.5 Q-100.8 410.35 -92.9 409.05 -83.75 407.5 -81.5 411.3" fill="#cbbcbc" fill-rule="evenodd" stroke="none"/>
    <path d="M404.3 393.15 Q414.6 395.9 414.6 399.6 414.6 400.85 413.4 401.9 411.95 403.15 408.85 403.85 L412.45 409.3 Q415.6 414.15 415.6 415.1 415.6 420.9 408.65 424.65 L399.6 428.1 Q399.05 428.3 396.6 429.75 394.3 431.05 393.1 431.35 L387.75 432.35 372.85 433.6 Q357.8 434.4 344.05 436.65 L330.85 439.1 Q327.55 446.45 317.65 450.55 302.75 456.75 267.85 459.6 L230.6 460.1 219.35 460.6 Q210.8 460.6 197.0 456.95 182.5 453.15 175.25 452.85 L168.4 452.35 Q166.45 450.8 166.0 448.6 165.0 443.8 165.0 438.1 L165.3 435.95 165.15 437.0 163.0 437.1 Q156.55 437.1 155.05 434.55 154.55 433.75 154.6 432.75 L154.75 431.75 Q154.75 430.15 157.6 426.6 L161.0 422.35 162.95 417.9 Q164.15 414.9 165.0 414.1 172.15 407.9 184.45 407.2 186.5 407.1 188.25 407.25 L191.6 405.6 Q198.75 401.6 199.85 400.6 206.05 394.7 210.35 393.45 213.6 392.45 217.0 394.0 L223.05 396.95 Q227.05 398.3 231.85 396.85 242.1 393.75 266.95 389.8 L298.85 384.85 329.05 381.55 389.85 375.35 389.85 374.85 405.85 374.85 408.0 376.8 Q408.85 377.65 408.85 378.35 408.85 384.5 391.1 386.85 392.95 390.1 404.3 393.15 M138.0 426.85 Q127.75 435.1 126.0 435.1 124.6 435.1 122.25 433.1 120.0 431.25 120.0 430.5 120.0 427.95 125.95 425.75 132.3 423.4 137.25 425.35 L138.0 426.85 M89.0 434.35 L95.75 435.0 107.0 436.35 108.7 437.0 Q109.5 437.5 109.5 439.1 109.5 441.7 106.0 443.35 101.7 445.35 93.0 445.35 L87.2 444.5 Q83.3 443.65 82.75 443.1 L82.55 442.65 82.5 440.85 Q82.5 438.65 83.35 437.45 84.75 435.5 89.0 434.35" fill="#bbaaaa" fill-rule="evenodd" stroke="none"/>
    <path d="M393.3 393.8 Q387.75 395.25 382.55 394.5 362.85 391.25 343.95 384.25 L343.95 380.3 341.85 379.35 Q321.5 393.95 299.1 404.85 L299.4 405.35 Q306.5 412.65 315.15 418.2 310.6 416.75 306.0 416.1 293.3 415.6 292.8 405.15 L287.6 405.7 Q287.6 406.85 288.1 407.75 293.75 417.7 307.7 419.0 L278.95 418.85 Q266.85 400.0 268.7 377.55 269.4 369.15 276.9 365.35 289.65 359.05 304.0 356.65 336.75 351.55 369.7 351.6 L374.15 356.75 376.6 359.1 358.0 360.1 357.4 360.85 358.95 361.45 Q369.2 363.6 379.9 362.7 L381.5 364.75 Q390.85 377.75 393.3 393.8 M393.7 429.5 L393.75 429.45 394.25 429.5 393.7 429.5 M400.65 368.05 L400.05 368.1 403.05 368.25 406.55 372.45 403.45 374.3 Q402.2 373.4 400.8 371.65 399.45 370.0 398.9 368.05 L400.65 368.05 M410.15 398.1 L414.1 396.8 417.35 400.05 416.85 402.35 413.75 403.3 412.55 401.6 413.9 401.3 410.55 398.9 410.7 398.1 410.15 398.1" fill="#ffffff" fill-rule="evenodd" stroke="none"/>
    <path d="M393.3 393.8 Q390.85 377.75 381.5 364.75 L379.9 362.7 Q369.2 363.6 358.95 361.45 L357.4 360.85 358.0 360.1 376.6 359.1 374.15 356.75 374.4 356.85 374.5 356.9 374.6 356.9 374.65 356.95 374.85 357.0 381.0 359.95 Q383.75 360.95 385.9 362.9 387.7 364.6 389.15 366.7 L390.55 368.9 394.8 378.1 399.15 397.0 399.75 404.55 399.85 407.85 399.85 409.0 399.55 415.0 Q398.95 420.95 397.45 429.75 L394.25 429.5 393.75 429.45 393.7 429.45 393.7 428.85 395.7 419.75 396.1 417.95 396.75 415.0 393.3 393.8" fill="#3745b7" fill-rule="evenodd" stroke="none"/>
    <path d="M354.7 395.15 Q354.3 395.15 353.95 394.7 L353.95 396.4 Q354.3 397.3 354.7 397.35 L354.7 395.15 M315.15 418.2 Q306.5 412.65 299.4 405.35 L299.1 404.85 Q321.5 393.95 341.85 379.35 L343.95 380.3 343.95 384.25 Q362.85 391.25 382.55 394.5 387.75 395.25 393.3 393.8 L396.75 415.0 396.1 417.95 395.7 419.75 393.7 428.85 393.7 429.45 393.75 429.45 393.7 429.5 392.25 429.35 383.85 428.7 381.8 428.55 354.7 425.65 354.7 422.85 350.5 422.35 343.95 421.6 343.95 420.65 332.45 419.75 318.05 419.0 317.1 418.95 315.15 418.2" fill="#d1d6d8" fill-rule="evenodd" stroke="none"/>
    <path d="M403.05 368.25 L400.05 368.1 400.65 368.05 403.05 368.25 M398.9 368.05 Q399.45 370.0 400.8 371.65 402.2 373.4 403.45 374.3 L402.85 375.05 Q399.6 378.35 394.8 378.1 L390.55 368.9 398.9 368.05 M404.75 406.85 L399.85 409.0 399.85 407.85 404.75 406.85 M410.15 398.1 L410.7 398.1 410.55 398.9 413.9 401.3 412.55 401.6 399.75 404.55 399.15 397.0 410.15 398.1" fill="#6f5755" fill-rule="evenodd" stroke="none"/>
    <path d="M413.75 403.3 L404.75 406.85 399.85 407.85 399.75 404.55 412.55 401.6 413.75 403.3" fill="#ffa244" fill-rule="evenodd" stroke="none"/>
    <path d="M304.6 449.65 L307.6 444.35 Q314.0 432.2 315.3 427.95 316.6 423.6 316.6 414.35 L315.6 405.35 314.95 400.0 315.75 400.1 320.7 401.55 Q334.05 407.15 327.95 427.95 322.8 445.7 311.65 452.35 L310.05 451.65 304.6 449.65" fill="#d1d6d8" fill-rule="evenodd" stroke="none"/>
    <path d="M315.75 400.1 L314.95 400.0 315.6 405.35 316.6 414.35 Q316.6 423.6 315.3 427.95 314.0 432.2 307.6 444.35 L304.6 449.65 298.95 447.8 283.45 443.05 Q279.75 440.5 269.75 437.8 L265.65 436.9 265.25 437.4 Q280.65 415.4 301.4 401.1 303.5 399.8 306.4 399.5 L315.75 400.1 M303.95 419.6 Q309.2 410.9 311.95 406.85 L303.25 403.6 289.9 420.0 Q290.3 420.9 294.5 424.6 298.65 428.3 303.95 419.6" fill="#ffffff" fill-rule="evenodd" stroke="none"/>
    <path d="M303.95 419.6 Q298.65 428.3 294.5 424.6 290.3 420.9 289.9 420.0 L303.25 403.6 311.95 406.85 Q309.2 410.9 303.95 419.6 M262.65 441.3 L263.8 439.5 272.7 443.9 Q280.9 448.05 284.1 450.35 287.35 452.6 298.35 455.95 L299.45 456.2 295.6 456.4 295.0 456.4 293.3 456.3 291.7 456.25 291.65 456.25 Q285.55 454.05 282.4 451.6 280.3 449.95 269.7 445.0 265.2 442.9 262.65 441.3" fill="#fff288" fill-rule="evenodd" stroke="none"/>
    <path d="M304.6 449.65 L310.05 451.65 311.65 452.35 Q306.25 455.6 299.45 456.2 L298.35 455.95 Q287.35 452.6 284.1 450.35 280.9 448.05 272.7 443.9 L263.8 439.5 265.25 437.4 265.65 436.9 269.75 437.8 Q279.75 440.5 283.45 443.05 L298.95 447.8 304.6 449.65 M262.6 444.85 L261.5 443.95 261.05 443.55 261.85 442.45 262.65 441.3 Q265.2 442.9 269.7 445.0 280.3 449.95 282.4 451.6 285.55 454.05 291.65 456.25 284.1 455.65 277.35 453.1 L277.3 453.1 270.55 450.05 264.65 446.4 262.6 444.85" fill="#3745b7" fill-rule="evenodd" stroke="none"/>
    <path d="M262.6 444.85 L264.65 446.4 270.55 450.05 277.3 453.1 277.35 453.1 Q275.45 454.75 272.85 455.6 L264.85 455.6 Q263.65 453.6 263.6 452.85 L263.85 451.35 261.6 452.3 257.85 453.85 257.25 454.35 Q256.6 454.55 256.6 453.0 256.6 452.15 258.8 449.25 L262.6 444.85" fill="#ffdbc4" fill-rule="evenodd" stroke="none"/>
    <path d="M334.95 372.1 Q337.0 373.55 337.35 374.85 335.25 376.8 325.9 378.0 L306.85 380.35 291.85 380.35 Q290.35 379.9 288.6 377.7 286.85 375.45 286.85 373.85 286.85 371.35 298.85 368.85 298.85 368.45 312.5 369.05 L329.85 370.35 Q332.55 370.35 334.95 372.1" fill="#d1d6d8" fill-rule="evenodd" stroke="none"/>
    <path d="M267.9 359.4 L267.35 358.85 268.1 358.6 268.65 358.95 275.9 365.0 Q282.35 370.65 282.35 371.75 282.35 373.3 281.85 373.0 L281.35 372.35 Q279.35 371.0 274.45 366.05 L267.9 359.4 M297.9 396.3 L310.45 397.4 312.85 401.85 Q332.05 411.05 352.35 418.45 L355.35 419.85 318.25 408.95 327.5 420.1 316.85 416.2 313.35 412.6 315.25 415.55 304.4 409.8 302.4 404.9 301.95 408.05 298.85 405.5 297.7 419.5 Q296.15 420.25 294.65 420.95 L297.9 396.3 M294.6 421.0 L289.8 423.7 289.5 423.9 Q287.05 425.45 284.15 426.35 L284.05 426.4 283.95 426.4 284.6 425.0 Q287.1 419.75 287.1 417.1 L287.5 408.85 287.85 402.1 286.6 394.05 Q285.35 387.25 285.35 386.0 285.35 384.45 285.5 384.5 L285.6 384.85 285.9 384.45 Q286.4 384.0 287.35 383.85 290.7 394.6 292.35 402.15 294.7 412.85 294.6 421.0" fill="#224577" fill-rule="evenodd" stroke="none"/>
    <path d="M268.65 358.95 Q270.0 358.25 271.6 357.8 284.3 364.0 291.05 376.0 296.35 385.45 297.9 396.3 L294.65 420.95 294.6 421.0 Q294.7 412.85 292.35 402.15 290.7 394.6 287.35 383.85 286.4 384.0 285.9 384.45 L285.6 384.85 285.5 384.5 Q285.35 384.45 285.35 386.0 285.35 387.25 286.6 394.05 L287.85 402.1 287.5 408.85 287.1 417.1 Q287.1 419.75 284.6 425.0 L283.95 426.4 279.9 426.6 Q274.35 402.15 262.8 379.15 259.35 372.25 262.65 365.25 264.5 361.4 267.9 359.4 L274.45 366.05 Q279.35 371.0 281.35 372.35 L281.85 373.0 Q282.35 373.3 282.35 371.75 282.35 370.65 275.9 365.0 L268.65 358.95 M310.45 397.4 L320.45 398.15 Q324.25 400.3 329.95 402.3 336.45 404.55 355.85 408.85 L393.15 409.05 394.3 409.75 408.45 418.85 423.0 428.35 420.85 431.6 Q371.7 435.0 327.5 420.1 L318.25 408.95 355.35 419.85 352.35 418.45 Q332.05 411.05 312.85 401.85 L310.45 397.4 M316.85 416.2 L315.25 415.55 313.35 412.6 316.85 416.2 M304.4 409.8 L301.95 408.05 302.4 404.9 304.4 409.8" fill="#3074d8" fill-rule="evenodd" stroke="none"/>
    <path d="M173.0 412.6 Q175.1 414.45 176.65 416.85 178.25 419.35 178.25 421.0 178.25 422.5 177.15 423.7 175.95 425.05 174.0 425.1 L171.0 425.1 Q168.75 424.55 168.2 423.15 168.0 422.7 168.0 421.25 168.0 420.05 168.9 418.6 169.75 417.15 169.75 416.0 169.75 414.85 171.4 413.8 L173.0 412.6" fill="#ffdbc4" fill-rule="evenodd" stroke="none"/>
    <path d="M157.55 419.85 Q156.75 412.5 157.25 405.2 158.5 386.0 170.65 371.05 182.85 356.0 200.65 348.05 L185.0 365.65 182.6 372.1 185.2 374.45 180.35 388.2 Q188.55 397.7 199.75 403.7 208.5 408.45 218.35 409.7 L224.0 410.3 Q214.6 412.5 205.45 409.85 192.25 405.9 181.85 396.9 177.15 392.8 172.0 390.15 L172.15 387.05 157.55 419.85 M264.4 410.05 L266.35 408.85 270.1 415.35 276.55 414.2 272.85 418.1 269.1 417.85 264.35 413.1 262.6 414.55 Q258.4 418.2 252.85 418.85 244.2 419.25 239.3 413.55 239.55 413.3 239.7 413.4 241.15 414.25 242.7 414.7 254.85 419.05 264.4 410.05" fill="#7b89fb" fill-rule="evenodd" stroke="none"/>
    <path d="M157.55 419.85 L172.15 387.05 172.0 390.15 Q177.15 392.8 181.85 396.9 192.25 405.9 205.45 409.85 214.6 412.5 224.0 410.3 L218.35 409.7 Q208.5 408.45 199.75 403.7 188.55 397.7 180.35 388.2 L185.2 374.45 182.6 372.1 185.0 365.65 200.65 348.05 Q204.15 346.4 207.7 345.7 228.3 342.45 248.7 348.2 269.95 354.2 278.1 374.7 283.6 388.45 283.1 403.4 L282.95 407.15 282.65 412.3 Q281.7 424.85 275.65 435.95 269.5 447.15 258.5 453.65 254.6 456.0 250.45 457.6 L243.6 459.85 246.1 442.1 215.85 464.35 213.75 460.6 217.35 446.6 Q210.2 447.55 204.05 451.25 L201.1 453.25 Q196.55 456.65 193.0 461.1 181.6 448.5 176.1 432.5 173.95 426.15 172.85 419.3 171.8 412.95 171.25 406.6 L162.7 431.35 159.35 431.1 157.55 419.85 M264.4 410.05 Q254.85 419.05 242.7 414.7 241.15 414.25 239.7 413.4 239.55 413.3 239.3 413.55 244.2 419.25 252.85 418.85 258.4 418.2 262.6 414.55 L264.35 413.1 269.1 417.85 272.85 418.1 276.55 414.2 270.1 415.35 266.35 408.85 264.4 410.05 M194.4 453.6 Q195.1 454.15 194.55 453.55 L194.4 453.6" fill="#594fc1" fill-rule="evenodd" stroke="none"/>
    <path d="M121.6 419.1 Q123.8 418.25 128.25 419.1 133.0 420.0 138.55 422.3 L134.75 424.5 Q134.5 425.6 133.1 426.25 L132.3 426.65 133.45 425.15 134.75 423.05 Q133.8 422.85 132.6 424.7 131.75 426.0 131.4 427.1 129.65 428.0 128.5 428.9 L129.6 427.05 Q131.25 424.3 131.25 423.75 L131.1 423.0 130.75 422.8 Q129.55 423.45 128.35 425.85 127.3 428.05 125.75 428.5 L125.75 428.05 127.65 424.55 Q128.95 422.1 128.75 421.0 127.75 421.35 126.0 424.5 L125.3 425.8 Q124.95 423.4 124.15 421.8 L124.1 421.8 123.35 420.6 121.7 419.15 121.6 419.1 M126.2 430.2 L125.4 430.5 124.9 430.7 125.35 430.1 126.2 430.2" fill="#ceae64" fill-rule="evenodd" stroke="none"/>
    <path d="M121.6 419.1 L121.7 419.15 123.35 420.6 124.1 421.8 124.15 421.8 Q124.95 423.4 125.3 425.8 L126.0 424.5 Q127.75 421.35 128.75 421.0 128.95 422.1 127.65 424.55 L125.75 428.05 125.75 428.5 Q127.3 428.05 128.35 425.85 129.55 423.45 130.75 422.8 L131.1 423.0 131.25 423.75 Q131.25 424.3 129.6 427.05 L128.5 428.9 128.5 428.95 128.3 429.05 128.2 429.15 126.85 429.9 126.25 430.2 126.2 430.2 125.35 430.1 124.9 430.7 124.05 431.35 Q122.6 432.2 121.0 432.0 119.3 431.5 117.75 428.95 116.3 426.6 116.3 424.8 116.3 421.2 117.75 419.55 119.05 418.05 120.9 418.75 L121.6 419.1 M131.4 427.1 Q131.75 426.0 132.6 424.7 133.8 422.85 134.75 423.05 L133.45 425.15 132.3 426.65 131.4 427.1" fill="#9f7360" fill-rule="evenodd" stroke="none"/>
    <path d="M559.1 305.1 L558.35 303.85 555.05 302.75 Q552.3 301.85 551.55 299.25 550.45 295.35 553.2 292.7 555.8 290.25 556.25 288.4 L553.35 285.85 560.85 277.1 561.1 275.85 557.0 275.15 Q555.1 273.25 554.95 270.5 554.6 265.35 557.6 261.1 L553.2 256.95 557.1 251.1 556.7 239.15 Q558.3 237.9 560.45 237.9 565.15 237.9 569.3 235.65 577.15 231.55 585.45 232.65 586.7 235.8 589.45 237.55 L591.15 237.65 592.25 237.1 591.85 236.75 Q591.65 231.35 597.4 229.05 599.7 228.1 601.3 228.75 603.1 229.45 603.1 231.75 603.1 232.55 602.05 233.9 L606.25 233.45 Q607.35 233.2 608.3 232.6 614.8 228.45 622.3 228.55 623.55 228.55 624.65 229.05 630.0 231.25 635.35 231.75 L635.1 231.5 634.85 230.0 Q636.25 226.65 639.95 226.75 648.35 227.0 649.85 226.75 L651.45 227.0 Q652.1 227.2 652.1 228.75 L652.1 229.1 655.3 227.55 656.75 226.7 Q665.95 226.55 674.95 229.6 673.6 228.05 673.6 226.25 673.6 224.7 673.75 223.8 L673.85 223.25 Q675.95 223.25 679.3 224.35 683.1 225.55 683.1 226.75 683.1 228.4 682.0 230.15 L680.9 231.65 700.0 233.0 Q700.7 231.15 702.5 230.85 L701.5 230.05 Q700.6 229.3 700.6 228.85 700.6 227.5 700.75 226.8 L700.85 225.5 703.5 225.55 Q705.9 225.85 707.6 227.25 711.95 230.75 711.3 231.8 L710.3 232.5 Q709.6 232.9 709.6 233.5 L709.65 233.85 711.95 234.45 714.35 235.2 713.7 234.85 711.85 233.75 Q714.0 228.75 722.35 228.75 L728.1 229.0 728.45 229.25 730.85 229.0 732.5 229.9 Q738.95 228.15 745.85 228.0 747.55 228.0 749.0 228.8 750.9 229.7 751.2 231.75 752.0 237.15 753.6 242.05 754.45 244.75 754.5 247.55 754.75 268.05 755.55 288.6 L755.85 300.8 Q752.25 299.95 750.25 298.2 749.1 297.2 746.55 293.55 744.4 290.45 741.85 288.85 L732.85 288.85 Q728.45 288.8 727.3 291.5 726.85 292.5 726.85 296.1 726.85 299.7 729.0 304.95 L731.1 310.35 Q731.1 311.3 729.6 312.6 L726.85 314.85 722.1 315.1 Q721.15 313.6 718.45 312.05 715.4 310.3 712.1 309.85 L713.1 307.6 715.55 305.55 716.35 304.6 Q716.35 303.8 715.45 302.9 L713.35 300.85 703.35 300.1 703.25 296.05 Q703.05 294.1 702.35 292.6 L699.1 292.6 Q692.65 295.2 689.6 298.8 687.0 301.85 687.1 305.1 L683.1 305.1 Q682.0 304.3 681.4 304.05 680.15 303.5 677.85 303.35 676.75 303.75 676.35 304.85 676.05 306.4 676.95 309.85 677.85 313.35 677.65 315.05 677.3 317.7 674.4 319.65 L674.05 319.65 670.85 319.6 669.8 317.55 667.85 314.6 Q667.1 315.3 662.75 317.7 660.1 319.15 660.1 321.35 660.1 322.25 660.4 322.9 656.85 322.05 656.85 320.5 656.85 319.35 657.75 316.8 658.5 314.55 658.3 313.35 657.55 309.55 645.85 306.6 643.95 308.3 643.35 310.8 L642.7 314.85 Q641.7 319.25 633.1 320.1 633.1 319.0 632.45 318.0 631.8 317.0 630.85 316.6 L622.85 316.1 622.85 315.1 627.1 311.55 Q629.25 309.7 629.1 308.35 628.95 307.15 629.5 305.05 L630.0 302.8 632.35 301.2 Q635.1 299.15 635.1 297.6 L634.85 295.9 634.6 296.1 Q632.6 296.05 629.55 297.5 628.7 294.3 626.5 290.95 621.65 283.5 614.35 289.1 609.2 293.1 607.5 299.9 L606.45 305.2 Q605.9 308.2 605.1 309.85 603.75 309.65 601.3 308.65 599.2 307.85 597.85 307.85 593.0 311.1 591.85 312.35 L588.85 312.35 Q588.85 310.75 588.55 310.05 588.0 308.85 586.35 308.85 582.4 308.85 580.6 311.55 579.5 313.2 578.45 317.9 577.35 323.0 576.1 325.35 573.95 329.4 569.6 331.35 L568.05 328.45 567.6 327.55 569.35 326.85 568.55 323.7 569.25 323.15 Q571.35 321.7 571.35 320.5 571.35 318.95 571.1 319.0 L570.85 319.35 Q569.45 321.3 568.15 321.8 L568.05 321.3 567.1 316.35 Q562.2 313.9 558.45 315.35 555.25 316.55 555.1 319.25 553.85 317.9 553.85 316.25 553.85 314.7 556.85 310.95 L559.3 307.75 560.6 307.6 559.85 306.3 Q559.75 305.25 559.3 305.1 L559.1 305.1 M553.4 323.85 L551.5 323.0 551.8 321.55 553.4 323.85 M-118.8 309.7 Q-122.35 291.45 -119.8 272.7 -118.7 264.95 -121.05 257.3 -121.55 255.7 -120.6 254.15 L-112.0 240.9 Q-110.95 239.35 -108.95 238.85 -100.6 236.85 -95.1 244.7 -95.35 241.65 -92.4 240.25 -90.2 239.15 -87.5 238.75 L-88.15 242.5 -86.55 249.45 -80.85 237.05 Q-75.55 235.75 -69.95 234.75 L-61.5 232.55 Q-54.95 230.55 -50.85 236.05 -49.05 238.45 -46.3 239.2 -43.75 240.05 -41.35 238.5 -34.6 234.2 -26.55 232.95 -21.25 231.9 -20.5 236.75 -15.85 236.2 -11.8 233.6 -10.6 232.8 -9.95 231.6 -7.75 227.55 -4.0 225.5 L-1.2 226.45 0.25 232.75 Q1.75 231.0 3.85 230.8 9.25 230.1 13.0 234.0 L31.25 233.75 39.0 230.5 42.5 230.75 43.5 236.0 Q47.2 236.75 47.25 240.2 47.25 241.7 46.75 243.35 56.55 246.85 59.35 256.25 L54.75 265.1 57.5 267.85 48.5 283.6 51.5 290.25 46.9 298.7 45.6 296.85 Q43.9 293.0 42.85 291.45 41.05 288.85 38.0 288.85 35.35 288.85 34.0 290.15 33.0 291.1 33.0 292.35 33.0 293.75 35.65 298.25 38.25 302.8 38.25 306.25 38.25 309.3 37.6 311.1 L34.5 317.1 Q35.85 312.45 30.0 306.1 L25.8 306.35 24.25 306.6 Q24.1 309.25 22.55 312.65 L20.25 317.6 12.05 318.3 8.75 318.85 8.25 315.25 Q7.75 312.55 7.75 311.25 7.75 310.65 9.65 306.8 11.5 302.95 11.5 301.1 11.5 299.25 11.15 298.5 10.8 297.75 9.5 296.6 L5.5 296.1 Q4.4 293.75 0.95 291.55 -1.95 289.75 -4.0 289.35 L-6.6 293.95 -9.25 298.6 -9.5 298.35 Q-9.5 295.6 -10.5 294.6 -11.75 294.4 -13.1 293.65 -14.15 293.1 -15.5 293.1 -16.7 293.1 -18.0 294.8 L-20.4 298.25 Q-23.7 302.8 -28.0 300.85 -29.3 301.2 -30.0 302.75 L-29.75 303.85 -29.0 304.6 -33.5 304.6 -35.5 303.85 Q-37.0 303.0 -37.9 297.15 -38.5 293.0 -38.5 289.6 -37.3 286.65 -36.9 284.7 -36.15 281.1 -40.0 280.1 L-44.0 280.1 Q-45.15 280.65 -49.0 283.4 -52.15 285.6 -53.25 285.6 -54.85 285.6 -63.5 282.1 L-65.75 282.6 Q-65.75 287.1 -66.25 288.1 -66.45 286.85 -67.2 285.9 -68.0 284.85 -69.0 284.85 -70.55 284.85 -70.95 285.5 L-71.0 286.1 Q-70.3 287.75 -72.15 290.65 L-74.5 294.35 -77.5 294.35 Q-82.0 292.85 -87.0 292.85 -88.55 293.45 -89.2 294.95 L-90.0 297.1 Q-91.35 299.75 -92.65 300.25 L-95.25 301.35 Q-97.05 302.85 -98.0 304.75 L-99.2 307.65 Q-100.65 310.5 -107.5 310.85 L-106.0 310.35 Q-104.05 309.15 -102.2 307.4 L-100.0 304.85 -100.5 304.1 -105.65 307.8 Q-108.45 309.85 -113.75 309.85 L-118.8 309.7 M-3.65 361.7 L-3.9 361.8 -4.15 361.7 -4.25 361.35 -4.15 361.05 -3.9 360.9 Q-3.75 360.9 -3.65 361.05 L-3.55 361.35 -3.65 361.7" fill="#5f9869" fill-rule="evenodd" stroke="none"/>
    <path d="M559.1 305.1 L559.3 305.1 Q559.75 305.25 559.85 306.3 L559.85 306.35 559.1 305.1 M559.3 307.75 L556.85 310.95 Q553.85 314.7 553.85 316.25 553.85 317.9 555.1 319.25 555.25 316.55 558.45 315.35 562.2 313.9 567.1 316.35 L568.05 321.3 568.15 321.8 Q569.45 321.3 570.85 319.35 L571.1 319.0 Q571.35 318.95 571.35 320.5 571.35 321.7 569.25 323.15 L568.55 323.7 569.35 326.85 567.6 327.55 568.05 328.45 569.6 331.35 Q573.95 329.4 576.1 325.35 577.35 323.0 578.45 317.9 579.5 313.2 580.6 311.55 582.4 308.85 586.35 308.85 588.0 308.85 588.55 310.05 588.85 310.75 588.85 312.35 L591.85 312.35 Q593.0 311.1 597.85 307.85 599.2 307.85 601.3 308.65 603.75 309.65 605.1 309.85 605.9 308.2 606.45 305.2 L607.5 299.9 Q609.2 293.1 614.35 289.1 621.65 283.5 626.5 290.95 628.7 294.3 629.55 297.5 632.6 296.05 634.6 296.1 L634.85 295.9 635.1 297.6 Q635.1 299.15 632.35 301.2 L630.0 302.8 629.5 305.05 Q628.95 307.15 629.1 308.35 629.25 309.7 627.1 311.55 L622.85 315.1 622.85 316.1 630.85 316.6 Q631.8 317.0 632.45 318.0 633.1 319.0 633.1 320.1 641.7 319.25 642.7 314.85 L643.35 310.8 Q643.95 308.3 645.85 306.6 657.55 309.55 658.3 313.35 658.5 314.55 657.75 316.8 656.85 319.35 656.85 320.5 656.85 322.05 660.4 322.9 660.1 322.25 660.1 321.35 660.1 319.15 662.75 317.7 667.1 315.3 667.85 314.6 L669.8 317.55 670.85 319.6 674.05 319.65 674.4 319.65 Q677.3 317.7 677.65 315.05 677.85 313.35 676.95 309.85 676.05 306.4 676.35 304.85 676.75 303.75 677.85 303.35 680.15 303.5 681.4 304.05 682.0 304.3 683.1 305.1 L687.1 305.1 Q687.0 301.85 689.6 298.8 692.65 295.2 699.1 292.6 L702.35 292.6 Q703.05 294.1 703.25 296.05 L703.35 300.1 713.35 300.85 715.45 302.9 Q716.35 303.8 716.35 304.6 L715.55 305.55 713.1 307.6 712.1 309.85 Q715.4 310.3 718.45 312.05 721.15 313.6 722.1 315.1 L726.85 314.85 729.6 312.6 Q731.1 311.3 731.1 310.35 L729.0 304.95 Q726.85 299.7 726.85 296.1 726.85 292.5 727.3 291.5 728.45 288.8 732.85 288.85 L741.85 288.85 Q744.4 290.45 746.55 293.55 749.1 297.2 750.25 298.2 752.25 299.95 755.85 300.8 L755.9 305.25 Q755.9 317.6 755.2 329.95 755.0 334.05 755.35 338.1 756.1 346.7 754.75 354.9 748.0 356.3 743.85 361.2 742.55 362.7 740.65 363.15 L733.1 363.55 719.7 362.45 Q711.55 361.9 704.4 365.2 694.0 370.0 685.6 362.85 683.35 365.55 680.15 366.65 675.45 368.15 670.3 368.25 662.95 368.45 660.85 362.1 L653.85 363.65 Q648.15 363.25 642.7 361.2 L639.7 360.9 620.85 361.85 Q615.3 365.95 608.45 364.6 594.75 361.8 581.65 356.55 L578.1 361.6 576.3 361.05 575.6 355.6 575.05 359.35 562.85 361.6 561.9 360.5 Q560.7 359.05 561.0 357.15 561.25 355.45 560.95 353.65 560.35 352.9 559.6 352.4 557.35 351.05 556.7 348.65 555.5 344.15 558.35 340.85 L555.85 340.6 553.25 337.85 Q553.0 335.15 553.6 332.65 553.95 331.05 554.85 329.75 556.1 328.0 557.5 326.5 L558.1 325.85 553.4 323.85 551.8 321.55 554.35 308.35 559.3 307.75 M-118.8 309.7 L-113.75 309.85 Q-108.45 309.85 -105.65 307.8 L-100.5 304.1 -100.0 304.85 -102.2 307.4 Q-104.05 309.15 -106.0 310.35 L-107.5 310.85 Q-100.65 310.5 -99.2 307.65 L-98.0 304.75 Q-97.05 302.85 -95.25 301.35 L-92.65 300.25 Q-91.35 299.75 -90.0 297.1 L-89.2 294.95 Q-88.55 293.45 -87.0 292.85 -82.0 292.85 -77.5 294.35 L-74.5 294.35 -72.15 290.65 Q-70.3 287.75 -71.0 286.1 L-70.95 285.5 Q-70.55 284.85 -69.0 284.85 -68.0 284.85 -67.2 285.9 -66.45 286.85 -66.25 288.1 -65.75 287.1 -65.75 282.6 L-63.5 282.1 Q-54.85 285.6 -53.25 285.6 -52.15 285.6 -49.0 283.4 -45.15 280.65 -44.0 280.1 L-40.0 280.1 Q-36.15 281.1 -36.9 284.7 -37.3 286.65 -38.5 289.6 -38.5 293.0 -37.9 297.15 -37.0 303.0 -35.5 303.85 L-33.5 304.6 -29.0 304.6 -29.75 303.85 -30.0 302.75 Q-29.3 301.2 -28.0 300.85 -23.7 302.8 -20.4 298.25 L-18.0 294.8 Q-16.7 293.1 -15.5 293.1 -14.15 293.1 -13.1 293.65 -11.75 294.4 -10.5 294.6 -9.5 295.6 -9.5 298.35 L-9.25 298.6 -6.6 293.95 -4.0 289.35 Q-1.95 289.75 0.95 291.55 4.4 293.75 5.5 296.1 L9.5 296.6 Q10.8 297.75 11.15 298.5 11.5 299.25 11.5 301.1 11.5 302.95 9.65 306.8 7.75 310.65 7.75 311.25 7.75 312.55 8.25 315.25 L8.75 318.85 12.05 318.3 20.25 317.6 22.55 312.65 Q24.1 309.25 24.25 306.6 L25.8 306.35 30.0 306.1 Q35.85 312.45 34.5 317.1 L37.6 311.1 Q38.25 309.3 38.25 306.25 38.25 302.8 35.65 298.25 33.0 293.75 33.0 292.35 33.0 291.1 34.0 290.15 35.35 288.85 38.0 288.85 41.05 288.85 42.85 291.45 43.9 293.0 45.6 296.85 L46.9 298.7 46.5 299.35 Q46.75 300.75 47.8 301.55 48.95 302.5 49.05 303.85 L49.0 304.7 48.2 309.55 50.5 310.6 51.05 311.35 Q53.5 314.5 55.2 318.15 58.75 326.0 50.0 327.85 58.2 332.55 54.4 341.2 L53.55 342.75 Q48.65 350.1 42.75 356.85 L43.5 362.1 26.25 361.2 22.5 353.85 Q17.0 358.0 9.95 359.2 L2.0 360.95 Q-2.95 362.25 -4.4 359.6 L-17.0 360.85 -21.5 356.1 -23.6 355.3 Q-25.0 354.65 -26.55 354.95 -28.4 355.4 -29.8 356.8 L-39.2 356.7 -42.0 354.1 -47.75 359.75 -51.0 354.85 -58.15 356.8 Q-61.4 356.2 -64.5 355.05 L-68.4 360.7 -71.0 356.6 Q-72.55 356.9 -74.7 358.7 -76.85 360.55 -79.3 359.3 L-80.25 356.35 -83.65 357.15 -86.7 357.25 -96.55 356.6 Q-109.15 356.8 -114.4 345.6 -114.95 344.45 -114.7 343.35 -113.0 334.85 -114.7 326.35 -115.35 323.1 -116.3 319.95 L-117.8 314.3 -118.8 309.7" fill="#537164" fill-rule="evenodd" stroke="none"/>
    <path d="M124.65 441.55 L125.05 442.05 124.05 441.75 123.25 441.3 124.25 441.3 124.65 441.55 M102.05 441.7 L99.7 443.45 Q96.65 445.1 91.85 445.1 L89.25 444.75 88.5 444.35 89.8 442.85 89.7 442.85 82.0 443.6 79.25 443.1 78.9 443.5 Q78.5 443.55 78.5 442.0 78.5 439.5 81.35 439.1 L82.1 439.05 81.8 438.55 Q81.05 437.3 80.95 435.7 L81.0 434.25 Q81.0 432.65 84.15 428.2 87.3 423.8 89.0 422.85 94.55 422.55 99.05 427.05 101.7 429.75 102.4 431.6 L102.3 431.8 Q101.95 433.05 100.75 434.1 98.85 435.85 95.7 436.75 92.25 437.75 91.75 438.1 94.0 439.15 95.2 439.15 L96.0 440.6 Q96.55 441.9 97.8 442.0 L100.85 441.85 102.05 441.7 M102.6 441.15 L102.35 441.45 102.35 441.4 102.35 441.25 102.15 440.85 102.25 440.85 102.6 441.15 M110.5 444.05 L111.75 444.3 112.75 445.5 Q112.3 446.6 108.0 447.25 L106.55 447.05 106.05 446.7 Q105.75 446.4 105.75 445.6 105.75 444.8 106.2 444.45 106.3 444.3 107.0 444.05 L110.5 444.05" fill="#ffffff" fill-rule="evenodd" stroke="none"/>
    <path d="M102.4 431.6 L102.6 432.75 Q102.6 436.45 101.5 438.35 L101.35 438.6 104.55 438.5 105.0 439.5 103.8 440.55 102.75 441.0 102.6 441.15 102.25 440.85 102.15 440.85 102.35 441.25 102.35 441.4 102.35 441.45 102.1 441.7 102.05 441.7 100.85 441.85 97.8 442.0 Q96.55 441.9 96.0 440.6 L95.2 439.15 Q94.0 439.15 91.75 438.1 92.25 437.75 95.7 436.75 98.85 435.85 100.75 434.1 101.95 433.05 102.3 431.8 L102.4 431.6 M99.35 440.75 L99.3 440.8 99.4 440.8 99.45 440.8 99.35 440.75" fill="#e2d5b6" fill-rule="evenodd" stroke="none"/>
    <path d="M92.3 428.55 L92.0 429.25 90.7 429.3 Q90.55 429.25 90.55 428.5 L90.65 427.65 90.75 427.75 91.3 427.7 92.05 427.8 92.3 428.55 M85.8 430.35 L86.0 429.25 86.95 429.15 88.5 429.3 88.55 431.25 88.0 431.55 86.55 431.5 86.05 430.9 85.8 430.35 M92.8 434.75 L92.25 434.8 91.75 434.05 92.3 433.75 Q92.85 433.7 93.0 434.0 L92.8 434.75" fill="#4e3e3a" fill-rule="evenodd" stroke="none"/>
  </g>
  <defs>
    <radialGradient cx="0" cy="0" gradientTransform="matrix(0.343, 0.0, 0.0, 0.1488, 290.95, 253.95)" gradientUnits="userSpaceOnUse" id="gradient0" r="819.2" spreadMethod="pad">
      <stop offset="0.0" stop-color="#80f2ff"/>
      <stop offset="0.7137254901960784" stop-color="#2e949e"/>
    </radialGradient>
  </defs>
</svg>
