<?xml version="1.0" encoding="UTF-8" standalone="no"?>
<svg xmlns:xlink="http://www.w3.org/1999/xlink" height="671.6px" width="544.0px" xmlns="http://www.w3.org/2000/svg">
  <g transform="matrix(1.0, 0.0, 0.0, 1.0, 246.75, 348.75)">
    <path d="M-55.1 212.85 L-51.6 216.55 -50.5 215.35 -49.2 213.7 Q-51.1 214.95 -52.3 214.5 -53.8 213.45 -55.1 212.85 M-170.6 39.25 Q-170.8 39.9 -168.2 43.4 L-167.7 36.7 -170.6 39.25 M-166.75 21.15 L-166.9 23.5 -165.65 29.0 Q-165.0 27.15 -162.95 24.05 L-161.0 21.35 -166.75 21.15 M-32.55 197.5 L-32.75 197.2 -32.75 198.1 Q-32.5 197.85 -32.55 197.5 M-158.6 31.85 Q-158.8 28.25 -156.95 24.6 -155.6 21.9 -151.3 16.05 -156.95 20.8 -160.05 28.7 -163.15 36.7 -163.15 46.55 -163.15 66.55 -155.7 77.45 -147.2 89.85 -128.65 91.05 L-126.05 89.8 Q-143.65 90.3 -151.95 79.5 -158.8 70.6 -158.8 55.1 L-158.6 31.85 M-75.6 32.7 L-74.7 31.6 -75.45 32.0 -77.4 32.85 -76.25 33.8 -75.6 32.7 M-10.9 43.7 L-10.55 42.95 -10.8 42.95 -10.9 43.7 M-38.85 -1.75 Q-38.3 -2.9 -37.2 -2.9 -35.6 -2.9 -34.35 -0.05 -33.65 1.55 -32.95 4.45 L-34.25 4.6 Q-35.55 4.6 -36.8 4.0 -39.2 2.8 -39.2 -0.15 L-38.85 -1.75 M-23.05 -21.55 L-22.8 -22.8 Q-20.8 -22.45 -19.1 -21.6 -15.7 -19.85 -14.15 -16.3 -13.6 -16.7 -11.5 -20.0 -9.65 -22.8 -8.85 -22.8 -7.75 -22.8 -7.3 -22.05 L-6.7 -20.75 Q-6.45 -21.3 -4.95 -22.0 L-3.3 -22.6 Q-2.55 -22.6 -3.0 -22.15 L-2.9 -21.5 Q-2.9 -20.45 -4.4 -18.1 -5.9 -15.6 -8.45 -12.75 L-8.65 -13.85 -8.4 -16.35 -9.05 -15.55 Q-12.4 -11.4 -13.95 -11.4 -16.3 -11.4 -19.9 -16.35 -23.05 -20.75 -23.05 -21.55 M-89.0 -4.2 L-96.8 -2.2 Q-96.2 -0.7 -96.1 0.45 L-96.2 3.4 Q-96.25 9.6 -93.45 22.75 -92.65 26.8 -89.5 31.25 -85.8 36.35 -82.25 36.35 -81.75 36.35 -81.4 35.7 L-81.15 34.95 Q-86.55 29.75 -88.7 23.35 -90.65 17.65 -90.65 9.1 -90.65 3.85 -89.95 -0.4 -89.45 -3.3 -89.0 -4.2 M-81.75 -192.5 L-99.4 -153.75 Q-111.1 -127.4 -114.9 -115.7 -119.25 -102.55 -121.3 -90.4 -123.25 -79.2 -126.3 -70.5 -127.4 -71.1 -128.2 -74.3 -128.85 -76.95 -128.85 -78.9 -128.85 -82.7 -127.3 -91.0 -125.3 -101.65 -121.95 -111.1 -117.15 -124.5 -107.25 -146.65 -94.9 -174.35 -83.75 -194.1 L-82.75 -193.35 -81.75 -192.5 M33.95 87.2 L32.25 90.95 31.3 92.45 Q60.55 137.8 60.55 139.4 60.55 140.8 56.95 152.85 L48.5 181.65 66.55 187.0 Q79.0 190.7 89.1 192.3 94.35 181.15 98.6 161.6 L102.45 141.05 105.1 128.95 Q106.75 121.05 106.75 115.5 106.75 113.3 72.95 101.0 L33.95 87.2 M31.1 83.0 L31.35 81.1 30.3 82.85 31.1 83.0 M3.35 79.4 Q7.15 86.7 8.1 90.8 L8.0 91.4 7.9 91.5 5.95 91.6 Q-4.0 91.6 -10.75 86.5 -18.9 80.35 -18.9 68.5 -18.9 64.75 -17.3 55.8 -15.55 45.85 -13.8 42.75 L-24.0 41.35 Q-24.0 42.6 -27.55 64.0 L-30.55 81.25 Q-32.9 98.3 -32.9 121.95 -32.9 131.35 -32.0 146.85 -31.0 164.85 -29.35 179.9 -28.65 186.5 -23.3 194.85 -19.1 201.55 -16.35 203.55 -4.4 212.3 4.55 219.35 11.5 224.25 35.1 237.65 L37.65 209.9 Q39.65 188.4 42.1 179.4 46.1 164.8 50.9 150.45 54.25 140.45 54.25 139.3 54.25 137.0 24.15 95.05 L-11.2 45.55 Q-11.45 48.0 -13.05 57.7 -14.55 66.5 -14.55 68.5 -14.55 75.75 -10.0 80.5 -5.05 85.6 7.3 90.2 L4.65 83.5 2.6 78.5 3.35 79.4 M31.95 27.45 Q34.1 32.55 38.8 32.55 40.65 32.55 42.0 31.25 39.85 29.55 36.5 25.05 32.55 19.7 29.45 13.55 30.35 23.55 31.95 27.45 M9.9 18.3 Q9.9 11.45 6.0 7.95 2.0 4.35 -7.45 3.2 -8.85 8.6 -17.7 8.6 -27.75 7.6 -30.7 8.3 -30.5 9.25 -31.1 12.4 -31.8 16.35 -33.2 19.3 -37.6 28.75 -37.6 31.05 -37.6 33.45 -18.45 35.7 L2.65 37.55 Q4.75 37.55 5.75 35.95 6.9 34.1 8.1 28.0 L9.9 18.3 M62.75 -9.45 Q62.1 -10.05 62.1 -12.0 62.1 -16.0 66.2 -16.0 67.25 -16.0 71.8 -14.15 76.7 -12.15 78.4 -11.85 80.0 -11.6 85.8 -9.55 L95.55 -5.95 Q110.45 -0.1 121.7 5.0 132.5 9.95 132.5 10.75 132.5 11.4 134.4 14.55 L136.8 18.8 138.65 26.35 141.3 38.8 144.7 55.6 Q145.5 60.2 145.5 61.25 L140.35 80.55 Q140.35 81.45 140.85 82.1 141.5 83.0 142.75 82.9 L145.4 71.2 Q145.9 68.9 147.25 68.9 148.25 68.9 148.9 71.1 149.45 72.8 149.45 74.0 149.45 76.5 147.8 82.65 145.7 90.2 143.3 91.2 L136.55 83.35 135.45 81.9 Q135.5 81.65 135.0 82.2 L134.0 83.4 135.45 84.9 Q136.0 86.55 134.25 87.15 L132.25 87.45 127.1 84.65 112.1 75.75 Q98.0 67.2 80.15 55.2 61.2 42.45 56.8 38.3 L57.45 38.05 Q59.6 38.3 60.2 36.6 L60.65 33.55 Q59.15 33.5 58.75 33.1 L58.4 31.95 58.2 34.15 58.75 35.7 Q58.7 37.2 55.8 38.5 55.3 37.7 54.65 35.2 L54.05 32.75 Q54.05 28.4 69.2 -2.7 70.3 -2.35 70.65 -1.9 71.0 -1.55 71.0 -0.75 71.0 -0.05 70.15 1.55 L67.75 6.1 Q63.4 14.95 58.9 29.55 60.25 25.45 66.75 11.55 74.3 -4.7 76.5 -6.65 71.65 -8.35 64.95 -8.8 63.25 -8.95 62.75 -9.45 M32.15 -16.45 Q32.15 -15.65 32.5 -13.1 L28.8 -14.75 28.65 -8.9 Q28.55 -7.3 27.95 -5.25 27.4 -3.3 27.4 -2.85 L31.15 7.85 Q32.7 11.7 34.25 13.55 36.95 16.9 47.65 27.15 L47.0 29.0 Q48.1 29.2 50.0 30.05 52.45 31.1 52.45 32.0 52.45 32.75 52.05 33.45 L50.9 33.55 Q49.3 33.55 46.4 31.55 L45.95 34.05 43.35 35.95 Q41.0 37.6 40.45 37.75 L41.7 40.05 Q41.9 40.65 41.9 42.75 41.9 46.35 40.85 48.0 L40.75 57.0 Q40.75 60.6 40.1 65.15 39.35 70.6 38.3 70.65 38.85 70.65 39.0 70.9 L39.05 71.8 37.0 75.95 Q35.2 82.3 34.9 83.95 80.3 95.95 100.4 105.95 114.35 112.9 114.35 117.8 114.35 119.15 109.6 140.2 104.75 161.45 104.55 164.45 103.4 182.4 100.2 190.5 95.75 201.75 85.75 201.75 78.25 201.75 66.1 197.9 54.5 194.25 46.45 189.65 45.55 193.85 44.75 204.1 L43.45 223.05 Q41.65 246.5 38.45 246.5 31.45 246.5 3.55 226.5 -21.7 208.4 -29.95 199.8 L-37.35 208.2 -44.45 216.35 Q-45.25 217.55 -47.6 219.4 -50.25 221.45 -51.55 221.45 -52.35 221.45 -55.2 219.7 -58.75 217.55 -63.15 213.85 L-73.9 205.45 Q-76.9 203.0 -81.45 196.6 -91.5 182.5 -98.55 162.45 -104.45 145.95 -104.45 138.7 -104.45 136.75 -102.75 134.05 L-101.05 130.75 Q-100.0 128.75 -99.5 128.75 -99.0 128.75 -98.2 128.1 L-93.4 123.4 -82.5 113.9 Q-73.4 106.5 -62.15 98.3 L-49.9 89.5 -44.9 85.8 -45.75 84.2 Q-46.5 82.8 -46.5 81.9 L-46.35 80.75 -43.1 81.95 Q-42.05 82.45 -40.65 84.75 -39.4 86.8 -39.4 87.45 -39.4 88.4 -44.5 92.05 L-62.6 104.45 Q-68.85 108.75 -79.05 116.8 -94.55 129.0 -97.0 133.5 -93.45 142.35 -89.0 157.55 -86.45 166.3 -80.0 176.7 -69.25 193.9 -61.95 200.75 -56.2 206.1 -51.0 206.1 -49.95 206.1 -44.3 200.4 -38.6 194.65 -36.05 194.65 L-34.75 194.85 Q-34.05 195.05 -33.7 195.3 -34.05 193.85 -37.4 155.3 -38.4 143.1 -38.4 121.75 -38.4 80.9 -33.9 59.45 -31.05 45.55 -26.5 40.9 -35.15 38.95 -39.05 36.75 -43.15 34.5 -43.15 31.6 -43.15 22.6 -38.3 13.5 -31.6 0.85 -19.4 0.8 -24.5 -3.25 -28.05 -5.65 -31.5 -8.05 -32.3 -8.05 L-43.15 1.4 -42.5 1.6 Q-41.15 2.15 -40.35 3.3 -39.6 4.35 -39.6 5.5 -39.6 7.45 -40.4 10.75 L-42.25 17.65 Q-44.9 28.45 -44.9 40.55 -44.9 50.75 -42.55 64.15 L-40.2 75.5 Q-40.2 77.0 -40.8 78.15 -41.5 79.5 -42.75 79.5 -46.2 79.5 -48.45 60.15 L-50.05 40.65 Q-50.05 36.25 -49.25 30.5 L-47.1 16.25 -59.75 23.5 Q-71.65 30.25 -73.55 31.05 -73.2 31.6 -73.45 32.95 -73.7 34.35 -74.2 35.15 L-71.5 36.7 Q-72.5 38.5 -74.35 39.45 -76.05 40.25 -78.2 40.25 L-80.0 40.4 Q-81.3 40.75 -81.95 41.75 L-96.55 64.0 -100.65 70.15 -104.8 75.65 Q-107.05 78.6 -110.25 81.8 L-117.25 87.3 -116.95 87.75 Q-116.75 88.05 -116.9 88.4 -117.3 89.4 -121.35 91.75 -123.3 92.9 -127.35 94.1 -131.35 95.3 -133.0 95.3 -133.45 95.3 -133.45 94.9 -133.4 94.45 -133.5 94.45 L-137.35 93.9 -140.95 93.3 Q-146.0 91.85 -148.6 90.3 L-155.05 85.4 Q-160.65 80.8 -164.8 68.35 -168.8 56.4 -168.3 47.7 L-170.2 47.5 Q-171.35 47.15 -172.1 46.3 -172.9 45.4 -174.0 42.4 L-175.0 39.25 Q-175.0 38.5 -172.3 35.4 -169.65 32.35 -169.65 29.9 -169.65 28.2 -170.2 25.45 L-170.85 23.0 Q-170.85 20.2 -169.65 18.7 -168.2 16.9 -164.8 16.9 L-159.25 18.1 Q-157.45 13.3 -156.45 11.35 -154.75 8.1 -149.6 5.7 -146.75 4.35 -137.65 2.5 L-126.85 0.3 Q-117.6 -1.95 -83.45 -11.5 -75.65 -13.65 -62.95 -16.3 -54.05 -18.1 -53.6 -18.8 -53.4 -18.7 -53.4 -17.85 -53.4 -15.5 -62.4 -12.0 -71.5 -8.45 -87.8 -4.5 -86.7 -1.6 -86.4 3.55 L-86.05 12.95 Q-85.4 25.1 -79.65 30.7 -68.65 21.6 -59.65 16.65 L-53.45 13.7 -49.8 12.25 Q-47.05 11.65 -46.15 10.65 L-45.9 9.65 Q-45.9 8.5 -48.15 5.65 -50.45 8.0 -53.0 9.05 L-55.35 9.7 Q-57.2 9.7 -59.2 8.75 -61.85 7.55 -61.85 5.55 -61.85 3.65 -59.6 -1.35 -57.25 -6.6 -53.95 -11.8 -45.05 -25.6 -37.95 -25.6 L-36.85 -25.4 -36.65 -24.05 Q-36.65 -21.95 -37.8 -21.45 L-39.6 -21.05 -41.9 -20.35 Q-43.7 -19.35 -47.75 -12.15 -51.85 -4.85 -55.55 4.0 -50.35 0.4 -41.1 -7.5 -33.5 -13.95 -32.9 -13.95 -29.8 -13.95 -25.35 -11.8 -20.65 -9.5 -18.9 -6.9 -21.2 -10.85 -22.7 -14.15 L-23.8 -16.85 Q-23.8 -18.15 -23.3 -18.7 L-22.25 -19.65 Q-17.45 -11.9 -14.65 -5.6 L-12.05 0.0 Q-10.85 -0.1 -9.35 -2.45 L-7.3 -6.05 Q-5.15 -9.3 -3.0 -11.75 -1.05 -13.95 -0.55 -13.95 1.0 -13.95 6.55 -12.05 L21.9 -6.45 23.1 -22.25 Q25.15 -24.95 26.15 -24.95 27.05 -24.95 27.7 -22.9 L28.35 -20.25 Q29.45 -20.6 30.75 -21.7 32.25 -22.6 35.35 -22.6 47.55 -22.6 54.1 -19.15 58.55 -16.8 58.55 -14.65 L58.8 -13.85 58.45 -13.65 57.65 -13.2 56.1 -12.75 Q55.95 -12.75 46.4 -16.9 43.75 -18.05 40.3 -18.6 L36.0 -19.05 32.2 -18.7 32.15 -16.45 M20.05 -0.8 L15.8 -2.5 Q14.7 0.55 13.1 3.45 11.75 5.9 11.2 6.25 15.0 9.6 15.0 18.65 15.0 22.2 14.05 26.4 13.25 29.85 11.05 36.7 9.65 40.9 8.7 41.95 7.3 43.5 3.45 43.5 L-6.5 43.2 11.65 65.5 Q23.9 80.95 30.8 91.65 L30.8 91.2 30.85 85.75 Q30.85 85.3 29.75 84.7 28.6 84.15 28.6 83.1 28.6 80.65 30.4 75.35 L32.6 69.95 Q33.75 67.35 33.9 66.05 L35.45 48.6 36.2 38.25 Q33.4 38.45 32.85 37.75 L32.35 35.5 Q33.3 35.0 34.15 35.0 L35.7 35.15 Q30.05 32.4 25.8 18.0 24.15 12.35 23.55 7.25 22.9 2.15 23.6 0.35 L20.05 -0.8 M4.85 -6.75 L1.4 -7.65 Q0.25 -7.65 -1.35 -5.85 -2.65 -4.35 -5.55 -0.05 -1.4 0.0 3.05 1.35 6.95 2.5 8.05 3.55 L12.65 -3.9 Q8.6 -5.6 4.85 -6.75" fill="#42b5a8" fill-rule="evenodd" stroke="none"/>
    <path d="M53.45 -154.15 L53.45 -95.15 50.9 -79.1 Q46.5 -71.65 38.95 -70.5 L38.65 -70.5 Q36.4 -70.5 30.7 -73.15 27.75 -76.75 26.1 -84.9 24.6 -92.2 24.45 -99.75 24.45 -125.4 29.35 -144.8 31.05 -151.55 33.05 -156.45 31.15 -158.3 29.25 -161.5 27.05 -165.1 25.85 -168.1 25.85 -176.1 32.2 -169.25 L36.65 -163.6 Q38.3 -166.15 40.15 -167.7 46.55 -173.1 50.9 -162.7 52.4 -159.15 53.45 -154.15 M41.25 -62.25 Q41.25 -60.5 38.8 -59.0 35.45 -56.85 34.5 -55.75 L33.1 -56.2 Q32.55 -56.6 32.55 -57.9 32.55 -58.7 35.7 -61.55 38.75 -64.35 39.25 -64.4 L40.6 -63.9 Q41.25 -63.5 41.25 -62.25 M49.05 -58.15 L45.55 -55.95 44.4 -56.3 Q44.0 -56.55 44.0 -57.8 44.0 -59.65 46.8 -60.9 49.25 -62.0 51.3 -61.85 L51.65 -60.65 Q51.2 -59.85 49.05 -58.15 M-62.65 -155.15 Q-62.65 -137.45 -66.6 -114.65 -67.85 -107.45 -68.2 -97.9 -68.55 -88.45 -69.0 -86.1 -69.9 -81.15 -72.95 -79.1 -76.4 -76.8 -84.15 -76.8 -93.0 -76.8 -94.95 -87.4 -95.95 -92.7 -95.15 -98.2 -95.15 -118.45 -90.1 -136.45 -86.55 -148.9 -81.45 -157.45 -83.85 -159.15 -85.95 -163.0 -87.75 -166.4 -88.65 -169.45 -88.65 -178.3 -81.75 -169.7 -79.7 -167.15 -77.35 -163.45 -71.9 -170.15 -67.75 -169.05 -62.65 -167.7 -62.65 -155.15 M-103.25 -69.75 Q-103.65 -68.5 -106.45 -66.4 -109.8 -63.95 -113.5 -63.05 L-113.75 -62.75 Q-114.1 -62.7 -114.1 -63.95 -114.1 -66.25 -110.4 -69.0 -106.3 -72.05 -103.25 -69.75 M-104.25 -58.3 L-105.7 -58.75 Q-106.0 -59.1 -106.0 -60.45 -106.0 -63.05 -103.7 -64.7 -100.8 -66.75 -95.35 -66.6 L-94.95 -65.4 -98.65 -63.1 Q-102.25 -60.7 -103.05 -58.7 L-104.25 -58.3 M-33.85 -56.7 Q-37.0 -53.95 -37.0 -51.4 -37.0 -46.3 -33.35 -41.55 -29.2 -36.1 -21.45 -33.25 -22.65 -32.3 -24.6 -32.3 -31.85 -32.3 -36.8 -40.7 -40.55 -47.15 -40.55 -51.4 -40.55 -57.0 -34.95 -61.05 -29.65 -64.9 -22.5 -65.25 -15.05 -65.7 -10.15 -61.9 -4.5 -57.45 -4.5 -48.65 -4.5 -45.2 -4.75 -44.6 -5.3 -43.2 -8.85 -39.4 L-9.8 -39.4 Q-10.0 -39.45 -10.0 -40.7 -10.0 -41.65 -9.25 -44.65 -8.45 -47.65 -8.45 -48.65 -8.45 -51.85 -10.6 -55.75 -13.6 -61.05 -18.7 -61.05 -28.85 -61.05 -33.85 -56.7" fill="#42b5a8" fill-rule="evenodd" stroke="none"/>
    <path d="M72.0 -268.7 Q82.3 -264.6 87.75 -261.9 102.85 -253.25 111.75 -241.3 114.75 -237.25 118.35 -231.05 L124.2 -221.1 Q131.15 -210.15 135.25 -200.55 139.6 -190.35 141.35 -180.3 146.1 -151.8 146.1 -139.5 146.1 -129.35 140.3 -110.55 134.35 -91.2 128.8 -87.7 L129.15 -86.7 Q128.95 -86.7 128.95 -86.3 L127.95 -86.1 Q121.35 -91.15 116.05 -100.3 110.9 -110.45 108.25 -114.65 109.1 -111.6 113.9 -96.65 117.6 -85.2 119.1 -78.3 L118.7 -76.25 117.95 -75.9 116.1 -75.65 Q113.9 -75.65 102.7 -88.55 L85.75 -49.25 Q74.15 -22.75 64.5 -4.8 L63.75 -5.1 Q63.85 -0.9 64.1 3.1 L63.9 3.8 62.5 4.05 Q59.55 4.05 58.95 -1.0 L58.95 -6.4 Q58.95 -34.15 63.75 -62.85 70.1 -100.85 81.85 -112.5 L83.15 -112.15 Q83.8 -111.85 83.8 -110.6 80.7 -103.0 77.0 -92.8 69.75 -72.2 67.25 -53.7 65.1 -38.05 64.3 -25.4 63.65 -15.9 63.75 -7.25 79.65 -49.3 100.8 -90.8 91.4 -101.8 85.95 -109.75 L74.2 -126.75 Q67.1 -137.35 63.9 -144.05 58.4 -155.15 47.8 -178.65 37.9 -198.75 27.8 -209.65 L26.45 -212.65 Q26.25 -192.55 22.25 -155.85 18.35 -121.05 17.2 -104.8 L18.55 -102.85 18.5 -101.8 Q18.4 -101.25 17.2 -101.25 L17.0 -101.25 16.8 -97.9 Q16.6 -97.3 15.6 -96.95 13.9 -98.15 13.25 -103.1 7.75 -107.35 -1.8 -121.6 -11.1 -135.45 -19.5 -150.95 -18.5 -140.95 -13.45 -122.0 L-8.65 -104.1 Q-8.65 -102.75 -9.0 -102.05 -9.6 -100.85 -11.2 -100.85 -18.75 -100.85 -29.8 -122.6 -38.35 -139.35 -43.7 -156.85 -46.7 -166.75 -49.9 -183.2 -53.8 -202.9 -53.8 -212.7 -53.8 -216.8 -53.3 -220.5 -52.65 -225.3 -51.4 -226.8 -49.3 -223.75 -49.05 -218.95 -49.15 -213.65 -48.85 -211.05 -46.6 -190.95 -44.3 -179.7 -36.55 -141.45 -18.9 -117.45 L-24.15 -146.5 Q-27.95 -167.0 -27.95 -168.35 L-27.75 -172.2 -27.1 -172.6 -25.4 -173.0 -8.35 -145.25 Q4.9 -123.65 12.85 -111.45 L12.85 -111.8 Q12.85 -115.4 14.3 -127.05 L17.5 -152.85 Q22.1 -193.25 22.1 -227.1 22.1 -228.3 23.2 -228.7 L24.3 -229.0 Q25.95 -226.7 26.35 -221.8 L26.45 -218.85 Q29.15 -217.1 36.3 -205.65 47.2 -188.0 63.3 -155.85 73.1 -137.5 83.85 -121.75 96.9 -102.6 110.2 -89.05 L103.65 -110.15 Q99.0 -125.45 99.0 -127.3 L99.0 -128.45 99.35 -129.05 100.1 -129.35 101.95 -129.65 Q107.7 -129.65 117.1 -113.15 123.75 -101.5 127.75 -90.65 L135.1 -114.15 Q140.55 -131.45 140.55 -139.6 140.55 -144.55 138.4 -159.15 L135.85 -176.55 Q134.55 -191.0 122.25 -213.2 L112.15 -231.25 Q105.3 -242.45 97.2 -249.9 92.5 -254.2 63.25 -265.2 34.5 -276.1 28.8 -276.1 18.0 -276.1 17.15 -274.85 L12.25 -275.15 Q12.5 -276.2 13.0 -277.1 L12.45 -277.1 -1.15 -279.5 Q-17.0 -282.0 -29.35 -282.0 -66.4 -282.0 -103.9 -252.65 -116.2 -243.05 -126.8 -231.55 -134.3 -223.45 -136.35 -220.1 L-137.3 -218.6 Q-144.45 -209.25 -145.2 -204.95 -145.75 -201.75 -156.25 -183.85 L-157.25 -182.45 Q-167.6 -168.65 -177.35 -139.7 -175.4 -142.25 -156.0 -170.8 -141.65 -191.95 -139.3 -191.95 L-137.4 -191.75 -136.95 -191.55 -136.65 -191.05 Q-136.35 -190.6 -136.35 -189.45 -136.35 -188.0 -145.35 -173.25 -154.65 -158.05 -155.5 -153.1 -157.3 -142.4 -158.1 -135.4 -159.25 -125.65 -159.25 -117.6 -159.25 -104.75 -157.5 -89.5 -155.9 -75.4 -153.35 -64.6 -147.2 -83.6 -121.45 -122.65 L-121.05 -123.2 -120.3 -126.95 Q-116.4 -144.9 -108.95 -159.4 L-107.45 -158.25 Q-107.0 -157.7 -107.0 -156.35 -107.0 -155.1 -110.85 -141.5 -115.15 -126.2 -116.25 -120.8 -107.35 -144.5 -93.15 -169.2 -78.75 -194.25 -60.85 -216.75 L-59.3 -215.45 -58.5 -214.6 Q-70.1 -199.95 -81.15 -181.7 -90.2 -166.7 -99.7 -148.0 -105.3 -136.9 -113.95 -108.3 L-121.6 -82.15 Q-123.55 -82.15 -123.95 -87.9 -124.15 -90.8 -123.95 -93.8 -123.95 -105.45 -122.15 -117.15 -144.7 -81.15 -151.35 -52.4 -151.65 -51.45 -152.35 -51.2 -155.3 -53.0 -155.3 -54.65 -155.3 -57.2 -154.5 -60.55 L-154.7 -60.45 Q-158.85 -67.9 -161.75 -87.6 -164.35 -104.8 -164.35 -117.6 -164.35 -121.75 -162.85 -136.35 L-161.0 -152.5 Q-163.0 -150.35 -173.85 -134.9 -183.2 -121.55 -184.65 -121.55 -186.6 -121.55 -187.0 -123.4 -187.2 -124.35 -187.0 -125.5 -187.0 -131.95 -178.1 -149.95 L-178.35 -151.8 Q-178.35 -155.5 -160.85 -188.2 -142.9 -221.6 -134.0 -233.7 -127.2 -242.9 -112.3 -253.4 L-87.5 -270.4 Q-69.8 -283.3 -41.0 -285.85 -53.1 -288.35 -60.1 -296.5 -63.35 -300.35 -65.05 -305.0 -66.2 -308.15 -66.2 -309.8 -66.2 -323.0 -56.6 -333.0 -43.15 -347.0 -14.15 -348.7 L-13.9 -348.05 -1.55 -348.7 Q-22.4 -344.15 -31.8 -334.65 -39.2 -327.2 -39.2 -317.3 -39.2 -310.5 -38.4 -306.95 -37.05 -301.15 -33.1 -296.95 -22.85 -286.25 8.5 -283.25 L7.7 -281.95 7.6 -281.8 Q11.6 -280.45 14.3 -278.75 20.85 -284.65 46.45 -277.45 58.0 -274.25 72.0 -268.7 M-61.85 -309.8 Q-61.85 -297.1 -42.7 -291.65 -37.6 -290.25 -30.1 -289.1 -34.6 -291.7 -37.45 -295.2 -41.3 -299.95 -42.5 -306.7 -43.15 -310.2 -43.15 -317.3 -43.15 -328.8 -34.85 -337.65 -29.3 -343.6 -21.0 -346.35 -40.4 -342.45 -51.55 -331.5 -61.85 -321.3 -61.85 -309.8 M-120.6 -60.25 L-128.4 -40.05 Q-136.85 -18.6 -139.1 -9.55 L-139.8 -9.2 -140.9 -8.75 -141.4 -9.55 -141.7 -8.75 -141.55 -8.45 Q-141.65 -8.15 -142.85 -8.15 -146.2 -8.15 -147.05 -15.15 L-147.2 -22.4 Q-147.2 -34.65 -142.5 -62.05 -137.65 -90.5 -134.6 -92.6 -133.4 -90.8 -133.4 -88.15 -135.95 -74.95 -138.4 -59.85 -143.45 -29.7 -143.45 -15.55 -143.45 -13.9 -143.0 -12.9 L-142.1 -11.25 Q-142.45 -12.3 -142.45 -13.75 -142.45 -16.95 -135.0 -35.9 -127.0 -56.4 -122.35 -61.85 L-121.1 -61.65 Q-120.6 -61.5 -120.6 -60.25" fill="#42b5a8" fill-rule="evenodd" stroke="none"/>
    <path d="M163.25 -201.65 Q137.0 -179.85 139.6 -183.4 142.1 -187.0 141.3 -187.4 L137.4 -189.55 137.0 -191.95 Q145.3 -200.15 154.0 -207.4 154.75 -208.0 154.8 -209.1 155.6 -229.75 154.25 -250.55 153.95 -255.5 154.0 -260.3 L151.15 -259.05 Q150.95 -237.75 148.9 -216.65 147.85 -206.0 137.7 -202.8 L130.7 -200.45 128.3 -205.35 141.85 -215.95 141.85 -218.1 142.15 -218.1 142.2 -251.6 142.15 -251.5 142.15 -252.0 113.8 -229.9 108.1 -236.65 107.35 -239.0 141.95 -270.25 137.3 -275.9 102.05 -248.6 96.6 -252.45 105.1 -262.5 Q113.7 -272.2 132.35 -285.0 L133.35 -285.65 141.8 -281.4 141.6 -280.05 141.2 -278.8 141.35 -278.65 163.2 -265.75 Q161.65 -237.25 163.25 -201.65 M142.35 -281.3 L142.15 -279.95 142.15 -281.35 142.35 -281.3 M132.4 -219.6 L134.5 -232.5 132.7 -219.55 132.4 -219.6 M120.6 -100.15 L121.55 -98.45 122.05 -98.9 Q123.1 -97.65 123.35 -95.45 L123.35 -95.4 Q125.3 -92.05 126.75 -90.05 L127.6 -90.7 127.55 -91.5 Q127.55 -93.4 128.8 -94.6 129.9 -95.6 131.5 -95.65 L133.25 -95.25 133.85 -95.35 135.15 -95.15 135.75 -99.9 Q136.3 -104.75 135.85 -107.2 135.2 -110.4 136.05 -111.5 136.75 -112.5 138.25 -111.75 139.6 -111.05 140.7 -109.45 141.95 -107.75 141.95 -106.2 141.95 -102.55 140.6 -97.95 141.15 -96.2 141.15 -93.95 141.15 -84.8 140.5 -80.8 139.2 -73.0 134.6 -67.15 123.1 -52.3 87.15 -45.7 L85.75 -43.1 Q84.6 -43.1 84.2 -43.4 L83.2 -44.1 83.05 -45.4 80.85 -45.8 80.65 -46.15 Q80.45 -46.45 80.45 -47.55 80.45 -48.35 82.95 -49.5 L85.25 -54.6 Q87.85 -59.85 90.6 -64.25 L93.3 -68.25 Q92.1 -69.2 91.3 -70.5 L91.35 -71.8 Q91.6 -72.7 92.85 -72.7 93.7 -72.7 94.3 -72.1 L95.55 -70.85 Q97.95 -73.05 98.35 -69.75 L104.7 -69.55 Q104.7 -77.4 108.25 -83.5 109.7 -85.95 110.7 -85.7 111.35 -85.55 111.65 -84.1 L112.2 -84.1 Q113.7 -84.1 115.6 -82.8 L116.7 -82.2 Q116.9 -85.85 117.5 -89.0 L117.6 -89.6 113.4 -98.8 Q109.8 -106.3 109.8 -107.0 109.8 -113.5 111.3 -113.8 112.55 -114.05 115.2 -109.8 L120.6 -100.15 M-81.35 -308.2 L-81.55 -307.25 Q-80.2 -305.5 -78.6 -302.8 -74.7 -296.3 -71.85 -288.4 -69.45 -281.8 -68.85 -277.35 L-71.9 -275.9 -74.55 -274.3 Q-77.05 -278.3 -81.35 -287.75 L-86.4 -299.2 -89.35 -295.05 -88.45 -293.85 Q-85.65 -289.95 -83.05 -284.7 -80.6 -279.8 -80.6 -278.55 -80.6 -276.0 -81.6 -272.95 -82.85 -269.2 -84.5 -269.2 -85.5 -269.2 -91.05 -281.45 L-94.2 -288.55 -103.25 -276.9 Q-103.25 -275.7 -102.05 -267.95 L-100.9 -260.35 Q-100.9 -259.05 -103.05 -255.6 -105.65 -251.45 -108.2 -251.45 -110.95 -251.45 -112.1 -256.05 -112.65 -258.3 -112.7 -260.7 L-114.1 -266.5 Q-115.45 -272.5 -115.45 -275.2 L-106.0 -287.35 -95.95 -299.75 -95.75 -300.35 Q-99.55 -298.35 -110.65 -285.0 -122.15 -271.15 -122.15 -267.5 -122.15 -264.6 -119.9 -256.8 -117.65 -249.05 -117.65 -246.8 -117.65 -243.8 -117.85 -243.0 -118.55 -240.6 -121.2 -240.6 L-128.85 -250.3 -136.35 -260.2 Q-136.35 -265.05 -128.35 -275.5 L-122.35 -283.3 Q-119.25 -287.4 -118.45 -289.5 L-115.05 -297.95 Q-112.5 -302.7 -108.95 -303.7 -105.95 -304.5 -100.2 -306.9 L-91.2 -310.55 Q-81.35 -314.0 -81.35 -308.2 M-133.2 -82.35 Q-133.2 -81.4 -136.6 -74.65 -140.0 -67.95 -140.5 -67.95 -142.85 -67.95 -144.65 -74.0 -144.65 -77.85 -142.85 -82.35 -141.15 -86.6 -138.9 -88.95 -136.5 -91.55 -135.0 -90.25 -133.2 -88.75 -133.2 -82.35" fill="#42b5a8" fill-rule="evenodd" stroke="none"/>
    <path d="M131.3 -75.65 L130.75 -74.9 Q130.45 -74.6 129.9 -74.45 L128.85 -74.5 Q128.55 -74.6 128.55 -75.75 128.55 -77.75 128.75 -77.0 L129.6 -77.05 130.9 -76.8 131.3 -75.65" fill="#42b5a8" fill-rule="evenodd" stroke="none"/>
    <path d="M-104.25 -35.05 Q-102.25 -32.2 -102.25 -29.7 -102.25 -27.0 -105.65 -23.8 -110.0 -19.65 -116.85 -19.65 -124.4 -19.65 -125.95 -25.15 -126.4 -26.7 -126.45 -29.45 -126.45 -31.9 -126.7 -32.5 -131.85 -37.15 -133.1 -39.0 -134.6 -41.25 -134.6 -44.9 -134.6 -50.2 -131.05 -51.25 -129.6 -51.65 -128.6 -50.75 -127.5 -49.75 -127.5 -47.65 -127.5 -46.65 -128.3 -46.1 -129.05 -45.5 -129.05 -44.5 -129.05 -43.75 -126.7 -40.95 -124.2 -38.0 -122.95 -38.0 -121.95 -38.0 -119.1 -39.0 L-115.25 -39.95 Q-107.7 -39.95 -104.25 -35.05" fill="#42b5a8" fill-rule="evenodd" stroke="none"/>
    <path d="M140.55 -214.8 Q138.75 -212.65 137.0 -212.65 128.65 -212.65 126.4 -213.65 125.7 -213.95 125.4 -214.55 L124.8 -215.4 125.0 -217.75 133.45 -217.6 Q137.35 -217.1 140.55 -214.8 M158.95 -200.55 Q162.35 -198.65 167.75 -192.5 172.85 -186.75 177.6 -179.75 182.45 -172.6 184.5 -167.7 189.9 -149.05 197.55 -128.65 203.7 -112.4 211.5 -89.3 L224.75 -50.0 Q230.05 -34.0 240.2 -11.6 246.05 1.4 258.45 27.75 269.2 51.2 275.15 67.6 282.5 87.9 285.6 105.2 L289.6 106.8 Q297.25 110.35 297.25 114.05 297.25 114.9 296.7 115.85 295.75 117.4 293.9 117.4 290.55 117.4 273.7 106.7 L256.65 95.5 Q254.75 100.9 252.85 112.0 L249.85 131.75 Q248.05 143.0 246.35 148.3 244.1 155.25 241.1 155.25 233.85 155.25 212.65 135.35 197.4 121.05 182.95 104.6 181.3 116.85 177.25 135.75 171.4 163.7 167.75 163.7 164.9 163.7 155.05 126.45 146.85 95.15 140.95 66.95 133.55 31.85 131.35 18.1 127.15 -7.55 127.15 -29.15 127.15 -43.25 127.95 -49.0 129.45 -59.8 134.65 -67.55 135.75 -67.15 136.35 -66.0 L136.8 -64.55 134.65 -55.6 Q132.5 -45.95 132.5 -41.85 132.5 -2.1 143.7 52.35 153.7 100.6 168.55 143.2 L168.55 143.4 Q169.55 140.25 174.6 114.6 178.4 95.15 180.75 95.15 181.35 95.15 204.85 116.65 230.3 139.9 239.9 145.8 241.0 140.85 242.9 129.3 L246.2 109.9 Q250.4 87.05 253.7 87.05 257.5 87.05 266.2 93.25 270.75 96.45 276.75 101.05 278.6 102.15 282.05 103.7 L276.5 91.8 Q267.3 72.1 257.95 51.15 229.65 -12.35 218.8 -44.9 L193.0 -121.75 186.15 -140.7 Q181.85 -152.65 179.6 -160.2 176.8 -169.55 165.45 -183.05 L158.25 -191.8 Q155.15 -196.05 155.15 -198.3 155.15 -202.6 158.95 -200.55 M-135.55 -230.2 Q-135.4 -229.95 -135.4 -228.8 -135.4 -226.8 -142.15 -223.45 -150.1 -219.55 -151.35 -218.15 -152.6 -216.75 -152.9 -212.9 L-152.9 -208.1 Q-152.9 -205.4 -156.25 -190.95 L-157.0 -187.5 -162.15 -178.45 -163.1 -176.75 -163.35 -179.2 -161.25 -191.2 -158.25 -206.7 Q-157.85 -208.9 -159.05 -213.45 -159.55 -217.65 -155.9 -220.3 -151.2 -223.8 -146.05 -226.6 -139.25 -230.45 -135.75 -230.55 L-135.55 -230.2 M-166.9 -150.05 Q-166.9 -142.8 -177.8 -97.7 -188.95 -51.6 -194.1 -39.2 -203.8 -15.8 -215.85 16.5 L-235.9 70.7 -236.1 71.3 Q-231.85 70.25 -220.45 66.0 -210.25 62.2 -209.1 62.2 -207.35 62.2 -204.6 69.8 -202.7 74.9 -198.95 87.85 -190.1 118.45 -185.85 126.65 -184.55 125.0 -180.6 118.25 -176.45 111.3 -173.55 107.3 -163.7 93.75 -153.9 93.75 -150.75 93.75 -128.9 106.15 -117.3 112.75 -112.0 115.9 L-110.95 104.45 Q-109.75 94.45 -109.75 89.2 L-109.75 80.2 Q-109.2 74.3 -106.2 78.95 -105.6 82.0 -105.25 87.55 L-105.0 94.05 Q-105.0 98.35 -106.7 109.7 -107.5 115.0 -108.2 118.25 L-107.6 118.8 Q-107.6 120.3 -108.85 121.1 -109.35 122.8 -109.75 123.3 L-111.15 121.75 Q-117.7 121.55 -134.25 110.9 L-145.85 103.45 Q-151.5 100.05 -153.6 100.05 -159.9 100.05 -171.85 117.2 L-180.2 129.0 Q-184.4 134.35 -186.6 134.35 -193.65 134.35 -201.05 109.2 -203.5 100.85 -206.5 87.85 -209.5 74.45 -210.65 69.7 -217.2 73.5 -223.55 74.95 -232.8 77.0 -243.8 81.55 L-246.55 80.55 Q-246.75 80.15 -246.75 78.2 L-239.75 60.1 Q-231.35 38.25 -225.45 19.65 -221.65 7.8 -214.25 -8.95 L-200.8 -38.2 Q-195.5 -49.8 -190.65 -66.9 L-182.9 -96.15 Q-181.35 -101.65 -179.4 -112.1 L-176.2 -129.55 Q-172.15 -149.65 -167.3 -151.55 L-167.1 -151.3 Q-166.9 -151.15 -166.9 -150.05 M-108.55 -43.95 L-108.35 -42.05 Q-108.35 -40.85 -108.8 -40.2 L-109.35 -39.4 -110.15 -39.2 -110.7 -40.65 -110.95 -42.75 Q-110.95 -44.15 -110.6 -44.65 -110.25 -45.15 -109.35 -45.3 L-108.55 -43.95 M-108.95 -21.45 Q-108.0 -20.75 -107.55 -19.7 -107.2 -18.75 -107.2 -17.2 -107.2 -15.25 -108.3 -10.25 -109.35 -5.4 -109.75 -5.1 -111.1 -6.35 -111.4 -8.45 L-111.55 -12.0 Q-111.55 -13.95 -111.0 -16.7 -110.25 -20.55 -108.95 -21.45" fill="#42b5a8" fill-rule="evenodd" stroke="none"/>
    <path d="M44.55 -34.9 Q53.5 -37.55 64.4 -41.45 L63.6 -35.35 Q57.25 -33.2 49.5 -30.95 15.2 -20.95 -6.1 -20.95 L-23.4 -21.55 -26.2 -21.8 Q-61.5 -24.7 -92.55 -38.05 -108.65 -44.9 -118.45 -52.7 -127.9 -60.15 -127.9 -65.5 L-127.75 -66.9 -127.7 -66.75 Q-123.0 -65.65 -119.5 -62.75 L-113.4 -56.6 Q-104.65 -47.5 -89.85 -43.1 -74.85 -36.9 -52.45 -32.3 -27.15 -27.15 -6.1 -27.15 17.95 -27.15 44.55 -34.9" fill="#42b5a8" fill-rule="evenodd" stroke="none"/>
    <path d="M-15.55 134.55 Q-15.55 134.5 -23.8 139.6 -32.2 144.7 -32.9 144.7 -35.35 144.7 -36.85 140.95 -37.8 138.35 -37.8 136.9 -37.8 135.85 -34.35 133.5 -30.7 131.1 -26.65 129.7 -15.55 125.8 -15.55 134.55 M-16.0 162.9 Q-21.75 164.75 -30.9 166.3 L-32.25 164.9 Q-32.9 164.15 -32.9 163.5 -32.9 162.3 -32.2 162.0 -31.85 161.8 -31.1 161.75 -33.85 160.8 -33.85 158.4 -33.85 157.9 -29.75 155.25 -25.05 152.15 -20.75 150.5 -7.65 145.45 -7.65 157.15 -7.65 160.2 -16.0 162.9" fill="#42b5a8" fill-rule="evenodd" stroke="none"/>
    <path d="M19.15 26.25 Q28.8 24.5 28.8 34.55 28.8 40.45 27.8 43.4 L5.35 48.35 3.35 48.15 2.8 47.95 Q2.6 48.15 2.6 46.15 L3.1 42.05 3.6 36.7 3.8 36.3 Q4.15 35.9 5.35 35.9 8.45 35.9 6.55 42.8 L6.5 43.15 6.95 43.6 9.55 42.85 11.15 42.05 Q13.85 40.9 23.9 40.05 L24.4 38.0 24.45 35.35 Q24.45 32.35 24.1 30.8 L18.0 32.1 12.85 32.75 10.65 32.55 9.9 32.35 9.7 32.0 Q9.5 31.75 9.5 30.6 9.5 30.1 12.55 28.55 15.95 26.8 19.15 26.25" fill="#42b5a8" fill-rule="evenodd" stroke="none"/>
    <path d="M64.75 191.05 Q67.25 193.45 67.25 194.05 67.25 195.2 57.4 199.85 47.3 204.5 44.0 204.5 42.5 204.5 41.8 203.25 41.4 202.5 41.4 201.75 L43.7 196.15 Q45.95 190.65 45.95 186.4 49.85 180.65 58.9 186.35 62.0 188.3 64.75 191.05 M74.05 194.4 Q78.65 194.85 83.35 196.85 87.95 198.7 87.95 200.0 87.95 201.25 87.2 202.05 86.3 203.05 84.6 203.05 L81.35 202.55 Q78.55 201.55 74.75 200.7 73.4 201.5 73.55 203.35 L74.0 206.85 Q74.0 211.45 64.5 212.9 60.1 213.6 50.85 219.05 41.95 224.35 40.85 224.35 L38.5 224.15 37.7 223.95 37.5 223.6 Q37.3 223.3 37.3 222.2 37.3 220.45 40.85 217.9 45.75 214.75 48.3 212.7 49.95 211.4 56.15 209.2 L67.85 204.85 Q64.3 198.55 66.65 195.95 68.6 193.85 74.05 194.4 M110.45 131.65 Q107.05 128.5 107.05 127.75 107.05 119.75 119.65 130.25 126.0 135.55 132.3 142.55 132.3 144.1 126.85 150.65 L120.05 158.4 119.65 158.9 120.25 158.95 Q121.65 159.3 121.65 161.45 121.65 162.65 117.8 170.2 L118.1 174.35 118.05 177.65 113.85 177.65 Q109.5 185.25 106.25 188.1 L104.7 186.7 Q100.45 191.65 98.0 191.65 L96.05 191.45 95.65 191.25 95.35 190.55 Q95.05 190.0 95.05 188.85 97.1 185.55 100.1 182.3 104.0 178.15 107.4 176.7 L110.4 169.95 Q111.2 167.4 112.35 165.35 112.75 163.0 113.5 160.8 L106.25 166.85 Q103.6 166.85 102.7 165.0 102.35 164.25 102.35 162.95 102.35 161.95 102.9 156.15 L103.5 149.35 Q103.5 144.25 107.25 136.95 109.05 133.4 110.45 131.65 M116.85 146.2 L113.55 152.3 113.5 152.5 113.35 152.9 Q115.4 153.25 116.5 154.0 119.6 148.6 124.6 143.75 L119.5 139.45 Q119.2 141.45 116.85 146.2 M0.65 231.6 L-17.5 235.25 -33.3 235.25 Q-36.45 233.25 -39.45 229.65 -42.95 225.4 -45.7 223.15 L-50.45 227.9 Q-55.25 232.5 -56.55 232.5 L-63.6 231.75 Q-67.5 230.75 -69.25 228.65 L-80.05 223.3 -91.9 216.6 -96.95 213.4 Q-96.95 210.4 -92.3 204.35 L-87.7 198.0 Q-87.7 196.25 -98.4 184.75 -109.15 173.25 -109.15 170.8 -109.15 169.2 -108.5 168.5 -108.0 167.95 -106.45 167.4 -101.4 165.75 -97.95 163.15 L-96.45 164.5 -95.75 165.3 -95.85 165.95 Q-94.35 166.4 -92.45 167.9 L-88.45 171.6 -88.6 172.65 Q-88.8 173.2 -90.05 173.2 -92.9 173.2 -95.25 169.8 L-96.7 167.25 -97.55 168.0 -102.85 171.2 -90.75 185.3 Q-81.0 196.7 -81.0 198.4 L-81.0 198.55 Q-75.95 199.85 -68.35 203.8 -60.85 207.75 -55.25 211.95 -49.65 216.1 -49.25 218.05 -47.45 216.4 -45.9 216.25 -44.1 216.45 -42.05 217.75 L-42.35 217.15 Q-42.35 213.9 -36.15 205.7 -30.1 197.7 -28.55 198.0 -22.8 198.8 -12.2 207.0 -1.75 215.05 -1.75 218.25 -1.75 219.0 -2.3 219.7 -3.1 220.75 -4.9 221.25 L-26.65 222.7 -32.9 223.45 -36.4 223.0 Q-33.65 226.1 -32.3 228.95 L-16.9 229.15 Q-10.55 229.15 -2.85 225.75 L4.55 222.4 6.15 222.65 7.15 223.35 7.3 223.95 7.5 225.6 Q7.5 229.65 0.65 231.6 M-57.85 220.3 L-61.25 218.7 Q-69.25 218.7 -77.05 212.05 L-81.7 207.3 -83.35 204.9 -84.35 203.85 -85.6 205.4 -90.45 211.4 -73.05 219.75 Q-68.6 221.8 -65.2 223.25 L-65.2 225.1 -63.55 225.5 -56.95 226.8 Q-56.1 226.8 -52.5 221.85 -54.55 221.75 -57.85 220.3" fill="#42b5a8" fill-rule="evenodd" stroke="none"/>
    <path d="M95.6 216.8 Q95.8 218.65 95.8 228.15 L94.9 241.1 Q93.6 255.65 91.5 267.85 L90.8 271.9 90.25 275.6 86.35 300.25 Q86.35 302.5 83.7 310.75 L83.6 311.2 83.6 311.75 83.1 312.65 82.65 314.0 Q77.6 314.8 73.6 316.85 L73.15 316.85 69.35 316.45 68.45 316.65 Q65.3 316.65 63.15 297.3 61.15 274.6 59.95 267.8 57.8 255.6 51.5 236.65 L48.3 226.9 46.3 224.9 Q45.0 223.6 45.0 222.85 45.0 216.4 47.15 216.0 49.1 215.65 52.45 220.4 59.5 230.3 66.0 249.85 L68.6 267.4 Q71.0 284.35 71.0 287.75 L70.75 296.2 70.2 304.6 70.3 305.55 71.35 305.3 72.15 305.2 Q70.9 302.95 70.85 295.8 L71.2 285.15 Q71.2 278.45 68.75 257.55 65.45 229.3 60.95 218.1 L60.9 218.45 60.55 219.1 Q59.3 218.1 58.35 215.3 57.6 212.9 57.6 211.2 57.6 208.4 62.95 205.1 70.0 200.75 71.4 199.2 77.5 192.25 83.4 194.35 86.3 195.35 88.9 198.35 90.55 198.35 91.65 199.35 92.85 200.45 92.85 202.35 L92.4 203.75 Q95.1 212.75 95.6 216.8 M76.15 312.55 L76.9 309.0 Q73.75 309.95 70.8 309.95 L71.0 312.65 70.95 313.3 76.15 312.55 M-28.5 230.75 L-25.8 234.35 -24.95 242.0 Q-25.85 246.6 -26.35 252.6 L-27.55 267.8 Q-28.6 277.5 -29.7 296.25 L-30.3 307.6 Q-31.05 309.05 -31.3 310.8 L-31.4 311.65 -31.05 312.5 Q-30.75 313.5 -30.75 315.1 L-30.95 317.75 -31.45 319.55 Q-31.55 321.6 -32.0 322.85 -45.0 320.85 -48.5 320.85 L-52.4 321.25 Q-58.85 310.8 -65.05 281.8 -68.1 267.55 -70.7 250.6 L-72.7 236.25 Q-72.7 228.35 -71.95 224.65 -70.4 216.8 -66.0 226.0 L-66.45 226.1 -67.4 226.0 -68.05 229.15 Q-66.25 225.8 -61.0 230.6 L-61.0 275.6 -60.5 278.05 Q-58.75 288.05 -54.55 299.2 -55.3 294.15 -55.7 287.55 -56.25 278.75 -56.05 268.25 L-55.75 259.7 -55.25 249.65 Q-54.9 239.95 -55.35 234.85 -55.75 230.4 -51.8 225.9 -48.2 221.85 -42.7 219.5 -39.95 218.3 -37.45 217.9 L-28.5 230.75 M-36.8 314.95 L-42.45 315.6 Q-39.7 316.95 -38.8 317.85 L-33.1 317.75 -33.25 315.7 -33.3 315.7 -36.6 315.0 -36.8 314.95" fill="#42b5a8" fill-rule="evenodd" stroke="none"/>
    <path d="M138.15 -213.55 Q138.0 -212.4 137.4 -211.5 139.35 -210.75 140.05 -209.75 140.55 -209.05 140.55 -208.0 140.55 -206.95 140.0 -205.8 L142.2 -201.65 Q144.7 -197.0 144.7 -195.15 L144.45 -193.3 Q148.05 -192.5 153.1 -187.0 158.95 -180.55 164.15 -171.0 169.15 -161.75 169.15 -157.7 169.15 -156.2 157.55 -138.8 145.45 -120.65 142.55 -120.65 141.55 -120.65 140.7 -121.65 L139.4 -123.4 139.4 -154.75 Q137.35 -165.4 137.2 -167.6 137.0 -169.15 137.0 -177.55 137.0 -181.2 137.35 -184.0 135.85 -187.35 134.5 -194.4 L133.2 -202.15 Q132.05 -203.25 130.1 -206.05 127.15 -210.35 127.15 -210.75 127.15 -213.15 130.15 -214.5 133.25 -215.95 138.0 -215.65 138.3 -214.75 138.15 -213.55 M1.25 -2.75 Q-2.25 -0.65 -5.7 0.45 L-7.4 -1.2 -7.85 -1.75 Q-7.85 -3.9 -2.7 -7.05 2.45 -10.15 5.55 -10.0 L5.85 -9.5 Q6.15 -9.1 6.15 -7.95 6.15 -5.65 1.25 -2.75 M20.75 -1.45 Q20.75 1.0 18.15 3.6 15.45 6.35 12.45 6.35 10.65 6.35 10.1 4.95 L9.9 3.3 Q9.9 2.0 11.6 0.05 13.25 -1.85 15.35 -3.15 20.75 -6.5 20.75 -1.45 M38.45 67.85 Q37.15 78.85 35.3 84.5 L35.5 84.55 Q40.55 86.45 42.6 90.9 L43.05 90.65 Q43.6 90.3 44.75 90.3 46.85 90.3 47.3 92.0 47.55 92.9 47.35 93.95 44.45 104.7 41.6 104.7 36.95 104.7 36.9 100.7 37.7 96.25 37.5 95.45 L33.8 91.4 32.45 89.85 Q31.75 90.4 31.0 90.4 26.8 90.4 21.3 80.25 L16.6 69.9 20.0 67.1 Q24.05 64.15 27.55 62.55 38.45 57.4 38.45 67.85 M60.15 136.4 Q61.9 136.2 63.15 137.1 64.5 138.15 64.5 140.05 64.5 144.6 60.95 163.75 56.75 186.2 53.45 186.2 50.3 186.2 49.1 184.25 L48.5 182.15 Q48.5 180.85 49.65 176.8 L52.2 167.8 Q55.8 153.5 55.8 140.8 55.8 138.9 57.15 137.65 58.35 136.55 60.15 136.4 M-110.8 -51.65 Q-107.8 -49.2 -107.8 -48.15 -107.8 -46.9 -108.95 -46.1 -109.85 -45.5 -110.55 -45.5 -123.0 -45.5 -126.15 -47.05 -127.2 -47.55 -127.25 -48.35 L-127.1 -49.45 Q-127.1 -59.6 -117.45 -55.65 -114.0 -54.3 -110.8 -51.65 M-26.0 -19.2 Q-26.0 -21.5 -25.2 -21.85 L-20.85 -22.05 Q-18.1 -22.05 -8.25 -24.8 0.25 -26.5 0.25 -22.4 0.25 -21.25 -5.3 -12.35 -10.8 -3.5 -11.6 -3.5 -12.6 -3.5 -15.6 -7.2 -18.95 -11.3 -20.25 -12.0 -23.55 -13.85 -25.0 -16.25 -26.0 -17.8 -26.0 -19.2 M-33.5 -6.65 Q-33.5 -9.55 -28.65 -8.7 -23.8 -7.9 -23.8 -5.6 -23.8 -4.5 -25.15 -3.5 -26.45 -2.5 -27.75 -2.5 -30.55 -2.5 -32.25 -4.3 -33.5 -5.6 -33.5 -6.65 M-44.1 68.5 Q-44.1 66.35 -43.45 65.8 -41.5 64.05 -34.05 64.6 -32.35 65.05 -31.6 66.15 -31.1 66.85 -31.1 67.65 -31.1 70.35 -33.05 78.0 -35.3 86.85 -37.2 86.85 -40.35 86.85 -42.5 78.0 -44.1 71.55 -44.1 68.5" fill="#42b5a8" fill-rule="evenodd" stroke="none"/>
  </g>
</svg>
