<?xml version="1.0" encoding="UTF-8" standalone="no"?>
<svg xmlns:xlink="http://www.w3.org/1999/xlink" height="348.65px" width="309.4px" xmlns="http://www.w3.org/2000/svg">
  <g transform="matrix(1.0, 0.0, 0.0, 1.0, -34.7, -30.15)">
    <path d="M61.2 344.85 Q61.2 348.75 59.65 355.25 L57.1 365.25 Q70.5 364.85 71.85 363.8 L72.05 363.1 74.15 362.85 Q76.75 362.85 77.65 364.9 78.05 365.85 78.05 367.2 78.05 368.65 77.55 369.45 L75.85 371.05 Q73.85 371.8 68.25 372.55 L61.2 373.25 Q51.7 373.25 49.8 370.0 49.2 369.05 49.4 367.75 L49.75 366.45 Q49.75 362.2 51.3 357.75 53.4 351.45 54.05 348.0 L54.5 343.75 Q54.8 340.85 55.6 338.9 59.8 338.15 60.85 340.5 61.2 341.3 61.2 344.85 M129.25 341.6 Q132.3 343.65 132.45 347.55 133.0 350.9 133.3 356.6 L133.5 363.4 133.2 366.55 Q132.8 368.2 131.8 369.55 129.75 369.9 126.25 372.0 123.3 373.65 118.2 373.65 111.3 373.65 109.75 370.8 109.3 369.9 109.35 368.75 L109.55 367.75 Q109.55 363.4 112.5 360.25 116.75 355.6 127.0 354.0 L127.2 353.8 127.25 352.3 Q127.25 350.65 126.65 349.1 125.75 346.65 123.55 345.8 121.4 345.8 118.95 346.6 L115.6 347.3 Q114.3 347.3 114.0 347.0 L113.2 346.25 Q113.0 346.45 113.0 344.3 113.0 342.45 115.95 341.1 118.85 339.8 122.6 339.85 126.65 339.9 129.25 341.6 M153.7 346.35 Q158.4 348.0 161.9 350.75 165.65 353.75 165.65 356.15 165.65 359.4 158.8 366.55 151.15 374.5 144.95 374.5 141.7 374.5 140.85 372.65 L140.65 370.55 Q140.65 369.3 141.45 365.6 L142.55 359.8 142.15 354.75 141.7 350.45 Q141.7 346.3 145.45 345.4 148.7 344.65 153.7 346.35 M102.8 354.6 Q100.35 352.1 94.0 351.85 93.35 353.7 91.7 356.3 90.75 357.75 90.75 360.5 90.75 362.05 91.05 362.75 L92.05 364.4 98.1 364.4 102.65 360.8 Q104.15 359.4 104.15 357.9 104.15 356.0 102.8 354.6 M110.0 355.65 Q110.0 359.95 106.95 364.4 102.8 370.45 95.3 370.45 87.9 370.45 85.75 365.65 85.1 364.1 85.05 362.25 L85.15 360.6 Q85.15 355.05 86.25 352.5 87.9 348.7 93.35 345.4 97.85 342.6 104.1 347.2 110.0 351.5 110.0 355.65 M118.65 366.65 L121.95 366.75 Q124.9 366.75 126.4 365.0 127.7 363.4 127.0 361.55 124.7 361.35 121.3 363.05 118.65 364.3 117.5 365.45 L116.9 366.5 118.65 366.65 M149.05 352.5 L149.25 363.5 149.05 364.6 Q151.15 363.85 154.45 360.8 157.5 358.05 158.1 356.6 157.15 355.45 153.7 354.05 150.8 352.85 149.05 352.5 M242.55 341.6 Q244.25 339.9 247.7 343.4 L248.3 347.3 249.0 351.2 249.75 359.95 250.1 366.45 Q250.1 370.45 247.55 374.1 244.2 378.9 238.2 378.8 L227.85 378.8 Q224.4 376.45 224.4 374.85 224.4 373.8 225.1 372.8 226.05 371.5 227.85 371.05 231.1 370.2 235.95 372.15 239.25 373.45 242.1 370.0 243.35 368.4 243.7 364.4 240.65 366.95 235.6 366.95 230.0 366.95 227.0 364.65 224.2 362.4 224.2 358.75 224.2 352.9 227.75 349.1 231.0 345.65 235.6 345.25 239.0 344.95 241.6 346.45 L241.45 345.4 Q241.45 342.8 242.55 341.6 M217.7 346.45 L218.6 352.0 219.0 356.8 Q219.0 362.5 218.6 363.95 217.35 368.55 212.3 371.5 206.7 371.35 203.75 368.55 L200.0 363.95 Q198.95 365.65 198.4 370.1 197.3 374.15 193.3 376.0 L192.15 376.0 Q191.8 375.95 191.8 374.65 191.8 373.95 193.05 368.2 L194.6 361.35 Q195.15 356.65 195.65 353.95 196.55 349.05 199.35 349.05 202.1 349.05 203.0 352.65 203.5 354.55 203.65 357.25 204.1 358.8 206.2 361.15 L209.7 365.0 Q211.9 363.15 212.35 361.15 L212.5 356.6 Q212.5 355.35 210.8 351.35 209.05 347.4 209.05 346.85 209.05 343.5 212.9 343.05 216.75 342.6 217.7 346.45 M184.65 346.15 Q184.65 347.65 183.4 348.15 L181.2 348.85 176.9 348.85 174.85 347.2 Q174.1 346.5 174.1 345.8 174.1 342.85 181.2 343.2 L183.95 345.1 Q184.65 345.75 184.65 346.15 M181.9 360.95 Q182.2 364.05 181.85 366.85 181.85 369.75 181.65 370.45 181.05 372.55 178.6 372.55 176.0 372.55 175.45 369.9 L175.35 366.95 Q175.1 362.15 175.3 358.25 175.8 350.65 178.6 352.7 181.4 354.7 181.9 360.95 M237.15 350.1 Q234.45 350.0 231.85 352.45 229.55 354.6 229.55 356.1 229.55 357.7 229.85 358.5 230.1 359.3 231.1 360.25 L232.8 360.95 238.85 360.95 Q241.45 359.4 241.45 357.05 241.45 355.8 240.1 354.2 238.05 351.7 237.15 350.1 M269.95 359.2 Q269.75 359.4 269.75 357.25 269.75 355.35 271.2 354.45 273.1 353.35 275.8 357.25 L275.35 359.2 274.65 359.75 Q274.05 360.25 272.75 360.25 L271.0 359.95 269.95 359.2 M262.6 356.5 Q262.6 358.15 260.45 359.2 258.7 360.05 257.2 360.05 255.25 360.05 254.6 358.7 L254.4 357.05 Q254.4 353.5 258.5 353.25 262.6 353.1 262.6 356.5 M288.3 360.95 L286.6 360.6 Q286.25 360.15 285.7 359.8 285.5 360.05 285.5 357.9 285.5 355.4 288.85 354.65 292.2 353.95 292.2 357.25 291.2 360.95 288.3 360.95" fill="#c0c0c0" fill-rule="evenodd" stroke="none"/>
    <path d="M325.0 106.7 Q321.9 103.15 318.4 102.7 309.95 101.55 306.25 116.25 L309.4 116.4 329.75 115.75 Q328.15 110.25 325.0 106.7 M341.5 124.65 Q333.95 132.15 306.25 130.75 L306.25 145.75 Q306.75 147.25 307.25 151.9 308.15 155.75 311.25 155.75 326.05 155.75 328.45 153.0 L329.55 151.1 Q330.25 150.25 332.75 150.25 337.3 150.25 339.2 154.3 340.25 156.5 340.25 158.75 340.25 164.15 332.8 167.8 325.85 171.25 316.75 171.25 296.4 171.25 291.8 151.9 290.35 145.85 290.65 138.45 L291.25 132.0 Q291.25 110.0 299.45 98.1 306.5 87.85 317.5 87.45 327.75 87.1 335.55 95.0 343.75 103.25 343.75 115.5 L344.1 118.95 Q343.95 122.2 341.5 124.65 M276.55 94.45 Q283.75 105.55 283.75 129.75 L284.05 136.7 Q284.2 143.75 283.75 149.3 282.3 166.75 274.75 166.75 271.75 166.75 270.75 166.05 269.75 165.0 268.25 164.25 269.25 151.2 269.55 134.8 L269.75 104.25 Q269.9 103.65 269.7 103.0 269.3 101.75 266.25 101.75 252.95 101.75 251.8 129.2 251.2 143.0 253.25 157.25 253.25 162.25 252.75 161.75 L251.25 163.0 Q249.75 164.25 246.75 164.25 240.2 164.25 238.3 145.3 237.75 139.4 237.7 132.3 L237.75 126.5 Q237.75 112.1 244.95 100.5 251.75 89.5 260.75 87.25 270.35 84.85 276.55 94.45 M238.8 31.3 Q244.75 33.8 244.75 39.75 244.75 40.8 242.15 42.05 237.65 44.2 235.45 45.65 224.25 53.15 216.25 71.25 L216.25 89.85 Q223.35 90.15 228.7 91.9 235.75 94.2 235.75 97.75 235.75 102.45 228.8 104.8 224.2 106.35 216.25 107.1 L216.25 153.75 Q214.55 159.6 212.9 162.25 210.45 166.25 206.75 166.25 200.95 166.25 199.3 161.9 198.75 160.5 198.75 157.0 198.75 153.65 199.45 151.4 199.85 150.1 201.25 147.25 L201.25 107.75 199.75 107.75 Q193.9 107.75 191.8 103.8 190.75 101.85 190.75 99.25 190.75 94.6 197.8 92.0 L201.25 91.0 201.25 67.75 Q203.35 52.7 210.6 42.9 216.7 34.55 225.25 31.55 232.9 28.85 238.8 31.3 M162.75 49.25 Q181.25 45.65 182.2 64.9 182.5 70.7 181.15 82.1 179.7 94.05 179.75 97.75 L180.0 113.5 180.25 129.25 Q180.25 149.65 185.25 154.1 186.5 155.2 188.7 156.15 190.25 157.2 190.25 160.0 190.25 164.5 186.25 166.25 184.0 167.25 180.75 167.25 167.0 167.25 165.25 114.9 164.4 88.7 166.25 62.0 166.25 59.5 164.25 56.75 162.25 54.0 162.25 51.5 162.25 48.4 162.5 48.5 L162.75 49.25 M193.8 193.1 Q195.05 193.25 197.45 189.5 199.85 185.7 201.45 193.7 203.0 201.7 203.65 218.8 L204.25 239.25 204.25 239.55 Q215.55 229.6 226.75 222.25 229.25 224.35 230.15 225.95 231.25 228.0 231.25 231.5 231.25 236.2 225.5 243.8 219.75 251.35 219.75 251.75 L226.5 265.65 Q233.25 279.4 233.25 286.25 L233.2 290.75 232.75 293.75 231.25 295.0 Q229.75 296.25 226.75 296.25 221.35 296.25 218.5 284.3 216.65 272.0 216.25 271.25 215.0 268.55 204.15 260.55 L202.9 259.65 202.3 264.75 Q199.5 287.25 194.75 287.25 188.65 287.25 187.35 278.05 186.95 275.1 187.05 271.55 L187.25 268.25 188.05 243.7 Q188.7 220.3 187.75 208.25 189.35 199.6 191.0 195.9 192.35 192.9 193.8 193.1 M140.8 87.0 Q148.1 90.1 150.75 97.25 152.35 106.9 153.2 123.5 153.75 134.75 153.75 142.25 153.75 150.25 148.8 157.3 142.15 166.75 129.75 166.75 113.2 166.75 105.8 153.25 103.5 149.05 102.4 143.95 L101.75 139.75 Q101.75 128.65 107.5 120.75 116.65 108.2 138.75 106.25 138.35 104.85 135.55 100.7 L131.75 94.75 Q128.0 96.75 123.45 101.45 119.2 105.8 114.75 107.75 L109.25 106.25 107.9 105.3 Q107.25 104.8 107.25 101.75 107.25 95.55 113.0 90.9 118.35 86.65 126.2 85.45 134.25 84.2 140.8 87.0 M65.75 84.75 Q83.3 84.75 90.25 106.35 93.75 117.2 93.75 128.5 93.75 137.2 91.75 147.3 88.3 164.75 80.75 164.75 74.0 164.75 72.2 160.4 71.65 159.0 71.65 157.25 L71.75 155.5 Q71.75 153.0 73.75 142.4 75.75 131.75 75.75 129.25 75.75 126.0 72.9 116.5 69.9 106.6 67.75 103.75 57.4 106.45 54.15 116.65 51.95 123.6 52.7 137.25 53.5 152.8 53.0 156.35 51.75 164.75 44.75 164.75 38.05 164.75 35.7 109.8 34.55 82.45 34.75 56.5 34.75 44.0 37.65 40.7 40.25 37.75 44.0 43.2 47.8 48.75 50.35 59.55 53.25 71.65 53.25 85.25 L57.8 85.0 65.75 84.75 M137.75 138.5 Q137.75 130.9 135.25 121.75 126.2 121.25 120.45 128.2 115.75 133.85 115.75 139.75 115.75 143.45 119.25 147.25 123.4 151.75 129.5 151.75 136.4 151.75 137.75 145.3 138.2 143.3 138.0 140.8 L137.75 138.5 M159.75 221.0 Q159.75 216.55 162.25 214.35 164.4 212.45 167.75 212.7 170.9 212.95 173.25 214.9 175.75 216.95 175.75 219.75 175.75 222.55 172.3 225.75 169.0 228.75 166.75 228.75 161.7 228.75 160.25 225.15 159.75 223.95 159.75 221.0 M103.25 239.75 Q133.75 218.6 141.75 235.2 144.4 240.7 144.6 250.8 144.7 256.2 144.25 264.0 L144.5 269.85 Q144.65 274.8 144.25 278.3 143.05 289.25 136.75 289.25 131.6 289.25 129.8 284.3 128.45 280.6 128.55 272.05 L128.65 256.55 Q128.25 247.4 125.75 241.75 121.95 244.35 118.15 252.45 115.85 257.4 112.05 268.4 108.3 279.2 106.5 282.9 103.5 289.25 100.75 289.25 96.55 289.25 94.25 283.8 92.55 279.65 91.5 270.9 L89.85 255.8 Q88.75 247.45 86.75 243.75 83.2 248.45 81.4 258.35 80.5 263.2 79.2 276.6 78.15 287.7 76.8 292.15 74.8 298.75 70.75 298.75 62.95 298.75 59.8 274.55 58.85 266.95 58.45 257.7 L58.25 249.75 58.3 244.3 58.75 239.25 Q66.2 239.25 70.05 237.6 72.6 236.55 74.55 234.0 76.7 231.2 78.1 230.4 80.95 228.75 86.75 228.75 94.7 228.75 98.95 233.7 100.0 234.9 101.45 237.4 102.6 239.35 103.25 239.75 M157.9 250.1 Q160.3 241.25 163.75 237.45 167.2 233.65 169.6 237.25 172.25 241.25 172.25 253.0 172.25 266.65 170.95 273.65 168.85 285.1 162.75 289.25 L155.75 286.75 Q155.25 282.25 155.25 271.75 155.25 260.0 157.9 250.1 M273.75 228.75 L275.95 227.5 Q277.8 226.25 280.75 226.25 288.55 226.25 290.2 239.3 291.0 245.9 290.25 252.75 290.25 264.85 286.7 273.8 280.65 289.25 265.75 289.25 247.7 289.25 243.7 277.35 242.45 273.55 242.7 268.7 L243.25 263.75 Q243.4 250.15 245.0 239.1 248.25 217.15 255.75 226.25 261.25 234.05 260.4 246.95 L259.15 258.65 Q258.25 266.2 258.25 271.25 258.9 271.25 261.15 272.25 263.4 273.25 266.25 273.25 278.0 273.25 276.95 254.2 276.65 248.95 275.05 239.3 273.65 230.8 273.75 228.75" fill="#c91481" fill-rule="evenodd" stroke="none"/>
  </g>
</svg>
