<?xml version="1.0" encoding="UTF-8" standalone="no"?>
<svg xmlns:xlink="http://www.w3.org/1999/xlink" height="51.3px" width="22.35px" xmlns="http://www.w3.org/2000/svg">
  <g transform="matrix(1.0, 0.0, 0.0, 1.0, 6.05, 31.9)">
    <path d="M5.55 -31.8 L6.55 -31.9 Q7.2 -28.7 8.45 -25.7 13.75 -12.5 16.3 1.25 L15.05 2.25 13.55 2.55 12.9 0.4 11.9 -4.95 10.8 -10.0 9.45 -15.4 Q8.45 -18.55 6.55 -27.1 L5.55 -31.8 M6.45 1.35 L-1.8 -29.95 -0.8 -31.2 1.1 -31.35 1.8 -29.95 2.05 -27.35 Q2.15 -26.4 2.55 -24.8 L3.15 -22.3 4.0 -17.25 5.1 -12.2 6.25 -7.1 7.7 -2.05 9.1 2.55 8.4 2.4 7.35 2.1 6.45 1.35" fill="#363443" fill-rule="evenodd" stroke="none"/>
    <path d="M1.1 -31.35 L5.55 -31.8 6.55 -27.1 Q8.45 -18.55 9.45 -15.4 L10.8 -10.0 11.9 -4.95 12.9 0.4 13.55 2.55 12.8 2.65 12.6 2.7 9.1 2.55 7.7 -2.05 6.25 -7.1 5.1 -12.2 4.0 -17.25 3.15 -22.3 2.55 -24.8 Q2.15 -26.4 2.05 -27.35 L1.8 -29.95 1.1 -31.35" fill="#8b0e59" fill-rule="evenodd" stroke="none"/>
    <path d="M15.05 2.25 Q12.45 7.25 8.2 12.0 L7.15 13.05 4.4 15.55 3.3 16.85 0.25 19.4 Q0.05 18.2 -0.8 17.75 L2.8 13.6 8.25 8.0 12.6 2.7 12.8 2.65 13.55 2.55 15.05 2.25 M-4.6 17.65 L-5.15 17.45 -5.8 17.0 -5.85 16.95 -5.9 16.9 -6.05 16.75 Q-1.0 8.25 6.45 1.35 L7.35 2.1 8.4 2.4 0.65 12.2 -2.7 15.6 -4.6 17.65" fill="#3f4152" fill-rule="evenodd" stroke="none"/>
    <path d="M8.2 12.0 L3.3 16.85 4.4 15.55 7.15 13.05 8.2 12.0 M-0.8 17.75 L-3.6 17.65 -4.6 17.65 -2.7 15.6 0.65 12.2 8.4 2.4 9.1 2.55 12.6 2.7 8.25 8.0 2.8 13.6 -0.8 17.75" fill="#c91481" fill-rule="evenodd" stroke="none"/>
  </g>
</svg>
