<?xml version="1.0" encoding="UTF-8" standalone="no"?>
<svg xmlns:xlink="http://www.w3.org/1999/xlink" height="183.35px" width="88.85px" xmlns="http://www.w3.org/2000/svg">
  <g transform="matrix(1.0, 0.0, 0.0, 1.0, 57.45, 6.25)">
    <path d="M-11.55 9.05 Q-11.95 0.5 -5.85 -5.05 -3.9 -6.85 -1.6 -6.0 14.05 -0.15 17.5 19.25 L18.35 25.4 Q19.1 27.1 19.85 31.9 L21.55 46.35 Q22.5 55.95 22.4 58.25 21.7 56.65 20.7 55.75 17.25 53.65 15.1 58.8 14.0 61.45 13.65 64.2 12.7 63.6 11.15 63.6 L8.9 63.15 Q7.4 62.15 5.6 61.2 L3.25 63.85 Q1.4 66.0 0.0 66.9 -5.4 65.65 -6.3 65.85 -6.3 66.15 -2.1 67.65 L0.75 68.05 Q3.0 68.1 5.9 64.1 L6.75 66.4 Q7.8 68.05 10.6 68.05 12.35 68.05 13.5 67.25 L13.6 67.2 Q13.9 69.4 16.0 75.0 19.1 83.1 22.15 83.1 23.4 83.1 24.15 82.35 L23.9 86.9 Q23.35 95.85 23.35 100.05 L23.6 105.9 23.85 111.7 Q23.8 114.0 24.85 118.6 L25.95 124.2 Q25.95 129.15 27.85 137.25 29.75 145.35 29.75 149.1 L30.05 151.3 31.4 165.15 Q29.25 166.55 26.7 166.2 24.0 166.05 22.55 164.15 14.85 153.9 7.35 143.15 -3.3 162.45 -18.7 177.1 L-20.1 176.75 -20.55 173.4 Q-21.2 160.3 -25.95 148.1 L-29.35 150.0 Q-43.0 158.5 -57.45 158.75 -48.1 149.6 -42.45 138.05 -22.4 97.2 -15.95 52.6 -6.35 62.8 3.1 42.1 9.7 25.4 -0.1 10.95 -2.75 7.05 -7.15 5.5 L-11.55 9.05" fill="#42b5a8" fill-rule="evenodd" stroke="none"/>
    <path d="M30.05 151.3 L29.75 149.1 Q29.75 145.35 27.85 137.25 25.95 129.15 25.95 124.2 L24.85 118.6 Q23.8 114.0 23.85 111.7 L23.6 105.9 23.35 100.05 Q23.35 95.85 23.9 86.9 L24.15 82.35 Q23.4 83.1 22.15 83.1 19.1 83.1 16.0 75.0 13.9 69.4 13.6 67.2 L13.5 67.25 Q12.35 68.05 10.6 68.05 7.8 68.05 6.75 66.4 L5.9 64.1 Q3.0 68.1 0.75 68.05 L-2.1 67.65 Q-6.3 66.15 -6.3 65.85 -5.4 65.65 0.0 66.9 1.4 66.0 3.25 63.85 L5.6 61.2 Q7.4 62.15 8.9 63.15 L11.15 63.6 Q12.7 63.6 13.65 64.2 14.0 61.45 15.1 58.8 17.25 53.65 20.7 55.75 21.7 56.65 22.4 58.25 22.5 55.95 21.55 46.35 L19.85 31.9 Q19.1 27.1 18.35 25.4 L17.5 19.25 18.85 23.3 Q23.3 38.1 23.85 54.35 L24.2 63.3 25.1 82.45 25.15 84.15 25.35 87.95 25.85 96.55 26.0 98.8 30.0 150.75 30.05 151.3" fill="#9cebda" fill-rule="evenodd" stroke="none"/>
    <path d="M-11.55 9.05 L-7.15 5.5 Q-2.75 7.05 -0.1 10.95 9.7 25.4 3.1 42.1 -6.35 62.8 -15.95 52.6 L-11.55 9.05" fill="#448888" fill-rule="evenodd" stroke="none"/>
  </g>
</svg>
