<?xml version="1.0" encoding="UTF-8" standalone="no"?>
<svg xmlns:xlink="http://www.w3.org/1999/xlink" height="177.5px" width="89.0px" xmlns="http://www.w3.org/2000/svg">
  <g transform="matrix(1.0, 0.0, 0.0, 1.0, 40.15, 7.25)">
    <path d="M13.6 52.2 Q17.6 94.5 35.0 134.0 40.05 145.3 48.85 154.5 34.45 153.55 21.25 144.9 L17.95 142.75 Q12.6 154.3 11.2 166.8 L10.55 170.0 9.1 170.25 Q-5.4 155.5 -15.0 136.5 -23.05 146.5 -31.3 155.9 -32.9 157.65 -35.6 157.7 -38.1 157.9 -40.15 156.4 -35.15 126.1 -31.35 95.7 L-29.15 89.3 Q-22.55 69.7 -22.55 65.7 L-21.4 55.75 Q-20.25 46.3 -20.2 42.15 L-19.35 28.45 -18.9 23.1 Q-18.45 25.3 -17.4 28.2 -15.25 34.05 -11.75 39.05 -2.3 52.6 11.25 52.6 L13.6 52.2 M-9.95 60.9 L-9.05 54.9 Q-9.05 52.0 -12.85 51.0 -16.65 50.0 -16.65 52.9 L-18.05 54.5 Q-19.7 56.15 -20.45 57.85 -21.15 59.25 -21.35 61.1 L-21.5 64.55 Q-21.5 65.3 -17.55 68.25 -13.6 71.2 -12.6 71.2 L-10.8 70.95 -11.0 70.65 -10.5 68.15 Q-10.8 65.8 -9.95 60.9 M1.35 59.3 L0.1 59.35 -4.45 60.1 Q-8.5 57.15 -8.5 61.95 -8.5 63.4 -8.15 63.5 L-7.2 63.55 Q0.8 61.05 3.0 59.6 L1.35 59.3" fill="#42b5a8" fill-rule="evenodd" stroke="none"/>
    <path d="M-31.35 95.7 Q-28.7 74.45 -26.65 53.15 L-26.45 50.75 -25.55 43.65 -25.5 43.4 -25.4 42.8 -25.3 42.15 -25.25 41.9 -25.15 41.35 -25.1 41.0 -25.05 40.75 -25.0 40.45 -24.95 40.2 -24.9 39.95 -18.85 19.25 -18.6 18.6 -18.6 18.65 -18.6 18.95 -18.8 22.05 -18.9 23.1 -19.35 28.45 -20.2 42.15 Q-20.25 46.3 -21.4 55.75 L-22.55 65.7 Q-22.55 69.7 -29.15 89.3 L-31.35 95.7 M1.35 59.3 L3.0 59.6 Q0.8 61.05 -7.2 63.55 L-8.15 63.5 Q-8.5 63.4 -8.5 61.95 -8.5 57.15 -4.45 60.1 L0.1 59.35 1.35 59.3 M-9.95 60.9 Q-10.8 65.8 -10.5 68.15 L-11.0 70.65 -10.8 70.95 -12.6 71.2 Q-13.6 71.2 -17.55 68.25 -21.5 65.3 -21.5 64.55 L-21.35 61.1 Q-21.15 59.25 -20.45 57.85 -19.7 56.15 -18.05 54.5 L-16.65 52.9 Q-16.65 50.0 -12.85 51.0 -9.05 52.0 -9.05 54.9 L-9.95 60.9" fill="#9cebda" fill-rule="evenodd" stroke="none"/>
    <path d="M-18.6 18.65 L-15.4 11.55 Q-12.2 5.05 -8.05 -1.1 -0.9 -11.65 7.55 -4.15 11.05 -1.1 11.25 3.4 L12.55 36.85 12.7 40.1 12.95 44.35 13.6 52.2 11.25 52.6 Q-2.3 52.6 -11.75 39.05 -15.25 34.05 -17.4 28.2 -18.45 25.3 -18.9 23.1 L-18.8 22.05 -18.6 18.95 -18.6 18.65" fill="#448888" fill-rule="evenodd" stroke="none"/>
  </g>
</svg>
