<?xml version="1.0" encoding="UTF-8" standalone="no"?>
<svg xmlns:xlink="http://www.w3.org/1999/xlink" height="54.0px" width="17.35px" xmlns="http://www.w3.org/2000/svg">
  <g transform="matrix(1.0, 0.0, 0.0, 1.0, 8.8, 5.05)">
    <path d="M8.55 10.15 L8.55 12.85 8.55 12.9 8.55 13.75 8.55 13.8 Q8.55 20.7 6.25 33.5 5.0 40.75 3.65 44.6 L3.2 44.7 0.45 45.6 -2.2 46.0 -2.4 43.45 -2.85 40.6 -3.25 37.75 -4.0 32.15 -4.9 26.5 -5.35 20.85 -5.5 18.8 -5.65 17.45 -5.9 15.3 -4.0 14.5 3.4 11.85 7.6 10.45 8.55 10.15" fill="#3f4152" fill-rule="evenodd" stroke="none"/>
    <path d="M8.45 7.9 L8.55 10.15 7.6 10.45 3.4 11.85 -4.0 14.5 -5.9 15.3 -5.9 15.25 -6.1 14.0 0.55 11.05 8.45 7.9 M3.65 44.6 Q2.05 48.95 0.45 48.95 -1.8 48.95 -2.2 46.75 L-2.2 46.0 0.45 45.6 3.2 44.7 3.65 44.6" fill="#53b5b5" fill-rule="evenodd" stroke="none"/>
    <path d="M-6.1 14.0 Q-6.55 11.8 -7.55 8.4 L-8.8 4.2 Q-8.8 1.7 -4.6 -1.6 -0.75 -4.55 1.95 -5.05 6.95 -1.75 8.15 4.3 L8.45 7.9 0.55 11.05 -6.1 14.0" fill="#f3b4a5" fill-rule="evenodd" stroke="none"/>
    <path d="M-2.35 24.6 L-2.45 30.7 -2.6 30.7 -2.85 28.2 -3.15 25.7 -3.2 23.3 Q-3.2 21.9 -3.45 21.5 L-3.75 21.05 Q-3.75 19.55 -2.65 19.5 L-2.55 19.45 -2.45 19.8 -3.0 20.6 Q-2.25 21.1 -2.25 22.4 L-2.35 24.6" fill="#808080" fill-rule="evenodd" stroke="none"/>
    <path d="M1.8 28.0 L1.25 28.15 0.75 28.05 0.6 27.85 0.55 27.5 Q0.55 27.1 0.85 27.1 L1.3 27.15 1.85 27.65 1.8 28.0 M0.55 42.65 Q1.1 42.65 1.3 43.0 L0.75 43.25 0.55 42.65" fill="#53b5b5" fill-rule="evenodd" stroke="none"/>
  </g>
</svg>
