<?xml version="1.0" encoding="UTF-8" standalone="no"?>
<svg xmlns:xlink="http://www.w3.org/1999/xlink" height="54.0px" width="16.8px" xmlns="http://www.w3.org/2000/svg">
  <g transform="matrix(1.0, 0.0, 0.0, 1.0, 9.3, 6.05)">
    <path d="M4.55 15.1 L4.55 15.25 4.35 17.0 4.25 17.8 4.1 19.85 3.7 25.5 2.85 31.15 Q2.25 34.7 2.1 36.75 L1.7 39.6 1.5 40.85 1.25 42.45 1.1 44.85 1.1 45.0 -0.65 44.85 -1.5 44.6 -4.15 43.7 -4.55 43.6 -5.35 40.85 Q-6.3 37.45 -7.1 32.5 -9.3 19.7 -9.3 12.8 L-9.3 12.75 -9.3 12.1 -9.3 11.9 -9.3 9.3 -8.4 9.65 Q-6.5 10.45 -2.8 12.35 L2.95 14.45 4.55 15.1" fill="#3f4152" fill-rule="evenodd" stroke="none"/>
    <path d="M-9.25 7.35 L-7.25 8.35 -5.45 9.65 Q-4.1 10.5 -2.5 10.9 L2.65 12.85 4.8 13.6 4.65 14.25 4.55 15.1 2.95 14.45 -2.8 12.35 Q-6.5 10.45 -8.4 9.65 L-9.3 9.3 -9.25 7.35 M1.1 45.0 L1.1 45.75 Q0.7 47.95 -1.5 47.95 -2.8 47.95 -4.05 44.85 L-4.55 43.6 -4.15 43.7 -1.5 44.6 -0.65 44.85 1.1 45.0" fill="#53b5b5" fill-rule="evenodd" stroke="none"/>
    <path d="M-9.25 7.35 L-9.25 6.9 -8.95 3.3 Q-7.8 -2.75 -2.95 -6.05 -0.35 -5.55 3.4 -2.6 7.5 0.7 7.5 3.2 L6.25 7.4 4.85 13.0 4.8 13.6 2.65 12.85 -2.5 10.9 Q-4.1 10.5 -5.45 9.65 L-7.25 8.35 -9.25 7.35" fill="#f3b4a5" fill-rule="evenodd" stroke="none"/>
    <path d="M-4.55 33.0 L-5.0 33.25 -6.4 27.2 Q-7.55 21.55 -7.55 19.8 L-7.3 17.55 -6.75 17.55 Q-6.0 21.3 -6.0 24.1 -6.0 25.75 -4.55 33.0" fill="#808080" fill-rule="evenodd" stroke="none"/>
    <path d="M-0.85 27.6 Q-0.7 27.75 -1.3 27.75 L-1.75 27.7 -1.9 27.5 -2.0 27.05 Q-2.0 26.75 -1.35 26.5 L-0.75 27.0 -0.85 27.6 M-1.25 42.15 L-1.75 41.85 -1.75 41.25 -1.0 41.25 -0.75 41.65 -1.25 42.15" fill="#53b5b5" fill-rule="evenodd" stroke="none"/>
  </g>
</svg>
