<?xml version="1.0" encoding="UTF-8" standalone="no"?>
<svg xmlns:xlink="http://www.w3.org/1999/xlink" height="39.7px" width="71.0px" xmlns="http://www.w3.org/2000/svg">
  <g transform="matrix(1.0, 0.0, 0.0, 1.0, 35.0, 4.85)">
    <path d="M-5.35 31.2 L-5.2 31.4 -5.35 31.5 -5.35 31.2" fill="#7ad1c8" fill-rule="evenodd" stroke="none"/>
    <path d="M-32.3 12.65 L-16.0 -2.2 Q-12.1 -0.85 -0.45 -2.35 L16.25 -4.85 33.9 11.35 Q32.55 11.7 30.05 13.6 27.85 15.25 27.2 16.05 L25.1 18.85 Q23.9 20.25 22.85 20.6 20.25 21.55 15.7 24.1 L11.55 26.45 Q11.05 26.45 10.15 25.9 9.2 25.35 8.7 25.35 7.35 25.35 3.25 27.55 L-4.75 31.75 -4.75 31.25 Q-4.75 30.45 -5.05 29.85 L-5.25 29.5 Q-5.4 27.0 -8.5 26.45 L-24.2 24.0 -22.7 22.75 Q-21.7 22.0 -21.7 21.4 -21.7 20.7 -25.4 17.35 -29.45 13.6 -32.3 12.65 M-5.4 32.1 L-5.4 32.05 -5.35 32.05 -5.4 32.1" fill="#3f4152" fill-rule="evenodd" stroke="none"/>
    <path d="M-32.3 12.65 Q-29.45 13.6 -25.4 17.35 -21.7 20.7 -21.7 21.4 -21.7 22.0 -22.7 22.75 L-24.2 24.0 -8.5 26.45 Q-5.4 27.0 -5.25 29.5 L-5.05 29.85 Q-4.75 30.45 -4.75 31.25 L-4.75 31.75 3.25 27.55 Q7.35 25.35 8.7 25.35 9.2 25.35 10.15 25.9 11.05 26.45 11.55 26.45 L15.7 24.1 Q20.25 21.55 22.85 20.6 23.9 20.25 25.1 18.85 L27.2 16.05 Q27.85 15.25 30.05 13.6 32.55 11.7 33.9 11.35 35.1 14.3 36.0 15.05 35.9 15.5 31.4 19.55 L26.9 24.55 Q24.2 25.75 16.25 30.15 L11.15 29.9 1.95 33.8 Q-0.75 34.85 -2.1 34.85 L-2.7 34.8 Q-3.3 33.9 -4.35 33.4 L-4.8 33.2 -5.4 32.1 -5.35 32.05 -5.4 32.05 -5.4 31.95 -5.7 32.2 -6.1 32.75 -7.1 32.5 -7.9 32.3 -16.85 30.9 -20.95 30.35 Q-20.95 30.1 -21.75 29.9 L-22.8 29.75 Q-24.35 29.45 -25.3 28.55 -26.2 27.65 -25.45 26.2 -24.75 24.7 -24.95 24.3 L-27.1 22.7 -29.5 20.25 Q-31.85 17.9 -32.25 17.8 -34.3 17.1 -34.8 16.15 L-35.0 15.1 -32.3 12.65 M-5.35 31.2 L-5.35 30.9 -5.45 31.05 -5.9 31.65 -6.4 32.05 -5.45 31.55 -5.35 31.5 -5.2 31.4 -5.35 31.2" fill="#53b5b5" fill-rule="evenodd" stroke="none"/>
    <path d="M25.25 19.15 Q21.8 14.35 19.85 6.4 L20.0 6.4 Q21.65 8.65 23.2 12.3 L25.75 18.4 25.65 18.75 25.25 19.15 M8.6 12.5 L9.55 19.65 Q10.2 24.05 11.25 26.75 11.25 27.2 10.75 27.5 9.85 26.8 8.85 21.8 8.0 17.3 8.0 14.9 L8.25 12.5 8.6 12.5 M-2.85 14.8 Q-2.15 11.85 -1.05 10.25 L-2.5 20.45 -3.65 30.9 -4.25 31.1 Q-4.7 30.9 -4.8 30.3 L-4.8 29.55 Q-4.8 25.5 -3.75 19.75 L-2.85 14.8 M-16.55 9.45 Q-14.55 6.35 -12.9 4.9 -14.3 8.15 -18.75 15.0 L-21.05 19.85 Q-22.45 23.05 -23.8 24.85 L-24.0 24.75 -24.05 24.3 -22.0 19.5 -19.5 14.35 -16.55 9.45 M-26.4 9.15 L-31.25 13.25 -31.75 12.9 Q-30.5 10.95 -27.2 8.25 -23.7 5.35 -21.8 5.0 L-26.4 9.15" fill="#808080" fill-rule="evenodd" stroke="none"/>
  </g>
</svg>
