<?xml version="1.0" encoding="UTF-8" standalone="no"?>
<svg xmlns:xlink="http://www.w3.org/1999/xlink" height="26.2px" width="16.6px" xmlns="http://www.w3.org/2000/svg">
  <g transform="matrix(1.0, 0.0, 0.0, 1.0, 7.3, 4.9)">
    <path d="M8.95 -0.85 L8.8 1.7 6.95 0.8 7.0 -0.45 8.95 -0.85 M9.3 -3.9 L9.05 -1.8 9.0 -1.15 7.1 -1.7 7.35 -3.9 Q7.55 -4.6 7.9 -4.8 8.5 -5.2 9.3 -3.9 M6.7 4.0 L8.75 2.65 8.55 6.25 6.55 5.5 6.7 4.0 M5.3 11.65 L7.1 11.2 7.35 11.15 6.35 14.25 Q5.95 13.25 5.1 12.3 L5.3 11.65 M6.0 8.95 L8.2 7.75 7.55 10.3 6.0 8.95 M5.6 15.9 L5.2 16.6 3.7 18.9 4.25 15.45 5.45 15.8 5.6 15.9 M2.05 17.9 L3.15 19.6 Q1.85 20.85 0.45 21.25 L1.3 18.4 2.05 17.9 M-5.25 1.9 L-7.05 2.95 -6.7 1.4 -6.6 0.75 Q-6.3 -0.25 -5.45 -0.6 -5.25 -0.05 -5.2 0.75 L-5.25 1.9 M-5.4 4.15 L-5.45 4.65 -5.55 6.2 -7.15 7.7 -5.6 8.0 -5.55 8.9 -5.45 9.45 -6.95 10.9 -5.0 11.4 -4.85 12.4 -4.5 13.55 -4.45 13.75 -5.05 14.6 -5.85 15.35 -3.85 15.5 -3.85 15.65 -3.5 16.35 -4.7 18.55 -5.9 16.05 -6.05 15.35 -6.2 15.0 Q-7.0 12.35 -7.15 10.1 L-7.2 9.9 -7.25 7.85 -7.25 5.25 -7.15 4.1 -7.1 3.55 -5.35 3.9 -5.4 4.15 M-1.55 21.1 Q-2.8 20.8 -3.8 19.85 -2.7 19.6 -1.85 19.0 L-1.75 19.0 -0.95 19.3 -0.35 21.3 -1.55 21.1" fill="#449998" fill-rule="evenodd" stroke="none"/>
    <path d="M9.0 -1.15 L8.95 -0.85 7.0 -0.45 7.1 -1.7 9.0 -1.15 M6.95 0.8 L8.8 1.7 8.75 2.45 8.75 2.65 6.7 4.0 6.8 1.9 6.95 0.8 M2.05 17.9 Q3.2 16.85 3.95 15.3 L5.1 12.3 Q5.95 13.25 6.35 14.25 L5.6 15.9 5.45 15.8 4.25 15.45 3.7 18.9 3.15 19.6 2.05 17.9 M8.55 6.25 L8.4 6.85 8.2 7.75 6.0 8.95 7.55 10.3 7.5 10.6 7.35 11.15 7.1 11.2 5.3 11.65 5.7 10.1 6.55 5.5 8.55 6.25 M0.45 21.25 L-0.35 21.3 -0.95 19.3 -0.7 19.3 1.3 18.4 0.45 21.25 M-5.25 1.9 L-5.35 3.9 -7.1 3.55 -7.05 2.95 -5.25 1.9 M-5.55 6.2 L-5.6 7.15 -5.6 8.0 -7.15 7.7 -5.55 6.2 M-5.35 9.85 L-5.0 11.4 -6.95 10.9 -5.45 9.45 -5.35 9.85 M-4.7 18.55 L-3.5 16.35 Q-2.65 18.2 -1.8 19.0 L-1.85 19.0 Q-2.7 19.6 -3.8 19.85 L-4.7 18.55 M-5.05 14.6 L-4.45 13.75 -3.85 15.5 -5.85 15.35 -5.05 14.6" fill="#3f4152" fill-rule="evenodd" stroke="none"/>
  </g>
</svg>
