<?xml version="1.0" encoding="UTF-8" standalone="no"?>
<svg xmlns:xlink="http://www.w3.org/1999/xlink" height="51.6px" width="40.25px" xmlns="http://www.w3.org/2000/svg">
  <g transform="matrix(1.0, 0.0, 0.0, 1.0, 15.7, 7.75)">
    <path d="M-15.7 11.35 L-6.35 -3.7 -5.75 -5.1 10.95 -7.75 13.8 -2.55 Q4.9 12.1 -12.0 14.25 L-14.7 14.3 Q-11.45 12.3 -7.5 11.7 -3.65 11.1 -0.75 8.45 L-0.8 7.25 Q-6.3 9.6 -12.1 10.75 L-15.7 11.35" fill="#878aa3" fill-rule="evenodd" stroke="none"/>
    <path d="M13.8 -2.55 L14.15 -1.9 14.9 -0.5 Q18.95 7.3 23.05 16.25 L24.55 18.9 Q13.8 33.7 -1.3 42.8 -12.5 30.9 -15.05 17.05 L-15.6 13.1 -15.65 12.8 -15.65 12.5 -15.7 12.15 -15.7 12.05 -15.7 11.35 -12.1 10.75 Q-6.3 9.6 -0.8 7.25 L-0.75 8.45 Q-3.65 11.1 -7.5 11.7 -11.45 12.3 -14.7 14.3 L-12.0 14.25 Q4.9 12.1 13.8 -2.55" fill="#b3b3cc" fill-rule="evenodd" stroke="none"/>
    <path d="M24.3 18.75 Q24.15 21.7 21.8 24.55 17.5 29.75 12.4 33.9 L6.0 38.95 0.0 43.0 -0.65 43.4 -0.8 43.65 -0.9 43.7 -1.25 43.85 Q-7.1 38.1 -11.0 30.9 -12.15 28.8 -12.95 26.4 -14.45 22.0 -15.4 17.55 L-15.4 13.8 -10.85 28.0 Q-9.85 31.3 -7.85 34.1 L-3.4 39.7 -1.35 42.05 Q6.25 37.65 12.8 31.95 L17.35 27.45 Q20.35 24.2 22.2 20.5 22.7 19.25 24.0 18.7 L24.3 18.75" fill="#53b5b5" fill-rule="evenodd" stroke="none"/>
  </g>
</svg>
