<?xml version="1.0" encoding="UTF-8" standalone="no"?>
<svg xmlns:xlink="http://www.w3.org/1999/xlink" height="50.7px" width="28.6px" xmlns="http://www.w3.org/2000/svg">
  <g transform="matrix(1.0, 0.0, 0.0, 1.0, 14.2, 4.1)">
    <path d="M-7.0 -0.15 L-6.5 -2.0 -7.4 -2.45 5.5 -4.1 7.05 -2.1 Q12.2 4.85 13.8 13.25 8.95 11.65 5.0 8.4 L3.4 7.4 Q4.75 10.85 7.65 13.0 L9.55 14.3 8.85 14.55 Q-1.25 13.15 -7.0 -0.15" fill="#878aa3" fill-rule="evenodd" stroke="none"/>
    <path d="M-7.0 -0.15 Q-1.25 13.15 8.85 14.55 L9.55 14.3 7.65 13.0 Q4.75 10.85 3.4 7.4 L5.0 8.4 Q8.95 11.65 13.8 13.25 L13.85 13.7 14.25 16.65 14.3 17.05 14.35 20.2 Q14.25 24.2 13.1 28.15 L7.25 39.45 6.0 41.95 2.5 46.2 0.95 45.45 Q-0.55 44.6 -1.25 43.25 -6.75 32.8 -13.8 23.45 L-7.0 -0.15" fill="#b3b3cc" fill-rule="evenodd" stroke="none"/>
    <path d="M8.25 36.4 L9.35 34.1 11.05 31.25 Q12.1 29.8 14.4 20.8 13.95 29.1 12.25 31.95 L10.1 35.8 8.0 39.75 7.35 40.6 5.2 43.7 4.2 44.75 2.9 46.0 Q2.35 46.7 1.65 46.55 L1.1 46.05 0.3 45.3 -0.7 44.2 -2.35 42.45 -3.7 40.65 -5.75 37.15 -6.5 35.8 -7.35 34.3 -9.35 30.7 Q-10.1 29.35 -11.1 28.1 L-14.15 24.35 -14.2 24.0 -14.15 23.75 -13.95 23.4 -13.6 23.5 Q-11.3 25.85 -9.4 28.55 L-7.95 30.85 Q-6.8 32.6 -5.8 34.5 L-3.55 38.8 -1.9 41.25 0.35 43.35 2.25 45.4 Q2.3 45.1 2.5 44.9 L4.75 42.05 6.85 39.1 8.25 36.4" fill="#53b5b5" fill-rule="evenodd" stroke="none"/>
  </g>
</svg>
