<?xml version="1.0" encoding="UTF-8" standalone="no"?>
<svg xmlns:xlink="http://www.w3.org/1999/xlink" height="46.95px" width="33.9px" xmlns="http://www.w3.org/2000/svg">
  <g transform="matrix(1.0, 0.0, 0.0, 1.0, 16.0, 48.85)">
    <path d="M17.65 -21.6 L11.5 -22.6 -3.05 -22.0 -3.35 -24.75 -1.85 -31.35 Q3.5 -31.4 9.35 -35.85 12.95 -38.6 14.1 -40.5 L15.0 -40.05 Q18.05 -37.45 17.9 -27.05 L17.65 -21.6 M-9.75 -36.6 L-8.8 -35.25 Q-6.3 -31.95 -3.15 -31.45 L-2.95 -32.1 Q-4.6 -26.45 -4.6 -24.8 L-4.1 -21.95 -15.4 -21.3 -15.95 -21.25 -15.25 -24.95 Q-14.4 -29.25 -13.5 -31.25 -12.8 -33.0 -9.75 -36.6" fill="#b3b3cc" fill-rule="evenodd" stroke="none"/>
    <path d="M14.1 -40.5 Q12.95 -38.6 9.35 -35.85 3.5 -31.4 -1.85 -31.35 L-3.35 -24.75 -3.05 -22.0 11.5 -22.6 17.65 -21.6 17.15 -17.1 17.1 -16.6 16.5 -13.05 Q15.85 -7.65 11.15 -5.15 L9.85 -4.45 7.65 -3.45 Q3.3 -1.55 -1.4 -1.95 -1.0 -6.75 -1.95 -11.4 L-2.3 -13.45 -2.8 -16.1 -3.25 -16.1 -2.75 -2.2 -7.95 -3.65 -8.05 -3.8 -8.0 -3.7 -10.95 -4.3 -15.5 -10.1 -15.5 -14.15 -15.4 -14.2 -15.55 -14.3 -15.7 -16.6 -15.85 -18.2 -16.0 -20.95 -15.95 -21.25 -15.4 -21.3 -4.1 -21.95 -4.6 -24.8 Q-4.6 -26.45 -2.95 -32.1 L-3.15 -31.45 Q-6.3 -31.95 -8.8 -35.25 L-9.75 -36.6 -9.4 -37.05 -9.15 -37.3 -7.8 -38.65 Q-3.6 -42.25 3.4 -42.45 7.8 -42.55 11.45 -41.5 L13.4 -40.8 14.1 -40.5" fill="#878aa3" fill-rule="evenodd" stroke="none"/>
    <path d="M-15.55 -14.3 L-15.4 -14.2 -15.5 -14.15 -15.55 -14.3 M-8.0 -3.7 L-8.05 -3.8 -7.95 -3.65 -8.0 -3.7 M-2.75 -2.2 L-3.25 -16.1 -2.8 -16.1 -2.3 -13.45 -1.95 -11.4 Q-1.0 -6.75 -1.4 -1.95 L-2.75 -2.2" fill="#71778e" fill-rule="evenodd" stroke="none"/>
    <path d="M11.15 -46.15 L9.55 -47.25 3.55 -47.25 -1.25 -44.95 Q-3.2 -44.0 -4.25 -44.0 L-4.6 -44.0 -4.5 -44.7 -4.2 -46.1 Q0.85 -48.85 4.65 -48.85 L8.6 -48.5 10.95 -47.3 11.15 -46.15" fill="#b3b3cc" fill-rule="evenodd" stroke="none"/>
    <path d="M-4.6 -44.0 L-4.25 -44.0 Q-3.2 -44.0 -1.25 -44.95 L3.55 -47.25 9.55 -47.25 11.15 -46.15 11.0 -44.65 Q10.75 -43.35 6.5 -41.35 1.45 -39.05 -2.85 -39.9 -4.85 -40.25 -4.9 -42.5 L-4.6 -44.0" fill="#6c6c93" fill-rule="evenodd" stroke="none"/>
    <path d="M13.55 -28.1 Q13.55 -27.05 12.0 -26.0 L10.5 -25.85 5.0 -25.85 Q3.75 -26.15 3.4 -26.85 L3.3 -27.8 Q3.3 -30.6 12.5 -29.1 L13.25 -28.95 Q13.55 -28.85 13.55 -28.1" fill="#ffe788" fill-rule="evenodd" stroke="none"/>
  </g>
</svg>
