<?xml version="1.0" encoding="UTF-8" standalone="no"?>
<svg xmlns:xlink="http://www.w3.org/1999/xlink" height="24.3px" width="11.6px" xmlns="http://www.w3.org/2000/svg">
  <g transform="matrix(1.0, 0.0, 0.0, 1.0, 5.35, 3.65)">
    <path d="M3.65 -2.0 L5.5 -0.25 5.75 2.75 Q5.75 3.9 4.9 6.4 4.85 10.7 4.45 12.95 3.65 17.7 1.1 19.8 L-0.4 19.8 Q-1.7 18.7 -2.25 14.9 -2.65 12.5 -2.65 10.35 L-2.65 9.95 Q-3.35 9.0 -4.1 7.05 L-5.35 3.3 Q-5.35 2.3 -3.5 -1.1 -2.95 -2.3 -1.4 -2.65 -0.8 -3.8 1.1 -3.65 2.9 -3.45 3.65 -2.0" fill="#ffdbc4" fill-rule="evenodd" stroke="none"/>
    <path d="M6.25 9.8 Q6.25 13.25 5.55 15.85 4.35 20.15 1.5 20.65 L-2.4 20.65 Q-4.3 19.85 -4.9 16.15 L-5.15 11.25 -5.25 6.4 Q-5.2 4.7 -4.5 4.15 L5.0 3.9 Q5.95 4.7 6.2 6.8 L6.25 9.8" fill="#3f4152" fill-rule="evenodd" stroke="none"/>
    <path d="M5.45 0.7 L5.2 1.95 5.2 2.5 Q5.15 2.95 4.75 2.85 L4.6 2.15 4.8 0.4 5.15 0.4 5.45 0.7 M3.5 0.7 L2.7 0.75 2.65 2.5 3.4 2.35 3.6 0.7 3.5 0.7 M4.1 2.35 Q4.1 2.7 3.7 2.95 L2.5 3.15 2.3 3.15 2.15 3.05 2.1 2.5 2.2 1.75 2.15 1.05 2.2 0.35 3.6 0.05 Q4.25 0.05 4.25 0.5 L4.05 1.75 4.1 2.35" fill="#eb1d70" fill-rule="evenodd" stroke="none"/>
  </g>
</svg>
