<?xml version="1.0" encoding="UTF-8" standalone="no"?>
<svg xmlns:xlink="http://www.w3.org/1999/xlink" height="25.0px" width="65.0px" xmlns="http://www.w3.org/2000/svg">
  <g transform="matrix(1.0, 0.0, 0.0, 1.0, 0.5, 0.5)">
    <path d="M64.0 20.0 Q64.0 24.0 60.0 24.0 L4.0 24.0 Q0.0 24.0 0.0 20.0 L0.0 4.0 Q0.0 0.0 4.0 0.0 L60.0 0.0 Q64.0 0.0 64.0 4.0 L64.0 20.0" fill="#ffffff" fill-rule="evenodd" stroke="none"/>
    <path d="M64.0 20.0 L64.0 4.0 Q64.0 0.0 60.0 0.0 L4.0 0.0 Q0.0 0.0 0.0 4.0 L0.0 20.0 Q0.0 24.0 4.0 24.0 L60.0 24.0 Q64.0 24.0 64.0 20.0 Z" fill="none" stroke="#c91481" stroke-linecap="butt" stroke-linejoin="round" stroke-width="1.0"/>
  </g>
</svg>
