<?xml version="1.0" encoding="UTF-8" standalone="no"?>
<svg xmlns:xlink="http://www.w3.org/1999/xlink" height="23.45px" width="36.75px" xmlns="http://www.w3.org/2000/svg">
  <g transform="matrix(1.0, 0.0, 0.0, 1.0, 16.45, 11.7)">
    <path d="M13.3 10.35 L12.55 10.55 12.25 10.1 12.65 10.55 13.3 10.35 M2.4 2.7 L2.15 2.8 2.2 2.8 2.3 2.55 2.4 2.7" fill="#a3a4ba" fill-rule="evenodd" stroke="none"/>
    <path d="M10.05 -11.55 L10.05 -11.25 Q9.05 -5.9 8.0 -5.25 5.3 -4.3 3.65 -2.9 2.4 -1.85 1.75 -1.85 L0.9 -1.9 Q2.4 -3.3 5.9 -7.7 7.65 -9.95 9.65 -10.9 L9.75 -11.3 10.0 -11.55 10.05 -11.55 M-0.45 -3.45 L-0.5 -3.4 -0.75 -3.1 -1.5 -2.85 Q-2.55 -4.05 -4.15 -4.6 -5.0 -4.9 -5.0 -6.35 -5.0 -7.3 -4.3 -8.4 L-3.4 -9.45 Q-2.75 -8.65 -1.75 -6.4 L-0.45 -3.45 M-16.4 9.65 L-15.75 9.0 -12.35 6.0 -8.2 1.55 Q-5.6 -0.65 -2.5 -0.1 L-1.7 0.65 -1.0 1.55 -1.45 1.75 -2.65 0.85 -3.9 1.15 -6.05 2.65 -8.2 4.65 -9.05 5.45 Q-14.35 11.05 -15.75 11.75 -16.25 11.0 -16.4 9.65 M2.15 2.8 L2.05 2.0 Q2.05 -0.8 5.45 0.2 8.75 1.2 10.75 4.3 L14.05 8.1 14.6 8.8 14.5 9.05 13.3 10.35 12.65 10.55 12.25 10.1 9.5 6.35 9.45 6.3 8.9 5.5 Q7.0 3.0 5.8 2.2 L4.9 1.8 4.85 1.8 4.75 1.8 4.6 1.8 Q3.9 1.85 2.75 2.5 L2.4 2.7 2.3 2.55 2.2 2.8 2.15 2.8" fill="#878aa3" fill-rule="evenodd" stroke="none"/>
    <path d="M8.9 5.5 L6.7 7.85 6.25 5.7 Q5.65 3.25 4.9 2.75 L4.35 2.8 4.45 1.85 4.6 1.8 4.75 1.8 4.85 1.8 4.9 1.8 5.8 2.2 Q7.0 3.0 8.9 5.5 M-3.9 1.15 L-3.25 1.5 -4.45 3.2 -4.65 3.15 -6.05 2.65 -3.9 1.15" fill="#449998" fill-rule="evenodd" stroke="none"/>
    <path d="M0.9 -1.9 L1.75 -1.85 Q2.4 -1.85 3.65 -2.9 5.3 -4.3 8.0 -5.25 9.05 -5.9 10.05 -11.25 L10.05 -11.55 10.85 -11.4 12.3 -11.7 12.35 -11.2 12.4 -10.75 Q15.75 -8.95 20.3 -2.85 L18.5 0.25 Q16.85 3.25 16.5 4.35 15.5 7.25 14.6 8.8 L14.05 8.1 10.75 4.3 Q8.75 1.2 5.45 0.2 2.05 -0.8 2.05 2.0 L2.15 2.8 2.0 2.9 1.55 3.1 1.45 3.25 1.15 3.3 0.75 3.45 -0.1 3.1 -0.2 2.8 -1.45 1.75 -1.0 1.55 -1.7 0.65 -2.5 -0.1 Q-5.6 -0.65 -8.2 1.55 L-12.35 6.0 -15.75 9.0 -16.4 9.65 -16.45 8.2 -15.95 4.25 Q-15.45 1.25 -14.95 -0.35 -14.1 -3.35 -12.65 -3.95 L-8.35 -7.35 Q-5.1 -10.1 -4.05 -9.95 L-3.4 -9.45 -4.3 -8.4 Q-5.0 -7.3 -5.0 -6.35 -5.0 -4.9 -4.15 -4.6 -2.55 -4.05 -1.5 -2.85 L-0.75 -3.1 -0.5 -3.4 -0.45 -3.45 0.35 -1.5 0.9 -1.9" fill="#b3b3cc" fill-rule="evenodd" stroke="none"/>
  </g>
</svg>
