<?xml version="1.0" encoding="UTF-8" standalone="no"?>
<svg xmlns:xlink="http://www.w3.org/1999/xlink" height="61.3px" width="21.75px" xmlns="http://www.w3.org/2000/svg">
  <g transform="matrix(1.0, 0.0, 0.0, 1.0, 9.35, 2.45)">
    <path d="M5.35 9.0 L5.6 9.9 Q6.75 17.65 9.3 30.8 10.25 35.3 12.4 41.25 8.25 50.35 3.4 58.85 -1.45 57.6 -3.0 52.5 -4.9 46.4 -9.35 41.9 L-3.45 8.45 Q-1.0 9.55 0.25 9.55 L5.35 9.0" fill="#53b5b5" fill-rule="evenodd" stroke="none"/>
    <path d="M-3.45 8.45 Q-4.45 11.75 -4.1 9.3 L-3.2 3.65 Q-2.65 0.4 -3.0 -1.5 -0.85 -2.65 1.5 -2.4 L3.85 -1.8 4.1 -1.6 4.6 2.55 5.45 8.95 5.35 9.0 0.25 9.55 Q-1.0 9.55 -3.45 8.45" fill="#449998" fill-rule="evenodd" stroke="none"/>
    <path d="M-2.6 27.85 Q-4.5 28.2 -5.0 28.5 L-7.0 28.5 -7.7 28.25 Q-8.0 28.05 -8.0 27.25 -8.0 26.1 -6.25 25.0 L-5.75 25.0 -1.0 24.75 -1.0 27.6 -2.6 27.85 M-1.0 29.9 L-1.0 31.3 -1.05 32.85 -2.5 33.55 Q-4.35 34.25 -6.0 34.25 L-6.85 34.2 -7.6 34.0 -7.75 31.85 -7.5 30.0 -4.0 29.75 -1.0 29.9" fill="#42474f" fill-rule="evenodd" stroke="none"/>
  </g>
</svg>
