<?xml version="1.0" encoding="UTF-8" standalone="no"?>
<svg xmlns:xlink="http://www.w3.org/1999/xlink" height="46.8px" width="29.9px" xmlns="http://www.w3.org/2000/svg">
  <g transform="matrix(1.0, 0.0, 0.0, 1.0, 15.15, 22.65)">
    <path d="M7.4 -6.4 L10.05 -6.65 9.9 11.55 Q11.85 1.85 11.0 -7.85 L8.75 -8.2 7.25 -7.25 7.4 -6.4 M14.5 -5.45 L14.65 -3.45 12.75 8.75 13.7 8.95 14.75 6.5 14.65 11.5 Q14.2 19.3 8.25 23.55 -3.95 25.25 -11.15 22.0 -17.05 5.1 -14.3 -12.65 -14.0 -14.65 -12.9 -15.85 -7.0 -22.55 2.8 -22.65 14.2 -22.35 14.15 -8.15 L11.35 -7.05 14.15 -6.3 14.5 -5.45" fill="#363443" fill-rule="evenodd" stroke="none"/>
    <path d="M7.4 -6.4 L7.25 -7.25 8.75 -8.2 11.0 -7.85 Q11.85 1.85 9.9 11.55 L10.05 -6.65 7.4 -6.4 M14.5 -5.45 L14.15 -6.3 11.35 -7.05 14.15 -8.15 14.5 -5.45 M14.75 6.5 L13.7 8.95 12.75 8.75 14.65 -3.45 14.75 6.5" fill="#5c5a72" fill-rule="evenodd" stroke="none"/>
  </g>
</svg>
