<?xml version="1.0" encoding="UTF-8" standalone="no"?>
<svg xmlns:xlink="http://www.w3.org/1999/xlink" height="68.5px" width="20.25px" xmlns="http://www.w3.org/2000/svg">
  <g transform="matrix(1.0, 0.0, 0.0, 1.0, 8.9, 10.7)">
    <path d="M-4.5 -10.65 L-4.15 -10.7 -2.95 -10.55 -2.8 -10.55 -1.4 -9.85 Q13.1 -2.2 11.1 15.55 L10.95 16.95 10.8 18.2 10.65 19.4 10.6 19.9 10.05 23.95 9.9 24.75 8.0 35.95 6.7 42.05 Q5.0 49.5 0.85 55.85 L0.8 55.3 Q0.3 48.35 -0.25 45.85 -1.6 39.4 -3.4 27.5 -5.75 12.4 -5.75 7.0 -4.85 -2.75 -4.6 -7.65 L-4.5 -10.65" fill="#42b5a8" fill-rule="evenodd" stroke="none"/>
    <path d="M0.85 55.85 L0.85 55.9 0.35 56.6 -0.5 57.8 Q-13.0 25.4 -6.95 -7.85 L-6.8 -8.45 -6.75 -8.55 Q-6.2 -10.45 -4.5 -10.65 L-4.6 -7.65 Q-4.85 -2.75 -5.75 7.0 -5.75 12.4 -3.4 27.5 -1.6 39.4 -0.25 45.85 0.3 48.35 0.8 55.3 L0.85 55.85" fill="#9cebda" fill-rule="evenodd" stroke="none"/>
  </g>
</svg>
