<?xml version="1.0" encoding="UTF-8" standalone="no"?>
<svg xmlns:xlink="http://www.w3.org/1999/xlink" height="52.1px" width="20.35px" xmlns="http://www.w3.org/2000/svg">
  <g transform="matrix(1.0, 0.0, 0.0, 1.0, 13.9, 34.9)">
    <path d="M3.95 -34.75 L2.6 -30.9 -0.5 -20.25 -4.4 -8.25 Q-7.0 -0.3 -7.0 1.1 L-7.0 1.7 Q-9.05 2.45 -11.2 2.35 L-11.8 2.3 -11.75 2.1 -10.5 -1.0 Q-7.8 -10.1 -6.8 -14.3 -6.05 -17.5 -1.9 -29.0 L0.0 -34.45 3.95 -34.75 M-13.25 -3.5 L-13.05 -4.6 -13.0 -4.25 -13.25 -3.5" fill="#c91481" fill-rule="evenodd" stroke="none"/>
    <path d="M-7.0 1.7 L-7.0 1.1 Q-7.0 -0.3 -4.4 -8.25 L-0.5 -20.25 2.6 -30.9 3.95 -34.75 5.8 -34.9 6.45 -34.2 Q3.4 -23.75 -0.6 -13.35 -3.1 -6.7 -4.4 0.2 L-5.5 1.0 -6.55 1.55 -7.0 1.7 M0.0 -34.45 L-1.9 -29.0 Q-6.05 -17.5 -6.8 -14.3 -7.8 -10.1 -10.5 -1.0 L-11.75 2.1 -11.8 2.3 -13.8 1.9 -13.9 1.85 -13.25 -3.5 -13.0 -4.25 -13.05 -4.6 Q-11.05 -16.3 -5.25 -27.55 -3.65 -30.85 -2.4 -34.25 L0.0 -34.45" fill="#3f4152" fill-rule="evenodd" stroke="none"/>
    <path d="M-11.2 2.35 Q-9.05 2.45 -7.0 1.7 L-6.55 1.55 Q-6.05 2.85 -4.15 4.5 -3.3 5.25 -2.55 6.45 L-1.25 8.5 1.75 12.5 2.95 14.0 1.3 15.0 -0.8 16.3 -5.3 10.1 -7.3 7.7 -9.15 4.85 Q-9.8 3.5 -10.75 2.4 L-11.2 2.35 M0.2 6.1 L-0.4 5.25 -1.9 3.25 -1.95 3.1 0.2 6.1" fill="#8b0e59" fill-rule="evenodd" stroke="none"/>
    <path d="M-11.8 2.3 L-11.2 2.35 -10.75 2.4 Q-9.8 3.5 -9.15 4.85 L-7.3 7.7 -5.3 10.1 -0.8 16.3 -2.35 17.2 -5.85 12.75 -13.8 1.9 -11.8 2.3 M-6.55 1.55 L-5.5 1.0 -4.4 0.2 -4.2 0.4 -2.5 2.4 -1.95 3.05 -1.95 3.1 -1.9 3.25 -0.4 5.25 0.2 6.1 0.3 6.2 1.3 7.75 4.1 12.75 4.3 13.1 2.95 14.0 1.75 12.5 -1.25 8.5 -2.55 6.45 Q-3.3 5.25 -4.15 4.5 -6.05 2.85 -6.55 1.55" fill="#363443" fill-rule="evenodd" stroke="none"/>
  </g>
</svg>
