<?xml version="1.0" encoding="UTF-8" standalone="no"?>
<svg xmlns:xlink="http://www.w3.org/1999/xlink" height="124.4px" width="123.9px" xmlns="http://www.w3.org/2000/svg">
  <g transform="matrix(1.0, 0.0, 0.0, 1.0, 50.2, 110.25)">
    <path d="M36.15 6.75 Q34.75 7.85 22.2 10.8 L14.5 12.35 Q2.55 14.35 -7.35 14.1 L-23.2 12.85 -29.75 11.75 Q-39.0 10.45 -46.1 4.45 -49.6 1.45 -49.6 -4.35 -49.65 -10.15 -49.15 -16.35 -48.65 -22.6 -49.7 -32.55 -50.75 -42.5 -49.6 -51.45 -48.95 -56.55 -47.15 -61.2 L-46.75 -62.15 -46.6 -62.6 -45.5 -64.7 Q-41.55 -75.15 -28.2 -82.6 -24.85 -83.55 -7.35 -86.5 9.25 -90.7 25.5 -86.3 48.6 -79.95 47.5 -59.55 47.4 -55.7 46.4 -52.1 L45.35 -48.35 44.2 -44.95 Q43.45 -43.05 43.75 -40.95 44.0 -38.95 45.05 -37.1 L48.0 -31.95 Q49.95 -28.5 50.7 -24.75 L51.1 -22.4 51.15 -21.85 Q51.15 -19.95 50.8 -18.1 50.1 -14.25 48.9 -10.4 47.7 -6.65 45.2 -3.5 L41.0 1.5 36.15 6.75" fill="#ffdbc4" fill-rule="evenodd" stroke="none"/>
    <path d="M-47.15 -61.2 Q-47.65 -62.0 -47.8 -63.2 L-47.85 -63.75 -48.9 -63.25 -47.9 -64.55 -47.8 -65.95 -44.25 -74.4 -41.1 -80.95 -41.15 -80.95 -41.1 -80.95 -40.8 -81.6 Q-39.6 -85.05 -35.8 -89.0 L-28.95 -95.55 -25.85 -98.4 Q-5.7 -112.65 18.7 -109.75 36.9 -107.3 52.55 -98.4 L55.05 -96.7 Q63.6 -90.65 66.8 -85.15 70.3 -79.05 72.1 -75.05 73.75 -71.3 73.7 -66.45 L73.7 -64.65 66.4 -62.15 64.35 -61.6 58.1 -60.65 50.15 -59.75 47.5 -59.55 Q48.6 -79.95 25.5 -86.3 9.25 -90.7 -7.35 -86.5 -24.85 -83.55 -28.2 -82.6 -41.55 -75.15 -45.5 -64.7 L-46.6 -62.6 -46.75 -62.15 -47.15 -61.2" fill="#42b5a8" fill-rule="evenodd" stroke="none"/>
    <path d="M73.7 -64.65 L73.65 -58.05 73.2 -50.3 Q72.9 -46.5 71.85 -42.95 L69.95 -36.95 68.1 -30.9 66.15 -24.65 64.2 -18.75 Q62.95 -15.0 60.7 -11.75 59.0 -9.3 57.1 -7.35 L52.3 -2.85 48.2 0.3 43.45 3.25 39.9 5.0 36.15 6.75 41.0 1.5 45.2 -3.5 Q47.7 -6.65 48.9 -10.4 50.1 -14.25 50.8 -18.1 51.15 -19.95 51.15 -21.85 L51.1 -22.4 50.7 -24.75 Q49.95 -28.5 48.0 -31.95 L45.05 -37.1 Q44.0 -38.95 43.75 -40.95 43.45 -43.05 44.2 -44.95 L45.35 -48.35 46.4 -52.1 Q47.4 -55.7 47.5 -59.55 L50.15 -59.75 58.1 -60.65 64.35 -61.6 66.4 -62.15 73.7 -64.65" fill="#448888" fill-rule="evenodd" stroke="none"/>
    <path d="M54.9 -73.25 Q51.5 -86.55 40.75 -94.75 L43.0 -93.5 Q48.95 -89.95 54.0 -85.2 L57.9 -77.0 Q59.0 -74.3 58.0 -73.75 57.0 -73.25 54.9 -73.25 M66.85 -50.9 L66.4 -49.35 65.05 -46.4 63.1 -42.95 61.55 -50.3 Q59.0 -61.2 55.35 -72.0 55.8 -72.0 55.95 -72.5 L60.75 -72.85 Q60.55 -71.8 62.8 -67.4 65.0 -63.05 66.85 -50.9 M-21.5 -99.25 L-19.35 -99.55 Q-30.9 -94.3 -40.25 -85.65 L-41.05 -86.45 -38.0 -90.4 -21.5 -99.25" fill="#353443" fill-rule="evenodd" stroke="none"/>
    <path d="M54.9 -73.25 Q57.0 -73.25 58.0 -73.75 59.0 -74.3 57.9 -77.0 L54.0 -85.2 56.85 -81.55 61.45 -74.5 Q68.0 -63.25 66.85 -50.9 65.0 -63.05 62.8 -67.4 60.55 -71.8 60.75 -72.85 L55.95 -72.5 Q55.8 -72.0 55.35 -72.0 L54.9 -73.25 M-21.5 -99.25 L-38.0 -90.4 Q-32.2 -96.55 -24.05 -98.7 L-21.5 -99.25" fill="#64627b" fill-rule="evenodd" stroke="none"/>
  </g>
</svg>
