<?xml version="1.0" encoding="UTF-8" standalone="no"?>
<svg xmlns:xlink="http://www.w3.org/1999/xlink" height="46.1px" width="29.85px" xmlns="http://www.w3.org/2000/svg">
  <g transform="matrix(1.0, 0.0, 0.0, 1.0, 15.15, 22.85)">
    <path d="M13.8 -13.6 Q14.3 -11.1 14.25 -7.95 L14.7 -3.25 14.65 6.7 Q14.6 9.25 13.8 12.65 13.0 16.05 10.5 19.7 -3.25 25.4 -11.45 21.9 -17.1 4.85 -14.1 -12.85 L-13.9 -13.6 -13.75 -14.05 Q-2.9 -20.9 9.35 -17.75 11.65 -17.05 12.9 -15.1 L13.65 -13.9 13.8 -13.6" fill="#363443" fill-rule="evenodd" stroke="none"/>
    <path d="M-13.75 -14.05 Q-9.75 -20.6 -1.9 -22.35 8.75 -24.85 12.9 -15.1 11.65 -17.05 9.35 -17.75 -2.9 -20.9 -13.75 -14.05 M13.65 -13.9 L13.8 -13.6 13.8 -13.55 13.8 -13.6 13.65 -13.9" fill="#64627b" fill-rule="evenodd" stroke="none"/>
    <path d="M6.75 -8.65 L6.6 -5.35 6.25 -5.1 5.05 -4.85 3.85 -4.85 3.6 -6.15 3.65 -7.85 4.4 -8.3 5.0 -8.35 5.75 -8.5 6.75 -8.65 M8.65 -6.2 L8.85 -9.25 11.55 -9.3 Q12.1 -8.05 11.65 -6.75 L11.55 -6.3 10.7 -5.7 8.85 -5.8 8.65 -6.2" fill="#ffe788" fill-rule="evenodd" stroke="none"/>
    <path d="M6.7 -3.95 L7.05 -3.7 7.5 5.2 Q7.6 9.05 7.35 12.7 L7.15 12.8 6.25 13.05 5.45 13.35 5.15 13.4 5.0 13.55 4.4 13.25 4.3 13.0 4.65 12.35 6.5 11.8 6.4 -0.4 6.7 -3.95 M12.25 -4.1 Q12.65 0.6 12.5 5.3 12.4 8.35 12.7 11.35 L12.15 11.75 10.9 12.35 9.65 12.35 9.55 12.15 9.55 11.9 9.65 11.75 10.55 11.25 11.3 11.1 Q11.55 7.95 11.3 4.45 11.0 0.0 11.6 -4.5 L12.25 -4.1 M1.5 13.5 Q-2.5 16.15 -7.3 13.2 -9.4 8.95 -8.75 4.6 L-8.2 5.05 Q-8.5 13.35 0.75 13.3 L1.5 13.5" fill="#64627b" fill-rule="evenodd" stroke="none"/>
    <path d="M2.1 -7.35 L2.5 -1.2 2.45 8.1 Q2.35 10.55 2.6 13.35 L-1.55 13.1 Q-7.3 12.65 -8.4 7.3 -9.5 1.95 -7.4 -1.8 -5.3 -5.6 -1.45 -6.8 L2.1 -7.35" fill="#eb1d70" fill-rule="evenodd" stroke="none"/>
  </g>
</svg>
