<?xml version="1.0" encoding="UTF-8" standalone="no"?>
<svg xmlns:xlink="http://www.w3.org/1999/xlink" height="8.9px" width="74.9px" xmlns="http://www.w3.org/2000/svg">
  <g transform="matrix(1.0, 0.0, 0.0, 1.0, 36.75, -8.35)">
    <path d="M36.45 12.75 Q34.35 14.25 31.4 14.25 28.9 14.25 27.85 13.05 27.25 12.4 27.25 11.75 27.25 10.1 30.0 9.0 L36.9 8.75 37.75 9.25 Q38.15 9.65 38.15 10.5 38.15 11.5 36.45 12.75 M-31.0 10.25 Q-28.95 11.1 -28.4 12.2 -28.25 12.55 -28.25 13.6 -28.25 15.25 -29.15 15.7 L-33.0 17.25 -35.0 17.25 -36.45 15.65 -36.75 14.5 Q-36.75 12.3 -35.95 11.45 -34.75 10.25 -31.0 10.25" fill="#ff9999" fill-rule="evenodd" stroke="none"/>
  </g>
</svg>
