<?xml version="1.0" encoding="UTF-8" standalone="no"?>
<svg xmlns:xlink="http://www.w3.org/1999/xlink" height="113.65px" width="69.9px" xmlns="http://www.w3.org/2000/svg">
  <g transform="matrix(1.0, 0.0, 0.0, 1.0, 61.8, 8.8)">
    <path d="M-18.05 -3.4 Q-12.75 -5.5 -6.8 -7.15 -10.3 -7.3 -3.1 -8.45 4.05 -9.6 5.9 -7.1 L5.7 -6.7 Q8.25 -3.75 8.1 -0.05 7.75 9.1 1.1 15.5 -10.4 26.55 -16.9 41.75 -23.5 56.9 -26.25 70.05 L-27.2 74.75 Q-27.55 67.9 -26.9 61.15 L-26.2 55.55 Q-31.95 70.75 -32.15 87.4 -32.3 95.3 -30.8 103.1 L-31.5 102.6 -30.4 104.85 Q-35.75 99.8 -44.0 82.65 -52.25 65.45 -46.45 45.2 -55.6 52.55 -59.9 70.1 -61.75 63.45 -61.8 56.65 -58.35 43.95 -53.0 32.1 -50.6 26.6 -47.7 23.0 L-48.4 27.15 -47.55 28.55 Q-47.05 25.75 -43.55 22.95 -43.25 25.15 -41.1 25.65 -34.3 27.6 -27.4 28.3 -36.15 26.75 -41.8 23.55 -43.45 21.9 -40.25 17.55 L-46.0 23.2 Q-43.2 15.85 -36.95 11.0 L-18.05 -3.4" fill="#42b5a8" fill-rule="evenodd" stroke="none"/>
    <path d="M-61.8 56.65 Q-61.8 42.6 -55.9 30.4 -50.55 19.4 -41.5 11.25 -31.15 1.85 -18.05 -3.4 L-36.95 11.0 Q-43.2 15.85 -46.0 23.2 L-40.25 17.55 Q-43.45 21.9 -41.8 23.55 -36.15 26.75 -27.4 28.3 -34.3 27.6 -41.1 25.65 -43.25 25.15 -43.55 22.95 -47.05 25.75 -47.55 28.55 L-48.4 27.15 -47.7 23.0 Q-50.6 26.6 -53.0 32.1 -58.35 43.95 -61.8 56.65" fill="#9cebda" fill-rule="evenodd" stroke="none"/>
  </g>
</svg>
