<?xml version="1.0" encoding="UTF-8" standalone="no"?>
<svg xmlns:xlink="http://www.w3.org/1999/xlink" height="82.8px" width="46.7px" xmlns="http://www.w3.org/2000/svg">
  <g transform="matrix(1.0, 0.0, 0.0, 1.0, 29.35, 9.9)">
    <path d="M-24.15 7.9 L-23.85 7.25 -23.35 6.35 Q-17.9 -2.45 -8.45 -6.6 -1.95 -9.35 4.95 -9.65 L9.0 -9.9 17.35 -0.85 16.15 15.75 Q12.9 26.4 1.75 27.55 L-4.45 27.95 Q1.75 27.8 5.95 29.4 12.2 31.75 12.25 37.0 L10.95 41.55 9.65 46.1 Q5.5 59.9 -0.65 72.9 L-2.8 69.8 -4.8 66.5 Q-10.6 56.7 -12.2 45.15 L-17.95 68.4 -20.9 63.45 Q-25.05 56.2 -27.4 48.2 L-26.75 50.1 Q-29.5 39.1 -27.0 33.35 L-24.35 27.0 Q-21.7 29.9 -11.0 28.45 L-10.2 28.35 Q-18.65 29.05 -21.65 25.35 -24.65 21.6 -25.5 16.8 -26.25 12.65 -24.15 7.9" fill="#42b5a8" fill-rule="evenodd" stroke="none"/>
    <path d="M-24.15 7.9 Q-26.25 12.65 -25.5 16.8 -24.65 21.6 -21.65 25.35 -18.65 29.05 -10.2 28.35 L-11.0 28.45 Q-21.7 29.9 -24.35 27.0 L-27.0 33.35 Q-29.5 39.1 -26.75 50.1 L-27.4 48.2 Q-30.0 37.5 -29.15 26.5 -28.4 16.75 -24.15 7.9 M12.25 37.0 Q12.2 31.75 5.95 29.4 1.75 27.8 -4.45 27.95 L1.75 27.55 Q12.9 26.4 16.15 15.75 L12.25 37.0" fill="#9cebda" fill-rule="evenodd" stroke="none"/>
  </g>
</svg>
