<?xml version="1.0" encoding="UTF-8" standalone="no"?>
<svg xmlns:xlink="http://www.w3.org/1999/xlink" height="104.2px" width="53.9px" xmlns="http://www.w3.org/2000/svg">
  <g transform="matrix(1.0, 0.0, 0.0, 1.0, 19.95, 9.1)">
    <path d="M29.75 13.25 Q32.0 23.3 31.4 33.45 L29.5 30.05 28.15 37.75 27.35 34.2 26.3 29.5 23.3 33.2 Q21.1 36.05 17.1 36.0 9.3 36.15 1.8 34.35 5.15 35.7 13.4 37.3 22.5 39.1 25.15 33.9 L25.75 36.05 Q26.3 39.15 26.35 43.2 28.4 41.4 28.35 40.75 L28.35 40.7 Q29.35 39.55 30.55 36.3 32.1 44.1 32.3 51.9 L32.35 46.85 Q32.75 61.55 28.25 77.65 L21.6 95.1 8.4 50.4 8.25 77.25 Q2.65 67.75 -2.3 57.95 -7.2 48.1 -11.45 37.8 -10.35 35.8 -11.4 33.9 L-13.35 32.95 Q-14.5 32.0 -15.05 30.75 L-15.25 30.25 Q-9.45 32.95 -2.3 34.0 L-9.75 30.65 Q-17.15 24.7 -19.0 15.05 -16.2 0.25 -4.1 -9.1 6.05 -8.8 14.8 -4.05 25.55 1.75 29.75 13.25 M-17.15 27.7 L-19.95 26.3 -17.2 27.6 -17.15 27.7" fill="#42b5a8" fill-rule="evenodd" stroke="none"/>
    <path d="M28.25 77.65 Q32.75 61.55 32.35 46.85 L32.3 51.9 Q32.1 44.1 30.55 36.3 29.35 39.55 28.35 40.7 L28.35 40.75 Q28.4 41.4 26.35 43.2 26.3 39.15 25.75 36.05 L25.15 33.9 Q22.5 39.1 13.4 37.3 5.15 35.7 1.8 34.35 9.3 36.15 17.1 36.0 21.1 36.05 23.3 33.2 L26.3 29.5 27.35 34.2 28.15 37.75 29.5 30.05 31.4 33.45 Q32.0 23.3 29.75 13.25 32.95 23.45 33.7 34.4 34.5 46.35 32.8 58.35 31.5 67.15 28.9 75.9 L28.25 77.65 M-19.0 15.05 Q-17.15 24.7 -9.75 30.65 L-2.3 34.0 Q-9.45 32.95 -15.25 30.25 L-15.05 30.75 Q-14.5 32.0 -13.35 32.95 L-11.4 33.9 Q-10.35 35.8 -11.45 37.8 L-13.35 32.95 -15.0 33.35 -16.5 29.7 Q-18.55 28.7 -17.2 28.8 L-16.8 28.85 -17.15 27.7 -17.2 27.6 Q-19.05 21.5 -19.0 15.05" fill="#9cebda" fill-rule="evenodd" stroke="none"/>
  </g>
</svg>
