<?xml version="1.0" encoding="UTF-8" standalone="no"?>
<svg xmlns:xlink="http://www.w3.org/1999/xlink" height="27.7px" width="17.25px" xmlns="http://www.w3.org/2000/svg">
  <g transform="matrix(1.0, 0.0, 0.0, 1.0, 8.65, 22.35)">
    <path d="M-5.15 -17.55 Q-5.4 -20.95 -2.05 -22.05 1.15 -22.95 3.5 -21.15 5.2 -19.8 4.7 -17.65 L-0.2 -17.15 -5.15 -17.55" fill="#ffdbc4" fill-rule="evenodd" stroke="none"/>
    <path d="M-5.15 -17.55 L-0.2 -17.15 4.7 -17.65 7.6 -17.9 8.6 -15.9 8.6 -14.4 8.1 -14.9 -8.2 -15.0 -7.85 -17.55 -5.15 -17.55" fill="#53b5b5" fill-rule="evenodd" stroke="none"/>
    <path d="M8.6 -14.4 Q8.45 -9.2 8.1 -6.15 L7.3 -1.8 Q5.85 1.6 3.25 4.1 1.15 6.15 -1.8 4.85 -2.6 4.6 -3.0 4.0 -8.65 -4.45 -8.65 -14.55 L-8.2 -15.0 8.1 -14.9 8.6 -14.4" fill="#3f4152" fill-rule="evenodd" stroke="none"/>
    <path d="M0.5 -12.75 Q0.55 -12.25 0.15 -12.3 L-5.0 -12.3 -4.0 -2.3 -0.25 -2.5 Q-1.1 -6.9 -0.5 -11.3 L0.5 -1.75 -4.5 -1.15 Q-5.7 -2.65 -5.55 -4.8 -5.45 -6.9 -5.7 -9.1 L-5.8 -11.6 -5.6 -12.8 -5.15 -12.95 0.5 -12.75" fill="#556680" fill-rule="evenodd" stroke="none"/>
    <path d="M-3.95 -10.9 L-3.85 -11.5 -3.5 -11.75 Q-2.95 -10.55 -2.9 -9.1 L-2.9 -4.05 -3.7 -4.0 -3.9 -4.85 -4.0 -6.3 -3.95 -10.9 M-1.8 -11.8 L-1.5 -12.15 -1.35 -11.6 Q-0.8 -7.85 -1.15 -4.35 L-2.1 -4.3 -1.8 -11.8" fill="#407373" fill-rule="evenodd" stroke="none"/>
  </g>
</svg>
