<?xml version="1.0" encoding="UTF-8" standalone="no"?>
<svg xmlns:xlink="http://www.w3.org/1999/xlink" height="92.0px" width="632.0px" xmlns="http://www.w3.org/2000/svg">
  <g transform="matrix(1.0, 0.0, 0.0, 1.0, -4.0, -4.0)">
    <path d="M5.0 15.0 Q5.0 5.0 15.0 5.0 L625.0 5.0 Q635.0 5.0 635.0 15.0 L635.0 85.0 Q635.0 95.0 625.0 95.0 L15.0 95.0 Q5.0 95.0 5.0 85.0 L5.0 15.0" fill="#3f4152" fill-rule="evenodd" stroke="none"/>
    <path d="M5.0 15.0 L5.0 85.0 Q5.0 95.0 15.0 95.0 L625.0 95.0 Q635.0 95.0 635.0 85.0 L635.0 15.0 Q635.0 5.0 625.0 5.0 L15.0 5.0 Q5.0 5.0 5.0 15.0 Z" fill="none" stroke="#ffffff" stroke-linecap="round" stroke-linejoin="round" stroke-width="2.0"/>
  </g>
</svg>
