<?xml version="1.0" encoding="UTF-8" standalone="no"?>
<svg xmlns:xlink="http://www.w3.org/1999/xlink" height="20.5px" width="25.8px" xmlns="http://www.w3.org/2000/svg">
  <g transform="matrix(1.0, 0.0, 0.0, 1.0, 14.15, 10.1)">
    <path d="M9.85 -9.8 Q11.7 -9.75 11.65 -7.65 11.55 -3.45 10.95 0.75 10.4 4.3 9.05 4.15 L8.15 3.75 7.55 2.9 Q7.0 1.85 6.85 0.75 L7.35 -4.95 5.5 -7.8 5.85 -9.0 7.75 -7.5 8.85 -9.15 9.5 -9.7 9.85 -9.8 M11.0 7.75 Q10.6 8.15 10.1 8.15 9.0 8.15 9.0 7.3 9.0 6.3 10.2 5.8 11.4 5.25 11.4 6.55 11.4 7.25 11.0 7.75 M3.75 5.2 Q4.15 5.5 4.15 6.4 4.15 7.4 3.0 8.75 1.6 10.4 -0.35 10.4 -1.75 10.4 -3.3 9.15 -4.9 7.9 -4.9 6.65 -4.9 6.1 -4.55 5.75 -4.3 5.5 -4.0 5.5 -3.15 5.5 -2.85 6.2 -2.65 6.55 -2.55 7.15 L-1.95 7.8 -1.15 8.5 Q1.25 8.25 1.75 7.45 1.9 6.45 2.25 6.0 3.2 4.8 3.75 5.2 M8.3 7.5 L7.35 7.9 Q6.25 7.9 6.25 7.05 6.25 6.1 7.6 5.55 8.9 5.05 8.9 6.3 8.9 6.95 8.3 7.5 M-10.9 -7.95 L-10.4 -9.5 -8.4 -10.1 -7.15 -9.2 Q-6.2 -8.55 -7.8 -0.5 L-7.8 0.35 Q-7.7 1.7 -8.45 2.55 -8.85 3.0 -9.45 3.25 L-10.75 3.65 -11.55 3.1 Q-12.25 2.25 -12.25 0.95 L-12.2 -0.5 -11.55 -5.65 -12.55 -6.4 -13.15 -7.1 -13.65 -8.0 -13.1 -9.05 -10.9 -7.95 M-9.5 8.15 Q-10.5 8.15 -10.4 7.1 -10.4 6.05 -9.05 5.7 -7.75 5.4 -7.75 6.5 -7.75 7.0 -9.5 8.15 M-11.0 6.05 L-11.1 6.65 -11.5 7.0 Q-11.9 6.95 -13.25 7.65 L-14.05 7.35 -14.15 6.6 Q-14.15 5.6 -12.55 5.1 -11.0 4.6 -11.0 6.05" fill="#268471" fill-rule="evenodd" stroke="none"/>
  </g>
</svg>
