<?xml version="1.0" encoding="UTF-8" standalone="no"?>
<svg xmlns:xlink="http://www.w3.org/1999/xlink" height="122.0px" width="632.0px" xmlns="http://www.w3.org/2000/svg">
  <g transform="matrix(1.0, 0.0, 0.0, 1.0, -4.0, -4.0)">
    <path d="M625.0 5.0 Q635.0 5.0 635.0 15.0 L635.0 115.0 Q635.0 125.0 625.0 125.0 L15.0 125.0 Q5.0 125.0 5.0 115.0 L5.0 15.0 Q5.0 5.0 15.0 5.0 L625.0 5.0" fill="#3f4152" fill-rule="evenodd" stroke="none"/>
    <path d="M625.0 5.0 L15.0 5.0 Q5.0 5.0 5.0 15.0 L5.0 115.0 Q5.0 125.0 15.0 125.0 L625.0 125.0 Q635.0 125.0 635.0 115.0 L635.0 15.0 Q635.0 5.0 625.0 5.0 Z" fill="none" stroke="#ffffff" stroke-linecap="round" stroke-linejoin="round" stroke-width="2.0"/>
    <path d="M58.0 12.0 L58.0 24.0 52.0 18.0 58.0 12.0" fill="#ffffff" fill-rule="evenodd" stroke="none"/>
    <path d="M64.0 12.0 L64.0 24.0 58.0 18.0 64.0 12.0" fill="#ffffff" fill-rule="evenodd" stroke="none"/>
  </g>
</svg>
