<?xml version="1.0" encoding="UTF-8" standalone="no"?>
<svg xmlns:xlink="http://www.w3.org/1999/xlink" height="12.0px" width="12.0px" xmlns="http://www.w3.org/2000/svg">
  <g transform="matrix(1.0, 0.0, 0.0, 1.0, 0.0, 0.0)">
    <path d="M10.2 10.25 Q8.5 12.0 6.0 12.0 3.5 12.0 1.75 10.25 0.0 8.5 0.0 6.0 0.0 3.5 1.75 1.75 3.5 0.0 6.0 0.0 8.5 0.0 10.2 1.75 12.0 3.5 12.0 6.0 12.0 8.5 10.2 10.25 M9.5 2.45 Q8.1 1.0 6.0 1.0 3.9 1.0 2.45 2.45 1.0 3.9 1.0 6.0 1.0 8.1 2.45 9.55 3.9 11.0 6.0 11.0 8.1 11.0 9.5 9.55 11.0 8.1 11.0 6.0 11.0 3.9 9.5 2.45" fill="#ff0000" fill-rule="evenodd" stroke="none"/>
    <path d="M9.5 2.45 Q11.0 3.9 11.0 6.0 11.0 8.1 9.5 9.55 8.1 11.0 6.0 11.0 3.9 11.0 2.45 9.55 1.0 8.1 1.0 6.0 1.0 3.9 2.45 2.45 3.9 1.0 6.0 1.0 8.1 1.0 9.5 2.45" fill="#a30000" fill-rule="evenodd" stroke="none"/>
  </g>
</svg>
