<?xml version="1.0" encoding="UTF-8" standalone="no"?>
<svg xmlns:xlink="http://www.w3.org/1999/xlink" height="20.0px" width="20.0px" xmlns="http://www.w3.org/2000/svg">
  <g transform="matrix(1.0, 0.0, 0.0, 1.0, 4.0, 4.0)">
    <path d="M6.0 12.0 Q3.5 12.0 1.75 10.25 0.0 8.5 0.0 6.0 0.0 3.5 1.75 1.75 3.5 0.0 6.0 0.0 8.5 0.0 10.2 1.75 12.0 3.5 12.0 6.0 12.0 8.5 10.2 10.25 8.5 12.0 6.0 12.0" fill="#ff0000" fill-rule="evenodd" stroke="none"/>
    <path d="M13.05 -1.1 Q16.0 1.85 16.0 6.0 16.0 10.1 13.05 13.05 10.15 16.0 6.0 16.0 1.85 16.0 -1.05 13.05 -4.0 10.1 -4.0 6.0 -4.0 1.85 -1.05 -1.1 1.85 -4.0 6.0 -4.0 10.15 -4.0 13.05 -1.1" fill="url(#gradient0)" fill-rule="evenodd" stroke="none"/>
  </g>
  <defs>
    <radialGradient cx="0" cy="0" gradientTransform="matrix(0.0123, 0.0, 0.0, 0.0123, 6.0, 6.0)" gradientUnits="userSpaceOnUse" id="gradient0" r="819.2" spreadMethod="pad">
      <stop offset="0.3607843137254902" stop-color="#ffffff"/>
      <stop offset="0.5333333333333333" stop-color="#ff0000"/>
      <stop offset="1.0" stop-color="#ff0000" stop-opacity="0.0"/>
    </radialGradient>
  </defs>
</svg>
