<?xml version="1.0" encoding="UTF-8" standalone="no"?>
<svg xmlns:xlink="http://www.w3.org/1999/xlink" height="19.0px" width="32.8px" xmlns="http://www.w3.org/2000/svg">
  <g transform="matrix(1.0, 0.0, 0.0, 1.0, 16.2, 9.35)">
    <path d="M0.0 -7.15 L-1.0 -7.15 Q-4.3 -4.65 -9.0 1.1 L-9.45 1.6 -8.85 1.9 -8.55 2.25 Q-5.5 2.3 -4.3 1.3 -3.3 0.5 -2.75 0.6 -1.9 0.95 -1.15 1.95 -0.55 2.75 0.9 2.9 L2.25 2.9 2.9 1.6 Q3.25 0.85 4.25 0.85 4.95 0.85 5.65 1.55 6.35 2.25 7.0 2.25 7.9 2.25 8.4 1.45 L8.95 0.8 4.9 -3.45 Q2.4 -5.9 0.0 -7.15 M10.75 -0.4 L14.25 4.15 16.6 7.4 16.35 7.75 15.3 8.85 15.2 8.7 14.35 8.9 2.5 9.65 -6.25 9.65 -11.6 9.4 -14.65 9.25 -14.75 9.25 -15.1 9.4 Q-16.5 9.4 -16.15 8.15 L-15.85 7.15 Q-15.55 5.8 -13.25 3.0 L-9.5 -1.25 -4.25 -7.35 Q-1.05 -10.35 1.25 -8.8 2.9 -8.35 4.15 -7.0 L6.25 -4.75 10.75 -0.4" fill="#268471" fill-rule="evenodd" stroke="none"/>
  </g>
</svg>
