<?xml version="1.0" encoding="UTF-8" standalone="no"?>
<svg xmlns:xlink="http://www.w3.org/1999/xlink" height="26.3px" width="25.4px" xmlns="http://www.w3.org/2000/svg">
  <g transform="matrix(1.0, 0.0, 0.0, 1.0, 14.4, 14.4)">
    <path d="M10.85 -12.9 L10.9 -12.25 10.8 -11.2 10.95 -11.1 11.0 -11.05 11.0 -10.4 Q10.9 -9.45 10.95 -8.5 L10.9 -8.5 10.9 4.0 10.8 4.4 10.65 4.65 10.65 4.8 Q10.65 6.05 10.0 7.15 9.0 8.9 6.85 8.9 4.0 8.9 2.85 7.05 L2.25 5.1 Q2.25 3.8 3.45 2.4 4.9 0.65 7.25 0.6 L9.05 1.7 9.0 -2.3 9.0 -6.55 8.75 -6.5 Q4.05 -4.8 1.5 -4.5 0.4 -4.4 -5.0 -2.35 L-4.5 5.05 -4.6 7.0 Q-4.8 8.75 -5.5 9.15 L-5.55 9.15 -5.95 9.75 Q-7.55 11.9 -9.75 11.9 -12.65 11.9 -13.8 9.9 -14.4 8.9 -14.4 7.8 -14.4 4.2 -11.0 2.65 -8.85 1.7 -6.65 3.65 L-6.55 3.75 -6.8 0.25 -7.4 -8.35 -7.15 -9.25 -7.1 -9.25 -7.15 -9.35 Q-7.15 -10.55 -4.0 -11.25 L3.4 -13.05 Q7.85 -14.5 9.3 -14.4 10.6 -14.35 10.85 -13.1 L10.85 -12.9" fill="#268471" fill-rule="evenodd" stroke="none"/>
  </g>
</svg>
