<?xml version="1.0" encoding="UTF-8" standalone="no"?>
<svg xmlns:xlink="http://www.w3.org/1999/xlink" height="16.0px" width="16.0px" xmlns="http://www.w3.org/2000/svg">
  <g transform="matrix(1.0, 0.0, 0.0, 1.0, 0.5, 0.5)">
    <path d="M3.0 0.0 L12.0 0.0 Q15.0 0.0 15.0 3.0 L15.0 12.0 Q15.0 15.0 12.0 15.0 L3.0 15.0 Q0.0 15.0 0.0 12.0 L0.0 3.0 Q0.0 0.0 3.0 0.0" fill="#010101" fill-opacity="0.0" fill-rule="evenodd" stroke="none"/>
    <path d="M3.0 0.0 Q0.0 0.0 0.0 3.0 L0.0 12.0 Q0.0 15.0 3.0 15.0 L12.0 15.0 Q15.0 15.0 15.0 12.0 L15.0 3.0 Q15.0 0.0 12.0 0.0 L3.0 0.0 Z" fill="none" stroke="#ffffff" stroke-linecap="round" stroke-linejoin="round" stroke-width="1.0"/>
  </g>
</svg>
