<?xml version="1.0" encoding="UTF-8" standalone="no"?>
<svg xmlns:xlink="http://www.w3.org/1999/xlink" height="302.0px" width="402.0px" xmlns="http://www.w3.org/2000/svg">
  <g transform="matrix(1.0, 0.0, 0.0, 1.0, 201.0, 151.0)">
    <path d="M190.0 -150.0 Q200.0 -150.0 200.0 -140.0 L200.0 140.0 Q200.0 150.0 190.0 150.0 L-190.0 150.0 Q-200.0 150.0 -200.0 140.0 L-200.0 -140.0 Q-200.0 -150.0 -190.0 -150.0 L190.0 -150.0" fill="#ffffff" fill-rule="evenodd" stroke="none"/>
    <path d="M190.0 -150.0 L-190.0 -150.0 Q-200.0 -150.0 -200.0 -140.0 L-200.0 140.0 Q-200.0 150.0 -190.0 150.0 L190.0 150.0 Q200.0 150.0 200.0 140.0 L200.0 -140.0 Q200.0 -150.0 190.0 -150.0 Z" fill="none" stroke="#c91481" stroke-linecap="round" stroke-linejoin="round" stroke-width="2.0"/>
  </g>
</svg>
