<?xml version="1.0" encoding="UTF-8" standalone="no"?>
<svg xmlns:xlink="http://www.w3.org/1999/xlink" height="27.3px" width="31.05px" xmlns="http://www.w3.org/2000/svg">
  <g transform="matrix(1.0, 0.0, 0.0, 1.0, 15.15, 14.65)">
    <path d="M8.25 -13.5 Q13.2 -11.8 13.9 -9.55 L15.7 -5.85 Q15.9 -5.3 15.9 -3.15 15.9 -0.5 14.15 2.7 12.45 5.85 10.85 6.15 L10.65 7.05 10.4 9.0 10.5 10.8 Q10.35 11.6 9.35 12.1 9.15 12.6 8.35 12.65 7.9 12.65 4.1 8.4 L2.85 8.8 -2.25 9.15 Q-10.45 9.15 -13.55 4.6 -15.15 2.35 -15.15 -0.5 -15.15 -11.8 0.25 -14.5 3.5 -15.1 8.25 -13.5 M2.75 -5.0 L4.25 -1.7 Q4.65 -0.7 4.65 0.8 L4.65 2.1 Q4.55 2.9 3.75 2.9 2.95 2.9 2.5 1.1 L1.65 -1.5 -3.15 -1.55 Q-3.35 -1.55 -4.15 0.25 -5.05 2.15 -6.0 2.65 L-6.8 2.35 -6.9 1.6 -4.0 -4.15 -2.3 -7.55 Q-1.15 -9.8 -0.5 -10.0 1.0 -10.45 1.8 -8.25 L2.75 -5.0 M14.0 -3.25 Q14.0 -6.05 12.25 -8.45 9.2 -12.65 2.05 -12.65 -7.4 -12.65 -11.25 -6.7 -13.2 -3.7 -13.25 -0.45 -13.25 1.95 -11.9 3.75 -9.3 7.15 -2.35 7.15 L2.75 6.7 4.25 6.25 Q4.75 6.25 7.1 8.95 L8.3 10.35 8.5 6.75 8.7 5.75 Q8.75 5.2 9.25 4.9 L9.75 4.75 10.9 3.55 13.1 1.0 14.05 -1.2 14.0 -3.25 M-2.25 -3.5 L1.25 -3.5 Q0.65 -6.45 -0.15 -7.5 L-2.25 -3.5" fill="#268471" fill-rule="evenodd" stroke="none"/>
  </g>
</svg>
