<?xml version="1.0" encoding="UTF-8" standalone="no"?>
<svg xmlns:xlink="http://www.w3.org/1999/xlink" height="65.1px" width="381.2px" xmlns="http://www.w3.org/2000/svg">
  <g transform="matrix(1.0, 0.0, 0.0, 1.0, 194.5, -79.0)">
    <path d="M154.7 107.0 L154.1 105.8 Q155.75 104.95 157.2 106.0 158.35 106.8 158.35 108.55 158.35 112.3 157.8 113.9 156.6 117.25 152.45 119.05 L150.6 119.0 149.45 118.25 152.85 113.55 Q155.1 110.35 155.1 108.6 155.1 107.85 154.7 107.0 M136.95 123.5 L133.95 124.65 126.95 125.3 Q117.35 125.3 113.75 121.8 111.6 119.75 111.6 116.15 111.6 109.05 117.7 102.8 L118.1 103.0 118.2 103.75 Q118.2 104.3 115.8 108.5 113.35 112.7 113.35 116.3 113.35 119.95 117.15 121.9 122.95 124.9 136.7 123.05 L136.95 123.5" fill="#42b5a8" fill-rule="evenodd" stroke="none"/>
    <path d="M116.1 80.4 L115.6 82.2 Q115.1 83.4 115.1 84.0 115.1 84.9 115.25 85.2 L116.1 86.05 118.45 86.3 Q121.65 86.3 124.35 85.05 L127.2 83.75 Q126.85 84.65 124.45 85.95 121.45 87.55 118.45 87.55 L116.1 87.5 Q114.0 86.55 113.85 85.25 114.05 83.75 113.85 83.0 L113.7 82.75 Q112.6 84.7 112.6 87.0 112.6 89.4 112.8 89.85 113.25 90.9 115.7 92.05 112.4 91.75 111.6 90.2 111.35 89.7 111.35 87.1 111.35 84.15 111.8 83.2 112.5 81.75 115.7 79.0 L116.05 79.35 116.1 80.4 M121.05 98.8 Q115.45 103.5 112.65 110.1 109.95 116.5 110.8 122.55 L110.8 122.8 Q111.25 123.0 110.0 123.0 109.2 123.0 108.95 121.75 108.8 121.15 108.8 119.6 108.8 115.75 112.45 108.05 116.3 99.95 119.5 98.3 L120.15 98.45 Q120.85 98.6 121.05 98.8 M110.75 98.65 L103.7 104.75 110.45 100.05 111.15 100.2 Q111.35 100.25 111.35 101.05 L108.85 105.2 Q106.35 109.45 106.35 112.5 106.35 114.7 107.6 116.8 L107.4 117.05 106.6 117.3 Q105.05 116.55 104.7 114.9 L104.6 112.6 104.7 109.55 106.85 105.0 106.95 104.55 Q106.2 104.65 104.85 105.65 L102.45 107.25 101.5 107.2 Q101.2 107.15 101.2 106.35 101.2 103.85 107.6 98.75 113.4 94.15 116.1 93.3 115.45 94.75 110.75 98.65 M129.1 85.3 L133.95 84.6 142.35 84.3 143.6 85.05 142.8 84.95 141.4 84.8 130.95 85.55 129.7 86.05 130.2 87.25 130.1 87.55 129.45 86.6 Q129.1 85.85 129.1 85.3 M126.25 95.0 Q126.55 95.9 126.35 97.65 L126.05 100.1 Q126.05 103.25 127.15 105.5 128.3 107.85 131.55 111.3 L131.5 111.55 Q126.85 108.2 125.65 105.9 124.8 104.25 124.8 100.25 L124.85 98.45 Q123.7 100.15 120.95 102.95 116.85 107.1 114.55 108.5 114.3 109.1 114.3 107.85 L116.35 105.75 Q118.95 103.45 120.3 101.75 L122.55 98.4 Q123.85 96.65 125.15 96.05 125.5 94.95 126.25 95.0 M136.5 94.25 Q137.25 94.65 138.15 96.25 L138.35 96.65 138.35 96.05 139.2 96.0 140.95 100.05 144.2 102.25 145.25 102.95 145.25 102.6 145.6 101.8 147.75 104.8 148.05 105.05 147.9 105.0 152.7 111.55 Q152.55 112.25 151.95 112.55 150.8 111.8 149.6 109.8 L147.35 106.5 147.85 108.35 148.2 110.35 148.05 111.35 147.45 111.55 Q144.4 108.9 142.0 104.9 L138.95 99.3 137.95 98.05 136.55 96.1 135.8 101.7 Q134.9 106.75 134.25 108.0 133.35 107.25 132.85 106.15 L132.0 104.25 131.55 104.25 131.3 108.3 Q131.3 110.0 132.25 111.0 L132.0 111.25 Q130.5 110.05 130.5 105.4 L130.75 103.5 131.0 101.75 131.75 101.55 Q133.35 104.55 133.55 105.75 134.75 103.3 135.15 99.7 135.6 95.9 134.75 93.3 136.1 92.5 136.45 94.0 L136.5 94.25 M153.6 93.4 Q157.1 99.75 157.1 103.35 157.1 108.35 155.45 110.8 L155.05 111.0 Q154.6 111.1 154.6 110.3 155.95 106.6 155.95 105.8 155.95 101.3 153.4 95.9 150.45 89.6 145.6 86.3 149.6 86.1 153.6 93.4 M144.55 103.3 L141.55 101.6 141.75 102.15 Q143.5 105.85 146.1 108.05 145.2 105.15 145.2 103.75 L145.2 103.65 144.55 103.3 M147.2 112.55 Q144.35 119.55 143.1 125.05 L143.2 125.25 Q145.3 123.45 148.0 119.5 151.0 115.25 152.95 113.3 L153.3 113.2 Q153.6 113.25 153.6 114.05 L149.15 119.8 Q144.3 125.8 143.2 128.0 L142.1 128.0 Q141.85 127.55 141.85 126.05 141.85 124.15 143.7 118.95 145.7 113.3 147.2 112.55 M108.4 116.8 Q108.6 116.7 108.6 117.5 108.6 118.05 105.6 124.05 L105.7 124.25 107.0 123.0 108.2 122.05 108.7 122.5 107.15 125.55 Q106.05 126.95 103.95 128.0 L103.35 127.75 105.25 121.85 Q106.65 117.9 108.2 117.0 L108.4 116.8" fill="#42b5a8" fill-rule="evenodd" stroke="none"/>
    <path d="M145.1 112.5 L138.9 112.95 133.95 113.8 132.6 112.8 137.45 107.1 Q140.6 103.55 142.2 105.55 L140.2 108.1 138.1 110.3 144.45 110.5 Q145.3 110.85 145.45 111.5 L145.1 112.5 M121.95 113.8 Q119.8 114.8 116.7 114.8 L115.8 114.7 Q115.6 115.1 115.6 114.0 115.6 112.4 116.95 111.75 L120.2 111.5 118.25 109.3 Q117.1 107.9 117.1 107.1 117.1 103.85 120.5 107.6 123.85 111.35 123.85 112.1 123.85 112.95 121.95 113.8 M122.6 115.25 L122.7 115.55 Q120.85 117.4 119.7 117.55 119.7 117.0 120.7 115.75 L121.75 115.25 Q122.15 115.1 122.6 115.25 M130.6 122.5 L132.15 120.75 132.45 119.3 132.4 118.0 131.95 117.25 131.15 117.4 126.95 117.75 126.95 121.05 127.45 122.15 128.2 123.05 128.3 123.2 127.45 123.3 Q126.8 123.3 126.8 123.0 126.7 122.4 125.95 121.75 L125.95 116.55 Q131.55 115.15 132.95 116.65 133.45 117.15 133.45 119.4 L133.3 121.3 Q132.75 122.75 130.7 123.05 L130.6 122.5 M136.7 115.45 L135.45 116.55 135.2 116.3 Q136.85 114.65 137.6 114.3 L136.7 115.45 M138.7 116.5 L138.1 117.55 137.7 117.55 138.6 116.2 139.6 115.3 138.7 116.5 M118.45 116.25 L119.05 116.3 119.7 116.55 Q119.0 117.1 117.2 117.55 L118.45 116.25" fill="#42b5a8" fill-rule="evenodd" stroke="none"/>
    <path d="M163.6 87.65 Q163.6 88.3 160.55 92.65 L157.2 97.5 Q156.65 97.65 156.1 98.1 L155.45 98.55 Q153.55 97.3 150.35 89.85 150.35 89.55 153.7 86.05 L158.35 81.55 159.85 81.45 160.7 83.55 162.4 85.75 163.6 87.65 M115.45 85.55 L117.3 83.35 Q118.6 81.75 119.2 81.55 120.5 83.75 121.1 85.75 L120.55 85.9 119.2 86.05 Q119.05 85.9 119.2 85.65 L119.45 84.55 119.15 83.5 118.7 83.05 117.8 84.2 115.95 85.8 115.45 85.55 M108.95 94.25 L111.2 94.75 110.35 92.25 114.95 90.05 115.35 90.5 Q113.0 91.55 112.6 93.25 112.35 94.2 112.6 96.05 L112.7 96.3 Q112.7 96.5 111.9 96.5 L110.5 96.05 Q109.5 95.5 108.6 95.3 L107.8 95.1 Q107.45 94.95 107.45 94.15 107.45 93.3 109.65 90.65 L112.2 87.55 112.45 88.1 Q112.35 88.9 111.0 90.6 L109.1 93.05 Q108.95 93.5 108.95 94.25 M158.85 82.8 L158.6 83.0 155.8 85.85 Q153.7 88.0 151.95 89.3 L153.8 92.85 Q155.15 95.4 155.2 96.75 155.85 97.5 155.85 96.25 L155.35 93.65 Q154.85 91.65 154.85 91.0 154.85 88.35 156.15 86.2 156.8 85.05 158.85 82.8 M159.7 84.3 Q158.35 84.55 157.15 87.05 156.1 89.3 156.1 90.85 L156.35 92.9 156.6 94.8 156.95 95.0 Q161.7 89.4 161.7 87.75 161.7 87.0 160.85 85.9 L159.7 84.3" fill="#42b5a8" fill-rule="evenodd" stroke="none"/>
    <path d="M162.2 97.5 Q160.5 96.4 159.85 95.3 L160.2 95.05 160.45 94.8 Q165.4 96.9 168.85 101.3 L173.6 108.05 179.95 107.65 185.1 106.8 186.2 106.75 186.7 107.55 Q185.75 109.05 182.4 111.5 178.6 114.25 177.45 115.5 L178.45 116.85 Q179.0 117.8 180.45 118.5 L180.65 118.55 180.7 119.35 180.5 120.45 179.95 120.75 Q176.05 120.55 173.35 119.5 L171.7 119.25 171.6 122.55 171.25 122.8 170.7 123.05 170.2 122.0 170.2 117.5 Q169.7 117.25 170.95 117.25 L173.05 117.9 Q175.1 118.6 175.6 119.0 L178.45 119.0 176.95 116.95 175.7 115.15 Q175.7 114.6 179.05 112.0 L182.6 109.3 176.3 109.6 173.1 109.55 Q171.05 107.8 167.95 103.25 164.95 98.8 162.1 96.5 L162.0 96.95 162.2 97.5 M170.9 125.4 L170.05 125.5 Q166.8 125.5 162.7 118.0 159.2 111.6 159.2 110.25 159.2 109.45 159.5 109.3 L160.2 109.3 Q161.7 111.95 164.0 117.2 166.5 121.8 170.85 125.05 L170.85 125.3 170.9 125.4 M109.7 95.8 Q109.4 95.95 109.25 96.45 L108.95 97.05 Q108.7 97.65 108.7 96.4 108.7 95.6 109.0 95.4 109.05 95.35 109.45 95.25 L110.6 96.05 110.7 96.5 Q110.1 96.55 109.7 95.8" fill="#42b5a8" fill-rule="evenodd" stroke="none"/>
    <path d="M107.1 110.55 L103.1 110.25 Q104.9 117.5 99.95 122.05 L97.6 122.0 Q95.6 118.1 95.4 116.4 L96.45 116.5 97.1 116.5 Q95.35 114.75 95.35 114.0 95.35 112.65 96.55 110.85 97.55 109.3 98.45 108.8 L100.2 109.0 100.95 109.25 Q101.35 108.9 101.35 108.55 L106.6 109.8 107.1 110.55 M104.6 110.8 L104.85 115.1 104.75 118.5 Q104.45 119.9 102.95 122.05 104.7 122.85 106.85 123.5 L107.1 123.8 106.45 124.55 104.05 123.7 101.35 122.5 Q104.0 120.55 104.15 116.65 103.85 112.4 104.2 110.8 L104.6 110.8 M102.35 114.25 L102.1 112.6 102.05 112.35 101.6 113.8 Q101.6 115.65 98.95 117.05 L96.9 117.05 96.95 117.55 Q97.05 118.75 98.1 118.75 100.2 118.75 101.45 116.55 L102.35 114.25 M97.6 115.25 L99.35 115.05 Q101.7 111.95 100.35 110.75 98.15 110.5 97.45 111.9 97.0 112.7 96.6 114.25 L97.6 115.25 M98.6 120.75 L99.95 120.55 100.95 119.55 100.95 119.5 100.1 119.8 98.2 120.3 98.6 120.75" fill="#42b5a8" fill-rule="evenodd" stroke="none"/>
    <path d="M98.45 94.75 L101.2 95.0 101.6 95.3 Q101.4 95.85 100.45 96.25 L97.7 95.75 98.1 95.1 98.45 94.75 M100.85 89.3 L102.6 90.5 102.45 91.0 101.45 91.25 Q100.75 91.25 100.25 90.85 99.35 90.1 98.1 89.55 97.7 89.25 97.7 88.85 L97.85 88.05 Q99.1 88.2 100.85 89.3 M103.2 85.75 Q104.8 85.45 105.25 86.9 L105.6 89.05 105.2 89.5 Q104.0 88.55 103.85 87.5 103.6 86.2 103.2 85.75" fill="#42b5a8" fill-rule="evenodd" stroke="none"/>
    <path d="M165.5 131.85 L165.6 132.25 165.05 134.3 165.05 135.7 166.45 135.7 Q166.9 135.3 167.1 133.95 167.35 132.75 168.15 132.2 168.95 132.5 168.95 133.25 L168.7 134.4 168.4 135.6 168.6 136.25 168.95 136.7 Q169.2 136.9 168.8 137.2 L168.05 137.45 167.25 137.35 164.85 137.2 163.7 136.15 163.65 134.95 Q163.45 134.15 163.55 133.35 163.7 131.8 165.4 131.8 L165.5 131.85 M163.3 131.05 L163.4 131.55 162.95 132.5 161.35 133.65 163.4 135.95 163.15 136.3 162.35 136.9 160.6 135.35 159.5 134.0 159.4 134.75 Q159.15 136.35 158.15 137.45 157.55 137.25 157.55 136.6 L158.1 132.05 158.0 129.9 Q158.0 128.6 158.7 128.0 159.5 128.85 159.5 131.8 L159.5 133.05 160.95 132.0 Q162.7 130.95 163.15 130.95 L163.3 131.05 M135.3 135.25 L135.15 137.75 134.5 138.05 Q133.8 137.3 133.85 135.8 L133.9 133.3 133.2 132.9 Q132.5 134.3 132.1 136.9 L132.0 137.1 131.45 137.2 Q130.2 137.2 130.55 135.75 L130.85 133.45 Q130.75 133.0 130.9 132.65 131.15 131.9 132.3 131.7 134.45 131.3 135.05 132.7 L135.3 135.25 M137.55 133.35 L137.5 133.45 Q137.65 133.75 138.7 133.75 L139.4 133.65 139.6 133.45 139.6 133.3 139.35 133.05 137.85 133.05 137.55 133.35 M137.6 135.9 L138.1 136.55 139.5 136.65 140.3 137.25 140.05 137.9 139.5 138.05 137.55 138.05 Q136.15 137.05 135.9 136.35 L135.85 135.1 Q135.85 131.35 138.5 131.35 141.15 131.35 141.15 133.5 141.15 135.9 137.25 135.15 L137.6 135.9 M130.55 129.1 Q129.95 129.8 128.95 130.05 128.1 130.3 127.8 130.95 127.5 132.2 127.5 133.05 L127.5 133.2 128.4 133.15 129.2 133.2 129.35 133.25 129.45 133.65 Q129.45 134.5 127.5 134.85 L127.75 135.85 127.75 137.1 127.55 137.3 127.0 137.45 Q126.1 137.45 126.05 136.7 L126.1 135.7 125.6 134.75 125.25 134.1 126.4 131.15 Q126.6 130.0 127.0 129.45 127.8 128.35 129.75 128.55 L130.55 129.1 M123.05 131.25 L123.05 128.45 Q124.45 128.4 124.7 130.25 L124.7 132.9 124.6 136.95 124.35 137.1 123.65 137.2 122.8 137.1 122.75 135.85 123.25 133.45 Q123.6 131.9 123.05 131.25 M122.05 136.4 L119.75 138.05 118.35 138.05 Q117.65 137.8 117.55 137.15 L117.45 136.25 Q117.45 135.25 117.9 134.7 118.35 134.2 120.25 132.9 L119.75 132.5 119.1 133.05 118.55 133.3 117.8 133.2 117.75 132.4 Q117.75 130.65 120.0 131.4 122.2 132.2 122.2 134.95 L122.05 136.4 M156.05 128.35 Q157.0 128.3 157.0 129.3 157.0 129.85 155.65 130.5 155.05 130.3 155.05 129.6 155.05 128.35 156.05 128.35 M156.7 132.25 L156.5 134.7 Q156.1 137.05 155.35 137.45 154.75 137.25 154.75 136.6 L155.05 133.6 155.1 132.2 Q155.3 131.25 156.5 131.8 L156.6 131.85 156.7 132.25 M154.2 132.65 L154.2 134.0 Q154.2 136.2 153.15 136.65 152.6 136.35 152.65 135.4 L152.8 133.95 152.7 133.2 152.55 133.0 Q151.75 133.95 151.2 136.15 L150.65 136.35 Q150.1 135.85 149.9 134.75 L149.65 132.9 Q149.05 133.4 148.9 134.8 L148.8 136.95 148.15 137.2 Q147.4 136.35 147.25 134.9 L147.25 132.8 Q147.25 132.05 147.8 131.9 L149.25 131.35 Q149.7 131.35 150.25 131.7 L151.15 131.95 151.75 131.7 Q152.0 131.35 152.3 131.35 153.85 131.35 154.2 132.65 M100.2 132.4 L100.2 130.95 Q100.4 129.95 101.55 129.95 102.15 129.95 103.0 130.5 L103.9 131.25 105.35 130.1 Q106.6 129.05 106.95 129.1 L107.8 129.1 Q108.55 129.9 108.55 130.5 108.55 131.25 106.6 134.3 104.5 137.45 103.6 137.45 L102.2 136.4 100.85 134.95 Q100.2 133.9 100.2 132.4 M111.9 132.95 L111.95 129.7 Q112.95 129.45 113.2 130.25 L113.3 132.05 113.3 132.2 115.0 131.9 Q116.4 131.85 116.8 133.6 L116.9 135.5 116.8 137.55 116.15 137.75 Q115.35 137.15 115.3 135.85 L115.25 133.65 115.25 133.6 114.7 133.45 Q113.55 133.45 113.55 137.35 L112.8 137.75 Q112.05 137.3 111.95 135.65 L111.9 132.95 M119.6 135.35 Q118.95 135.75 118.9 136.1 L118.85 136.55 119.7 136.55 Q120.55 135.4 120.55 134.85 120.05 135.0 119.6 135.35" fill="#c91481" fill-rule="evenodd" stroke="none"/>
    <path d="M-81.55 123.35 Q-82.25 124.35 -82.85 124.35 L-83.5 124.25 -83.55 123.55 Q-83.55 122.95 -83.0 122.85 L-82.25 122.85 -81.55 123.35 M-93.05 123.5 Q-93.05 124.2 -93.4 125.7 L-93.8 127.5 -91.6 127.45 -90.75 127.5 -90.65 127.6 -90.55 128.05 -90.8 128.55 -91.25 128.85 -94.75 128.85 Q-95.3 128.65 -95.3 128.0 L-94.85 125.7 Q-94.45 124.5 -94.55 122.5 L-93.55 122.75 Q-93.05 123.05 -93.05 123.5 M-119.0 122.85 Q-118.55 122.85 -117.55 124.4 -116.65 125.85 -116.5 126.5 L-116.4 126.6 -115.0 124.25 Q-114.05 122.7 -113.0 122.5 L-112.9 122.65 -112.8 123.15 Q-112.8 123.55 -114.4 126.0 L-116.25 128.6 Q-117.3 127.7 -118.4 125.65 L-119.55 123.15 Q-119.6 122.85 -119.0 122.85 M-121.3 114.45 L-121.85 114.6 Q-122.5 114.6 -123.25 113.65 L-123.8 114.1 -124.5 114.6 -126.0 114.6 -127.25 113.35 -127.3 112.05 -127.35 110.85 Q-127.15 109.75 -125.75 109.75 L-125.65 109.85 -125.55 110.3 Q-125.55 110.65 -125.7 110.85 L-126.05 111.25 -126.05 113.1 -125.75 113.25 -124.8 113.25 Q-123.25 111.3 -123.3 110.0 L-122.75 109.85 Q-121.95 109.85 -122.05 111.0 L-122.3 112.2 -121.95 113.0 -121.05 114.0 -121.3 114.45 M-101.8 123.05 Q-101.8 124.1 -102.4 124.0 L-103.3 123.65 Q-104.6 123.65 -105.05 125.0 L-105.3 126.45 -105.25 126.85 -104.5 127.25 -102.5 126.6 -102.0 126.7 -101.8 127.15 Q-101.8 128.05 -104.0 128.6 -106.05 128.6 -106.5 127.55 L-106.55 126.4 Q-106.55 123.05 -102.5 122.35 L-101.8 123.05 M-111.25 128.35 Q-112.7 127.9 -112.95 127.5 L-113.05 126.5 Q-113.05 122.75 -110.4 123.05 -107.8 123.3 -107.8 125.7 -107.8 127.5 -109.75 128.35 L-111.25 128.35 M-109.8 127.0 L-109.05 125.75 Q-109.05 125.4 -109.2 125.15 L-109.55 124.75 Q-111.2 124.45 -111.55 125.25 L-111.8 126.85 -111.3 127.0 -109.8 127.0 M-114.95 137.65 L-116.55 137.65 -116.8 137.9 -116.95 138.25 -114.85 138.25 -114.95 137.65 M-113.6 138.05 Q-113.6 139.2 -114.2 139.6 L-117.05 139.75 -116.6 140.5 -114.95 140.6 -114.35 141.15 -114.55 141.75 -115.7 141.85 Q-117.5 141.85 -118.1 140.4 L-118.35 138.9 -118.25 137.7 -116.7 136.35 Q-114.35 136.3 -113.8 136.9 -113.6 137.1 -113.6 138.05 M-118.95 137.6 Q-121.0 137.85 -121.25 138.85 L-121.25 138.95 -121.25 139.15 -121.35 140.1 -121.5 141.35 -121.75 141.65 -122.3 141.85 -122.95 141.75 -123.0 140.65 -122.9 140.0 -123.0 139.7 -122.75 138.4 -122.5 136.75 -120.45 136.35 -119.7 136.35 -119.3 136.65 -118.85 137.25 -118.95 137.6 M-101.85 138.35 Q-101.6 139.15 -101.6 139.95 L-101.65 140.8 Q-101.8 141.35 -102.45 141.6 -103.5 141.15 -103.3 140.6 L-102.85 139.75 Q-102.85 139.2 -103.35 138.5 L-103.45 138.35 -104.3 139.85 -105.45 141.1 Q-106.15 140.55 -106.1 139.35 L-106.2 137.4 -106.35 137.25 -107.35 138.65 Q-107.95 139.65 -107.6 140.5 L-108.2 140.85 -108.8 139.55 -109.1 137.75 -109.05 137.0 Q-108.15 136.9 -107.4 136.3 -106.75 135.75 -106.45 135.85 -105.3 135.9 -104.95 136.8 L-104.85 138.0 -104.8 138.1 Q-104.7 137.55 -104.2 137.2 -103.8 136.85 -103.35 136.85 -102.3 136.85 -101.85 138.35 M-82.05 125.6 L-82.05 128.75 -82.75 129.1 -83.3 127.75 -83.55 125.95 -83.35 125.4 Q-83.1 125.05 -82.75 125.1 L-82.05 125.6 M-85.05 126.0 Q-85.05 126.95 -85.35 127.4 L-87.0 128.85 Q-89.45 128.45 -89.95 128.1 -90.3 127.9 -90.3 127.05 -90.3 126.05 -89.75 124.85 -89.0 123.1 -87.6 123.1 -86.05 123.1 -85.4 124.4 -85.05 125.15 -85.05 126.0 M-87.65 124.7 Q-89.0 125.05 -89.05 127.1 L-87.9 127.5 -87.05 127.5 Q-86.3 126.4 -86.3 125.95 -86.3 124.3 -87.65 124.7 M-89.35 135.4 L-89.35 135.05 -89.2 134.9 -88.7 134.85 -87.95 134.85 -87.35 135.35 Q-87.35 135.8 -87.95 136.1 L-88.7 136.1 -89.15 135.95 Q-89.35 135.85 -89.35 135.4 M-84.45 135.6 Q-83.7 135.95 -83.4 136.6 -83.2 137.0 -83.1 137.75 L-82.8 138.8 -82.6 139.85 -82.6 140.5 Q-82.7 141.0 -83.2 141.1 L-84.2 141.35 -85.95 141.35 Q-87.35 141.0 -87.35 139.75 -87.35 137.85 -84.45 137.25 L-84.7 136.9 -85.7 137.1 -86.85 136.35 -86.55 135.85 -84.45 135.6 M-98.45 124.15 L-99.25 124.6 -100.0 124.6 Q-100.55 124.4 -100.55 123.75 -97.4 122.05 -96.6 123.1 -96.3 123.5 -96.3 125.55 L-96.4 127.45 Q-96.9 128.85 -99.0 128.85 -100.2 128.85 -100.5 128.1 L-100.55 127.3 Q-100.55 125.4 -97.55 125.0 L-97.55 124.25 -97.55 124.1 Q-97.6 123.9 -98.0 123.9 L-98.45 124.15 M-99.0 127.5 Q-98.3 127.5 -97.55 126.9 L-97.65 126.4 Q-99.1 126.3 -99.1 126.65 L-99.15 127.25 -99.0 127.5 M-91.6 137.7 Q-91.6 137.3 -92.1 136.95 -92.6 136.6 -93.2 136.5 L-92.95 139.15 Q-91.6 138.15 -91.6 137.7 M-94.45 136.85 Q-94.2 135.45 -93.7 135.1 -91.25 135.85 -90.7 136.35 -90.35 136.65 -90.35 137.75 -90.35 138.9 -91.3 139.7 -91.95 140.3 -93.95 141.35 -94.55 141.25 -94.6 140.75 L-94.6 139.9 -94.6 138.4 -94.45 136.85 M-95.6 137.65 Q-95.5 138.8 -96.2 139.1 L-99.85 139.25 Q-99.3 140.1 -98.45 140.25 L-97.3 140.2 -96.45 140.25 -96.35 140.65 -96.75 141.3 -97.2 141.6 -98.7 141.6 Q-101.1 140.85 -101.1 139.05 -101.1 137.6 -100.35 136.7 -99.2 135.25 -96.45 135.85 -95.8 136.0 -95.65 136.7 L-95.6 137.65 M-96.85 137.25 L-98.5 137.1 -99.45 137.75 -96.85 137.75 -96.85 137.25 M-85.3 138.65 L-86.05 139.65 -85.8 140.0 -84.1 139.75 -84.35 138.75 -84.45 138.65 -85.3 138.65 M-88.3 138.3 L-88.1 139.5 -88.1 140.75 -88.7 141.1 Q-89.4 140.8 -89.55 140.0 L-89.6 138.55 Q-89.6 137.6 -88.95 137.1 -88.45 137.65 -88.3 138.3 M-128.5 108.1 L-127.8 108.8 -128.05 109.5 -129.25 109.6 Q-129.95 109.65 -130.05 110.25 -129.5 111.0 -128.65 111.5 -128.05 111.85 -128.05 112.35 -128.05 113.0 -128.45 113.55 -129.05 114.4 -130.25 114.6 L-131.75 114.6 -132.15 114.45 -132.3 113.9 -132.3 113.55 -132.15 113.4 -130.3 113.25 -129.3 112.4 -131.0 111.2 Q-131.55 110.85 -131.55 110.25 -131.55 109.5 -130.75 108.9 L-129.25 108.1 -128.5 108.1 M-139.75 109.35 Q-138.65 110.1 -138.35 110.6 -138.05 111.05 -138.05 111.8 L-138.3 114.5 Q-138.5 114.5 -139.0 114.85 -139.75 114.35 -139.4 112.85 -139.05 111.35 -140.15 110.65 L-141.15 110.75 Q-142.1 111.3 -142.05 112.7 -142.0 114.0 -143.0 114.6 L-143.55 114.1 -143.55 106.75 Q-142.15 106.35 -142.25 107.8 L-142.3 109.85 -141.25 109.35 -139.75 109.35 M-133.4 111.15 L-133.3 112.7 -133.4 114.4 -134.0 114.6 Q-134.65 114.05 -134.7 112.9 -134.75 111.45 -135.0 110.9 -136.2 110.95 -136.25 112.65 -136.35 114.35 -137.1 114.35 L-137.75 114.25 -137.8 113.1 -137.55 109.5 Q-136.95 109.3 -136.3 109.75 L-134.5 109.6 Q-133.6 110.4 -133.4 111.15 M-139.9 121.65 Q-138.8 120.85 -138.8 122.4 L-139.25 126.0 -137.8 125.1 Q-136.25 124.25 -135.75 124.25 L-135.65 124.35 -135.55 124.8 Q-135.55 125.2 -136.0 125.5 L-137.25 126.25 -135.8 128.0 -136.0 128.35 -136.6 128.6 -138.1 127.65 -139.35 126.6 -139.65 128.6 -140.25 128.85 Q-140.8 128.3 -140.8 127.6 L-140.3 123.65 Q-141.0 122.45 -139.9 121.65 M-121.65 120.85 L-121.55 121.3 Q-121.55 121.75 -123.9 125.2 -126.4 128.8 -127.5 129.6 L-127.9 129.45 -128.05 128.9 Q-128.05 128.35 -126.6 126.4 L-125.0 124.4 -123.7 122.0 Q-122.9 120.8 -121.8 120.75 L-121.75 120.75 -121.65 120.85 M-147.5 110.65 Q-148.25 110.9 -148.6 111.5 L-148.75 111.8 -149.05 112.5 -148.75 112.8 -148.4 113.0 Q-147.15 112.9 -146.4 112.4 -145.8 112.0 -145.8 111.5 -145.8 111.25 -146.3 110.9 -146.9 110.45 -147.5 110.65 M-148.75 109.7 Q-147.7 109.0 -146.25 109.1 -144.55 110.2 -144.55 111.45 -144.55 113.95 -148.5 114.35 L-148.75 114.25 -150.2 113.4 -150.3 112.4 Q-150.3 111.25 -149.4 110.25 L-148.75 109.7 M-151.4 108.15 L-152.0 108.35 -152.75 108.35 Q-153.3 108.15 -153.3 107.5 -153.3 106.35 -152.3 106.3 -151.3 106.25 -151.3 107.3 L-151.4 108.15 M-155.35 117.05 Q-156.05 116.4 -156.05 115.85 -156.1 115.6 -155.5 115.6 -155.15 115.6 -154.85 115.85 L-154.25 116.1 Q-152.8 116.1 -152.55 114.55 -152.35 113.35 -152.8 112.25 L-152.8 109.75 Q-151.55 109.7 -151.3 111.25 L-151.3 113.4 Q-151.3 114.6 -151.8 115.75 -152.3 116.8 -153.0 117.25 L-154.35 117.6 -155.1 117.25 -155.35 117.05 M-142.75 122.35 L-142.0 122.35 Q-141.2 123.0 -141.05 123.6 L-141.25 123.9 Q-141.35 124.1 -141.75 124.1 -143.3 124.1 -143.3 123.05 -143.3 122.45 -142.75 122.35 M-145.5 123.6 Q-144.4 124.25 -144.15 124.85 L-144.05 126.0 -144.3 128.0 Q-144.5 128.0 -145.0 128.35 -145.85 127.85 -145.7 126.85 L-145.65 124.9 Q-146.7 125.6 -147.15 126.4 -147.55 127.1 -147.65 128.35 L-148.25 128.6 Q-148.85 128.05 -148.85 126.85 -148.8 125.25 -148.9 124.9 -150.1 125.3 -150.6 126.6 L-151.15 129.1 -151.75 129.35 Q-152.3 128.8 -152.3 128.1 L-152.05 124.35 -150.9 124.4 Q-150.55 124.4 -149.95 124.0 L-148.25 123.6 -147.55 124.4 Q-147.55 124.35 -146.95 124.0 L-146.25 123.6 -145.5 123.6 M-142.05 125.85 L-142.3 128.25 Q-142.5 128.25 -143.0 128.6 -143.55 128.0 -143.55 127.35 -143.6 125.3 -142.75 124.6 -142.05 125.3 -142.05 125.85 M-158.8 126.0 L-158.9 126.8 Q-159.05 127.4 -159.75 127.6 L-162.4 127.75 -162.55 128.5 -161.15 128.5 -159.6 128.35 -159.05 128.45 -159.0 128.5 -158.9 128.55 -158.8 128.9 Q-158.8 129.4 -159.7 129.75 L-161.6 130.1 Q-163.2 130.1 -163.65 129.2 L-163.8 128.1 Q-163.8 126.65 -163.25 125.6 -162.65 124.4 -161.5 124.1 -159.5 124.15 -159.0 124.85 -158.8 125.1 -158.8 126.0 M-161.15 125.5 L-161.9 126.0 -162.05 126.25 -160.05 126.25 Q-160.05 125.65 -160.3 125.5 L-161.15 125.5 M-152.6 137.25 Q-152.6 136.35 -151.95 136.4 -151.25 136.55 -151.0 137.0 L-149.75 137.1 Q-148.45 137.2 -148.1 137.5 -147.5 138.0 -147.5 140.0 -147.5 141.0 -148.0 142.5 L-148.45 142.6 Q-148.95 142.15 -148.9 141.25 L-148.75 139.9 Q-148.75 139.25 -149.35 138.4 L-150.35 138.5 Q-151.2 139.15 -151.25 140.15 -151.3 141.6 -151.5 142.0 -151.7 142.0 -152.2 142.35 -152.75 141.75 -152.75 140.9 L-152.5 138.5 -152.6 137.25 M-153.5 139.05 Q-153.5 140.05 -154.0 141.0 -154.7 142.35 -155.95 142.35 -157.45 142.35 -157.85 141.4 L-158.0 140.3 -157.8 138.3 Q-157.5 137.45 -156.45 136.9 -155.4 136.35 -154.35 137.4 -153.5 138.35 -153.5 139.05 M-154.95 138.55 L-155.25 138.25 Q-156.05 138.65 -156.5 139.5 -156.95 140.35 -156.75 140.75 L-155.95 141.0 Q-155.4 141.0 -155.0 140.1 L-154.75 139.15 -154.95 138.55 M-158.25 137.8 Q-158.25 138.6 -158.95 138.6 L-160.4 138.6 -160.75 139.65 -160.75 141.0 -160.45 141.25 -159.65 141.05 -159.2 140.85 -158.7 140.95 -158.5 141.4 Q-158.5 141.8 -158.9 142.1 L-159.7 142.6 -160.7 142.6 Q-161.7 142.4 -161.95 141.55 L-162.0 140.35 -161.95 138.5 -162.65 138.35 Q-162.6 137.9 -163.0 137.6 L-162.85 136.85 -161.35 136.95 Q-160.95 136.45 -160.2 136.5 L-160.1 136.6 -160.0 137.05 -158.95 137.1 -158.25 137.8 M-142.05 136.8 Q-141.4 134.45 -138.95 135.35 L-138.25 136.05 Q-138.25 137.05 -140.6 136.75 L-140.85 138.35 -138.95 138.35 -138.45 138.45 -138.25 138.9 -138.5 139.3 -138.95 139.6 -140.95 139.8 -141.1 141.6 -141.7 141.85 Q-142.15 141.55 -142.25 140.7 L-142.25 140.1 -142.6 139.95 -142.75 139.4 -142.3 138.8 -142.05 136.8 M-130.15 126.65 Q-130.35 128.1 -130.05 128.75 -130.4 129.05 -131.25 129.25 L-132.5 129.6 Q-134.3 129.4 -134.7 128.6 L-134.8 127.15 -134.75 125.85 -134.0 124.6 Q-133.25 124.9 -133.25 125.35 L-133.55 126.25 -133.55 127.9 Q-133.65 128.25 -133.0 128.25 -132.3 128.25 -131.9 126.85 -131.55 125.3 -131.0 125.1 -130.05 125.6 -130.15 126.65 M-133.25 137.3 L-133.1 137.15 -132.05 137.05 -132.0 135.75 Q-130.6 135.45 -130.65 136.7 L-130.65 136.9 -129.45 136.85 Q-128.75 137.15 -128.75 137.4 L-128.95 138.0 -130.9 138.3 -131.0 138.75 -131.0 140.0 -130.25 140.15 -129.2 140.25 -129.1 140.3 Q-129.0 140.3 -129.0 140.65 -129.0 141.45 -130.45 141.6 -132.0 141.6 -132.25 140.55 L-132.25 139.45 -132.15 138.35 -132.7 138.35 -133.1 138.2 -133.25 137.65 -133.25 137.3 M-133.25 138.35 L-133.25 140.6 Q-133.8 141.0 -134.5 141.0 -134.75 141.0 -135.05 141.35 L-135.7 141.85 -136.45 141.85 Q-137.7 141.5 -137.95 140.85 L-138.0 139.65 -137.95 138.1 Q-137.65 137.3 -136.45 137.25 L-136.35 137.35 -136.25 137.8 -136.45 138.55 -136.75 139.1 -136.75 140.25 Q-136.8 140.5 -136.2 140.5 -135.75 140.5 -135.1 139.2 -134.45 137.85 -134.05 137.85 L-133.5 137.95 -133.45 138.0 -133.25 138.35 M-125.25 136.5 Q-123.8 136.25 -123.7 137.35 L-123.5 139.85 -125.0 140.25 -125.5 140.75 Q-125.85 141.1 -126.2 141.1 L-126.95 141.1 Q-127.95 140.8 -128.2 140.15 L-128.25 139.1 -127.95 137.15 Q-128.05 136.85 -127.45 136.85 -126.5 136.85 -126.65 138.0 L-127.0 139.6 Q-127.35 139.75 -126.7 139.75 -126.0 139.75 -125.55 138.3 -125.25 137.2 -125.25 136.5 M-65.7 135.35 Q-64.65 136.05 -64.4 136.95 L-64.35 138.55 Q-64.3 141.6 -65.2 141.6 -67.7 141.6 -68.5 140.8 L-68.85 139.95 Q-68.85 139.35 -68.0 138.65 -67.0 137.75 -65.6 137.75 -65.45 136.55 -65.95 136.6 L-66.85 136.85 -67.35 136.75 -67.55 136.5 -67.6 136.15 -66.7 135.35 -65.7 135.35 M-68.45 136.0 L-68.35 136.55 Q-70.15 138.85 -70.9 139.25 L-70.95 139.4 -71.1 140.25 -70.6 141.65 Q-70.4 141.85 -70.75 142.1 L-71.35 142.35 Q-72.2 142.35 -72.35 141.65 L-72.35 140.45 -72.25 139.3 -71.95 138.8 -74.1 136.2 Q-74.1 135.2 -72.85 135.75 -71.6 136.3 -71.2 137.6 -70.75 137.55 -70.3 136.8 -69.8 136.0 -68.95 135.85 L-68.45 136.0 M-76.05 126.3 Q-76.05 127.2 -76.95 128.25 -78.15 129.6 -79.85 129.6 L-80.5 129.5 -80.55 128.4 Q-80.05 124.75 -80.0 122.75 -78.7 123.1 -77.5 124.1 -76.05 125.25 -76.05 126.3 M-78.15 125.15 Q-79.0 124.45 -78.8 124.85 L-79.05 126.15 -79.05 128.0 Q-78.45 127.95 -77.85 127.25 -77.3 126.6 -77.3 126.15 -77.3 125.85 -78.15 125.15 M-74.6 134.9 Q-74.6 135.4 -75.55 136.6 L-76.95 138.4 -78.1 140.2 -79.45 141.6 Q-80.1 141.45 -80.1 140.8 -80.1 140.2 -78.1 137.5 -76.05 134.85 -75.2 134.35 L-74.8 134.45 Q-74.6 134.55 -74.6 134.9 M-60.95 137.7 L-60.45 138.65 -59.4 137.1 Q-58.55 136.05 -57.6 137.1 -56.6 139.6 -56.6 140.3 L-56.7 141.0 -57.45 141.35 Q-58.1 140.85 -58.3 140.0 L-58.6 138.6 -59.5 139.9 Q-60.15 141.05 -60.7 141.35 -61.35 140.85 -61.6 140.1 L-61.95 138.65 -62.05 140.2 Q-62.15 141.25 -62.95 141.6 L-63.55 141.0 -63.6 140.4 -63.35 138.5 Q-62.95 137.1 -62.1 137.1 -61.35 137.1 -60.95 137.7 M-65.6 139.25 L-66.7 139.25 -67.35 139.75 -67.35 140.0 -65.6 140.0 -65.6 139.25 M-42.7 134.85 Q-42.0 135.15 -41.4 136.75 -40.85 138.1 -40.85 139.05 -40.85 139.75 -41.45 140.65 -42.25 141.8 -43.45 141.35 -44.7 140.85 -45.0 140.25 L-45.1 139.1 -44.95 138.0 Q-44.5 137.4 -42.7 136.75 -43.25 136.45 -43.55 136.5 L-44.1 136.6 -44.6 136.5 -44.8 136.3 -44.85 135.8 Q-44.85 135.4 -44.55 135.25 L-43.45 134.85 -42.7 134.85 M-52.7 135.1 Q-52.0 135.45 -52.0 136.1 L-52.1 137.25 -51.8 138.25 -51.6 139.25 -51.85 140.85 Q-52.15 141.85 -52.7 141.85 L-55.1 141.5 Q-56.35 141.0 -56.35 140.05 -56.35 138.95 -54.85 138.1 L-53.35 137.0 -53.45 136.4 -55.2 137.1 -55.65 136.95 -55.85 136.4 Q-55.85 135.95 -55.05 135.65 L-53.45 135.1 -52.7 135.1 M-55.1 140.0 L-54.7 140.25 -53.45 140.25 -53.35 140.0 -53.35 138.9 Q-54.7 139.45 -54.95 139.75 L-55.1 140.0 M-42.55 138.25 L-43.35 138.55 Q-43.85 138.85 -43.85 139.15 L-43.8 139.75 -43.3 140.0 -42.6 140.0 -42.35 139.15 -42.55 138.25 M-46.2 138.45 Q-45.85 139.35 -45.85 139.9 -45.7 141.05 -46.7 141.35 L-47.25 140.5 -47.35 138.65 -48.45 138.75 Q-49.2 139.25 -49.2 139.8 L-49.2 141.15 Q-49.2 141.35 -49.85 141.35 L-50.55 141.25 -50.6 140.15 Q-50.6 135.75 -49.7 135.1 -49.15 135.3 -49.05 136.2 L-49.1 137.4 -46.7 137.35 -46.2 138.45 M-163.4 108.15 L-163.3 108.75 -163.3 108.95 -163.5 109.6 -163.55 109.65 -164.55 111.0 -163.5 111.35 -162.7 111.95 Q-162.55 112.2 -162.55 113.15 -162.55 114.15 -162.7 114.4 L-163.5 115.05 -164.75 115.6 -166.0 115.6 -166.4 115.45 -166.55 114.9 -166.55 114.55 -166.4 114.4 -164.55 114.25 -163.95 113.65 -163.8 113.3 Q-163.8 112.85 -163.95 112.65 -164.4 112.2 -166.0 112.1 L-166.4 111.95 -166.55 111.4 -164.55 109.0 -164.65 108.65 -165.4 108.9 -166.1 109.1 -166.75 109.0 -166.8 108.3 Q-166.8 107.75 -166.25 107.6 L-164.25 107.35 Q-163.55 107.65 -163.4 108.15 M-177.65 107.95 L-177.55 108.85 Q-177.55 109.85 -178.75 111.35 L-181.05 114.25 -181.05 114.5 -178.0 114.35 -177.3 115.05 -178.0 115.85 -182.0 115.85 -182.25 115.75 -182.55 115.0 -182.25 113.95 -181.05 112.1 -178.8 109.15 -178.9 108.65 -180.55 109.0 -181.25 109.6 Q-181.8 109.4 -181.8 108.8 -181.8 108.3 -181.1 107.9 -180.25 107.4 -178.75 107.35 -177.85 107.5 -177.65 107.95 M-173.25 108.85 L-171.15 110.8 Q-170.55 111.45 -170.55 112.25 -170.55 113.3 -171.3 114.4 -172.2 115.7 -173.5 115.85 -175.8 115.7 -176.4 114.6 L-176.55 113.05 Q-176.55 110.0 -174.0 108.85 L-173.25 108.85 M-174.4 110.5 Q-174.85 110.85 -175.1 111.75 L-175.3 113.05 Q-175.3 113.85 -174.8 114.25 L-174.3 114.5 -173.3 114.5 -172.35 113.5 Q-171.8 112.65 -171.8 112.2 -171.8 111.7 -172.8 111.2 L-174.4 110.5 M-169.55 113.85 L-169.55 112.05 Q-169.55 107.95 -168.9 108.0 -168.3 108.1 -168.3 112.05 L-168.4 115.6 -169.0 115.85 Q-169.65 115.65 -169.65 115.0 L-169.55 113.85 M-191.9 110.0 L-192.5 111.7 -192.55 112.8 -192.5 113.25 Q-192.1 116.0 -190.25 116.0 L-188.4 116.0 Q-187.25 115.55 -185.9 114.05 L-185.5 113.6 -185.25 113.25 Q-184.55 112.25 -184.55 111.65 -184.55 111.4 -185.25 110.7 L-185.5 110.5 -185.75 110.25 Q-186.1 109.95 -186.4 109.75 -187.3 109.2 -187.75 109.2 L-188.25 109.35 Q-188.9 109.35 -189.75 108.4 -190.1 108.05 -191.9 110.0 M-189.05 109.95 Q-187.25 108.95 -187.05 110.25 L-187.05 110.55 -187.2 111.1 -188.0 111.6 -188.35 111.35 Q-188.35 111.1 -188.7 111.1 -189.95 111.1 -189.8 112.5 L-189.75 113.0 -187.85 112.95 -187.0 113.0 -186.9 113.05 -186.8 113.25 -186.8 113.4 Q-186.8 113.8 -187.2 114.1 L-187.75 114.35 -190.0 114.35 -191.0 113.4 -191.0 113.25 -191.05 112.4 Q-191.05 111.25 -189.55 110.25 L-189.05 109.95 M-184.95 109.15 Q-183.3 110.4 -183.3 111.75 -183.3 112.4 -183.7 113.25 L-184.75 114.85 -185.5 115.7 -187.5 117.0 -188.4 117.25 -189.5 117.35 -190.6 117.25 -191.4 117.0 Q-192.7 116.45 -193.3 115.1 L-193.7 113.25 -193.8 112.8 Q-193.8 111.3 -193.45 110.25 -192.5 107.1 -188.55 107.65 -186.55 107.95 -184.95 109.15 M-192.35 123.6 Q-192.25 124.1 -192.3 125.35 L-191.0 125.35 Q-189.7 126.15 -189.4 126.9 L-189.3 128.5 -189.4 130.35 -190.0 130.6 Q-190.65 130.0 -190.6 128.7 -190.5 127.3 -191.05 126.75 L-191.8 126.75 -192.25 128.2 -192.75 129.9 -193.25 130.1 -193.8 129.6 -193.8 123.0 Q-192.6 122.6 -192.35 123.6 M-183.0 125.6 Q-183.55 125.4 -183.55 124.9 -183.15 124.55 -182.35 124.4 -182.05 123.45 -181.5 123.1 L-180.8 123.8 -180.8 124.15 -179.75 124.1 -179.25 124.2 -179.05 124.65 Q-179.05 125.35 -180.0 125.6 L-181.15 125.6 -181.55 127.45 -181.5 128.25 -180.75 128.1 -180.2 128.2 Q-180.05 128.25 -180.05 128.65 -180.05 129.6 -181.25 129.6 -182.8 129.6 -182.8 127.55 L-182.65 125.6 -183.0 125.6 M-184.05 126.3 Q-184.05 127.9 -184.25 128.4 -184.9 129.85 -187.25 129.6 -188.1 129.45 -188.25 128.95 L-188.3 128.1 -188.0 126.7 Q-187.45 125.9 -185.3 125.25 L-185.4 125.15 -187.35 125.35 -187.85 125.25 -188.0 125.0 -188.05 124.65 Q-188.05 123.9 -186.85 123.4 -185.5 122.8 -184.4 124.25 -184.05 124.75 -184.05 126.3 M-187.05 128.1 L-187.0 128.25 -186.05 128.25 -185.3 127.4 -185.4 126.9 -186.5 126.9 Q-187.05 127.45 -187.05 128.1 M-189.45 135.95 Q-187.8 136.4 -186.7 137.0 -185.8 137.8 -185.6 138.35 L-185.5 139.55 Q-185.5 140.75 -186.85 142.25 -188.5 144.1 -190.8 144.1 -192.95 144.1 -193.95 142.75 L-194.5 141.35 Q-194.5 140.0 -193.95 138.55 -193.35 136.85 -192.35 136.0 L-189.45 135.95 M-193.15 140.25 L-193.25 141.3 Q-193.25 142.75 -190.8 142.75 -188.55 142.75 -187.45 141.2 L-186.75 139.55 Q-186.75 138.7 -187.6 137.95 -188.05 137.55 -188.6 137.3 -189.3 136.7 -190.55 136.85 -193.2 137.1 -193.2 139.5 L-193.05 140.15 -193.15 140.25 M-189.05 139.1 L-190.5 139.25 Q-190.95 139.55 -191.0 140.15 L-190.95 140.25 -189.35 140.2 -188.45 140.25 -188.35 140.3 Q-188.25 140.3 -188.25 140.65 -188.25 141.1 -188.65 141.3 L-189.45 141.6 -191.2 141.6 -192.2 140.95 -192.25 140.1 -192.0 138.75 Q-191.5 138.15 -189.45 137.85 L-188.75 138.55 Q-188.75 138.9 -189.05 139.1 M-165.5 124.1 Q-164.55 124.5 -164.05 125.75 L-164.05 128.5 -164.75 128.85 Q-165.35 128.4 -165.3 127.15 -165.25 125.8 -165.75 125.4 -166.4 126.0 -166.75 127.1 L-167.3 128.75 -167.75 128.85 Q-168.3 128.3 -168.3 127.65 L-168.05 124.6 -167.6 124.6 -166.9 124.65 -166.45 124.4 -166.25 124.1 -165.5 124.1 M-170.8 125.1 Q-170.85 124.85 -170.25 124.85 -169.45 124.85 -169.55 126.2 L-169.8 127.6 -169.6 128.25 -169.3 128.75 -169.5 129.1 Q-169.6 129.35 -170.1 129.35 L-173.75 128.85 -174.5 128.25 -174.55 127.4 -174.25 126.2 -173.5 124.85 -173.0 124.95 -172.8 125.4 Q-172.8 126.3 -173.3 127.4 L-172.9 127.75 -171.8 127.75 -171.15 126.5 Q-170.65 125.6 -170.8 125.1 M-175.5 125.0 L-176.65 125.4 Q-175.05 126.95 -175.05 127.75 -175.05 128.5 -176.0 129.2 -176.9 129.85 -177.75 129.85 L-178.5 129.75 -178.55 129.05 -178.5 128.5 Q-177.3 128.5 -176.4 127.65 L-177.75 126.25 -178.05 125.3 -177.8 124.4 -176.5 123.85 -175.75 123.85 -175.05 124.55 Q-175.05 124.95 -175.5 125.0 M-172.75 138.5 L-172.9 138.9 Q-173.05 139.1 -173.45 139.1 L-174.25 138.4 -174.85 138.5 Q-175.45 139.15 -175.65 140.25 L-175.85 142.4 -176.45 142.6 Q-177.0 142.5 -177.0 142.0 L-177.0 141.15 -176.95 137.25 -176.45 137.1 -173.95 137.1 Q-173.1 137.85 -172.75 138.5 M-172.5 139.6 L-172.45 138.5 -171.45 137.35 -170.5 138.25 -170.85 138.85 Q-171.25 139.3 -171.25 139.9 -171.05 140.25 -170.6 140.25 -169.5 140.25 -169.55 138.9 -169.6 137.4 -168.7 137.1 -168.0 137.65 -167.85 138.8 L-167.75 140.8 Q-167.75 142.1 -167.95 142.45 -168.4 143.4 -170.45 144.1 L-172.2 144.1 -172.6 143.95 -172.75 143.4 Q-172.75 142.3 -170.25 142.75 -169.3 142.35 -169.0 141.6 L-169.0 141.1 -169.1 141.0 -169.6 141.3 -170.2 141.6 Q-171.95 141.3 -172.4 140.65 L-172.5 139.6 M-178.0 137.95 Q-178.35 138.35 -178.7 138.35 L-179.05 138.1 Q-179.05 137.85 -179.4 137.85 -179.85 137.85 -180.4 138.6 L-181.0 139.75 -181.0 141.4 -179.2 141.6 Q-178.5 141.9 -178.5 142.15 L-178.7 142.75 -179.95 142.85 Q-181.9 142.85 -182.3 141.75 L-182.25 140.65 -182.0 138.6 Q-181.6 137.9 -179.45 136.35 L-178.7 136.35 Q-177.75 136.8 -177.75 137.4 L-178.0 137.95 M-163.0 139.05 Q-163.0 140.0 -164.85 141.05 -166.55 141.95 -166.1 143.15 L-166.7 143.35 Q-167.25 142.8 -167.25 141.55 L-167.0 139.1 Q-167.4 138.2 -167.25 137.75 -167.0 137.0 -164.2 137.35 -163.35 137.75 -163.1 138.35 L-163.0 139.05 M-164.5 138.65 L-165.75 138.75 -165.75 140.0 -165.05 139.7 Q-164.4 139.35 -164.35 139.0 L-164.5 138.65" fill="#000000" fill-opacity="0.2509804" fill-rule="evenodd" stroke="none"/>
  </g>
</svg>
