<?xml version="1.0" encoding="UTF-8" standalone="no"?>
<svg xmlns:xlink="http://www.w3.org/1999/xlink" height="107.55px" width="326.75px" xmlns="http://www.w3.org/2000/svg">
  <g transform="matrix(1.0, 0.0, 0.0, 1.0, 140.75, 86.55)">
    <path d="M110.0 20.0 L185.0 20.0" fill="none" stroke="#ffffff" stroke-linecap="butt" stroke-linejoin="round" stroke-width="2.0"/>
    <path d="M-139.75 -82.55 Q-139.75 -86.55 -135.75 -86.55 L-122.75 -86.55 Q-118.75 -86.55 -118.75 -82.55 L-118.75 -69.55 Q-118.75 -65.55 -122.75 -65.55 L-135.75 -65.55 Q-139.75 -65.55 -139.75 -69.55 L-139.75 -82.55" fill="#3f4152" fill-rule="evenodd" stroke="none"/>
    <path d="M-125.75 -42.05 L-125.75 -50.4 -135.75 -50.4 -135.75 -42.05 -140.75 -42.05 -140.75 -62.05 -120.75 -62.05 -120.75 -42.05 -125.75 -42.05" fill="#ff0000" fill-rule="evenodd" stroke="none"/>
    <path d="M-135.75 -42.05 L-135.75 -50.4 -125.75 -50.4 -125.75 -42.05 -135.75 -42.05" fill="#ffffff" fill-rule="evenodd" stroke="none"/>
    <path d="M-127.75 -62.05 L-127.75 -55.95 -124.75 -56.05 -130.75 -50.05 -136.75 -55.95 -133.75 -55.95 -133.75 -62.05 -127.75 -62.05" fill="#7dff6f" fill-rule="evenodd" stroke="none"/>
  </g>
</svg>
