<?xml version="1.0" encoding="UTF-8" standalone="no"?>
<svg xmlns:xlink="http://www.w3.org/1999/xlink" height="24.25px" width="25.05px" xmlns="http://www.w3.org/2000/svg">
  <g transform="matrix(1.0, 0.0, 0.0, 1.0, 13.4, 12.1)">
    <path d="M11.65 -5.15 Q11.65 -4.55 11.15 -4.4 L7.6 -4.25 -1.5 -4.5 Q-2.55 -5.1 -2.6 -6.45 L-2.5 -8.55 -6.7 -4.3 -11.05 0.0 -2.4 8.75 -2.65 5.35 -2.6 4.5 -1.75 3.75 8.5 3.65 9.05 3.5 10.75 3.5 11.35 4.55 11.15 4.75 9.0 5.65 -0.75 5.75 Q-0.25 8.75 -0.25 10.2 L-0.3 11.4 Q-0.5 12.15 -1.35 12.15 -2.9 12.15 -13.4 0.2 -13.4 -0.85 -8.9 -5.05 L-4.4 -9.05 Q-3.85 -9.35 -2.45 -11.45 -1.15 -12.95 -0.5 -11.05 L-0.5 -6.5 4.4 -6.25 10.75 -6.15 Q11.65 -5.75 11.65 -5.15" fill="#268471" fill-rule="evenodd" stroke="none"/>
  </g>
</svg>
