<?xml version="1.0" encoding="UTF-8" standalone="no"?>
<svg xmlns:xlink="http://www.w3.org/1999/xlink" height="25.65px" width="18.25px" xmlns="http://www.w3.org/2000/svg">
  <g transform="matrix(1.0, 0.0, 0.0, 1.0, 8.45, 12.85)">
    <path d="M3.1 -8.0 Q-2.55 -8.5 -4.0 -5.6 L-4.9 -3.6 Q-5.45 -2.65 -6.6 -2.65 -8.05 -2.65 -8.35 -4.1 L-8.35 -5.2 Q-8.35 -8.75 -5.5 -10.9 -2.95 -12.85 0.75 -12.85 4.45 -12.8 6.95 -10.7 9.8 -8.3 9.8 -4.15 L9.65 -0.9 Q9.05 0.25 5.35 1.45 2.5 2.45 1.95 3.05 1.65 3.45 1.85 4.0 L1.05 5.4 -0.5 5.65 Q-2.55 5.65 -2.9 4.55 L-2.9 3.1 Q-2.9 -0.9 1.65 -2.1 L4.8 -2.95 Q6.25 -3.5 6.25 -4.55 6.25 -5.35 5.25 -6.45 4.3 -7.45 3.1 -8.0 M-0.5 7.65 Q1.85 7.15 1.85 10.45 L1.65 11.45 1.0 12.15 Q0.5 12.35 -0.05 12.65 L-1.15 12.8 Q-2.65 12.8 -2.9 11.85 L-2.9 10.85 Q-2.9 8.1 -0.5 7.65" fill="#268471" fill-rule="evenodd" stroke="none"/>
  </g>
</svg>
