<?xml version="1.0" encoding="UTF-8" standalone="no"?>
<svg xmlns:xlink="http://www.w3.org/1999/xlink" height="30.1px" width="26.4px" xmlns="http://www.w3.org/2000/svg">
  <g transform="matrix(1.0, 0.0, 0.0, 1.0, 12.65, 14.05)">
    <path d="M3.8 -7.4 L4.65 -6.1 4.7 -5.05 4.6 -4.25 3.95 -3.1 3.35 -1.9 3.45 -1.25 Q3.45 -0.85 2.9 -0.25 2.3 0.3 1.85 0.3 0.95 0.3 0.45 -1.25 0.45 -2.45 1.45 -3.55 2.45 -4.6 2.45 -5.5 L1.95 -6.4 Q-0.95 -5.6 -1.35 -3.75 -1.9 -1.65 -2.4 -1.35 L-3.0 -1.35 Q-3.8 -1.5 -3.95 -2.1 L-4.0 -2.9 Q-4.0 -4.25 -3.3 -5.3 L-1.1 -7.7 Q-0.3 -8.45 1.35 -8.3 2.9 -8.15 3.8 -7.4 M2.7 -11.85 Q0.0 -9.8 -1.75 -9.1 L-9.75 -3.4 -5.4 4.05 Q-2.45 8.95 -1.75 8.95 -1.5 8.95 1.35 7.35 L5.5 4.75 Q7.65 3.6 9.15 2.8 12.1 1.2 12.1 0.55 12.1 -0.8 9.15 -5.25 L5.55 -10.85 Q4.65 -13.0 2.7 -11.85 M12.2 -2.95 L13.75 0.6 13.7 1.05 13.75 1.45 13.45 2.75 12.9 4.1 12.95 5.55 Q12.9 6.25 11.85 6.75 L11.0 7.85 11.55 8.05 Q10.9 8.9 8.95 10.0 L5.1 12.05 1.7 14.45 Q-0.35 15.65 -3.25 16.05 L-3.65 15.6 -4.05 15.65 Q-4.9 15.65 -6.35 13.5 L-8.1 10.65 -11.3 6.75 -11.8 6.25 -11.8 5.45 -12.55 4.55 -12.65 3.6 -12.2 -0.1 -12.25 -1.05 -12.1 -2.0 -11.9 -2.25 -12.05 -2.4 -11.7 -4.4 -11.65 -4.45 Q-11.35 -5.5 -9.45 -6.8 L-4.9 -9.15 Q-3.8 -9.7 0.0 -12.1 2.5 -13.7 4.55 -14.05 6.35 -12.8 7.6 -10.65 9.45 -7.5 10.15 -6.7 L12.2 -2.95 M11.5 3.2 L11.25 3.3 Q8.0 4.85 6.55 5.8 L1.6 8.75 -1.65 10.6 -1.95 11.8 -2.4 14.15 -2.3 14.35 Q0.5 13.1 1.55 12.45 3.6 11.35 5.0 9.95 L6.9 8.8 8.9 7.7 9.15 7.55 Q10.2 6.25 10.9 5.9 10.9 5.55 11.25 4.1 L11.5 3.2 M4.35 3.4 L3.3 3.4 Q2.7 3.3 2.55 3.0 L2.45 2.5 Q2.45 0.6 3.9 0.65 5.35 0.7 5.35 1.7 L4.9 2.7 4.35 3.4 M-3.8 12.7 L-4.0 12.7 -3.85 12.9 -3.8 12.7" fill="#268471" fill-rule="evenodd" stroke="none"/>
  </g>
</svg>
