<?xml version="1.0" encoding="UTF-8" standalone="no"?>
<svg xmlns:xlink="http://www.w3.org/1999/xlink" height="31.8px" width="21.25px" xmlns="http://www.w3.org/2000/svg">
  <g transform="matrix(1.0, 0.0, 0.0, 1.0, 10.7, 14.85)">
    <path d="M0.35 -0.6 Q-1.4 -0.6 -1.75 -1.25 L-1.75 -2.25 Q-1.75 -5.0 1.85 -6.5 5.45 -8.0 5.45 -8.55 5.45 -9.45 4.25 -10.55 2.65 -12.0 0.35 -12.0 -3.25 -12.0 -3.45 -9.55 L-3.6 -7.9 Q-3.95 -7.15 -5.15 -7.15 L-6.7 -7.35 -6.75 -8.7 Q-6.75 -11.45 -4.35 -13.2 -2.25 -14.75 0.85 -14.85 3.95 -14.95 6.1 -13.55 8.45 -11.95 8.45 -9.1 8.45 -5.35 5.05 -4.25 1.4 -3.05 1.05 -0.85 1.2 -0.6 0.35 -0.6 M-2.1 2.9 Q-2.1 1.05 -0.15 1.0 1.8 1.0 1.8 3.25 1.8 3.65 1.4 4.0 0.95 4.4 0.05 4.4 -1.5 4.4 -1.95 3.65 L-2.1 2.9 M-6.1 8.6 Q-5.35 9.2 -5.35 11.2 L-5.75 15.95 -6.5 16.2 Q-7.45 15.65 -7.5 14.8 L-7.35 13.4 -7.35 13.3 -9.0 13.4 -9.0 16.1 Q-9.2 16.1 -9.85 16.55 -10.55 16.3 -10.7 15.85 L-10.7 9.65 -9.85 9.2 Q-9.0 9.65 -8.75 10.25 L-8.75 11.4 -7.45 11.4 Q-6.9 8.0 -6.1 8.6 M-0.5 8.75 L-0.4 8.9 -0.35 9.5 Q-0.35 10.3 -0.75 10.45 L-2.7 10.5 -2.7 11.35 -0.5 11.25 0.05 11.35 0.3 12.0 0.0 12.75 -0.5 12.95 -2.7 12.95 -2.7 14.4 -1.2 14.25 -0.2 14.4 -0.1 14.5 0.0 15.05 Q0.0 15.6 -0.95 15.95 L-2.5 16.2 -4.25 16.1 -4.35 12.55 Q-4.5 11.0 -4.1 9.9 -3.3 7.65 -0.5 8.75 M2.6 11.8 L2.55 14.45 3.7 14.25 Q4.8 14.25 4.9 15.45 4.9 16.35 4.7 16.1 L4.05 16.25 1.75 16.25 Q1.3 15.85 1.1 15.05 L1.1 14.7 1.0 14.15 1.0 12.35 1.0 10.7 1.1 10.0 1.1 10.35 Q1.3 9.55 1.75 9.25 2.65 10.25 2.6 11.8 M7.55 11.55 L8.9 11.45 Q8.9 10.95 7.95 10.7 L7.7 11.05 7.55 11.45 7.55 11.55 M7.9 9.05 Q10.55 8.85 10.55 11.55 10.55 12.6 9.7 13.3 L7.45 13.45 Q7.25 14.25 7.15 16.7 L6.4 16.95 Q5.45 16.1 5.3 13.95 L5.25 10.45 Q5.25 9.2 7.9 9.05" fill="#268471" fill-rule="evenodd" stroke="none"/>
  </g>
</svg>
