<?xml version="1.0" encoding="UTF-8" standalone="no"?>
<svg xmlns:xlink="http://www.w3.org/1999/xlink" height="22.85px" width="31.05px" xmlns="http://www.w3.org/2000/svg">
  <g transform="matrix(1.0, 0.0, 0.0, 1.0, 15.85, 10.95)">
    <path d="M9.7 -6.1 L7.55 -6.65 Q2.0 -8.0 -2.45 -8.35 L-2.85 -8.75 -12.15 -2.7 Q-8.65 0.55 3.25 0.55 3.85 0.55 6.9 -3.05 L9.7 -6.1 M13.0 -4.35 L14.95 -0.3 15.2 0.3 15.2 2.0 12.0 5.3 Q6.6 10.8 5.4 11.4 L4.95 11.9 -2.45 11.9 -10.55 10.0 Q-15.5 8.7 -15.85 6.8 L-15.5 3.1 -14.4 -1.9 -14.4 -1.95 -14.1 -3.35 Q-12.75 -4.75 -8.1 -7.7 L-2.5 -10.95 -1.4 -10.85 -0.15 -10.6 -0.25 -10.55 5.0 -9.75 10.4 -8.45 11.3 -7.55 11.75 -7.15 13.0 -4.35 M13.05 0.25 L11.05 -4.5 Q9.6 -2.65 5.35 1.7 L5.35 2.55 5.4 3.65 5.8 5.3 6.0 8.2 13.25 0.8 13.05 0.25 M3.15 3.2 Q-1.75 3.05 -8.25 0.85 L-10.2 0.15 -12.5 -0.25 -12.65 -0.3 -13.0 2.65 Q-13.45 5.5 -13.8 6.3 L-7.3 8.25 -2.35 9.6 3.95 9.6 3.95 6.5 Q3.3 5.05 3.15 3.2" fill="#268471" fill-rule="evenodd" stroke="none"/>
  </g>
</svg>
