<?xml version="1.0" encoding="UTF-8" standalone="no"?>
<svg xmlns:xlink="http://www.w3.org/1999/xlink" height="29.35px" width="22.3px" xmlns="http://www.w3.org/2000/svg">
  <g transform="matrix(1.0, 0.0, 0.0, 1.0, 10.9, 17.75)">
    <path d="M8.9 -8.75 L8.15 -4.5 8.2 -2.45 Q8.2 -1.05 7.0 -0.5 L5.75 -0.65 -6.25 -0.75 Q-7.3 -1.45 -7.6 -4.0 L-7.65 -6.45 -7.6 -7.7 -7.6 -8.9 -8.25 -8.95 -8.75 -4.7 Q-8.75 -1.95 -9.0 -0.45 L-9.0 9.05 -6.1 9.2 -6.15 8.85 -6.15 7.4 Q-6.15 5.2 -5.65 3.65 L-5.65 1.75 Q-5.65 1.05 -5.15 0.95 L-1.25 0.95 5.0 1.25 Q5.95 1.75 6.0 2.35 L5.9 3.55 5.9 5.7 5.9 8.0 5.75 9.15 8.25 8.55 8.8 8.4 8.75 6.4 Q8.75 4.5 9.5 -4.25 L9.6 -8.8 8.9 -8.75 M6.9 -8.8 Q-3.4 -9.3 -5.0 -8.8 L-5.5 -8.8 -5.5 -8.25 -5.5 -2.75 6.25 -2.75 Q6.3 -5.95 6.5 -7.2 L6.9 -8.8 M11.15 -9.65 L11.05 -9.3 11.25 -8.45 11.4 -5.25 10.9 2.45 11.0 6.45 Q11.0 8.7 9.75 10.1 L9.6 10.0 Q9.45 10.7 8.6 10.95 L3.5 11.6 -3.0 11.4 -3.4 11.25 -9.75 10.9 -10.2 10.6 -10.8 10.35 -10.9 4.55 -10.65 -3.5 -10.4 -7.55 -10.3 -9.65 -9.1 -10.05 -8.5 -10.65 -3.0 -11.0 -3.0 -11.15 10.25 -10.7 Q11.15 -10.3 11.15 -9.65 M-4.25 6.1 L-4.0 9.3 0.15 9.5 4.2 9.4 Q3.85 8.75 3.85 7.35 L4.0 3.25 1.0 2.9 -3.75 2.7 Q-3.75 3.85 -4.25 6.1 M1.9 3.95 Q2.9 4.0 2.9 5.0 2.9 8.6 1.5 8.55 0.2 8.5 0.35 7.45 L0.75 4.9 Q0.95 3.9 1.9 3.95" fill="#268471" fill-rule="evenodd" stroke="none"/>
    <path d="M0.9 -17.7 L1.5 -16.95 4.1 -14.3 5.95 -12.65 5.9 -12.05 2.75 -12.05 2.6 -5.65 2.0 -5.4 -2.0 -5.0 -2.7 -6.05 -1.9 -12.25 -4.85 -12.6 -4.65 -12.8 Q-3.3 -13.6 -0.65 -16.4 L0.0 -16.9 0.05 -17.25 0.5 -17.75 0.9 -17.7" fill="#268471" fill-rule="evenodd" stroke="none"/>
  </g>
</svg>
