<?xml version="1.0" encoding="UTF-8" standalone="no"?>
<svg xmlns:xlink="http://www.w3.org/1999/xlink" height="29.85px" width="27.75px" xmlns="http://www.w3.org/2000/svg">
  <g transform="matrix(1.0, 0.0, 0.0, 1.0, 13.1, 16.1)">
    <path d="M-6.8 11.7 L-8.9 11.55 -9.5 9.85 -9.95 6.0 -10.2 -12.3 Q-6.85 -13.45 -3.45 -13.05 L0.75 -12.9 2.1 -12.55 2.3 -6.6 2.15 -1.3 1.8 4.4 1.9 5.55 1.85 7.3 -6.8 11.7" fill="#d1c68c" fill-rule="evenodd" stroke="none"/>
    <path d="M8.8 -12.4 L9.6 -3.75 9.75 -2.45 Q10.6 4.15 8.35 10.35 L7.45 12.55 2.8 13.5 Q-0.75 13.95 -4.15 13.55 L-10.95 12.55 -11.4 11.4 -11.7 8.6 -11.45 -8.55 -11.2 -13.3 -11.05 -13.5 -4.1 -14.35 5.8 -13.85 Q7.45 -13.35 8.8 -12.4 M2.1 -12.55 L0.75 -12.9 -3.45 -13.05 Q-6.85 -13.45 -10.2 -12.3 L-9.95 6.0 -9.5 9.85 -8.9 11.55 -6.8 11.7 6.85 10.95 7.0 10.35 Q8.4 4.65 8.2 -1.1 L7.8 -7.8 7.3 -11.7 5.45 -12.1 2.1 -12.55" fill="#d5b257" fill-rule="evenodd" stroke="none"/>
    <path d="M-6.8 11.7 L1.85 7.3 1.9 5.55 1.8 4.4 2.15 -1.3 2.3 -6.6 2.1 -12.55 5.45 -12.1 7.3 -11.7 7.8 -7.8 8.2 -1.1 Q8.4 4.65 7.0 10.35 L6.85 10.95 -6.8 11.7" fill="#faf4b7" fill-rule="evenodd" stroke="none"/>
    <path d="M12.9 -4.35 L12.9 -6.5 13.15 -12.8 -8.4 -12.8 -8.25 3.4 12.45 3.8 12.65 1.5 12.9 -4.35 M14.5 -12.8 L14.4 -6.85 14.45 -4.85 14.6 -3.05 14.6 0.1 14.15 5.4 13.7 5.8 12.55 5.95 -1.55 5.45 -3.45 5.3 -8.5 4.95 Q-9.15 5.1 -9.75 4.6 L-9.85 -13.55 -9.35 -14.25 14.45 -14.0 14.5 -12.8" fill="#b2b2b2" fill-rule="evenodd" stroke="none"/>
    <path d="M12.9 -4.35 L12.65 1.5 12.45 3.8 -8.25 3.4 -8.4 -12.8 13.15 -12.8 12.9 -6.5 12.9 -4.35" fill="#ffffff" fill-rule="evenodd" stroke="none"/>
    <path d="M9.25 -10.45 L9.85 -10.0 10.5 -9.95 10.95 -9.0 10.95 -8.4 10.55 -7.7 Q10.15 -7.3 9.6 -7.3 8.8 -8.85 6.95 -8.5 L6.7 -8.4 5.25 -8.9 4.9 -9.85 5.35 -10.45 9.25 -10.45 M-2.45 -10.45 L-1.95 -9.35 -2.15 -8.85 -2.35 -8.7 -4.15 -8.5 -4.55 -8.2 -6.1 -8.25 -6.2 -8.75 -6.2 -9.75 -5.85 -10.45 -2.45 -10.45" fill="#92b0d6" fill-rule="evenodd" stroke="none"/>
    <path d="M10.95 -9.0 L10.5 -9.95 9.85 -10.0 9.25 -10.45 10.85 -10.45 10.95 -9.0 M5.35 -10.45 L4.9 -9.85 5.25 -8.9 6.7 -8.4 5.75 -6.8 3.4 -6.2 3.65 -4.5 0.4 -4.55 -0.5 -4.6 -0.15 -5.75 -1.7 -6.55 -1.95 -7.15 -2.7 -7.3 -3.4 -7.8 -4.25 -7.8 Q-5.25 -7.0 -5.5 -5.55 L-5.35 -4.6 -5.95 -4.6 -6.3 -4.6 -6.2 -8.75 -6.1 -8.25 -4.55 -8.2 -4.15 -8.5 -2.35 -8.7 -2.15 -8.85 -1.95 -9.35 -2.45 -10.45 5.35 -10.45 M9.6 -7.3 Q10.15 -7.3 10.55 -7.7 L10.95 -8.4 10.6 -4.5 9.6 -4.5 Q10.3 -5.75 9.75 -6.95 L9.6 -7.3 M-2.45 -4.6 L-3.05 -4.6 -3.3 -4.75 -2.45 -4.6 M-5.85 -10.45 L-6.2 -9.75 -6.05 -10.4 -5.85 -10.45" fill="#6695c4" fill-rule="evenodd" stroke="none"/>
    <path d="M6.7 -8.4 L6.95 -8.5 Q8.8 -8.85 9.6 -7.3 L9.75 -6.95 Q10.3 -5.75 9.6 -4.5 L8.65 -4.25 7.45 -4.25 3.65 -4.5 3.4 -6.2 5.75 -6.8 6.7 -8.4 M-1.1 -4.6 L-1.2 -4.6 -3.3 -4.75 -5.35 -4.6 -5.5 -5.55 Q-5.25 -7.0 -4.25 -7.8 L-3.4 -7.8 -2.7 -7.3 -1.95 -7.15 -1.7 -6.55 -0.15 -5.75 -0.5 -4.6 -1.1 -4.6" fill="#64a9a7" fill-rule="evenodd" stroke="none"/>
    <path d="M7.45 -4.25 L8.65 -4.25 9.25 -3.7 9.0 -2.65 6.5 -2.65 7.15 -3.1 7.45 -4.25 M0.4 -4.55 L-1.1 -4.6 -0.5 -4.6 0.4 -4.55 M-1.2 -4.6 L-2.45 -4.6 -3.3 -4.75 -3.05 -4.6 -3.3 -4.25 -3.3 -3.45 -1.95 -2.8 -4.75 -2.8 -5.1 -3.65 -5.7 -3.75 -5.95 -4.6 -5.35 -4.6 -3.3 -4.75 -1.2 -4.6 M4.4 -0.35 L0.5 -0.1 Q-0.85 0.0 -1.85 -0.75 L-1.7 -1.7 4.0 -1.95 4.4 -0.35 M-0.6 0.9 L-0.25 0.0 1.35 0.0 1.7 0.75 1.4 1.4 1.35 1.45 -0.1 1.45 -0.25 1.3 -0.6 0.9" fill="#d7ffff" fill-rule="evenodd" stroke="none"/>
    <path d="M8.65 -4.25 L9.6 -4.5 10.6 -4.5 10.5 1.85 1.4 1.4 1.7 0.75 1.35 0.0 -0.25 0.0 -0.6 0.9 -0.45 1.3 -6.1 1.0 -6.3 -0.25 -6.3 -4.6 -5.95 -4.6 -5.7 -3.75 -5.1 -3.65 -4.75 -2.8 -1.95 -2.8 -1.6 -2.5 6.5 -2.65 9.0 -2.65 9.25 -3.7 8.65 -4.25 M4.4 -0.35 L4.0 -1.95 -1.7 -1.7 -1.85 -0.75 Q-0.85 0.0 0.5 -0.1 L4.4 -0.35" fill="#79bfff" fill-rule="evenodd" stroke="none"/>
    <path d="M3.65 -4.5 L7.45 -4.25 7.15 -3.1 6.5 -2.65 -1.6 -2.5 -1.95 -2.8 -3.3 -3.45 -3.3 -4.25 -3.05 -4.6 -2.45 -4.6 -1.2 -4.6 -1.1 -4.6 0.4 -4.55 3.65 -4.5 M-0.45 1.3 L-0.6 0.9 -0.25 1.3 -0.1 1.45 -0.45 1.3" fill="#ffffff" fill-rule="evenodd" stroke="none"/>
    <path d="M2.1 -6.1 L2.1 -2.95 2.45 4.0 Q2.45 4.95 1.7 5.95 L1.1 5.95 0.85 5.7 -1.45 5.45 -4.25 5.2 Q-6.2 4.1 -6.55 1.7 L-6.55 -1.85 Q-6.55 -6.7 -5.95 -8.55 L-5.45 -11.85 Q-4.5 -14.9 -3.05 -14.9 L1.7 -14.25 2.1 -13.8 2.1 -6.1" fill="#000000" fill-opacity="0.2" fill-rule="evenodd" stroke="none"/>
    <path d="M-4.0 -16.1 Q-2.85 -14.5 -2.95 -12.55 -3.45 -3.0 -2.5 6.5 -2.4 7.7 -2.8 8.85 L-8.65 12.5 -10.6 12.65 -10.95 12.95 -12.05 12.95 -12.5 12.7 -12.8 12.35 -13.05 6.6 -13.05 5.45 Q-12.45 -3.55 -12.65 -12.55 L-12.5 -13.15 -10.1 -14.25 -4.0 -16.1 M-5.7 -14.5 L-11.2 -11.6 -11.4 0.35 -11.5 2.15 Q-11.85 6.6 -11.3 10.95 L-10.95 10.7 -9.5 11.05 -5.1 8.65 Q-3.95 8.0 -4.0 6.65 L-4.15 2.2 -4.5 -2.4 Q-4.95 -7.7 -4.6 -13.15 -4.55 -14.0 -4.85 -14.5 L-5.7 -14.5" fill="#d5b257" fill-rule="evenodd" stroke="none"/>
    <path d="M-5.7 -14.5 L-4.85 -14.5 Q-4.55 -14.0 -4.6 -13.15 -4.95 -7.7 -4.5 -2.4 L-4.15 2.2 -4.0 6.65 Q-3.95 8.0 -5.1 8.65 L-9.5 11.05 -10.95 10.7 -11.3 10.95 Q-11.85 6.6 -11.5 2.15 L-11.4 0.35 -11.2 -11.6 -5.7 -14.5" fill="url(#gradient0)" fill-rule="evenodd" stroke="none"/>
  </g>
  <defs>
    <linearGradient gradientTransform="matrix(0.0018, -0.013, 0.0059, 8.0E-4, -7.65, -1.6)" gradientUnits="userSpaceOnUse" id="gradient0" spreadMethod="pad" x1="-819.2" x2="819.2">
      <stop offset="0.0" stop-color="#fbf7b4"/>
      <stop offset="1.0" stop-color="#deca70"/>
    </linearGradient>
  </defs>
</svg>
