<?xml version="1.0" encoding="UTF-8" standalone="no"?>
<svg xmlns:xlink="http://www.w3.org/1999/xlink" height="18.2px" width="23.9px" xmlns="http://www.w3.org/2000/svg">
  <g transform="matrix(1.0, 0.0, 0.0, 1.0, 12.0, 9.15)">
    <path d="M9.6 -3.85 Q10.55 -2.7 10.7 -1.75 L10.75 0.35 Q10.75 2.55 9.3 5.7 7.75 9.05 6.25 9.05 4.45 9.05 3.75 8.2 L3.35 7.35 Q3.35 6.9 5.3 5.1 7.25 3.25 7.25 1.25 7.25 -0.85 6.15 -2.85 L3.15 -0.9 Q1.65 -0.9 2.05 -2.35 L2.5 -5.25 2.35 -8.2 Q2.35 -8.9 3.35 -9.15 L10.9 -8.6 Q11.9 -8.15 11.9 -7.45 11.9 -7.0 9.05 -4.85 L9.6 -3.85 M-9.45 -5.8 Q-7.9 -9.15 -6.35 -9.15 -4.6 -9.15 -3.85 -8.3 L-3.45 -7.5 Q-3.45 -7.05 -5.4 -5.2 -7.4 -3.35 -7.4 -1.35 -7.4 0.7 -6.25 2.75 L-3.3 0.8 Q-1.8 0.8 -2.2 2.25 L-2.65 5.15 -2.45 8.1 Q-2.45 8.75 -3.45 9.05 L-11.0 8.5 Q-12.0 8.05 -12.0 7.3 -12.0 6.85 -9.15 4.75 L-9.7 3.75 Q-10.65 2.55 -10.85 1.6 L-10.9 -0.45 Q-10.9 -2.7 -9.45 -5.8" fill="#268471" fill-rule="evenodd" stroke="none"/>
  </g>
</svg>
