<?xml version="1.0" encoding="UTF-8" standalone="no"?>
<svg xmlns:xlink="http://www.w3.org/1999/xlink" height="26.6px" width="22.9px" xmlns="http://www.w3.org/2000/svg">
  <g transform="matrix(1.0, 0.0, 0.0, 1.0, 12.55, 13.7)">
    <path d="M8.6 -12.75 Q10.25 -11.5 10.35 -9.8 10.4 -8.35 9.55 -7.15 8.35 -5.4 5.85 -5.3 4.6 -5.25 3.6 -5.85 2.45 -6.6 2.4 -7.8 2.3 -9.65 2.6 -10.7 3.1 -12.3 4.55 -13.0 6.7 -14.1 8.6 -12.75 M9.0 -3.55 L8.75 1.85 8.75 4.45 Q8.65 5.9 7.8 6.8 3.75 6.75 -5.2 7.05 -6.0 6.95 -6.15 4.05 L-6.55 4.5 Q-10.4 8.3 -10.9 8.3 -11.95 8.35 -12.3 5.1 L-12.45 1.75 Q-12.7 -3.6 -12.2 -3.8 -11.45 -4.15 -8.25 -2.0 L-6.1 -0.4 -6.1 -0.5 Q-6.15 -3.45 -4.9 -4.05 L-1.3 -4.5 8.35 -4.2 9.0 -3.55 M0.65 9.45 L-1.2 11.2 Q-2.7 12.5 -3.3 12.55 -4.0 12.55 -4.25 12.1 L-4.4 11.75 Q-4.4 11.2 -2.15 9.1 0.1 6.95 0.8 6.95 2.2 7.05 5.85 11.55 5.95 12.85 4.85 12.9 3.85 12.9 2.35 11.4 L0.65 9.45 M-1.35 -12.45 Q-0.3 -11.45 -0.25 -10.5 -0.05 -5.05 -4.25 -4.85 -6.75 -4.75 -7.8 -6.55 -8.35 -7.45 -8.4 -8.45 -8.45 -9.9 -7.85 -10.95 -7.2 -12.2 -5.4 -13.7 -2.9 -13.85 -1.35 -12.45" fill="#268471" fill-rule="evenodd" stroke="none"/>
  </g>
</svg>
