<?xml version="1.0" encoding="UTF-8" standalone="no"?>
<svg xmlns:xlink="http://www.w3.org/1999/xlink" height="26.4px" width="29.6px" xmlns="http://www.w3.org/2000/svg">
  <g transform="matrix(1.0, 0.0, 0.0, 1.0, 15.05, 12.6)">
    <path d="M7.55 -5.7 L-7.15 -5.7 -7.15 5.65 7.55 5.65 7.55 -5.7 M9.4 8.1 L-9.35 8.1 -9.35 -8.0 9.4 -8.0 9.4 8.1 M14.3 13.0 L13.5 13.1 5.9 13.1 Q7.0 11.0 10.0 7.95 13.15 4.7 14.2 4.9 L14.55 12.25 14.45 12.95 14.3 13.0 M-14.25 8.75 Q-14.0 6.3 -13.5 5.55 -12.0 6.2 -9.5 8.6 -7.0 11.0 -6.05 12.65 L-6.2 13.15 -13.95 13.8 -14.65 13.7 -14.7 13.15 -14.25 8.75 M-14.15 -12.6 L-11.1 -12.45 Q-8.4 -12.3 -7.05 -11.3 -8.55 -8.7 -14.25 -4.5 -14.85 -4.5 -14.85 -4.65 L-14.85 -4.8 -15.05 -10.4 Q-15.05 -11.1 -14.15 -12.6 M5.6 -11.3 L6.05 -12.0 12.75 -12.6 14.05 -12.35 14.1 -9.1 Q14.1 -6.8 13.9 -6.15 L13.25 -5.3 Q11.35 -7.25 8.3 -9.25 5.8 -10.95 5.6 -11.3" fill="#268471" fill-rule="evenodd" stroke="none"/>
  </g>
</svg>
