<?xml version="1.0" encoding="UTF-8" standalone="no"?>
<svg xmlns:xlink="http://www.w3.org/1999/xlink" height="5.55px" width="18.8px" xmlns="http://www.w3.org/2000/svg">
  <g transform="matrix(1.0, 0.0, 0.0, 1.0, 7.9, 2.4)">
    <path d="M9.85 2.15 Q9.05 2.15 8.25 0.85 7.5 -0.5 6.75 -0.5 6.2 -0.5 3.35 1.1 0.55 2.65 0.25 2.65 L-1.85 1.2 Q-3.65 -0.25 -4.0 -0.25 -4.55 -0.25 -5.55 1.3 -6.6 3.0 -7.0 3.15 L-7.8 2.85 -7.9 2.1 Q-7.9 1.7 -6.5 -0.15 L-4.75 -2.15 Q-3.4 -2.6 -1.8 -1.1 L0.1 0.5 Q5.55 -2.3 7.25 -2.4 10.9 0.8 10.9 1.05 10.9 2.15 9.85 2.15" fill="#f3b4a5" fill-rule="evenodd" stroke="none"/>
  </g>
</svg>
