<?xml version="1.0" encoding="UTF-8" standalone="no"?>
<svg xmlns:xlink="http://www.w3.org/1999/xlink" height="15.35px" width="17.05px" xmlns="http://www.w3.org/2000/svg">
  <g transform="matrix(1.0, 0.0, 0.0, 1.0, 7.65, 7.45)">
    <path d="M4.1 -6.75 Q6.15 -8.15 6.6 -6.75 7.4 -5.8 7.7 -4.6 L8.1 -2.25 8.4 2.15 8.9 4.25 9.4 6.65 Q9.4 7.15 8.5 7.65 L-4.75 7.75 -4.9 7.85 -5.5 7.9 Q-7.05 7.9 -7.65 6.55 L-7.15 3.45 -6.4 -0.3 -5.9 -3.95 Q-5.35 -6.9 -4.25 -6.9 -3.3 -6.9 -1.55 -5.7 0.2 -4.5 0.9 -4.5 L4.1 -6.75" fill="#f39494" fill-rule="evenodd" stroke="none"/>
  </g>
</svg>
