<?xml version="1.0" encoding="UTF-8" standalone="no"?>
<svg xmlns:xlink="http://www.w3.org/1999/xlink" height="18.25px" width="18.9px" xmlns="http://www.w3.org/2000/svg">
  <g transform="matrix(1.0, 0.0, 0.0, 1.0, 9.15, 8.6)">
    <path d="M9.3 -3.2 L9.75 -0.5 8.8 2.6 8.35 4.1 7.35 5.35 Q3.9 9.65 -0.6 9.65 -4.35 9.65 -6.8 7.05 -8.95 4.75 -8.95 2.1 L-8.95 1.95 -8.95 1.9 -9.15 -0.05 -8.95 -2.0 -8.8 -2.75 -8.5 -4.05 -8.3 -5.15 Q-8.2 -5.8 -7.8 -6.05 L-6.95 -6.55 -5.4 -7.75 Q-4.6 -7.85 -3.5 -7.2 L-2.4 -6.5 Q1.15 -8.5 3.15 -8.6 6.1 -8.75 8.15 -5.4 L9.3 -3.2" fill="#f39494" fill-rule="evenodd" stroke="none"/>
  </g>
</svg>
