<?xml version="1.0" encoding="UTF-8" standalone="no"?>
<svg xmlns:xlink="http://www.w3.org/1999/xlink" height="5.8px" width="12.8px" xmlns="http://www.w3.org/2000/svg">
  <g transform="matrix(1.0, 0.0, 0.0, 1.0, 4.9, 1.9)">
    <path d="M4.3 -1.75 Q5.05 -2.2 5.75 -1.25 L7.0 1.05 7.9 2.9 Q7.9 3.7 7.0 3.9 L5.5 3.75 -3.5 3.65 Q-4.9 3.6 -4.9 2.25 -4.9 1.65 -4.15 0.2 -3.3 -1.4 -2.6 -1.4 -2.1 -1.4 -0.85 -0.2 L0.5 1.0 2.15 0.1 3.6 -1.0 4.3 -1.75 M-2.55 1.65 L-2.65 1.75 -1.65 1.65 -2.5 1.1 -2.5 1.5 -2.55 1.65" fill="#ffffff" fill-rule="evenodd" stroke="none"/>
  </g>
</svg>
