<?xml version="1.0" encoding="UTF-8" standalone="no"?>
<svg xmlns:xlink="http://www.w3.org/1999/xlink" height="13.9px" width="7.8px" xmlns="http://www.w3.org/2000/svg">
  <g transform="matrix(1.0, 0.0, 0.0, 1.0, 6.9, 6.25)">
    <path d="M0.9 -4.55 Q0.9 -3.5 -0.1 -3.5 -0.6 -3.5 -1.05 -4.25 L-3.5 -4.15 Q-5.0 -3.25 -5.0 -2.4 -5.0 -1.3 -3.25 -0.6 -1.5 0.05 -1.5 0.8 L-1.75 1.45 Q-2.35 2.05 -4.0 2.0 -5.0 2.3 -5.0 3.55 -5.0 4.25 -4.45 4.65 -3.5 5.3 -0.75 5.75 0.15 6.1 0.15 6.75 0.15 7.3 -0.3 7.5 L-1.5 7.65 Q-4.95 7.65 -6.25 5.55 -6.9 4.5 -6.9 3.4 L-6.8 2.2 -5.25 0.6 -6.55 -1.05 Q-6.9 -1.55 -6.9 -2.4 -6.9 -3.95 -5.7 -5.0 -4.05 -6.55 -0.5 -6.15 L0.55 -5.4 0.9 -4.55" fill="#f3b4a5" fill-rule="evenodd" stroke="none"/>
  </g>
</svg>
