<?xml version="1.0" encoding="UTF-8" standalone="no"?>
<svg xmlns:xlink="http://www.w3.org/1999/xlink" height="20.95px" width="7.15px" xmlns="http://www.w3.org/2000/svg">
  <g transform="matrix(1.0, 0.0, 0.0, 1.0, 7.15, 11.8)">
    <path d="M-1.9 -9.65 Q-4.75 -9.25 -4.75 -7.25 -4.75 -6.25 -2.75 -6.0 -0.75 -5.75 -0.75 -4.25 L-0.75 -0.85 -1.0 1.9 -0.5 3.25 Q-0.75 4.1 -4.25 3.75 -5.25 4.55 -5.25 5.4 -5.25 6.2 -4.0 7.15 L-1.5 7.25 Q-0.5 7.6 -0.5 8.25 -0.5 8.8 -1.0 9.0 L-2.75 9.15 Q-5.45 9.15 -6.55 7.3 -7.1 6.35 -7.15 5.35 -7.15 4.15 -6.55 3.2 -5.8 2.0 -4.25 1.75 -2.75 1.5 -2.7 1.05 -2.85 0.45 -2.65 0.0 L-2.65 -1.75 Q-2.65 -3.35 -3.15 -3.9 -5.6 -4.55 -6.3 -5.45 -6.65 -5.95 -6.65 -7.15 -6.65 -10.6 -3.3 -11.5 0.0 -12.45 0.0 -10.15 0.0 -8.75 -1.0 -8.75 -1.45 -8.75 -1.9 -9.65" fill="#f3b4a5" fill-rule="evenodd" stroke="none"/>
  </g>
</svg>
