<?xml version="1.0" encoding="UTF-8" standalone="no"?>
<svg xmlns:xlink="http://www.w3.org/1999/xlink" height="11.55px" width="23.55px" xmlns="http://www.w3.org/2000/svg">
  <g transform="matrix(1.0, 0.0, 0.0, 1.0, 10.15, 6.15)">
    <path d="M-5.75 0.4 Q-8.65 0.35 -9.65 -1.0 -10.2 -1.7 -10.15 -2.5 -10.15 -3.65 -9.45 -4.55 -8.35 -5.9 -5.75 -6.15 -4.75 -6.05 -4.75 -4.8 L-5.0 -3.95 Q-5.25 -3.5 -5.75 -3.5 -6.05 -3.5 -6.55 -4.25 -8.15 -4.25 -8.25 -2.55 -8.25 -2.0 -7.5 -1.5 L-3.9 -1.5 0.1 -2.7 Q4.35 -3.9 6.5 -3.9 11.2 -3.9 12.75 -1.85 13.55 -0.85 13.4 0.25 13.4 1.95 11.25 3.1 L6.35 4.8 6.25 4.8 3.5 5.4 2.55 4.6 2.25 4.15 2.25 4.0 4.3 3.85 Q7.5 3.6 11.4 0.35 L11.0 -0.7 10.15 -1.75 6.45 -1.9 Q4.25 -1.9 0.5 -0.75 L-3.45 0.2 -3.8 0.25 -5.6 0.4 -5.75 0.4" fill="#f3b4a5" fill-rule="evenodd" stroke="none"/>
    <path d="M2.25 4.0 L1.7 3.9 1.9 3.85 1.1 3.7 -2.75 3.15 -6.0 2.55 -5.9 2.0 -5.85 0.7 -5.75 0.4 -5.6 0.4 -3.8 0.25 -3.45 0.2 0.5 -0.75 Q4.25 -1.9 6.45 -1.9 L10.15 -1.75 11.0 -0.7 11.4 0.35 Q7.5 3.6 4.3 3.85 L2.25 4.0" fill="#ffffff" fill-rule="evenodd" stroke="none"/>
  </g>
</svg>
