<?xml version="1.0" encoding="UTF-8" standalone="no"?>
<svg xmlns:xlink="http://www.w3.org/1999/xlink" height="15.5px" width="7.15px" xmlns="http://www.w3.org/2000/svg">
  <g transform="matrix(1.0, 0.0, 0.0, 1.0, 9.65, 8.35)">
    <path d="M-6.75 -6.4 L-7.45 -5.1 -7.5 -3.8 Q-7.5 -2.55 -6.25 -1.5 -5.0 -0.45 -5.0 0.0 -5.0 0.4 -6.35 1.25 -7.75 2.15 -7.75 3.25 L-7.15 4.15 -6.0 5.15 -4.3 5.15 Q-3.9 4.5 -3.5 4.5 -2.95 4.5 -2.65 5.0 -2.5 5.3 -2.5 5.55 -2.5 6.3 -3.2 6.75 L-5.1 7.15 Q-7.75 7.15 -8.95 5.25 -9.55 4.3 -9.65 3.3 -9.65 2.9 -8.25 -0.4 -9.25 -1.55 -9.4 -2.25 L-9.45 -3.05 -9.4 -3.9 Q-9.4 -8.4 -6.05 -8.35 -2.75 -8.3 -2.75 -4.9 -2.75 -4.4 -3.0 -3.95 -3.25 -3.5 -3.75 -3.5 -4.65 -3.5 -4.9 -4.45 -5.25 -5.9 -5.75 -6.5 L-6.75 -6.4" fill="#f3b4a5" fill-rule="evenodd" stroke="none"/>
  </g>
</svg>
