<?xml version="1.0" encoding="UTF-8" standalone="no"?>
<svg xmlns:xlink="http://www.w3.org/1999/xlink" height="14.75px" width="24.1px" xmlns="http://www.w3.org/2000/svg">
  <g transform="matrix(1.0, 0.0, 0.0, 1.0, 9.2, 8.6)">
    <path d="M11.1 -7.8 Q7.9 -7.7 4.75 -6.35 L0.35 -4.15 -5.2 -1.4 -6.7 -0.6 Q-8.4 -0.9 -8.95 -2.25 -9.35 -3.1 -9.15 -4.05 L-8.8 -6.05 Q-8.3 -7.65 -7.1 -7.65 L-6.85 -7.6 -7.3 -6.85 -7.75 -5.05 Q-7.65 -4.05 -7.25 -3.45 L-7.25 -3.25 -6.75 -2.5 -4.6 -2.5 -4.15 -2.5 Q-3.95 -2.7 -3.7 -2.85 5.95 -10.8 11.1 -7.8" fill="#f3b4a5" fill-rule="evenodd" stroke="none"/>
    <path d="M11.1 -7.8 L11.15 -7.8 11.3 -7.65 11.35 -7.65 13.25 -5.9 Q14.9 -3.8 14.9 -0.5 14.9 1.35 14.05 2.6 L13.1 3.2 10.4 4.85 6.6 6.1 4.85 6.15 Q-2.25 6.15 -4.45 3.25 -5.25 2.25 -5.35 0.55 L-5.4 -0.25 -5.4 -0.3 -5.4 -0.5 -5.5 -0.5 -6.7 -0.6 -5.2 -1.4 0.35 -4.15 4.75 -6.35 Q7.9 -7.7 11.1 -7.8 M-4.6 -2.5 L-4.45 -2.6 -4.05 -2.8 -3.7 -2.85 Q-3.95 -2.7 -4.15 -2.5 L-4.6 -2.5" fill="#f39494" fill-rule="evenodd" stroke="none"/>
  </g>
</svg>
