<?xml version="1.0" encoding="UTF-8" standalone="no"?>
<svg xmlns:xlink="http://www.w3.org/1999/xlink" height="25.2px" width="19.05px" xmlns="http://www.w3.org/2000/svg">
  <g transform="matrix(1.0, 0.0, 0.0, 1.0, 8.9, 13.05)">
    <path d="M7.5 -4.65 Q10.15 -2.05 10.15 1.4 10.15 4.75 6.65 7.4 L4.4 8.9 2.4 9.0 1.5 9.0 0.9 8.9 -1.75 9.05 Q-3.7 8.25 -5.0 6.5 -6.9 3.9 -6.9 0.5 -6.9 -4.05 -4.25 -6.15 -1.9 -8.05 1.65 -7.5 5.05 -7.0 7.5 -4.65" fill="#f39494" fill-rule="evenodd" stroke="none"/>
    <path d="M-0.65 -7.6 L-1.4 -7.3 Q-3.2 -6.55 -5.15 -6.0 -6.95 -6.4 -7.9 -7.3 -8.9 -8.3 -8.9 -9.65 -8.9 -11.45 -7.05 -12.6 -5.25 -13.75 -5.25 -11.85 -5.25 -11.3 -5.5 -11.05 L-6.65 -10.8 Q-7.05 -10.8 -7.05 -10.45 L-7.0 -9.7 Q-7.0 -8.8 -6.15 -8.3 -4.7 -7.55 -0.75 -7.65 L-0.65 -7.6 M-2.95 11.15 Q-3.0 11.75 -4.0 12.15 L-4.8 11.85 -4.9 10.6 Q-4.9 8.6 -2.65 7.7 L-0.1 8.6 Q-0.3 9.0 -1.05 9.15 -2.4 9.5 -2.8 10.0 L-2.95 11.15" fill="#f3b4a5" fill-rule="evenodd" stroke="none"/>
  </g>
</svg>
