<?xml version="1.0" encoding="UTF-8" standalone="no"?>
<svg xmlns:xlink="http://www.w3.org/1999/xlink" height="17.1px" width="7.3px" xmlns="http://www.w3.org/2000/svg">
  <g transform="matrix(1.0, 0.0, 0.0, 1.0, 6.4, 8.2)">
    <path d="M-3.05 -0.45 L-3.8 -0.7 -5.3 -1.8 -6.05 -2.8 -6.4 -3.85 -6.4 -3.95 Q-6.4 -6.35 -3.45 -7.65 -0.5 -9.0 -0.5 -7.0 -0.5 -6.35 -1.0 -6.15 L-2.1 -6.05 Q-3.8 -6.05 -4.5 -3.8 -4.2 -3.2 -3.5 -2.75 -2.15 -1.75 0.0 -2.15 0.9 -1.5 0.9 0.45 0.9 2.5 0.25 3.1 -0.15 3.55 -1.6 3.6 -3.0 3.65 -3.5 4.1 -4.25 4.7 -4.25 5.25 -4.25 6.15 -1.8 6.65 0.65 7.15 0.65 7.8 0.65 8.6 -0.25 8.9 L-2.0 8.9 Q-6.15 7.5 -6.15 5.05 -6.15 4.1 -5.1 3.05 L-5.0 2.95 -4.2 2.4 Q-2.9 1.5 -0.9 1.15 L-0.9 -0.25 -3.05 -0.45" fill="#f3b4a5" fill-rule="evenodd" stroke="none"/>
    <path d="M-4.2 2.4 L-4.25 2.35 Q-3.75 1.6 -3.75 0.25 L-3.75 0.0 -3.05 -0.45 -0.9 -0.25 -0.9 1.15 Q-2.9 1.5 -4.2 2.4" fill="#ffffff" fill-rule="evenodd" stroke="none"/>
  </g>
</svg>
