<?xml version="1.0" encoding="UTF-8" standalone="no"?>
<svg xmlns:xlink="http://www.w3.org/1999/xlink" height="5.8px" width="13.8px" xmlns="http://www.w3.org/2000/svg">
  <g transform="matrix(1.0, 0.0, 0.0, 1.0, 6.4, 1.9)">
    <path d="M4.85 1.95 L4.65 2.0 4.65 2.3 Q4.65 3.9 3.35 3.9 2.4 3.9 2.1 3.0 L2.0 2.3 2.0 2.15 1.7 2.15 1.7 1.75 3.05 0.6 4.6 1.15 4.65 1.35 4.85 1.95" fill="#ffffff" fill-rule="evenodd" stroke="none"/>
    <path d="M1.7 2.15 L-3.25 2.15 Q-4.5 2.15 -5.55 1.05 -6.4 0.15 -6.4 -0.3 L-6.05 -1.15 Q-5.7 -1.65 -5.25 -1.65 -4.5 -1.65 -4.3 -1.25 L-4.15 -0.55 Q-4.15 -0.15 -3.75 0.0 L0.25 0.15 4.25 0.0 4.85 -0.25 Q5.4 -1.9 6.4 -1.9 7.4 -1.9 7.4 -0.75 7.4 0.0 6.5 0.9 L4.9 1.95 4.85 1.95 4.65 1.35 4.6 1.15 3.05 0.6 1.7 1.75 1.7 2.15" fill="#f39494" fill-rule="evenodd" stroke="none"/>
  </g>
</svg>
