<?xml version="1.0" encoding="UTF-8" standalone="no"?>
<svg xmlns:xlink="http://www.w3.org/1999/xlink" height="12.65px" width="13.95px" xmlns="http://www.w3.org/2000/svg">
  <g transform="matrix(1.0, 0.0, 0.0, 1.0, 7.05, 4.0)">
    <path d="M1.75 6.6 L1.8 6.25 -0.8 6.55 -2.15 6.4 Q-7.6 4.7 -7.0 -2.45 L-6.7 -3.5 -6.0 -4.0 6.0 -4.0 6.7 -2.45 Q7.6 2.85 4.55 5.05 L4.6 5.25 3.75 5.25 Q2.95 5.35 1.95 6.15 L1.8 6.35 1.75 6.6" fill="#f39494" fill-rule="evenodd" stroke="none"/>
    <path d="M4.6 5.25 L4.65 6.2 Q4.65 8.65 3.3 8.65 L3.2 8.65 Q2.05 8.6 1.75 7.7 L1.75 6.65 1.75 6.6 1.8 6.35 1.95 6.15 Q2.95 5.35 3.75 5.25 L4.6 5.25" fill="#ffffff" fill-rule="evenodd" stroke="none"/>
  </g>
</svg>
