<?xml version="1.0" encoding="UTF-8" standalone="no"?>
<svg xmlns:xlink="http://www.w3.org/1999/xlink" height="10.5px" width="17.05px" xmlns="http://www.w3.org/2000/svg">
  <g transform="matrix(1.0, 0.0, 0.0, 1.0, 7.65, 3.6)">
    <path d="M5.35 -3.6 Q7.85 -3.25 9.15 -2.4 L9.4 -2.0 9.4 -1.3 Q9.4 0.95 8.65 2.0 7.9 3.15 6.4 3.8 L6.4 4.5 6.4 6.1 Q6.2 6.9 5.0 6.9 3.75 6.9 3.5 6.0 L3.5 5.1 3.55 4.5 1.0 4.65 Q-5.05 4.65 -6.9 2.85 -7.65 2.1 -7.65 0.4 L-7.65 -0.95 -6.5 -2.3 -2.0 -2.7 3.5 -3.05 5.35 -3.6" fill="#ffffff" fill-rule="evenodd" stroke="none"/>
  </g>
</svg>
