<?xml version="1.0" encoding="UTF-8" standalone="no"?>
<svg xmlns:xlink="http://www.w3.org/1999/xlink" height="12.15px" width="6.0px" xmlns="http://www.w3.org/2000/svg">
  <g transform="matrix(1.0, 0.0, 0.0, 1.0, 2.25, 5.25)">
    <path d="M1.0 4.65 L1.05 4.25 0.0 4.25 Q-1.7 3.35 -2.1 2.0 L-2.25 -0.1 Q-2.25 -6.05 0.75 -5.15 3.75 -4.3 3.75 -0.15 L3.6 1.9 2.55 3.3 3.1 2.7 3.35 3.35 2.4 3.75 1.0 4.65 M2.9 6.6 L2.25 6.9 2.15 6.9 2.9 6.6" fill="#f39494" fill-rule="evenodd" stroke="none"/>
    <path d="M3.35 3.35 L3.4 4.2 3.4 5.05 3.05 6.35 2.9 6.6 2.15 6.9 2.1 6.9 Q1.2 6.8 1.0 5.85 L1.0 4.75 1.0 4.65 2.4 3.75 3.35 3.35" fill="#ffffff" fill-rule="evenodd" stroke="none"/>
  </g>
</svg>
