<?xml version="1.0" encoding="UTF-8" standalone="no"?>
<svg xmlns:xlink="http://www.w3.org/1999/xlink" height="12.1px" width="16.05px" xmlns="http://www.w3.org/2000/svg">
  <g transform="matrix(1.0, 0.0, 0.0, 1.0, 7.05, 3.7)">
    <path d="M4.1 5.35 Q-1.5 7.55 -4.9 5.25 -6.75 4.5 -6.85 2.6 L-7.05 -1.0 -7.05 -3.1 -3.95 -2.9 2.8 -3.2 7.45 -3.7 7.7 -3.7 8.3 -2.8 8.7 -1.9 9.0 0.15 9.0 0.95 8.1 2.5 Q7.5 3.7 6.9 4.05 L6.9 4.5 6.9 4.2 4.75 4.9 Q4.4 5.0 4.1 5.35 L4.2 5.3 4.05 5.35 3.6 5.9 3.65 6.4 3.55 5.55 4.1 5.35 M6.25 7.4 L5.5 8.4 4.85 8.4 6.25 7.4" fill="#f39494" fill-rule="evenodd" stroke="none"/>
    <path d="M4.1 5.35 Q4.4 5.0 4.75 4.9 L6.9 4.2 6.9 4.5 6.9 4.7 Q6.9 5.5 6.5 6.7 L6.4 7.05 6.25 7.4 4.85 8.4 4.75 8.4 Q3.8 8.1 3.7 7.65 L3.75 6.75 3.75 6.7 3.65 6.4 3.6 5.9 4.05 5.35 4.2 5.3 4.1 5.35" fill="#ffffff" fill-rule="evenodd" stroke="none"/>
  </g>
</svg>
