<?xml version="1.0" encoding="UTF-8" standalone="no"?>
<svg xmlns:xlink="http://www.w3.org/1999/xlink" height="13.15px" width="9.7px" xmlns="http://www.w3.org/2000/svg">
  <g transform="matrix(1.0, 0.0, 0.0, 1.0, 4.8, 4.75)">
    <path d="M0.5 6.4 L-2.4 6.0 Q-4.8 3.55 -4.8 0.5 -4.8 -2.05 -3.3 -3.55 -1.9 -4.85 0.05 -4.75 2.05 -4.65 3.4 -3.2 4.9 -1.55 4.9 1.1 4.9 2.65 4.15 4.15 L3.4 5.3 3.4 5.5 Q1.8 5.5 0.8 6.2 L0.5 6.4" fill="#f39494" fill-rule="evenodd" stroke="none"/>
    <path d="M3.4 5.5 L3.4 5.75 Q3.05 8.4 2.0 8.4 0.65 8.4 0.75 6.8 L0.8 6.4 0.75 6.4 0.5 6.4 0.8 6.2 Q1.8 5.5 3.4 5.5" fill="#ffffff" fill-rule="evenodd" stroke="none"/>
  </g>
</svg>
