<?xml version="1.0" encoding="UTF-8" standalone="no"?>
<svg xmlns:xlink="http://www.w3.org/1999/xlink" height="7.55px" width="10.05px" xmlns="http://www.w3.org/2000/svg">
  <g transform="matrix(1.0, 0.0, 0.0, 1.0, 4.15, 2.65)">
    <path d="M4.75 -2.65 L5.75 -1.7 5.9 -0.75 Q5.9 0.35 4.75 1.4 5.0 1.75 4.9 2.45 L4.6 4.0 Q4.2 4.9 3.35 4.9 2.3 4.9 1.85 3.05 L2.45 2.85 -0.6 3.4 Q-3.2 3.4 -3.45 2.8 -3.3 1.9 -3.5 1.4 L-4.05 0.2 -4.15 -0.65 -4.1 -1.25 -3.75 -1.65 -0.8 -2.1 3.75 -2.5 3.75 -2.65 4.75 -2.65" fill="#ffffff" fill-rule="evenodd" stroke="none"/>
  </g>
</svg>
