<?xml version="1.0" encoding="UTF-8" standalone="no"?>
<svg xmlns:xlink="http://www.w3.org/1999/xlink" height="8.15px" width="6.3px" xmlns="http://www.w3.org/2000/svg">
  <g transform="matrix(1.0, 0.0, 0.0, 1.0, 4.4, -0.25)">
    <path d="M-3.05 3.05 Q-2.0 3.05 -2.0 4.05 -2.0 5.15 -3.0 5.15 -3.7 5.15 -4.0 4.45 L-4.15 3.9 Q-4.15 3.05 -3.05 3.05" fill="#ffffff" fill-rule="evenodd" stroke="none"/>
    <path d="M1.9 2.3 Q1.9 3.95 1.35 5.5 0.3 8.4 -2.25 8.4 -4.05 8.4 -4.4 6.65 L-4.4 4.8 -4.35 2.35 Q-4.15 0.75 -3.25 0.25 L1.0 0.25 Q1.9 1.0 1.9 2.3 M-3.05 3.05 Q-4.15 3.05 -4.15 3.9 L-4.0 4.45 Q-3.7 5.15 -3.0 5.15 -2.0 5.15 -2.0 4.05 -2.0 3.05 -3.05 3.05" fill="#fbb7b7" fill-rule="evenodd" stroke="none"/>
  </g>
</svg>
