<?xml version="1.0" encoding="UTF-8" standalone="no"?>
<svg xmlns:xlink="http://www.w3.org/1999/xlink" height="21.25px" width="14.55px" xmlns="http://www.w3.org/2000/svg">
  <g transform="matrix(1.0, 0.0, 0.0, 1.0, 6.15, 8.35)">
    <path d="M-4.75 4.8 L-4.9 3.35 -4.9 -0.3 Q-4.9 -5.3 -4.5 -5.95 -3.6 -7.6 1.5 -7.8 5.45 -9.85 7.3 -4.3 8.0 -2.15 8.3 0.4 L5.55 0.35 Q0.5 0.65 -2.25 2.75 L-4.75 4.8" fill="#f39494" fill-rule="evenodd" stroke="none"/>
    <path d="M-4.25 9.15 L-5.05 8.85 -5.15 8.0 Q-5.15 6.7 -4.05 6.8 -3.0 6.85 -3.0 7.8 -3.0 8.85 -4.25 9.15" fill="#ffffff" fill-rule="evenodd" stroke="none"/>
    <path d="M8.3 0.4 L8.35 1.0 8.4 2.05 8.4 2.55 Q8.05 6.45 6.75 7.15 L6.5 7.05 5.65 7.95 3.25 9.85 Q2.5 10.35 0.6 11.75 -1.25 12.9 -3.0 12.9 -5.65 12.9 -6.15 11.55 L-6.15 10.15 -6.0 8.9 -5.6 7.55 -5.6 7.5 -5.55 7.45 -5.35 6.95 -4.55 5.75 -4.65 5.3 -4.75 4.8 -2.25 2.75 Q0.5 0.65 5.55 0.35 L8.3 0.4 M-4.25 9.15 Q-3.0 8.85 -3.0 7.8 -3.0 6.85 -4.05 6.8 -5.15 6.7 -5.15 8.0 L-5.05 8.85 -4.25 9.15" fill="#fbb7b7" fill-rule="evenodd" stroke="none"/>
  </g>
</svg>
