<?xml version="1.0" encoding="UTF-8" standalone="no"?>
<svg xmlns:xlink="http://www.w3.org/1999/xlink" height="12.55px" width="20.55px" xmlns="http://www.w3.org/2000/svg">
  <g transform="matrix(1.0, 0.0, 0.0, 1.0, 8.65, 3.15)">
    <path d="M8.75 -3.15 L8.95 -3.15 Q10.2 -3.15 10.95 -2.6 L11.55 -1.6 11.9 -0.8 Q11.9 0.9 6.35 1.45 L0.75 1.75 0.75 1.9 Q-8.65 1.85 -8.65 -0.45 -8.65 -1.55 -7.75 -2.15 -5.9 -3.4 -0.85 -2.25 L6.25 -2.25 Q7.25 -2.4 8.75 -3.15" fill="#f39494" fill-rule="evenodd" stroke="none"/>
    <path d="M0.25 9.4 Q-2.1 9.4 -3.0 7.15 -3.4 6.0 -3.4 4.8 -3.4 2.75 -2.65 1.25 -1.5 -1.15 1.35 -1.15 2.9 -1.15 3.75 0.25 4.4 1.35 4.4 2.75 4.4 9.4 0.25 9.4 M-3.15 5.05 Q-3.15 5.9 -2.0 5.9 L-1.05 5.6 Q-0.6 5.25 -0.6 4.75 -0.6 3.8 -1.85 3.8 -3.15 3.8 -3.15 5.05" fill="#fbb7b7" fill-rule="evenodd" stroke="none"/>
    <path d="M-3.15 5.05 Q-3.15 3.8 -1.85 3.8 -0.6 3.8 -0.6 4.75 -0.6 5.25 -1.05 5.6 L-2.0 5.9 Q-3.15 5.9 -3.15 5.05" fill="#ffffff" fill-rule="evenodd" stroke="none"/>
  </g>
</svg>
