<?xml version="1.0" encoding="UTF-8" standalone="no"?>
<svg xmlns:xlink="http://www.w3.org/1999/xlink" height="13.0px" width="12.3px" xmlns="http://www.w3.org/2000/svg">
  <g transform="matrix(1.0, 0.0, 0.0, 1.0, 9.9, 3.85)">
    <path d="M1.9 -1.35 L1.9 -0.3 Q1.9 3.65 -1.25 3.65 -3.15 3.65 -3.7 1.95 -4.0 1.1 -3.9 0.15 -3.9 -1.15 -3.4 -1.8 L-2.85 -2.85 -1.75 -3.8 -0.25 -3.45 1.25 -2.5 1.9 -1.35 M0.0 -1.0 L-1.4 -1.05 -1.5 -0.15 -1.45 0.55 Q-1.2 1.15 -0.3 1.25 L0.0 0.25 0.0 -1.0" fill="#f39494" fill-rule="evenodd" stroke="none"/>
    <path d="M2.3 -0.5 L2.4 0.75 Q2.4 3.3 0.3 4.7 L-6.0 9.15 -8.0 9.15 -9.65 7.9 -9.9 6.65 Q-9.9 4.2 -7.35 1.5 -4.15 -2.0 1.0 -2.15 L2.3 -0.5 M-7.55 5.15 Q-7.25 4.9 -7.25 4.5 -7.25 3.55 -8.2 3.55 -9.15 3.6 -9.15 4.55 -9.15 5.4 -8.25 5.4 L-7.55 5.15" fill="#fbb7b7" fill-rule="evenodd" stroke="none"/>
    <path d="M-7.55 5.15 L-8.25 5.4 Q-9.15 5.4 -9.15 4.55 -9.15 3.6 -8.2 3.55 -7.25 3.55 -7.25 4.5 -7.25 4.9 -7.55 5.15" fill="#ffffff" fill-rule="evenodd" stroke="none"/>
  </g>
</svg>
