<?xml version="1.0" encoding="UTF-8" standalone="no"?>
<svg xmlns:xlink="http://www.w3.org/1999/xlink" height="12.55px" width="13.3px" xmlns="http://www.w3.org/2000/svg">
  <g transform="matrix(1.0, 0.0, 0.0, 1.0, 7.65, 9.15)">
    <path d="M0.0 -0.25 L-0.75 0.0 0.0 -0.15 0.0 -0.25 M5.65 -0.65 Q5.65 0.55 4.6 1.4 3.05 2.65 -0.35 2.65 -2.8 2.65 -5.0 1.85 -7.65 0.85 -7.65 -0.75 -7.65 -1.4 -7.25 -1.45 L-6.0 -1.4 1.0 -2.25 4.0 -2.4 Q5.65 -1.4 5.65 -0.65" fill="#f39494" fill-rule="evenodd" stroke="none"/>
    <path d="M2.25 -2.7 Q2.55 -2.0 3.2 -1.0 L4.2 0.25 4.1 0.25 4.4 1.3 Q4.4 2.3 3.7 2.75 2.65 3.4 -0.6 3.4 -5.5 3.4 -6.9 0.5 -7.65 -1.0 -7.4 -2.55 L-7.45 -4.3 Q-7.4 -5.05 -6.75 -6.25 -4.7 -10.1 -1.0 -8.8 0.15 -8.05 1.65 -4.0 1.9 -3.25 2.25 -2.7 M-3.5 -6.4 Q-3.5 -7.35 -4.55 -7.35 -5.65 -7.35 -5.65 -6.4 L-5.55 -6.0 Q-5.3 -5.5 -4.6 -5.5 L-4.0 -5.65 Q-3.5 -5.9 -3.5 -6.4" fill="#fbb7b7" fill-rule="evenodd" stroke="none"/>
    <path d="M-3.5 -6.4 Q-3.5 -5.9 -4.0 -5.65 L-4.6 -5.5 Q-5.3 -5.5 -5.55 -6.0 L-5.65 -6.4 Q-5.65 -7.35 -4.55 -7.35 -3.5 -7.35 -3.5 -6.4" fill="#ffffff" fill-rule="evenodd" stroke="none"/>
  </g>
</svg>
