<?xml version="1.0" encoding="UTF-8" standalone="no"?>
<svg xmlns:xlink="http://www.w3.org/1999/xlink" height="23.85px" width="15.7px" xmlns="http://www.w3.org/2000/svg">
  <g transform="matrix(1.0, 0.0, 0.0, 1.0, 6.05, 6.7)">
    <path d="M4.3 -6.15 Q12.35 -2.85 8.3 3.85 7.55 5.1 6.15 5.7 -3.95 9.8 -5.9 1.2 -6.35 -0.7 -5.35 -2.5 -2.2 -8.25 4.3 -6.15" fill="#f39494" fill-rule="evenodd" stroke="none"/>
    <path d="M6.9 6.75 Q6.9 8.9 5.45 12.35 3.45 17.15 0.25 17.15 -2.6 17.15 -4.4 13.05 -5.3 11.0 -5.65 8.85 -5.65 7.1 -4.7 5.0 -3.55 2.55 -2.0 2.5 L1.8 2.05 Q4.05 1.9 5.4 3.35 L6.8 5.25 6.9 6.75 M-3.55 10.05 Q-4.65 10.1 -4.65 11.05 -4.65 11.9 -3.6 11.9 -2.5 11.8 -2.5 11.0 -2.5 10.05 -3.55 10.05" fill="#f8baba" fill-rule="evenodd" stroke="none"/>
    <path d="M-3.55 10.05 Q-2.5 10.05 -2.5 11.0 -2.5 11.8 -3.6 11.9 -4.65 11.9 -4.65 11.05 -4.65 10.1 -3.55 10.05" fill="#ffffff" fill-rule="evenodd" stroke="none"/>
  </g>
</svg>
