<?xml version="1.0" encoding="UTF-8" standalone="no"?>
<svg xmlns:xlink="http://www.w3.org/1999/xlink" height="3.9px" width="6.3px" xmlns="http://www.w3.org/2000/svg">
  <g transform="matrix(1.0, 0.0, 0.0, 1.0, 2.9, 0.5)">
    <path d="M-1.35 2.9 L-1.7 2.7 -2.0 2.45 -2.4 2.1 -2.4 2.05 Q-2.4 1.1 -1.45 1.05 -0.5 1.05 -0.5 2.0 -0.5 2.4 -0.8 2.65 L-1.35 2.9" fill="#ffffff" fill-rule="evenodd" stroke="none"/>
    <path d="M-2.4 2.1 L-2.9 1.15 Q-2.9 -0.3 0.25 -0.5 3.4 -0.65 3.4 1.0 L2.55 2.2 Q1.6 3.05 0.5 3.4 -0.55 3.35 -1.35 2.9 L-0.8 2.65 Q-0.5 2.4 -0.5 2.0 -0.5 1.05 -1.45 1.05 -2.4 1.1 -2.4 2.05 L-2.4 2.1" fill="#fbb7b7" fill-rule="evenodd" stroke="none"/>
  </g>
</svg>
