<?xml version="1.0" encoding="UTF-8" standalone="no"?>
<svg xmlns:xlink="http://www.w3.org/1999/xlink" height="5.7px" width="10.8px" xmlns="http://www.w3.org/2000/svg">
  <g transform="matrix(1.0, 0.0, 0.0, 1.0, 4.4, 4.05)">
    <path d="M3.8 0.75 L3.75 0.45 3.75 -0.2 3.75 -0.3 3.75 -0.5 4.05 -2.0 4.25 -2.9 Q4.5 -3.8 5.45 -4.0 6.4 -4.25 6.4 -3.1 L6.05 -1.9 5.65 -0.65 5.75 0.5 Q5.7 1.45 4.75 1.65 L3.85 1.35 3.8 0.75" fill="#f3b4a5" fill-rule="evenodd" stroke="none"/>
    <path d="M4.05 -2.0 L3.75 -0.5 3.75 -0.3 3.75 -0.2 3.75 0.45 3.8 0.75 3.55 0.9 Q1.65 2.1 -0.25 1.25 L-1.0 1.65 -2.75 1.65 -4.15 0.7 -4.4 -0.1 Q-4.4 -1.7 0.4 -2.15 L4.05 -2.0" fill="#ffffff" fill-rule="evenodd" stroke="none"/>
  </g>
</svg>
