<?xml version="1.0" encoding="UTF-8" standalone="no"?>
<svg xmlns:xlink="http://www.w3.org/1999/xlink" height="33.4px" width="68.1px" xmlns="http://www.w3.org/2000/svg">
  <g transform="matrix(1.0, 0.0, 0.0, 1.0, 35.9, 17.95)">
    <path d="M-28.6 -16.2 Q-25.65 -18.6 -21.5 -17.75 L-20.4 -13.3 -20.3 -12.8 -21.55 9.7 Q-22.1 12.45 -23.95 14.5 L-24.9 15.2 -29.05 15.45 Q-31.5 14.9 -31.65 12.1 -31.7 11.05 -32.1 9.85 L-32.15 9.7 -30.6 -10.9 -35.9 -15.3 -35.7 -16.3 -30.3 -12.85 -29.7 -14.65 Q-29.3 -15.6 -28.6 -16.2 M23.9 -16.2 Q26.85 -18.6 31.0 -17.75 L32.1 -13.3 32.2 -12.8 30.95 9.7 Q30.4 12.45 28.55 14.5 L27.6 15.2 23.45 15.45 Q21.0 14.9 20.85 12.1 L20.4 9.85 20.35 9.7 21.9 -10.9 16.6 -15.3 16.8 -16.3 22.2 -12.85 22.8 -14.65 Q23.2 -15.6 23.9 -16.2" fill="#185649" fill-rule="evenodd" stroke="none"/>
  </g>
</svg>
