<?xml version="1.0" encoding="UTF-8" standalone="no"?>
<svg xmlns:xlink="http://www.w3.org/1999/xlink" height="10.2px" width="81.0px" xmlns="http://www.w3.org/2000/svg">
  <g transform="matrix(1.0, 0.0, 0.0, 1.0, 40.25, -3.05)">
    <path d="M38.95 5.7 L40.25 7.3 40.75 13.25 Q25.0 9.3 16.0 12.8 L15.15 11.1 14.6 9.35 14.5 5.5 Q25.95 0.55 38.95 5.7 M-13.75 5.85 Q-13.2 8.4 -14.4 10.6 L-15.25 12.1 Q-28.15 10.2 -35.85 12.1 L-37.6 12.6 -37.25 7.25 Q-33.65 1.55 -14.1 4.5 L-13.75 5.85" fill="#185649" fill-rule="evenodd" stroke="none"/>
    <path d="M14.05 8.25 L15.95 6.5 Q15.55 8.1 15.5 9.9 L15.55 11.95 Q14.0 11.75 12.9 10.95 L11.75 9.75 11.65 9.25 Q13.05 9.2 14.05 8.25 M-36.35 8.1 L-36.3 8.5 -36.5 9.85 -37.0 11.5 -37.0 11.65 -37.5 11.75 Q-38.35 11.75 -40.25 10.15 L-40.05 9.75 Q-38.15 9.55 -36.55 8.0 L-36.35 8.1" fill="#185649" fill-rule="evenodd" stroke="none"/>
  </g>
</svg>
