<?xml version="1.0" encoding="UTF-8" standalone="no"?>
<svg xmlns:xlink="http://www.w3.org/1999/xlink" height="18.8px" width="72.0px" xmlns="http://www.w3.org/2000/svg">
  <g transform="matrix(1.0, 0.0, 0.0, 1.0, 36.0, 3.05)">
    <path d="M17.95 -2.6 L27.25 -2.9 Q31.15 -3.15 35.0 -3.0 36.05 -1.85 35.7 -0.45 L36.0 0.1 35.55 0.95 35.25 1.0 33.7 0.65 33.25 1.1 32.85 5.2 Q32.35 8.0 31.35 10.8 30.25 13.85 27.25 15.25 L22.25 15.05 Q19.35 13.65 18.75 10.2 17.95 5.9 18.5 1.65 L17.25 1.65 16.45 1.3 16.25 -0.4 16.5 -1.9 Q17.15 -2.6 17.95 -2.6 M-23.4 -2.75 L-16.5 -3.05 Q-14.9 -0.85 -16.05 1.5 L-16.15 1.75 -19.15 2.5 Q-18.9 7.85 -22.25 11.95 -24.15 14.25 -27.15 14.95 L-27.5 14.55 Q-32.55 13.2 -33.25 7.9 -33.65 4.8 -33.0 1.95 L-35.9 1.9 -35.75 -1.0 -36.0 -2.25 -23.4 -2.75" fill="#185649" fill-rule="evenodd" stroke="none"/>
  </g>
</svg>
